<?xml version="1.0" encoding="utf-8" ?>
<svg baseProfile="full" height="200mm" version="1.1" viewBox="0,0,200,200" width="200mm" xmlns="http://www.w3.org/2000/svg" xmlns:ev="http://www.w3.org/2001/xml-events" xmlns:xlink="http://www.w3.org/1999/xlink"><defs /><rect fill="#1a1a1a" height="200" width="200" x="0" y="0" /><text alignment-baseline="middle" fill="#e1ed5e" style="dominant-baseline: central; font-size:9.0px; font-family:Arial;" text-anchor="middle" x="100.0" y="100.0">2024</text><line stroke="#e1ed5e" stroke-width="0.3" x1="100.0" x2="100.0" y1="15.0" y2="10.0" /><path d="M 100.0 14.0 a86.0,86.0 0 0,1 42.35913384403234,11.155469271406648" fill="none" id="id25" stroke="none" /><text fill="#e1ed5e" style="font-size:6.75px; font-family:Arial;" text-anchor="middle"><textPath startOffset="22.145653131862478" xlink:href="#id25">January</textPath></text><path d="M 100.0 79.0 l 0.0 -31.54789663370878 a52.54789663370878,52.54789663370878 0 0,0 0.9020545215305223,0.007743053164985751 l -0.5415615966816676 31.54324797873823" fill="#7fff26" stroke="none" /><path d="M 100.72087961077811 79.0123766808444 l 0.2699845359432805 -7.860305185020271 a28.864940511618958,28.864940511618958 0 0,0 0.49506704733687934,0.021260309155044153 l -0.4048773438809961 7.854512307439396" fill="#ff5b08" stroke="none" /><path d="M 101.08105385017728 79.02784411241856 l 0.42226088560380665 -8.191748372811416 a29.20262431536209,29.20262431536209 0 0,0 0.5004156805922348,0.03010376470267403 l -0.5628209183285039 8.18329263028405" fill="#ff6008" stroke="none" /><path d="M 102.15924093988457 79.11130261209362 l 0.8259032910754256 -7.98986514208683 a29.032438062938514,29.032438062938514 0 0,0 0.4952990593785419,0.05549929269833995 l -0.9629382520547642 7.9745100888815195" fill="#ff5d08" stroke="none" /><path d="M 102.51750503828377 79.15144685158666 l 0.9394248884262781 -7.779785707459565 a28.836299175949502,28.836299175949502 0 0,0 0.49093411857115404,0.06356125049250043 l -1.072836828888224 7.762512860766668" fill="#ff5a08" stroke="none" /><path d="M 102.87502721639298 79.19773525538626 l 1.1578744917076937 -8.377803027464003 a29.457437963445688,29.457437963445688 0 0,0 0.5003204083181071,0.07352987054326562 l -1.301520005633483 8.356692083621855" fill="#ff6309" stroke="none" /><path d="M 104.29559338865022 79.4440306129975 l 1.7057449769423694 -8.162607201301798 a29.338928123512524,29.338928123512524 0 0,0 0.49210824481957016,0.1072527015219851 l -1.8456156383810736 8.132123041646095" fill="#ff6109" stroke="none" /><path d="M 104.64783097203109 79.52079915486377 l 2.4724978027471542 -10.894281525364898 a32.171330061299614,32.171330061299614 0 0,0 0.5375183471395948,0.12685286633836462 l -2.659148303626634 10.850232515380306" fill="#ff880c" stroke="none" /><path d="M 105.3480935250658 79.69241777938227 l 2.0447943600662057 -7.76441724451499 a29.02915681263483,29.02915681263483 0 0,0 0.48080384069608406,0.1310452248214283 l -2.1777796016969826 7.72817152554942" fill="#ff5d08" stroke="none" /><path d="M 105.69591212413111 79.78721728523813 l 2.260669316784137 -8.022317882415969 a29.334759142673548,29.334759142673548 0 0,0 0.48352062697303033,0.1407458076067277 l -2.398049956138772 7.9823283805067256" fill="#ff6109" stroke="none" /><path d="M 106.72888874123014 80.10723608172694 l 4.852479077998081 -14.345492165074532 a36.143965750774264,36.143965750774264 0 0,0 0.5860386530257706,0.2038546646051851 l -5.09802350306887 14.260079067900756" fill="#ffbd11" stroke="none" /><path d="M 107.06938296918511 80.22567764915836 l 7.5929760415536 -21.23890536166634 a43.555362691152325,43.555362691152325 0 0,0 0.701886058967864,0.2577422829879376 l -7.956451252175588 21.10543222966968" fill="#e5ff1a" stroke="none" /><path d="M 108.07796709384702 80.6158196554323 l 5.815712940952312 -13.955593922327838 a36.11889938905851,36.11889938905851 0 0,0 0.5702742933742851,0.243416185235873 l -6.054422309497027 13.853703087432564" fill="#ffbc11" stroke="none" /><path d="M 109.06512990194946 81.05736502329252 l 14.197310865608419 -29.66691931466187 a53.889051938865315,53.889051938865315 0 0,0 0.8310198641612221,0.40649345849770135 l -14.704490979031707 29.418832106066947" fill="#71ff27" stroke="none" /><path d="M 109.3889696526874 81.21577127319529 l 3.4866931737462314 -6.975721990654358 a28.79857208588517,28.79857208588517 0 0,0 0.4403065500141394,0.2248236617455982 l -3.6059269454739495 6.914840377235925" fill="#ff5a08" stroke="none" /><path d="M 110.34350942703115 81.72400993836675 l 7.776360584570861 -13.740084036457043 a36.788023729085566,36.788023729085566 0 0,0 0.5469284809881403,0.31576930572597595 l -8.011081533419398 13.604567833454896" fill="#ffc512" stroke="none" /><line stroke="#e1ed5e" stroke-width="0.3" x1="143.13028292997686" x2="145.6673583964461" y1="26.7553504044142" y2="22.446841604673864" /><path d="M 143.63769802327073 25.89364864446614 a86.0,86.0 0 0,1 29.32050498858742,28.57503671076993" fill="none" id="id26" stroke="none" /><text fill="#e1ed5e" style="font-size:6.75px; font-family:Arial;" text-anchor="middle"><textPath startOffset="20.669276256404974" xlink:href="#id26">February</textPath></text><path d="M 110.96478420261332 82.08984904055464 l 8.30330097752197 -13.562818129488095 a36.902667786786225,36.902667786786225 0 0,0 0.537436169169313,0.33539991816886316 l -8.534901275480994 13.418282414477687" fill="#ffc612" stroke="none" /><path d="M 111.8722381534696 82.67804972795209 l 9.078316438008486 -13.245534991828091 a37.058020630462444,37.058020630462444 0 0,0 0.5216444195118449,0.36414831776649964 l -9.304355948694091 13.087741858256464" fill="#ffc812" stroke="none" /><path d="M 112.16784306229584 82.88440491214696 l 9.008263913354027 -12.6712513299292 a36.54700707528201,36.54700707528201 0 0,0 0.5082104799990143,0.367905195444638 l -9.224455403727008 12.514745363111489" fill="#ffc212" stroke="none" /><path d="M 113.03279911837588 83.53348406188908 l 5.761963915408053 -7.280053178607605 a30.28436333012766,30.28436333012766 0 0,0 0.40487198453403656,0.3261362113566053 l -5.88608667029735 7.180068673457591" fill="#ff6e0a" stroke="none" /><path d="M 113.31354834802062 83.75963576809568 l 10.457600789030408 -12.756572580513748 a37.495198036539136,37.495198036539136 0 0,0 0.4942682458188876,0.4123361499214419 l -10.67504336901119 12.575174246680435" fill="#ffce13" stroke="none" /><path d="M 113.86319453409587 84.22622945171908 l 15.795741519101343 -17.972654264460157 a44.92742676194162,44.92742676194162 0 0,0 0.5749319440840542,0.5141076896062534 l -16.101938490008774 17.698851044970517" fill="#d5ff1c" stroke="none" /><path d="M 114.39649973595853 84.71141617570332 l 22.134432521806275 -23.5060002930874 a53.287228943361185,53.287228943361185 0 0,0 0.6605777069500576,0.6328185003858894 l -22.534682714621646 23.12256966239593" fill="#77ff27" stroke="none" /><path d="M 114.91283532996326 85.21462403516908 l 18.751428455856992 -18.591160799611522 a47.40544127660311,47.40544127660311 0 0,0 0.5679921296411168,0.5828099623873398 l -19.067807386648923 18.26652814515644" fill="#b8ff1f" stroke="none" /><path d="M 115.41159269507618 85.73525988315684 l 20.439100374686845 -18.91812616875924 a48.8505353963549,48.8505353963549 0 0,0 0.5643453429648068,0.6203143906713223 l -20.76084341849353 18.564474202530246" fill="#a8ff21" stroke="none" /><path d="M 116.35404254752997 86.82634096563983 l 13.149319372686888 -10.59216089515719 a37.88485926485074,37.88485926485074 0 0,0 0.40362451371272606,0.5099663877034537 l -13.329210317041174 10.36487456353906" fill="#ffd313" stroke="none" /><path d="M 117.42321728460499 88.27688183743584 l 12.520554838681145 -8.42438807007343 a36.09087829861527,36.09087829861527 0 0,0 0.3414464521819639,0.5169934476495082 l -12.663325729783834 8.208214744084863" fill="#ffbc11" stroke="none" /><line stroke="#e1ed5e" stroke-width="0.3" x1="172.87174338648825" x2="177.1583165268699" y1="56.24261187166439" y2="53.66864786411523" /><path d="M 173.72905801456457 55.72781907015455 a86.0,86.0 0 0,1 12.242430191666344,42.057860355516425" fill="none" id="id27" stroke="none" /><text fill="#e1ed5e" style="font-size:6.75px; font-family:Arial;" text-anchor="middle"><textPath startOffset="22.145653131862474" xlink:href="#id27">March</textPath></text><path d="M 118.00360718960297 89.18935116829356 l 12.90997621095452 -7.75206978093323 a36.05862117379509,36.05862117379509 0 0,0 0.31409856138850173,0.5334080257421272 l -13.041148482472789 7.529310586897546" fill="#ffbb11" stroke="none" /><path d="M 118.36410011445183 89.81374322990088 l 39.2001067753241 -21.743638432602427 a65.82671283380654,65.82671283380654 0 0,0 0.5396368920892995,0.9928711008744533 l -39.567589017028745 21.06751249825337" fill="#36ff71" stroke="none" /><path d="M 119.0197475246899 91.09779779509293 l 15.007578166735222 -7.024304359077123 a37.57010121150796,37.57010121150796 0 0,0 0.26838565898544037,0.5864711007829405 l -15.125948290575712 6.765644276079498" fill="#ffcf13" stroke="none" /><path d="M 119.4528033332814 92.08871423366111 l 29.2108746808698 -11.879808433044591 a52.53418855825083,52.53418855825083 0 0,0 0.3325697445958729,0.8382930070181243 l -29.410503100431796 11.376614408812902" fill="#7fff26" stroke="none" /><path d="M 119.94978838288452 93.4421083053983 l 14.941570872372132 -4.911591123056521 a36.7281361735651,36.7281361735651 0 0,0 0.19174760230287674,0.6006466331810374 l -15.023683190452267 4.654375456184097" fill="#ffc412" stroke="none" /><path d="M 120.16314734710363 94.1308016681162 l 25.306258228604786 -7.3662829529876594 a47.35657090890816,47.35657090890816 0 0,0 0.22050461493571527,0.782493088405534 l -25.42898133561508 6.930781940679112" fill="#b9ff1f" stroke="none" /><path d="M 120.26092885502905 94.47779374421319 l 17.564895378701 -4.787390343085257 a39.20562154835088,39.20562154835088 0 0,0 0.17140421284415946,0.6508497147589059 l -17.64448907234989 4.485160123953553" fill="#ffe415" stroke="none" /><path d="M 120.51834098615036 95.52812308129327 l 8.243209787213685 -1.7965692064665528 a29.436715504841878,29.436715504841878 0 0,0 0.10336813272089976,0.4946539347547885 l -8.272835630758951 1.65479882042636" fill="#ff6309" stroke="none" /><path d="M 120.7213421655516 96.59031103205396 l 31.121915758847745 -5.1210993948405 a52.54043911413808,52.54043911413808 0 0,0 0.1388031030691766,0.8912154923317878 l -31.20524035405519 4.586095720577271" fill="#7fff26" stroke="none" /><path d="M 120.96210409425399 98.7389718711861 l 15.026119927076046 -0.9039340616655053 a36.05328458678407,36.05328458678407 0 0,0 0.03186150746669331,0.6181047329837251 l -15.039423023999312 0.6458575353050494" fill="#ffbb11" stroke="none" /><path d="M 120.98066250479742 99.09900007780936 l 9.194575509607528 -0.3948546342060495 a30.203049982697504,30.203049982697504 0 0,0 0.017798676056462962,0.5181890333248893 l -9.199998872660839 0.2369593363170402" fill="#ff6d0a" stroke="none" /><line stroke="#e1ed5e" stroke-width="0.3" x1="184.99686870605535" x2="189.99668451229388" y1="99.2704041080226" y2="99.22748670261217" /><path d="M 185.99683186730306 99.26182062694052 a86.0,86.0 0 0,1 -10.086455211305974,41.156179273409016" fill="none" id="id28" stroke="none" /><text fill="#e1ed5e" style="font-size:6.75px; font-family:Arial;" text-anchor="middle"><textPath startOffset="21.40746469413373" xlink:href="#id28">April</textPath></text><path d="M 120.99922638620191 100.18025310272382 l 5.643174561552911 0.04843986655624866 a26.643382456721312,26.643382456721312 0 0,0 -0.007851637846488537,0.4573185416924165 l -5.641511492107754 -0.14530532421773618" fill="#ff3c05" stroke="none" /><path d="M 120.93736805541906 101.62068470465957 l 31.383461395713667 2.429278394909947 a52.47734173490872,52.47734173490872 0 0,0 -0.07723259635612774,0.8975598400406771 l -31.3371351766598 -2.9676592823262813" fill="#80ff26" stroke="none" /><path d="M 120.77682067341334 103.0534771498775 l 7.897071044199156 1.1605974929204486 a28.981899374065172,28.981899374065172 0 0,0 -0.07656535867961972,0.49160452700550045 l -7.875984193381269 -1.2959902018573997" fill="#ff5c08" stroke="none" /><path d="M 120.51834098615036 104.47187691870673 l 61.555022958451104 13.415630756120176 a84.0,84.0 0 0,0 -0.3191565537693437,1.4062626642439322 l -61.315655543124095 -14.470327754303124" fill="#4dd2ff" stroke="none" /><path d="M 119.83427380445688 106.89939002012753 l 7.07220847160109 2.4600812225482955 a28.487865669689924,28.487865669689924 0 0,0 -0.16463250159450268,0.4605064077226543 l -7.028935799962643 -2.581122586651871" fill="#ff5607" stroke="none" /><path d="M 118.70294669586154 109.54985784667822 l 7.197482371245228 3.6750857828501218 a29.0814607587795,29.0814607587795 0 0,0 -0.23084023099572346,0.4426665803596591 l -7.133334071274556 -3.798098606314284" fill="#ff5e08" stroke="none" /><line stroke="#e1ed5e" stroke-width="0.3" x1="174.33088141563837" x2="178.70328620479359" y1="141.23008692659167" y2="143.65538615756765" /><path d="M 175.20536237346943 141.71514677278685 a86.0,86.0 0 0,1 -30.301960400862466,31.631185727798858" fill="none" id="id29" stroke="none" /><text fill="#e1ed5e" style="font-size:6.75px; font-family:Arial;" text-anchor="middle"><textPath startOffset="22.145653131862474" xlink:href="#id29">May</textPath></text><path d="M 118.18653347947321 110.5 l 6.516812310789875 3.7624833418928 a28.524966683785603,28.524966683785603 0 0,0 -0.2484745868636643,0.421964170227782 l -6.451264013796446 -3.8737986804141316" fill="#ff5608" stroke="none" /><path d="M 117.81537515405839 111.11811171558189 l 3.8400147895054255 2.396453234917271 a25.52644470757855,25.52644470757855 0 0,0 -0.23518644983839918,0.3697521625769705 l -3.798310648041136 -2.4620190721729136" fill="#ff2c04" stroke="none" /><path d="M 116.79662413953412 112.60449989151573 l 6.4236687496039675 4.8204407852971105 a29.03119975901449,29.03119975901449 0 0,0 -0.30254384106154836,0.39603959973733976 l -6.339972931188115 -4.930001298275327" fill="#ff5d08" stroke="none" /><path d="M 116.1254893667686 113.45245675266167 l 6.407668585206796 5.345505030409922 a29.34461747044068,29.34461747044068 0 0,0 -0.32601232322180557,0.3840416970089602 l -6.314961698477876 -5.454713509868438" fill="#ff6209" stroke="none" /><path d="M 115.41159269507618 114.26474011684316 l 2.2453582958228666 2.0782701173606832 a24.059549077451603,24.059549077451603 0 0,0 -0.2831512951156339,0.3006968631076985 l -2.2093511669709724 -2.116508440412879" fill="#ff1702" stroke="none" /><path d="M 114.91283532996324 114.78537596483092 l 3.32760939556526 3.299168460519532 a25.685882715171285,25.685882715171285 0 0,0 -0.3131330244608536,0.3104566899063128 l -3.2704844509744415 -3.3558051606545067" fill="#ff2e04" stroke="none" /><path d="M 114.13192950727249 115.5334660781643 l 3.6779884149406654 4.04275355675679 a26.465478487846003,26.465478487846003 0 0,0 -0.3386761738827507,0.3028463230668788 l -3.608047214234537 -4.105295409707056" fill="#ff3905" stroke="none" /><path d="M 113.59037401385872 116.0094264158162 l 4.91626146444701 5.791343643354961 a28.596662950416754,28.596662950416754 0 0,0 -0.3769662029522374,0.3144786137703609 l -4.816120927332878 -5.874884441037191" fill="#ff5708" stroke="none" /><path d="M 112.7482090630111 116.68781488649013 l 5.5658148432692105 7.285830294896124 a30.16851230874355,30.16851230874355 0 0,0 -0.41423811205880756,0.31085200187445094 l -5.439923742299636 -7.3803013240345905" fill="#ff6d0a" stroke="none" /><path d="M 112.16784306229584 117.11559508785304 l 4.3503653697677285 6.119333703759446 a28.508123855427574,28.508123855427574 0 0,0 -0.40129244538527953,0.2801332928208167 l -4.24467783320869 -6.193111812385386" fill="#ff5607" stroke="none" /><path d="M 111.27062007382361 117.71928675628689 l 5.056356172711604 7.949431741939883 a30.42126333169178,30.42126333169178 0 0,0 -0.4430435035412122,0.2764919135655617 l -4.919148540380677 -8.035059452346992" fill="#ff700a" stroke="none" /><line stroke="#e1ed5e" stroke-width="0.3" x1="143.1302829299769" x2="145.66735839644613" y1="173.24464959558577" y2="177.55315839532614" /><path d="M 143.63769802327073 174.10635135553383 a86.0,86.0 0 0,1 -40.68552437913181,11.842963189579606" fill="none" id="id30" stroke="none" /><text fill="#e1ed5e" style="font-size:6.75px; font-family:Arial;" text-anchor="middle"><textPath startOffset="21.407464694133747" xlink:href="#id30">June</textPath></text><path d="M 109.71004243097381 118.62028667847754 l 3.4741544779466436 6.662149295901205 a28.513586532243682,28.513586532243682 0 0,0 -0.43594935461036477,0.22259884672618377 l -3.3592779016226966 -6.720806094300226" fill="#ff5608" stroke="none" /><path d="M 109.06512990194946 118.94263497670748 l 3.2273140284683075 6.743845069813686 a28.476296019018957,28.476296019018957 0 0,0 -0.44275390654026603,0.20723118421616618 l -3.111071408056535 -6.798252485600385" fill="#ff5507" stroke="none" /><path d="M 108.07796709384702 119.3841803445677 l 5.816748592232521 13.958079108384728 a36.12159173437655,36.12159173437655 0 0,0 -0.5744116387807283,0.23360821286516548 l -5.576282492261352 -14.055874577829185" fill="#ffbc11" stroke="none" /><path d="M 103.58742460773223 120.69131181640829 l 2.5576083236924756 14.751605153094918 a35.971680431075114,35.971680431075114 0 0,0 -0.6093302848723322,0.10026506649837161 l -2.304000535767071 -14.793336218088958" fill="#ffba11" stroke="none" /><path d="M 102.875027216393 120.80226474461374 l 2.059631978459848 14.90247099161297 a36.0441259481088,36.0441259481088 0 0,0 -0.6136464008100514,0.07944881221380436 l -1.803507755759021 -14.93563140002717" fill="#ffbb11" stroke="none" /><path d="M 101.08105385017728 120.97215588758144 l 0.7855360296577388 15.239189117722741 a36.259421739358594,36.259421739358594 0 0,0 -0.6218909355251061,0.026706672603450846 l -0.5238193335318032 -15.250428358752023" fill="#ffbe11" stroke="none" /><line stroke="#e1ed5e" stroke-width="0.3" x1="101.45913802915013" x2="101.54496967792366" y1="184.9874750549273" y2="189.98673829345242" /><path d="M 101.47630435890484 185.9873277026323 a86.0,86.0 0 0,1 -42.54439059252881,-10.42667462771756" fill="none" id="id31" stroke="none" /><text fill="#e1ed5e" style="font-size:6.75px; font-family:Arial;" text-anchor="middle"><textPath startOffset="22.145653131862474" xlink:href="#id31">July</textPath></text><path d="M 100.0 121.0 l 1.832396865403627e-15 14.962655899475777 a35.96265589947578,35.96265589947578 0 0,0 -0.6173468100254691,-0.0052991798801153255 l 0.2568538851766151 -14.960451117790097" fill="#ffba11" stroke="none" /><path d="M 99.27912038922189 120.98762331915562 l -0.5133092737179651 14.944439434753386 a35.953252369618355,35.953252369618355 0 0,0 -0.6166397774358754,-0.026481165280761332 l 0.7697748117546792 -14.933425701046795" fill="#ffba11" stroke="none" /><path d="M 98.55909050195518 120.95050786540614 l -1.0269050604563368 14.930974204353971 a35.96624617912837,35.96624617912837 0 0,0 -0.6155897151583539,-0.0476505372147129 l 1.2830637703899268 -14.911145900144204" fill="#ffba11" stroke="none" /><path d="M 98.19965949673042 120.92268563240118 l -0.6807663126151948 7.911536468856439 a28.940771503477297,28.940771503477297 0 0,0 -0.4946121680272624,-0.04684028655851422 l 0.8164780440274725 -7.898684426792741" fill="#ff5c08" stroke="none" /><path d="M 97.12497278360702 120.80226474461374 l -0.20838244155239652 1.5077515414759959 a22.522083425036413,22.522083425036413 0 0,0 -0.3825267489104654,-0.05621825905778281 l 0.2342342960705468 -1.5039522091193305" fill="#ff0000" stroke="none" /><path d="M 96.05791012581884 120.62667999033965 l -3.116110636286518 16.304807592071082 a37.59990650913543,37.59990650913543 0 0,0 -0.6329380521279419,-0.1266053368895699 l 3.395545173945418 -16.24891285851865" fill="#ffcf13" stroke="none" /><path d="M 95.35216902796893 120.47920084513623 l -3.361695758822235 14.812251787865343 a36.18893680946772,36.18893680946772 0 0,0 -0.6046444912752967,-0.14269445357937693 l 3.61547240383742 -14.752361190639737" fill="#ffbd11" stroke="none" /><path d="M 93.95794788825049 120.11202640906438 l -2.152476021518658 7.164892620750016 a28.481232471330564,28.481232471330564 0 0,0 -0.4670371042315843,-0.14468928873874337 l 2.275153758621876 -7.126886744204623" fill="#ff5607" stroke="none" /><path d="M 93.27111125876986 119.89276391827306 l -4.831353212692819 14.2830372981198 a36.07803463072288,36.07803463072288 0 0,0 -0.5849696451295693,-0.20348280816702347 l 5.07582862986741 -14.197996057384184" fill="#ffbc11" stroke="none" /><path d="M 91.92203290615298 119.3841803445677 l -5.756681378701172 13.813939662610785 a35.96543716361591,35.96543716361591 0 0,0 -0.5678513080769948,-0.2423819568920684 l 5.992967761948598 -13.713083056059313" fill="#ffba11" stroke="none" /><path d="M 90.93487009805054 118.94263497670748 l -6.465313237489145 13.510018057379904 a35.97734499734794,35.97734499734794 0 0,0 -0.5548044969596996,-0.27138268107087565 l 6.696277983710914 -13.397041626211807" fill="#ffba11" stroke="none" /><path d="M 89.97174638481275 118.45085714620012 l -7.1571139791243406 13.16828359904112 a35.98759398485802,35.98759398485802 0 0,0 -0.5402522932383321,-0.2996688400336995 l 7.382110460518776 -13.043481843574272" fill="#ffbb11" stroke="none" /><line stroke="#e1ed5e" stroke-width="0.3" x1="58.13341422392154" x2="55.67067388415222" y1="173.97424548756322" y2="178.32567169271397" /><path d="M 57.64086615596768 174.84453072859336 a86.0,86.0 0 0,1 -31.369924170532247,-30.572349798747897" fill="none" id="id32" stroke="none" /><text fill="#e1ed5e" style="font-size:6.75px; font-family:Arial;" text-anchor="middle"><textPath startOffset="22.145653131862474" xlink:href="#id32">August</textPath></text><path d="M 89.03521579738668 117.91015095944536 l -7.873170774765718 12.860232768825439 a36.078872799947504,36.078872799947504 0 0,0 -0.5254387378598613,-0.3279126337055781 l 8.092773641415292 -12.723184338278314" fill="#ffbc11" stroke="none" /><path d="M 87.2517909369889 116.68781488649013 l -9.152305101141552 11.980661170334969 a36.07650260314884,36.07650260314884 0 0,0 -0.48890542253321223,-0.380175813679836 l 9.356620468309993 -11.821784305034338" fill="#ffbc11" stroke="none" /><path d="M 86.96720088162412 116.46651593811092 l -4.827807845274933 6.099777500465563 a28.77913967904447,28.77913967904447 0 0,0 -0.3847486330823834,-0.30992626388446026 l 4.931807248712578 -6.016002942787692" fill="#ff5a08" stroke="none" /><path d="M 86.68645165197938 116.24036423190432 l -4.829439652104504 5.891131119664224 a28.61767111539974,28.61767111539974 0 0,0 -0.37724313625030975,-0.3147096413770843 l 4.929857122516707 -5.80735929437527" fill="#ff5708" stroke="none" /><path d="M 84.83555147118756 114.52719865689866 l -5.615510629609589 5.37953215517644 a28.7764597240541,28.7764597240541 0 0,0 -0.3386635307868403,-0.3596489336734009 l 5.707029994132681 -5.282341761558549" fill="#ff5a08" stroke="none" /><path d="M 83.20337586046588 112.60449989151573 l -12.351216541718673 9.268583154977852 a36.44212368041275,36.44212368041275 0 0,0 -0.3711855551103122,-0.5035844937570921 l 12.508504116412816 -9.05519235195188" fill="#ffc011" stroke="none" /><path d="M 82.98947788004972 112.3143062007846 l -6.632778245516979 4.801619944481615 a29.188363777058694,29.188363777058694 0 0,0 -0.2903337376972653,-0.4083907615612972 l 6.7142270817442045 -4.687051956210814" fill="#ff5f08" stroke="none" /><path d="M 82.576782715395 111.72311816256416 l -12.54823093689044 8.443009784093661 a36.12423597606952,36.12423597606952 0 0,0 -0.341762040528842,-0.5174712886299858 l 12.691317416340008 -8.226358617124614" fill="#ffbc11" stroke="none" /><path d="M 82.18462484594161 111.11811171558189 l -13.17895664765431 8.224643659555635 a36.534788754515475,36.534788754515475 0 0,0 -0.3274770312121066,-0.5349091196306396 l 13.318201643321823 -7.997197423800439" fill="#ffc212" stroke="none" /><line stroke="#e1ed5e" stroke-width="0.3" x1="26.387840678322732" x2="22.057713659400548" y1="142.50000000000003" y2="145.00000000000006" /><path d="M 25.521815274538298 143.00000000000003 a86.0,86.0 0 0,1 -11.493303480769221,-40.785679425670985" fill="none" id="id33" stroke="none" /><text fill="#e1ed5e" style="font-size:6.75px; font-family:Arial;" text-anchor="middle"><textPath startOffset="21.40746469413373" xlink:href="#id33">September</textPath></text><path d="M 81.4637452351635 109.86951160357371 l -7.965071123407756 4.240951738799443 a30.023748093324087,30.023748093324087 0 0,0 -0.23831983553742275,-0.4570097082911935 l 8.036699027920129 -4.103595787403746" fill="#ff6b09" stroke="none" /><path d="M 81.1358732173502 109.22738970284198 l -8.077034548264432 3.95088234291887 a29.99154927592822,29.99154927592822 0 0,0 -0.22225272158341974,-0.46442270801096286 l 8.143666527807765 -3.8116471328428028" fill="#ff6a09" stroke="none" /><path d="M 80.83023694016515 108.57439118712176 l -13.772571994886718 6.160296273269334 a36.08751104486071,36.08751104486071 0 0,0 -0.24808637510553963,-0.567670176452403 l 13.876292252009225 -5.922964027041082" fill="#ffbc11" stroke="none" /><path d="M 80.68587082218212 108.24405325689762 l -8.286086490582084 3.5368376016700327 a30.00935344794475,30.00935344794475 0 0,0 -0.19816770216189736,-0.4755303447696289 l 8.345580037280468 -3.394074747459123" fill="#ff6b09" stroke="none" /><path d="M 80.41425534168474 107.57618678355246 l -8.433450669030146 3.2622398899355343 a30.042416672906178,30.042416672906178 0 0,0 -0.1819273135645365,-0.4825838134950255 l 8.488208666409118 -3.116987796246364" fill="#ff6b09" stroke="none" /><path d="M 80.16572619554312 106.89939002012753 l -8.491375785625548 2.9537412828965275 a29.99044216370892,29.99044216370892 0 0,0 -0.16496825159043504,-0.48769932288981416 l 8.540829458788352 -2.8075402855325517" fill="#ff6a09" stroke="none" /><path d="M 79.83685265289637 105.86919833188381 l -8.194469048646539 2.3852905125894655 a29.534572855080413,29.534572855080413 0 0,0 -0.13752071760490886,-0.48801251198202766 l 8.234208258326023 -2.244270076704442" fill="#ff6409" stroke="none" /><path d="M 79.64726062577567 105.17358676015961 l -7.398966111418002 1.8807882520905441 a28.63426905257562,28.63426905257562 0 0,0 -0.11700845018092676,-0.47743440596970965 l 7.430162088115222 -1.753498021512735" fill="#ff5808" stroke="none" /><path d="M 79.34024301695615 103.76489593502545 l -7.474375923150262 1.362080277760101 a28.597470508243607,28.597470508243607 0 0,0 -0.08386573526241091,-0.4837152745417147 l 7.496656475904907 -1.2335719702977939" fill="#ff5708" stroke="none" /><path d="M 79.2786578344484 103.40968896794605 l -7.4499074528737 1.2258794363480983 a28.550092810611286,28.550092810611286 0 0,0 -0.07542459754508048,-0.4842800221949374 l 7.469853542557048 -1.0978112322217108" fill="#ff5608" stroke="none" /><path d="M 79.17382384314188 102.69636545807758 l -7.8545608850147985 1.016930160352406 a28.920118284939868,28.920118284939868 0 0,0 -0.059517484638043926,-0.4928901523001522 l 7.870860455912504 -0.8819463311288543" fill="#ff5c08" stroke="none" /><path d="M 79.0935383218832 101.97986365728391 l -8.963739876025189 0.8488754858247959 a30.00384485403199,30.00384485403199 0 0,0 -0.04415762617034099,-0.5131785509225878 l 8.976991124893269 -0.6948758875265462" fill="#ff6b09" stroke="none" /><path d="M 79.03789590574601 101.26102812881392 l -7.545678661618361 0.4539292907098955 a28.55931996051014,28.55931996051014 0 0,0 -0.02523883736515457,-0.48962670227440963 l 7.552359088440088 -0.3243307950587552" fill="#ff5708" stroke="none" /><line stroke="#e1ed5e" stroke-width="0.3" x1="15.003131293944662" x2="10.003315487706104" y1="100.72959589197737" y2="100.7725132973878" /><path d="M 14.003168132696942 100.73817937305945 a86.0,86.0 0 0,1 10.791469493833604,-42.45332614584628" fill="none" id="id34" stroke="none" /><text fill="#e1ed5e" style="font-size:6.75px; font-family:Arial;" text-anchor="middle"><textPath startOffset="22.145653131862435" xlink:href="#id34">October</textPath></text><path d="M 79.00077361379809 99.81974689727619 l -14.972401405704662 -0.12852005873787745 a35.972952990610935,35.972952990610935 0 0,0 0.010601003818112725,-0.6174553260555243 l 14.967988970287884 0.3855223007624542" fill="#ffba11" stroke="none" /><path d="M 79.01933749520258 99.09900007780938 l -14.971333148281875 -0.6429334630690254 a35.98513195386606,35.98513195386606 0 0,0 0.03180127867901597,-0.6169363105929891 l 14.958090280146289 0.8998415670387266" fill="#ffba11" stroke="none" /><path d="M 79.0935383218832 98.0201363427161 l -31.753920644409718 -3.0071292994524046 a52.895991956907295,52.895991956907295 0 0,0 0.09336799376912912,-0.9032506431003037 l 31.697620258158928 3.551784464835621" fill="#7bff26" stroke="none" /><path d="M 79.17382384314186 97.30363454192245 l -7.732122664568872 -1.0010780814171003 a28.79665814468182,28.79665814468182 0 0,0 0.06767966592024675,-0.48969634801103074 l 7.713798482093417 1.133662737628198" fill="#ff5a08" stroke="none" /><path d="M 79.407916724674 95.88100663000787 l -31.060595633094536 -6.212989029333532 a52.675887260836596,52.675887260836596 0 0,0 0.18497335766531736,-0.8851644775377966 l 30.949364564604853 6.7452699581567375" fill="#7eff26" stroke="none" /><path d="M 79.73907114497095 94.47779374421319 l -8.035529091164822 -2.1901191862076486 a29.328646338076254,29.328646338076254 0 0,0 0.13656186973087542,-0.48460989914111285 l 7.996748729359364 2.3277370092517744" fill="#ff6109" stroke="none" /><path d="M 79.94057633289273 93.78553927170692 l -7.165660417260073 -2.2199399142442355 a28.50165464669912,28.50165464669912 0 0,0 0.148799381333777,-0.4661119427004817 l 7.126496320149038 2.342620890636109" fill="#ff5607" stroke="none" /><path d="M 80.05021161711548 93.44210830539832 l -28.87468195353053 -9.491681482184426 a51.39472446456431,51.39472446456431 0 0,0 0.28270666332993366,-0.8357720164528835 l 28.707489868628233 9.98595517311147" fill="#8cff24" stroke="none" /><path d="M 80.5471966667186 92.08871423366112 l -7.2051893127376445 -2.9302877676306025 a28.778260694622823,28.778260694622823 0 0,0 0.19003814273980354,-0.45602236161879756 l 7.153825325461363 3.053542638690664" fill="#ff5a08" stroke="none" /><line stroke="#e1ed5e" stroke-width="0.3" x1="26.387840678322718" x2="22.05771365940052" y1="57.49999999999999" y2="54.99999999999999" /><path d="M 25.521815274538284 56.99999999999999 a86.0,86.0 0 0,1 29.574782752854787,-30.34633250058573" fill="none" id="id35" stroke="none" /><text fill="#e1ed5e" style="font-size:6.75px; font-family:Arial;" text-anchor="middle"><textPath startOffset="21.40746469413373" xlink:href="#id35">November</textPath></text><path d="M 82.18462484594161 88.88188828441811 l -31.76525559565308 -19.823868839833594 a58.443520652258314,58.443520652258314 0 0,0 0.5384660612051864,-0.8465580850500763 l 31.420271842822004 20.366240599562342" fill="#42ff2d" stroke="none" /><path d="M 83.64595745247003 86.82634096563983 l -29.32160995712089 -23.619413413593648 a58.651474081100446,58.651474081100446 0 0,0 0.6383324265513601,-0.7786617689919423 l 28.911830711330904 24.11927746428408" fill="#40ff2d" stroke="none" /><path d="M 85.34317274990677 84.96080404539775 l -43.73809923030997 -44.87914292653517 a83.66704711489774,83.66704711489774 0 0,0 1.0371825900196245,-0.9935974592194275 l 42.961244154425046 45.62335251606016" fill="#4dd5ff" stroke="none" /><line stroke="#e1ed5e" stroke-width="0.3" x1="56.869717070023135" x2="54.33264160355391" y1="26.7553504044142" y2="22.446841604673864" /><path d="M 56.362301976729285 25.89364864446614 a86.0,86.0 0 0,1 42.16139366436587,-11.88097634709845" fill="none" id="id36" stroke="none" /><text fill="#e1ed5e" style="font-size:6.75px; font-family:Arial;" text-anchor="middle"><textPath startOffset="22.145653131862474" xlink:href="#id36">December</textPath></text><path d="M 91.26138138417902 80.90454125486306 l -3.2373338557413276 -7.074158720535479 a28.77972056675927,28.77972056675927 0 0,0 0.4510009670514748,-0.20172699606141603 l 3.115419485834234 7.1286894675067405" fill="#ff5a08" stroke="none" /><path d="M 92.93061703081487 80.22567764915836 l -2.6186157179176712 -7.3247342158142255 a28.778745375087496,28.778745375087496 0 0,0 0.46661888990494377,-0.16231427194928216 l 2.492491055967723 7.368606920332093" fill="#ff5a08" stroke="none" /><path d="M 93.95794788825049 79.88797359093562 l -9.112746940788638 -30.333370805567803 a52.67263079118825,52.67263079118825 0 0,0 0.8681954176137703,-0.2527190328517823 l 8.590691510793242 30.485333532722105" fill="#7eff26" stroke="none" /><path d="M 95.00130118170881 79.60360301121753 l -4.670273107479213 -19.056308013120987 a40.62025295426597,40.62025295426597 0 0,0 0.6786828889811202,-0.16016731384184543 l 4.342458064758187 19.133671470609062" fill="#fff517" stroke="none" /><path d="M 96.41257539226777 79.30868818359171 l -5.3850056250773495 -31.059281435888767 a52.52264660360642,52.52264660360642 0 0,0 0.8896898569569485,-0.14639812739557032 l 4.851038265067328 31.147145561780004" fill="#7fff26" stroke="none" /><path d="M 98.5590905019552 79.04949213459386 l -0.5336094521087947 -7.758564322485093 a28.776892656679685,28.776892656679685 0 0,0 0.49312035002778276,-0.02966489573181905 l 0.40034474994852826 7.766581196041606" fill="#ff5a08" stroke="none" /><path d="M 98.9189461498227 79.02784411241856 l -0.7829961561950193 -15.189916251078463 a36.21008345458347,36.21008345458347 0 0,0 0.6210447269921633,-0.026670332768038384 l 0.5221256686020359 15.20111915227233" fill="#ffbd11" stroke="none" /></svg>