<?xml version="1.0" encoding="utf-8" ?>
<svg baseProfile="full" height="200mm" version="1.1" viewBox="0,0,200,200" width="200mm" xmlns="http://www.w3.org/2000/svg" xmlns:ev="http://www.w3.org/2001/xml-events" xmlns:xlink="http://www.w3.org/1999/xlink"><defs /><rect fill="#1a1a1a" height="200" width="200" x="0" y="0" /><text alignment-baseline="middle" fill="#e1ed5e" style="dominant-baseline: central; font-size:9.0px; font-family:Arial;" text-anchor="middle" x="100.0" y="100.0">2024</text><line stroke="#e1ed5e" stroke-width="0.3" x1="100.0" x2="100.0" y1="15.0" y2="10.0" /><path d="M 100.0 14.0 a86.0,86.0 0 0,1 42.35913384403234,11.155469271406648" fill="none" id="id25" stroke="none" /><text fill="#e1ed5e" style="font-size:6.75px; font-family:Arial;" text-anchor="middle"><textPath startOffset="22.145653131862478" xlink:href="#id25">January</textPath></text><path d="M 100.0 79.0 l 0.0 -60.43098252015622 a81.43098252015622,81.43098252015622 0 0,0 1.3978710981908136,0.011999042156258676 l -1.0373781733419587 60.42207787619439" fill="#49f1ff" stroke="none" /><path d="M 100.72087961077811 79.0123766808444 l 0.5171638047604035 -15.056659900391544 a36.065539013158904,36.065539013158904 0 0,0 0.618565622980256,0.026563869374836225 l -0.7755551883414957 15.045563462590877" fill="#ff0200" stroke="none" /><path d="M 101.08105385017728 79.02784411241856 l 0.8088538391939757 -15.6915483933229 a36.71238159901844,36.71238159901844 0 0,0 0.6291027554797642,0.03784525956971096 l -1.0781009468062024 15.6753511559285" fill="#ff0f01" stroke="none" /><path d="M 102.15924093988457 79.11130261209362 l 1.5820434084937693 -15.304834863090802 a36.386384615394164,36.386384615394164 0 0,0 0.620758822773373,0.06955732087075497 l -1.844538132867939 15.275421781713076" fill="#ff0801" stroke="none" /><path d="M 102.51750503828377 79.15144685158666 l 1.7994976848259725 -14.902422260142528 a36.01067557231471,36.01067557231471 0 0,0 0.6130769126570484,0.07937508057084772 l -2.0550524193738124 14.869335583371283" fill="#ff0100" stroke="none" /><path d="M 102.87502721639298 79.19773525538626 l 2.217944587242394 -16.04794216542568 a37.20048536115277,37.20048536115277 0 0,0 0.6318323422634351,0.09285759597106023 l -2.493102035113511 16.00750349615574" fill="#ff1802" stroke="none" /><path d="M 104.29559338865022 79.4440306129975 l 3.267407583263079 -15.635728100773655 a36.973476314080415,36.973476314080415 0 0,0 0.6201641879076842,0.13516189830283049 l -3.5353341877898976 15.577334744337106" fill="#ff1302" stroke="none" /><path d="M 104.64783097203109 79.52079915486377 l 4.736146626226514 -20.868335912853095 a42.399031020978285,42.399031020978285 0 0,0 0.7084026998974503,0.1671811082952491 l -5.093681479863849 20.783958660911615" fill="#ff750a" stroke="none" /><path d="M 105.3480935250658 79.69241777938227 l 3.9168671935848174 -14.87298271957299 a36.380099596195656,36.380099596195656 0 0,0 0.602555965495482,0.16422930784315454 l -4.171604560014992 14.803552917585694" fill="#ff0801" stroke="none" /><path d="M 105.69591212413111 79.78721728523813 l 4.330382566257996 -15.367000047761094 a36.96549102401929,36.96549102401929 0 0,0 0.6092968859696166,0.1773574435177948 l -4.593539464609217 15.290398909940782" fill="#ff1302" stroke="none" /><path d="M 106.72888874123014 80.10723608172694 l 9.295073284623642 -27.479232539704896 a50.0087333114995,50.0087333114995 0 0,0 0.8108421447574093,0.2820529885082545 l -9.76542120142607 27.31562111862805" fill="#fff417" stroke="none" /><path d="M 107.06938296918511 80.22567764915836 l 14.544581771553126 -40.68378381289188 a64.20549877322931,64.20549877322931 0 0,0 1.0346589194437423,0.37994108673908356 l -15.240829842650994 40.428111877144076" fill="#40ff2d" stroke="none" /><path d="M 108.07796709384702 80.6158196554323 l 11.140179299634479 -26.732374879246322 a49.96072273809071,49.96072273809071 0 0,0 0.788820156146954,0.3367004185132281 l -11.597434530951864 26.53719981107369" fill="#fff316" stroke="none" /><path d="M 109.06512990194946 81.05736502329252 l 27.195389705848374 -56.82790493012246 a84.0,84.0 0 0,0 1.2953590029517317,0.6336249996111154 l -28.166908958062173 56.352686180414125" fill="#4dd2ff" stroke="none" /><path d="M 109.3889696526874 81.21577127319529 l 6.678869127197185 -13.362212251453698 a35.93840717985445,35.93840717985445 0 0,0 0.5494687733535493,0.2805626707943367 l -6.907265122264313 13.245591628986528" fill="#ff0000" stroke="none" /><path d="M 110.34350942703115 81.72400993836675 l 14.895861146250526 -26.319559351577098 a51.24245168218948,51.24245168218948 0 0,0 0.761822827641867,0.43983861461383383 l -15.34547644175279 26.059973839687093" fill="#f7ff19" stroke="none" /><line stroke="#e1ed5e" stroke-width="0.3" x1="143.13028292997686" x2="145.6673583964461" y1="26.7553504044142" y2="22.446841604673864" /><path d="M 143.63769802327073 25.89364864446614 a86.0,86.0 0 0,1 29.32050498858742,28.57503671076993" fill="none" id="id26" stroke="none" /><text fill="#e1ed5e" style="font-size:6.75px; font-family:Arial;" text-anchor="middle"><textPath startOffset="20.669276256404974" xlink:href="#id26">February</textPath></text><line stroke="#e1ed5e" stroke-width="0.3" x1="172.87174338648825" x2="177.1583165268699" y1="56.24261187166439" y2="53.66864786411523" /><path d="M 173.72905801456457 55.72781907015455 a86.0,86.0 0 0,1 12.242430191666344,42.057860355516425" fill="none" id="id27" stroke="none" /><text fill="#e1ed5e" style="font-size:6.75px; font-family:Arial;" text-anchor="middle"><textPath startOffset="22.145653131862474" xlink:href="#id27">March</textPath></text><line stroke="#e1ed5e" stroke-width="0.3" x1="184.99686870605535" x2="189.99668451229388" y1="99.2704041080226" y2="99.22748670261217" /><path d="M 185.99683186730306 99.26182062694052 a86.0,86.0 0 0,1 -10.086455211305974,41.156179273409016" fill="none" id="id28" stroke="none" /><text fill="#e1ed5e" style="font-size:6.75px; font-family:Arial;" text-anchor="middle"><textPath startOffset="21.40746469413373" xlink:href="#id28">April</textPath></text><line stroke="#e1ed5e" stroke-width="0.3" x1="174.33088141563837" x2="178.70328620479359" y1="141.23008692659167" y2="143.65538615756765" /><path d="M 175.20536237346943 141.71514677278685 a86.0,86.0 0 0,1 -30.301960400862466,31.631185727798858" fill="none" id="id29" stroke="none" /><text fill="#e1ed5e" style="font-size:6.75px; font-family:Arial;" text-anchor="middle"><textPath startOffset="22.145653131862474" xlink:href="#id29">May</textPath></text><line stroke="#e1ed5e" stroke-width="0.3" x1="143.1302829299769" x2="145.66735839644613" y1="173.24464959558577" y2="177.55315839532614" /><path d="M 143.63769802327073 174.10635135553383 a86.0,86.0 0 0,1 -40.68552437913181,11.842963189579606" fill="none" id="id30" stroke="none" /><text fill="#e1ed5e" style="font-size:6.75px; font-family:Arial;" text-anchor="middle"><textPath startOffset="21.407464694133747" xlink:href="#id30">June</textPath></text><line stroke="#e1ed5e" stroke-width="0.3" x1="101.45913802915013" x2="101.54496967792366" y1="184.9874750549273" y2="189.98673829345242" /><path d="M 101.47630435890484 185.9873277026323 a86.0,86.0 0 0,1 -42.54439059252881,-10.42667462771756" fill="none" id="id31" stroke="none" /><text fill="#e1ed5e" style="font-size:6.75px; font-family:Arial;" text-anchor="middle"><textPath startOffset="22.145653131862474" xlink:href="#id31">July</textPath></text><line stroke="#e1ed5e" stroke-width="0.3" x1="58.13341422392154" x2="55.67067388415222" y1="173.97424548756322" y2="178.32567169271397" /><path d="M 57.64086615596768 174.84453072859336 a86.0,86.0 0 0,1 -31.369924170532247,-30.572349798747897" fill="none" id="id32" stroke="none" /><text fill="#e1ed5e" style="font-size:6.75px; font-family:Arial;" text-anchor="middle"><textPath startOffset="22.145653131862474" xlink:href="#id32">August</textPath></text><line stroke="#e1ed5e" stroke-width="0.3" x1="26.387840678322732" x2="22.057713659400548" y1="142.50000000000003" y2="145.00000000000006" /><path d="M 25.521815274538298 143.00000000000003 a86.0,86.0 0 0,1 -11.493303480769221,-40.785679425670985" fill="none" id="id33" stroke="none" /><text fill="#e1ed5e" style="font-size:6.75px; font-family:Arial;" text-anchor="middle"><textPath startOffset="21.40746469413373" xlink:href="#id33">September</textPath></text><line stroke="#e1ed5e" stroke-width="0.3" x1="15.003131293944662" x2="10.003315487706104" y1="100.72959589197737" y2="100.7725132973878" /><path d="M 14.003168132696942 100.73817937305945 a86.0,86.0 0 0,1 10.791469493833604,-42.45332614584628" fill="none" id="id34" stroke="none" /><text fill="#e1ed5e" style="font-size:6.75px; font-family:Arial;" text-anchor="middle"><textPath startOffset="22.145653131862435" xlink:href="#id34">October</textPath></text><line stroke="#e1ed5e" stroke-width="0.3" x1="26.387840678322718" x2="22.05771365940052" y1="57.49999999999999" y2="54.99999999999999" /><path d="M 25.521815274538284 56.99999999999999 a86.0,86.0 0 0,1 29.574782752854787,-30.34633250058573" fill="none" id="id35" stroke="none" /><text fill="#e1ed5e" style="font-size:6.75px; font-family:Arial;" text-anchor="middle"><textPath startOffset="21.40746469413373" xlink:href="#id35">November</textPath></text><line stroke="#e1ed5e" stroke-width="0.3" x1="56.869717070023135" x2="54.33264160355391" y1="26.7553504044142" y2="22.446841604673864" /><path d="M 56.362301976729285 25.89364864446614 a86.0,86.0 0 0,1 42.16139366436587,-11.88097634709845" fill="none" id="id36" stroke="none" /><text fill="#e1ed5e" style="font-size:6.75px; font-family:Arial;" text-anchor="middle"><textPath startOffset="22.145653131862474" xlink:href="#id36">December</textPath></text></svg>