<?xml version="1.0" encoding="utf-8" ?>
<svg baseProfile="full" height="200mm" version="1.1" viewBox="0,0,200,200" width="200mm" xmlns="http://www.w3.org/2000/svg" xmlns:ev="http://www.w3.org/2001/xml-events" xmlns:xlink="http://www.w3.org/1999/xlink"><defs /><rect fill="#1a1a1a" height="200" width="200" x="0" y="0" /><rect fill="#1a1a1a" height="200" width="180" x="10" y="0" /><text alignment-baseline="middle" fill="#e1ed5e" style="dominant-baseline: central; font-size:9.0px; font-family:Arial;" text-anchor="middle" x="100.0" y="100.0">2022</text><line stroke="#e1ed5e" stroke-width="0.3" x1="100.0" x2="100.0" y1="15.0" y2="10.0" /><path d="M 100.0 14.0 a86.0,86.0 0 0,1 42.46469731375804,11.215312516191453" fill="none" id="id1" stroke="none" /><text fill="#e1ed5e" style="font-size:6.75px; font-family:Arial;" text-anchor="middle"><textPath startOffset="22.20632615414155" xlink:href="#id1">January</textPath></text><line stroke="#e1ed5e" stroke-width="0.3" x1="143.23703022742887" x2="145.7803849466894" y1="26.81831364943548" y2="22.513508569990506" /><path d="M 143.74570117128098 25.957352633546492 a86.0,86.0 0 0,1 28.547481713284135,27.462654790039103" fill="none" id="id2" stroke="none" /><text fill="#e1ed5e" style="font-size:6.75px; font-family:Arial;" text-anchor="middle"><textPath startOffset="19.985693538727396" xlink:href="#id2">February</textPath></text><line stroke="#e1ed5e" stroke-width="0.3" x1="172.23445277983987" x2="176.4835382374775" y1="55.19839476539836" y2="52.563006222186495" /><path d="M 173.08426987136738 54.67131705675599 a86.0,86.0 0 0,1 12.851231095245387,41.99856678651699" fill="none" id="id3" stroke="none" /><text fill="#e1ed5e" style="font-size:6.75px; font-family:Arial;" text-anchor="middle"><textPath startOffset="22.20632615414155" xlink:href="#id3">March</textPath></text><line stroke="#e1ed5e" stroke-width="0.3" x1="184.98032266829074" x2="189.97916517819016" y1="98.17113171792111" y2="98.06355123074" /><path d="M 185.9800911702706 98.14961562048488 a86.0,86.0 0 0,1 -9.607161424134198,41.387399972396054" fill="none" id="id4" stroke="none" /><text fill="#e1ed5e" style="font-size:6.75px; font-family:Arial;" text-anchor="middle"><textPath startOffset="21.466115282336823" xlink:href="#id4">April</textPath></text><line stroke="#e1ed5e" stroke-width="0.3" x1="174.80103733775053" x2="179.2010983576182" y1="140.37084112569926" y2="142.7455964860345" /><path d="M 175.68104954172406 140.8457921977663 a86.0,86.0 0 0,1 -30.038265399797805,32.042727171017184" fill="none" id="id5" stroke="none" /><text fill="#e1ed5e" style="font-size:6.75px; font-family:Arial;" text-anchor="middle"><textPath startOffset="22.206326154141568" xlink:href="#id5">May</textPath></text><line stroke="#e1ed5e" stroke-width="0.3" x1="143.8653032363475" x2="146.44561519142675" y1="172.8068346515853" y2="177.08958963109032" /><path d="M 144.38136562736335 173.6633856474863 a86.0,86.0 0 0,1 -40.68145358897372,12.25698825130547" fill="none" id="id6" stroke="none" /><text fill="#e1ed5e" style="font-size:6.75px; font-family:Arial;" text-anchor="middle"><textPath startOffset="21.466115282336833" xlink:href="#id6">June</textPath></text><line stroke="#e1ed5e" stroke-width="0.3" x1="102.19456741930631" x2="102.32365962044197" y1="184.97166512339345" y2="189.96999836594603" /><path d="M 102.22038585953345 185.97133177190398 a86.0,86.0 0 0,1 -42.740103519485714,-10.115201625700543" fill="none" id="id7" stroke="none" /><text fill="#e1ed5e" style="font-size:6.75px; font-family:Arial;" text-anchor="middle"><textPath startOffset="22.20632615414155" xlink:href="#id7">July</textPath></text><path d="M 91.7346041902142 119.30500536409082 l -6.1542918201278916 14.37422227972265 a36.63629028747446,36.63629028747446 0 0,0 -0.5775961081628627,-0.2532011598336537 l 6.400808602948498 -14.266156566594544" fill="red" stroke="none" /><path d="M 91.40352486487194 119.15986991738527 l -8.469321346988908 18.876468871962196 a41.68938087891273,41.68938087891273 0 0,0 -0.6522045645411724,-0.2993951269670214 l 8.792993907297499 -18.7278866746611" fill="red" stroke="none" /><path d="M 91.07499286063937 119.00905698771935 l -3.2254434010589255 6.869757801200451 a28.589272519852546,28.589272519852546 0 0,0 -0.44366103549089253,-0.21298425827235765 l 3.34321710455006 -6.813219266428531" fill="red" stroke="none" /><path d="M 90.7491055286396 118.85261126421891 l -3.1294377597385385 6.377553407680673 a28.10398255627762,28.10398255627762 0 0,0 -0.4324615305529989,-0.21684518917337972 l 3.238753197974298 -6.322740377597992" fill="red" stroke="none" /><path d="M 90.10565033884886 118.52300852407294 l -5.785009553848924 10.829997417467473 a33.27824008563424,33.27824008563424 0 0,0 -0.5029406792542326,-0.27424335903818553 l 5.970573044971797 -10.728813406669522" fill="red" stroke="none" /><line stroke="#e1ed5e" stroke-width="0.3" x1="58.666819895761336" x2="56.23545636021788" y1="174.27360380694188" y2="178.64263932499728" /><path d="M 58.180547188652646 175.14741091055294 a86.0,86.0 0 0,1 -31.652253787137756,-30.449443065178592" fill="none" id="id8" stroke="none" /><text fill="#e1ed5e" style="font-size:6.75px; font-family:Arial;" text-anchor="middle"><textPath startOffset="22.20632615414155" xlink:href="#id8">August</textPath></text><path d="M 89.7882731507175 118.34994917583269 l -10.27932119144891 18.47141274038297 a42.139005009284446,42.139005009284446 0 0,0 -0.630783246922952,-0.35817519003435094 l 10.59575320529307 -18.291734384553983" fill="red" stroke="none" /><path d="M 89.4739219176387 118.17145234162733 l -3.9973423676874513 6.900719884390758 a28.974878113635036,28.974878113635036 0 0,0 -0.42942442866665564,-0.2537115216738 l 4.115534667382489 -6.830889790423208" fill="red" stroke="none" /><path d="M 89.1626897886671 117.98757091392108 l -6.628888683522083 11.002509197406939 a33.8451303542452,33.8451303542452 0 0,0 -0.49642876810047193,-0.3049470954628634 l 6.817296651554864 -10.886773635115697" fill="red" stroke="none" /><path d="M 88.8546689885994 117.79835938074946 l -4.275324642650876 6.827411799742688 a29.055554151225323,29.055554151225323 0 0,0 -0.4216074334042577,-0.2690898116639021 l 4.392213878102058 -6.752807559254982" fill="red" stroke="none" /><path d="M 88.54995079064634 117.60387380957326 l -4.381842944627631 6.736862771522354 a29.036533306949384,29.036533306949384 0 0,0 -0.41664010220303127,-0.27612634104979217 l 4.4971577455706235 -6.660438409381244" fill="red" stroke="none" /><path d="M 87.95078237400918 117.19931262002967 l -6.459449989788264 9.220357966493292 a32.25786370502201,32.25786370502201 0 0,0 -0.45202894049348724,-0.32251064692935544 l 6.617206258130638 -9.10780305771972" fill="red" stroke="none" /><path d="M 87.65650970185807 116.9893568818739 l -8.667246187389685 11.929440952595876 a35.745599950978345,35.745599950978345 0 0,0 -0.49467659938855896,-0.36594992218041084 l 8.871307757196808 -11.778481081675697" fill="red" stroke="none" /><path d="M 87.36589467227662 116.77436683061367 l -4.406525047558507 5.85056604157291 a28.324382977532416,28.324382977532416 0 0,0 -0.3869262742572459,-0.2966785677177028 l 4.50658005030924 -5.77384813202784" fill="red" stroke="none" /><path d="M 87.07902340077011 116.55440617244103 l -16.88696536263225 21.635646615877253 a48.44577934120039,48.44577934120039 0 0,0 -0.6529626119997607,-0.518752989686992 l 17.256885467349367 -21.34175971218513" fill="red" stroke="none" /><path d="M 86.79598089348748 116.32954008644616 l -7.701643174388053 9.524697740375457 a33.248884628043136,33.248884628043136 0 0,0 -0.4419408043932454,-0.3636871948388552 l 7.8644541073259875 -9.39071542667942" fill="red" stroke="none" /><path d="M 86.51685102203217 116.09983520530335 l -10.686930364379899 12.760952059360923 a37.64489044945664,37.64489044945664 0 0,0 -0.4932099520533413,-0.4203242211012636 l 10.905005793010297 -12.575103448036709" fill="red" stroke="none" /><path d="M 85.97065885151581 115.62618273729859 l -3.563756603880054 3.96938896375053 a26.334454974713275,26.334454974713275 0 0,0 -0.3346989474902764,-0.30573955289691546 l 3.6315551008371854 -3.907456644267038" fill="red" stroke="none" /><path d="M 85.70375840098266 115.38237550388516 l -13.684250867202492 14.723889762967037 a41.10103608146947,41.10103608146947 0 0,0 -0.5140842546672432,-0.4860987503091796 l 13.935670956260552 -14.486156375911927" fill="red" stroke="none" /><path d="M 85.44109423537348 115.13401014063109 l -14.122795603527662 14.680672801465224 a41.37094768445251,41.37094768445251 0 0,0 -0.508961252596992,-0.4981257078099796 l 14.373406808500448 -14.435396990732675" fill="red" stroke="none" /><path d="M 85.18274418774928 114.88116024355367 l -5.610974254213455 5.635173479988747 a28.95224573507476,28.95224573507476 0 0,0 -0.3501282966722947,-0.35467811599789245 l 5.707143175941283 -5.537754870010191" fill="red" stroke="none" /><path d="M 84.9287848128048 114.62390073753433 l -20.132952082039044 19.535405018396997 a49.05294652564131,49.05294652564131 0 0,0 -0.5827804187478969,-0.6110429391317591 l 20.4662390521659 -19.18595496268274" fill="red" stroke="none" /><path d="M 84.67929136418377 114.36230785411682 l -26.019871306943653 24.392174730168158 a56.66527570196204,56.66527570196204 0 0,0 -0.6609696583384734,-0.717352021033452 l 26.435887373277854 -23.940671454333362" fill="red" stroke="none" /><path d="M 84.43433777217949 114.09645910891817 l -15.166238319013711 13.734735803143494 a41.46112783624773,41.46112783624773 0 0,0 -0.47451500757338483,-0.53312264130776 l 15.400412176235434 -13.47163899209487" fill="red" stroke="none" /><path d="M 84.19399662182784 113.82643327865904 l -11.682586184394628 10.219439698702354 a36.52159037312936,36.52159037312936 0 0,0 -0.4098374444674128,-0.4767335379198356 l 11.856766138432821 -10.016829061620987" fill="red" stroke="none" /><path d="M 83.95833913139862 113.55231037782056 l -16.9537524118175 14.322863239391424 a43.19401117904373,43.19401117904373 0 0,0 -0.474936664851643,-0.57209180807397 l 17.19778507656268 -14.028910174203693" fill="red" stroke="none" /><path d="M 83.72743513129214 113.27417163493432 l -27.734978332427207 22.624513446174237 a56.79242422323927,56.79242422323927 0 0,0 -0.6114166594217156,-0.7628362922376966 l 28.120312903903784 -22.143749320358282" fill="red" stroke="none" /><path d="M 83.50135304334701 112.99209946851258 l -23.623637459862277 18.60277685151912 a51.068913406081435,51.068913406081435 0 0,0 -0.5379093094050479,-0.6953202933106384 l 23.940353586485394 -18.19337856409523" fill="red" stroke="none" /><path d="M 83.28015986056508 112.70617746262583 l -10.946392829095707 8.318668641697052 a34.74859134381526,34.74859134381526 0 0,0 -0.3578091131579402,-0.47934377940464895 l 11.087963208948732 -8.129011982783094" fill="red" stroke="none" /><path d="M 83.06392112726016 112.41649034213515 l -9.512403958264368 6.973908941129669 a32.794966510523544,32.794966510523544 0 0,0 -0.3298552207327516,-0.45814005164490285 l 9.631038971372726 -6.809135284033628" fill="red" stroke="none" /><path d="M 82.85270091963577 112.12312394758628 l -22.434066884189427 15.860863697006925 a48.47461290317512,48.47461290317512 0 0,0 -0.47583393950129715,-0.6854742792238113 l 22.703761730852857 -15.4723481555961" fill="red" stroke="none" /><path d="M 82.6465618267979 111.8261652097733 l -7.377093649150058 5.027403065148312 a29.927277988714856,29.927277988714856 0 0,0 -0.2864423780591185,-0.42819249018616573 l 7.462539132619907 -4.899673660756325" fill="red" stroke="none" /><path d="M 82.44556493220864 111.52570212397912 l -12.858297830276449 8.442362858209565 a36.382110184294234,36.382110184294234 0 0,0 -0.3392114397221556,-0.5264636873469006 l 13.00171413337565 -8.219777570941215" fill="red" stroke="none" /><path d="M 82.24976979558568 111.22182372390057 l -13.859142213546454 8.761849795402076 a37.396518982164864,37.396518982164864 0 0,0 -0.33930281997290046,-0.5470641821661706 l 14.00790967318731 -8.521989281870642" fill="red" stroke="none" /><path d="M 82.05923443525364 110.91462005526583 l -15.401592291483018 9.369863705145889 a39.02785042555211,39.02785042555211 0 0,0 -0.34422401329529284,-0.576939246011164 l 15.560597180476543 -9.103362365248614" fill="red" stroke="none" /><line stroke="#e1ed5e" stroke-width="0.3" x1="26.63291911575756" x2="22.317208475507996" y1="142.92168965132927" y2="145.44649492493687" /><path d="M 25.769776987707644 143.4266507060508 a86.0,86.0 0 0,1 -11.730757126820373,-40.83630448921669" fill="none" id="id9" stroke="none" /><text fill="#e1ed5e" style="font-size:6.75px; font-family:Arial;" text-anchor="middle"><textPath startOffset="21.46611528233685" xlink:href="#id9">September</textPath></text><path d="M 81.87401531095188 110.60418214915194 l -10.854196885470836 6.349993273790786 a33.57521389900597,33.57521389900597 0 0,0 -0.2875445332615802,-0.5013581309424099 l 10.961893414884793 -6.16221529699007" fill="red" stroke="none" /><path d="M 81.69416730710424 110.29060199501025 l -36.488254192274056 20.51182853491158 a62.858425721061444,62.858425721061444 0 0,0 -0.5220948719282229,-0.947753845256603 l 36.835925473653795 -19.880704171257154" fill="red" stroke="none" /><path d="M 81.51974371655577 109.97397251340807 l -15.902429464264873 8.582694522211876 a39.07069196592995,39.07069196592995 0 0,0 -0.31432835283628385,-0.594590785833635 l 16.047810325326044 -8.307688721292115" fill="red" stroke="none" /><path d="M 81.35079622478065 109.6543875284942 l -26.147848690979124 13.536313257222314 a50.44387487685667,50.44387487685667 0 0,0 -0.3925526254052875,-0.7745435714018654 l 26.37697998617068 -13.084215474117764" fill="red" stroke="none" /><path d="M 81.18737489456691 109.33194174019688 l -8.430345299268534 4.181845475663908 a30.410555427137645,30.410555427137645 0 0,0 -0.22858129231958388,-0.4709451657207147 l 8.501079848202838 -4.036111353977909" fill="red" stroke="none" /><path d="M 81.02952815118164 109.00673069616217 l -12.65255446991423 6.007133171868814 a35.00616948200732,35.00616948200732 0 0,0 -0.2537536934461205,-0.546562880694597 l 12.754082780200179 -5.78845022389539" fill="red" stroke="none" /><path d="M 80.87730276802145 108.67885076344099 l -33.096340294104934 15.020799353987169 a57.34545575578789,57.34545575578789 0 0,0 -0.4002137043408883,-0.9023762499564103 l 33.3499950831771 -14.448874767538063" fill="red" stroke="none" /><path d="M 80.73074385275274 108.34839909993369 l -17.719716953769588 7.677061736971238 a40.311282863522486,40.311282863522486 0 0,0 -0.2703716494384061,-0.6390787127782794 l 17.8492395844003 -7.370908498526799" fill="red" stroke="none" /><path d="M 80.58989483394504 108.01547362559985 l -4.9575791354437655 2.047250360934036 a26.363657793384277,26.363657793384277 0 0,0 -0.16960291649995526,-0.42094052971893803 l 4.992084666201109 -1.9616104633722924" fill="red" stroke="none" /><path d="M 80.45479744820244 107.68017299344265 l -34.5881444991965 13.591209022880651 a58.1626250768286,58.1626250768286 0 0,0 -0.3581314350615217,-0.9349681674788631 l 34.81697021385153 -12.99381728856863" fill="red" stroke="none" /><path d="M 80.32549172779594 107.34259656027581 l -26.426524699320975 9.862473138981303 a49.20690667373771,49.20690667373771 0 0,0 -0.2893266269136533,-0.7961026164246088 l 26.59237558723985 -9.406122725550576" fill="red" stroke="none" /><path d="M 80.20201598880116 107.00284435728193 l -20.086492037295077 7.104893980184735 a42.30602451969827,42.30602451969827 0 0,0 -0.23693220904081505,-0.6886359049812565 l 20.20581507727912 -6.758085372114181" fill="red" stroke="none" /><path d="M 80.0844068197444 106.66101706037122 l -8.442664665774982 2.823753872893618 a29.9023689315489,29.9023689315489 0 0,0 -0.15906315822023664,-0.48954606342552703 l 8.490020075011468 -2.6780089094902872" fill="red" stroke="none" /><path d="M 79.97269907076064 106.31721596034903 l -19.70101975015454 6.214297015886232 a41.65787178287327,41.65787178287327 0 0,0 -0.20982321661906225,-0.6857144122011631 l 19.805069739279734 -5.874255631133021" fill="red" stroke="none" /><path d="M 79.86692584326677 105.97154293290107 l -4.143901888123116 1.229096353692277 a25.32233741221691,25.32233741221691 0 0,0 -0.12035027261874881,-0.41895508745833615 l 4.1644447976279695 -1.157583790729345" fill="red" stroke="none" /><path d="M 79.76711848015287 105.62410040840567 l -18.116693800407106 5.035867229385129 a39.80357819697369,39.80357819697369 0 0,0 -0.17781191614946137,-0.661704287648569 l 18.200693792898342 -4.723272008561021" fill="red" stroke="none" /><path d="M 79.67330655649465 105.27499134158121 l -33.258819752237066 8.63101451851315 a55.360493345273426,55.360493345273426 0 0,0 -0.2314297595599387,-0.9244468482577782 l 33.40246082609207 -8.057239830857979" fill="red" stroke="none" /><path d="M 79.58551787078972 104.9243191809786 l -7.935105640804873 1.914082006233999 a29.162696334993853,29.162696334993853 0 0,0 -0.1135115378267367,-0.4890047340846285 l 7.966877744562165 -1.7772086148007962" fill="red" stroke="none" /><path d="M 79.50377843672027 104.57218783832718 l -4.392422422112058 0.9798381773524675 a25.50038416005458,25.50038416005458 0 0,0 -0.09188148001745591,-0.4292396857218214 l 4.408637940853954 -0.9040846722144823" fill="red" stroke="none" /><path d="M 79.4281124754447 104.21870165774334 l -9.018125267818384 1.8493577690268337 a30.205797494183994,30.205797494183994 0 0,0 -0.10006758839018223,-0.5102424773346161 l 9.048622789184233 -1.6938515646242627" fill="red" stroke="none" /><path d="M 79.35854240842038 103.8639653848113 l -16.654691776223608 3.11766512769337 a37.943984006409046,37.943984006409046 0 0,0 -0.11465146557293228,-0.64302630620761 l 16.705889684135727 -2.8305200707525464" fill="red" stroke="none" /><path d="M 79.29508885075956 103.50808413554451 l -8.32417223092848 1.410385020943769 a29.442809321396723,29.442809321396723 0 0,0 -0.08036238937988074,-0.5004166753804166 l 8.347216374669651 -1.2668891158701387" fill="red" stroke="none" /><path d="M 79.23777060512086 103.15116336523772 l -45.281430073488885 6.872536703998903 a66.79999640008802,66.79999640008802 0 0,0 -0.16275643847134635,-1.1383181515935448 l 45.39302056297683 -6.092073080424958" fill="red" stroke="none" /><path d="M 79.18660465613746 102.79330883721812 l -32.83933264113314 4.407276975203964 a54.13375708625805,54.13375708625805 0 0,0 -0.1159970175085406,-0.9246103600266165 l 32.91033116788853 -3.841348860889939" fill="red" stroke="none" /><path d="M 79.10278846688536 102.07522291339032 l -9.9777037964462 0.9908479659401017 a31.02678177389059,31.02678177389059 0 0,0 -0.04820291817125053,-0.5319151853353689 l 9.993281310894524 -0.8189513920561667" fill="red" stroke="none" /><path d="M 79.07016306316243 101.71520430193888 l -8.76825905328578 0.7185605742699447 a29.797652875876793,29.797652875876793 0 0,0 -0.03749316822410617,-0.5115644919570543 l 8.779328780174222 -0.5675229458161298" fill="red" stroke="none" /><path d="M 79.04373962182676 101.35467743843564 l -10.142254957713492 0.6556267062031118 a31.163423734409122,31.163423734409122 0 0,0 -0.02999650059573879,-0.5356076686462748 l 10.152037809196763 -0.4809473212213993" fill="red" stroke="none" /><path d="M 79.0235259727143 100.99374915477108 l -25.49046607220031 1.2075970957282802 a46.519054671433395,46.519054671433395 0 0,0 -0.031007978437068977,-0.8001781426057888 l 25.50747618348858 -0.7686417061084947" fill="red" stroke="none" /><path d="M 79.0095281055655 100.63252640178507 l -16.176226187284822 0.4874540313416062 a37.18356898508084,37.18356898508084 0 0,0 -0.013771974700650462,-0.639929548403739 l 16.18222022467048 -0.20893466714773837" fill="red" stroke="none" /><line stroke="#e1ed5e" stroke-width="0.3" x1="15.007084014347285" x2="10.007500721073583" y1="101.09737516637583" y2="101.16192664675087" /><path d="M 14.007167355692545 101.11028546245083 a86.0,86.0 0 0,1 10.666146001902534,-42.60595125391555" fill="none" id="id10" stroke="none" /><text fill="#e1ed5e" style="font-size:6.75px; font-family:Arial;" text-anchor="middle"><textPath startOffset="22.20632615414155" xlink:href="#id10">October</textPath></text><path d="M 79.00175016825051 100.2711162175752 l -23.447251623733813 0.30273619104907773 a44.449205912099856,44.449205912099856 0 0,0 -0.0032928452436615445,-0.7651412685046312 l 23.44898876626698 0.10091455565922876" fill="red" stroke="none" /><path d="M 79.00019446554 99.90962569577889 l -62.99941660337998 -0.27112291266336075 a84.0,84.0 0 0,0 0.018667971529137795,-1.445854967758112 l 62.98541562473312 1.3555141384819447" fill="red" stroke="none" /><path d="M 79.00486145842228 99.54816195383935 l -34.58684527409098 -0.7443462476114511 a55.594853914278104,55.594853914278104 0 0,0 0.0288254169577351,-0.9565752556559561 l 34.5689081626776 1.3395916506924017" fill="red" stroke="none" /><path d="M 79.01574976396665 99.18683210126434 l -12.180511518714136 -0.47201119152639803 a33.18965362192273,33.18965362192273 0 0,0 0.02703596273576598,-0.5706864427574151 l 12.170581947744871 0.6816087409068222" fill="red" stroke="none" /><path d="M 79.05617556472873 98.46500227214037 l -40.57865948039236 -2.974058071127317 a61.68749963608079,61.68749963608079 0 0,0 0.0867312032685653,-1.0583403619585783 l 40.521453793304296 3.6721123502936734" fill="red" stroke="none" /><path d="M 79.54389044137918 95.25157060432595 l -8.053152629223307 -1.8693596924122 a29.267271190010746,29.267271190010746 0 0,0 0.11813831537069248,-0.48975958691424937 l 8.0197815135918 2.007704510985846" fill="red" stroke="none" /><path d="M 79.62865764111835 94.90015583598534 l -24.542861565385635 -6.144159138726623 a46.30025188292957,46.30025188292957 0 0,0 0.2002015574427959,-0.7714582681821431 l 24.433463676072535 6.5657138324576305" fill="red" stroke="none" /><path d="M 80.2630227832202 92.82701384747504 l -9.980630306737813 -3.6272486002991746 a31.619317950233228,31.619317950233228 0 0,0 0.1903112716008382,-0.5099395910788964 l 9.916714446635346 3.7985113284074123" fill="red" stroke="none" /><path d="M 80.38941819471856 92.48833698450439 l -26.671210064305654 -10.216175338796077 a49.56087682210307,49.56087682210307 0 0,0 0.31201274235242954,-0.7940383964302415 l 26.491403772071532 10.673762740122083" fill="red" stroke="none" /><path d="M 81.26839172434947 90.50648371742162 l -10.784952064424543 -5.466007858147243 a33.09100628307101,33.09100628307101 0 0,0 0.26187681388027617,-0.5058626507009724 l 10.689265817384154 5.650843231108552" fill="red" stroke="none" /><path d="M 81.43458229118936 90.18545643968196 l -10.855838298419398 -5.738901194398805 a33.27942230239279,33.27942230239279 0 0,0 0.2720860605718571,-0.5041341475285986 l 10.75544413862907 5.924916325259876" fill="red" stroke="none" /><line stroke="#e1ed5e" stroke-width="0.3" x1="26.266209847984243" x2="21.928928074336255" y1="57.711370442889674" y2="55.22380399835377" /><path d="M 25.398753493254645 57.213857153982495 a86.0,86.0 0 0,1 29.58750427330803,-30.492523968695096" fill="none" id="id11" stroke="none" /><text fill="#e1ed5e" style="font-size:6.75px; font-family:Arial;" text-anchor="middle"><textPath startOffset="21.46611528233685" xlink:href="#id11">November</textPath></text><path d="M 82.54541684631803 88.32363383020206 l -17.047059298523997 -11.403750220516539 a41.509698920738074,41.509698920738074 0 0,0 0.40239805417709357,-0.5904694911929889 l 16.848236778678164 11.695497734979943" fill="red" stroke="none" /><path d="M 82.7489923806493 88.02491185347247 l -16.851393702315047 -11.697689168643281 a41.513541907642804,41.513541907642804 0 0,0 0.4125405858746613,-0.5835094023096182 l 16.64754049663651 11.986025071284685" fill="red" stroke="none" /><path d="M 83.6137871275137 86.86637796730984 l -15.692813594832042 -12.577859447319232 a41.11136362355032,41.11136362355032 0 0,0 0.44733374194176145,-0.5483782742835657 l 15.473981360813887 12.84612189121088" fill="red" stroke="none" /><path d="M 84.07557802195018 86.31012108654704 l -39.98842789965351 -34.37718095138312 a73.73390689158092,73.73390689158092 0 0,0 0.835679512875713,-0.9553261450276082 l 39.39075652319995 35.06042265261367" fill="red" stroke="none" /><path d="M 84.31358615837235 86.03803664274999 l -32.76859071393595 -29.166249688158445 a64.86856116000902,64.86856116000902 0 0,0 0.749560423312534,-0.827683340793274 l 32.26168665000737 29.725985816221275" fill="red" stroke="none" /><path d="M 85.31137513191541 84.99185889309783 l -2.8034355980698917 -2.864417698580124 a25.008009469108643,25.008009469108643 0 0,0 0.31023835764770863,-0.2984490542555639 l 2.7537139968097555 2.9122498395980014" fill="red" stroke="none" /><path d="M 85.83668400450813 84.49514656593479 l -17.103577736985855 -18.723614307166134 a46.359536749093714,46.359536749093714 0 0,0 0.5938193336022376,-0.5331368608525323 l 16.778747415787645 19.015250176787944" fill="red" stroke="none" /><path d="M 86.10567301691215 84.25364557470407 l -26.96542505532621 -30.559748641784026 a61.755765058006645,61.755765058006645 0 0,0 0.8031372574597386,-0.6964727154231268 l 26.435393999219702 31.019386350626835" fill="red" stroke="none" /><path d="M 87.80319425747018 82.90503203632743 l -12.072571960413597 -16.92084265823483 a41.786098960702176,41.786098960702176 0 0,0 0.5891220333590234,-0.41271763267692846 l 11.779518787470915 17.1261451336757" fill="red" stroke="none" /><path d="M 88.09926311788651 82.69761687909137 l -11.884619859231112 -17.278950714374336 a41.97155995600251,41.97155995600251 0 0,0 0.5987848729168009,-0.4043022191115075 l 11.585430291907771 17.48096484578451" fill="red" stroke="none" /><line stroke="#e1ed5e" stroke-width="0.3" x1="56.762969772571076" x2="54.21961505331055" y1="26.818313649435495" y2="22.513508569990535" /><path d="M 56.25429882871897 25.957352633546506 a86.0,86.0 0 0,1 42.265352541879196,-11.944610805530505" fill="none" id="id12" stroke="none" /><text fill="#e1ed5e" style="font-size:6.75px; font-family:Arial;" text-anchor="middle"><textPath startOffset="22.20632615414155" xlink:href="#id12">December</textPath></text><path d="M 89.94658935756843 81.56283822128135 l -22.881087177837333 -41.96210828096821 a68.79500687125689,68.79500687125689 0 0,0 1.0445537483342633,-0.5579644371730176 l 22.155388382974767 42.34975144464298" fill="red" stroke="none" /><path d="M 92.23578459929587 80.48803036053334 l -11.920406199697235 -29.956742807200964 a53.2413170261788,53.2413170261788 0 0,0 0.854439055019601,-0.3315090788404326 l 11.402983979677957 30.157494589931947" fill="red" stroke="none" /><path d="M 92.57280143429618 80.3572730644239 l -5.285690511998051 -13.979076292987802 a35.94500244877196,35.94500244877196 0 0,0 0.5806276252748438,-0.21385005450682423 l 5.044280560950638 14.067989615300949" fill="red" stroke="none" /><path d="M 94.63758080256005 79.69619591428918 l -10.340363413412982 -39.15186508007803 a61.494341021556124,61.494341021556124 0 0,0 1.0257581455249773,-0.2614885907521491 l 9.664896379203006 39.32405666699904" fill="red" stroke="none" /><path d="M 94.98787191387505 79.60689891045804 l -2.871877703629825 -11.684955236689579 a33.03269963175535,33.03269963175535 0 0,0 0.5533391088634741,-0.130957489398399 l 2.670314907803817 11.732658638228848" fill="red" stroke="none" /><path d="M 95.692805502759 79.44645832069477 l -4.240863510344011 -20.237016222957685 a41.67659906564955,41.67659906564955 0 0,0 0.7034088880017503,-0.14109720560590008 l 3.891888212875124 20.307017384640794" fill="red" stroke="none" /><path d="M 96.04723909329186 79.375362276772 l -4.19534018447015 -21.89036308357376 a43.288761185721356,43.288761185721356 0 0,0 0.7330330799549627,-0.13395710993223983 l 3.8179119834122948 21.959335674856735" fill="red" stroke="none" /><path d="M 97.11714578562143 79.19881850522333 l -5.568863340971925 -40.182030883631 a61.56609230433092,61.56609230433092 0 0,0 1.0509779673537314,-0.13644710343214764 l 4.8763706451103355 40.27193631022728" fill="red" stroke="none" /><path d="M 97.47563105711357 79.15227682838746 l -2.4830853014347025 -20.506778583886177 a41.656565070280536,41.656565070280536 0 0,0 0.7125916757456577,-0.08006797765484977 l 2.129726922179327 20.546482515011625" fill="red" stroke="none" /><path d="M 98.91598698831166 79.02799685794201 l -1.038832298260747 -20.09790840911001 a41.12473838252027,41.12473838252027 0 0,0 0.7072655372589445,-0.03045634180695216 l 0.6927259286124783 20.112812477441153" fill="red" stroke="none" /><path d="M 99.63851952072746 79.00311137660856 l -0.6954737380888079 -40.39715961573275 a61.403145777765374,61.403145777765374 0 0,0 1.0569542173613335,-0.00909753864118426 l 9.895916630444854e-15 40.403145777765374" fill="red" stroke="none" /></svg>