<?xml version="1.0" encoding="utf-8" ?>
<svg baseProfile="full" height="200mm" version="1.1" viewBox="0,0,200,200" width="200mm" xmlns="http://www.w3.org/2000/svg" xmlns:ev="http://www.w3.org/2001/xml-events" xmlns:xlink="http://www.w3.org/1999/xlink"><defs /><rect fill="#1a1a1a" height="200" width="200" x="0" y="0" /><text alignment-baseline="middle" fill="#e1ed5e" style="dominant-baseline: central; font-size:9.0px; font-family:Arial;" text-anchor="middle" x="100.0" y="100.0">2022</text><line stroke="#e1ed5e" stroke-width="0.3" x1="100.0" x2="100.0" y1="15.0" y2="10.0" /><path d="M 100.0 14.0 a86.0,86.0 0 0,1 42.46469731375804,11.215312516191453" fill="none" id="id1" stroke="none" /><text fill="#e1ed5e" style="font-size:6.75px; font-family:Arial;" text-anchor="middle"><textPath startOffset="22.20632615414155" xlink:href="#id1">January</textPath></text><line stroke="#e1ed5e" stroke-width="0.3" x1="143.23703022742887" x2="145.7803849466894" y1="26.818313649435467" y2="22.513508569990506" /><path d="M 143.74570117128098 25.957352633546478 a86.0,86.0 0 0,1 28.547481713284135,27.462654790039114" fill="none" id="id2" stroke="none" /><text fill="#e1ed5e" style="font-size:6.75px; font-family:Arial;" text-anchor="middle"><textPath startOffset="19.985693538727396" xlink:href="#id2">February</textPath></text><line stroke="#e1ed5e" stroke-width="0.3" x1="172.23445277983987" x2="176.4835382374775" y1="55.19839476539836" y2="52.563006222186495" /><path d="M 173.08426987136738 54.67131705675599 a86.0,86.0 0 0,1 12.851231095245387,41.99856678651699" fill="none" id="id3" stroke="none" /><text fill="#e1ed5e" style="font-size:6.75px; font-family:Arial;" text-anchor="middle"><textPath startOffset="22.20632615414155" xlink:href="#id3">March</textPath></text><line stroke="#e1ed5e" stroke-width="0.3" x1="184.98032266829074" x2="189.97916517819016" y1="98.17113171792111" y2="98.06355123074" /><path d="M 185.9800911702706 98.14961562048488 a86.0,86.0 0 0,1 -9.607161424134198,41.387399972396054" fill="none" id="id4" stroke="none" /><text fill="#e1ed5e" style="font-size:6.75px; font-family:Arial;" text-anchor="middle"><textPath startOffset="21.466115282336823" xlink:href="#id4">April</textPath></text><line stroke="#e1ed5e" stroke-width="0.3" x1="174.80103733775053" x2="179.2010983576182" y1="140.37084112569926" y2="142.7455964860345" /><path d="M 175.68104954172406 140.8457921977663 a86.0,86.0 0 0,1 -30.038265399797805,32.042727171017184" fill="none" id="id5" stroke="none" /><text fill="#e1ed5e" style="font-size:6.75px; font-family:Arial;" text-anchor="middle"><textPath startOffset="22.206326154141568" xlink:href="#id5">May</textPath></text><line stroke="#e1ed5e" stroke-width="0.3" x1="143.8653032363475" x2="146.44561519142675" y1="172.8068346515853" y2="177.08958963109032" /><path d="M 144.38136562736335 173.6633856474863 a86.0,86.0 0 0,1 -40.68145358897372,12.25698825130547" fill="none" id="id6" stroke="none" /><text fill="#e1ed5e" style="font-size:6.75px; font-family:Arial;" text-anchor="middle"><textPath startOffset="21.466115282336833" xlink:href="#id6">June</textPath></text><line stroke="#e1ed5e" stroke-width="0.3" x1="102.19456741930631" x2="102.32365962044197" y1="184.97166512339345" y2="189.96999836594603" /><path d="M 102.22038585953345 185.97133177190398 a86.0,86.0 0 0,1 -42.740103519485714,-10.115201625700543" fill="none" id="id7" stroke="none" /><text fill="#e1ed5e" style="font-size:6.75px; font-family:Arial;" text-anchor="middle"><textPath startOffset="22.20632615414155" xlink:href="#id7">July</textPath></text><path d="M 91.40352486487194 119.15986991738527 l -10.371916711911664 23.116983632294506 a46.33715825688833,46.33715825688833 0 0,0 -0.7249161653608472,-0.3327734566245221 l 10.76830087303993 -22.935023105335908" fill="#ff4806" stroke="none" /><path d="M 90.10565033884886 118.52300852407294 l -10.365254192524363 19.40457921313993 a42.99945883231372,42.99945883231372 0 0,0 -0.6498593969223727,-0.3543551581049044 l 10.697736401315378 -19.22328340327526" fill="#ff0000" stroke="none" /><line stroke="#e1ed5e" stroke-width="0.3" x1="58.666819895761336" x2="56.23545636021788" y1="174.27360380694188" y2="178.64263932499728" /><path d="M 58.180547188652646 175.14741091055294 a86.0,86.0 0 0,1 -31.652253787137756,-30.449443065178592" fill="none" id="id8" stroke="none" /><text fill="#e1ed5e" style="font-size:6.75px; font-family:Arial;" text-anchor="middle"><textPath startOffset="22.20632615414155" xlink:href="#id8">August</textPath></text><path d="M 89.7882731507175 118.34994917583269 l -19.731761292548242 35.45696258937475 a61.5775627628179,61.5775627628179 0 0,0 -0.9217610849751695,-0.5234000005354895 l 20.339171144444617 -35.11205942304463" fill="#97ff23" stroke="none" /><path d="M 87.07902340077011 116.55440617244103 l -23.21989355698769 29.74941919220961 a58.738460475642725,58.738460475642725 0 0,0 -0.7916895774737276,-0.628966081167713 l 23.728540627178774 -29.345319197036766" fill="#c7ff1e" stroke="none" /><path d="M 85.70375840098266 115.38237550388516 l -25.36401194142528 27.291001852882 a58.2576419530111,58.2576419530111 0 0,0 -0.7286759482831523,-0.6890085907611955 l 25.83002372409925 -26.850358625374874" fill="#cfff1d" stroke="none" /><path d="M 85.44109423537348 115.13401014063109 l -25.893350420616134 26.916186846448177 a58.34898539930813,58.34898539930813 0 0,0 -0.7178315788921591,-0.702549283466067 l 26.352831951884088 -26.46648746005954" fill="#ceff1d" stroke="none" /><path d="M 84.4343377721795 114.09645910891817 l -46.58696756439833 42.18974263146339 a83.85157062600283,83.85157062600283 0 0,0 -0.9596658544308341,-1.0781947608008946 l 47.30629226847749 -41.38157370092163" fill="#4dd4ff" stroke="none" /><path d="M 83.95833913139862 113.55231037782056 l -32.46018284576013 27.42300042681941 a63.493345629516135,63.493345629516135 0 0,0 -0.6981365469522701,-0.8409504445254732 l 32.92741539260594 -26.860188725180173" fill="#77ff26" stroke="none" /><path d="M 83.72743513129214 113.27417163493433 l -48.81769460612356 39.82251490480298 a84.0,84.0 0 0,0 -0.9043283517805563,-1.1282886656869708 l 49.49594086995897 -38.976298405537754" fill="#4dd2ff" stroke="none" /><path d="M 83.50135304334701 112.99209946851258 l -38.574700522059665 30.3762088774553 a70.09909964687117,70.09909964687117 0 0,0 -0.7383544267161528,-0.9544226277089707 l 39.09186176599388 -29.707708255633076" fill="#33ff52" stroke="none" /><path d="M 82.85270091963577 112.12312394758628 l -35.253513774115184 24.924200310995012 a64.17436733253115,64.17436733253115 0 0,0 -0.6299450412081886,-0.9074828153816887 l 35.67731972248551 -24.313676233426314" fill="#6dff28" stroke="none" /><line stroke="#e1ed5e" stroke-width="0.3" x1="26.63291911575756" x2="22.317208475507996" y1="142.92168965132927" y2="145.44649492493687" /><path d="M 25.769776987707644 143.4266507060508 a86.0,86.0 0 0,1 -11.730757126820373,-40.83630448921669" fill="none" id="id9" stroke="none" /><text fill="#e1ed5e" style="font-size:6.75px; font-family:Arial;" text-anchor="middle"><textPath startOffset="21.46611528233685" xlink:href="#id9">September</textPath></text><line stroke="#e1ed5e" stroke-width="0.3" x1="15.007084014347285" x2="10.007500721073583" y1="101.09737516637583" y2="101.16192664675087" /><path d="M 14.007167355692545 101.11028546245083 a86.0,86.0 0 0,1 10.666146001902526,-42.60595125391555" fill="none" id="id10" stroke="none" /><text fill="#e1ed5e" style="font-size:6.75px; font-family:Arial;" text-anchor="middle"><textPath startOffset="22.20632615414155" xlink:href="#id10">October</textPath></text><line stroke="#e1ed5e" stroke-width="0.3" x1="26.266209847984243" x2="21.928928074336255" y1="57.71137044288968" y2="55.22380399835378" /><path d="M 25.398753493254645 57.2138571539825 a86.0,86.0 0 0,1 29.58750427330803,-30.4925239686951" fill="none" id="id11" stroke="none" /><text fill="#e1ed5e" style="font-size:6.75px; font-family:Arial;" text-anchor="middle"><textPath startOffset="21.46611528233685" xlink:href="#id11">November</textPath></text><line stroke="#e1ed5e" stroke-width="0.3" x1="56.76296977257108" x2="54.21961505331056" y1="26.818313649435495" y2="22.513508569990535" /><path d="M 56.25429882871898 25.957352633546506 a86.0,86.0 0 0,1 42.26535254187918,-11.944610805530505" fill="none" id="id12" stroke="none" /><text fill="#e1ed5e" style="font-size:6.75px; font-family:Arial;" text-anchor="middle"><textPath startOffset="22.20632615414155" xlink:href="#id12">December</textPath></text></svg>