<?xml version="1.0" encoding="utf-8" ?>
<svg baseProfile="full" height="200mm" version="1.1" viewBox="0,0,200,200" width="200mm" xmlns="http://www.w3.org/2000/svg" xmlns:ev="http://www.w3.org/2001/xml-events" xmlns:xlink="http://www.w3.org/1999/xlink"><defs /><rect fill="#1a1a1a" height="200" width="200" x="0" y="0" /><text alignment-baseline="middle" fill="#e1ed5e" style="dominant-baseline: central; font-size:9.0px; font-family:Arial;" text-anchor="middle" x="100.0" y="100.0">2024</text><line stroke="#e1ed5e" stroke-width="0.3" x1="100.0" x2="100.0" y1="15.0" y2="10.0" /><path d="M 100.0 14.0 a86.0,86.0 0 0,1 42.35913384403234,11.155469271406648" fill="none" id="id25" stroke="none" /><text fill="#e1ed5e" style="font-size:6.75px; font-family:Arial;" text-anchor="middle"><textPath startOffset="22.145653131862478" xlink:href="#id25">January</textPath></text><path d="M 100.0 79.0 l 0.0 -31.547894846617147 a52.54789484661715,52.54789484661715 0 0,0 0.902054490852718,0.007743052901653698 l -0.5415615660038633 31.54324619190993" fill="#7fff26" stroke="none" /><path d="M 100.72087961077811 79.0123766808444 l 0.2699845120938715 -7.86030449067075 a28.86493981685997,28.86493981685997 0 0,0 0.49506703542096075,0.021260308643323338 l -0.4048773081156685 7.854511613601596" fill="#ff5b08" stroke="none" /><path d="M 101.08105385017728 79.02784411241856 l 0.42226081392376735 -8.191746982237804 a29.202622922942254,29.202622922942254 0 0,0 0.5004156567317519,0.030103763267286626 l -0.5628208227879816 8.183291241145826" fill="#ff6008" stroke="none" /><path d="M 102.15924093988457 79.11130261209362 l 0.825903154516777 -7.989863821005781 a29.032436734818262,29.032436734818262 0 0,0 0.4952990367205512,0.05549929015946482 l -0.9629380928381249 7.974508770339345" fill="#ff5d08" stroke="none" /><path d="M 102.51750503828377 79.15144685158666 l 0.9394248011553596 -7.779784984731168 a28.836298447971103,28.836298447971103 0 0,0 0.4909341061774196,0.06356124888788338 l -1.072836729223571 7.7625121396428876" fill="#ff5a08" stroke="none" /><path d="M 102.87502721639298 79.19773525538626 l 1.1578743170460348 -8.377801763699246 a29.457436687668256,29.457436687668256 0 0,0 0.5003203866496414,0.07352986735874735 l -1.3015198093033582 8.356690823041616" fill="#ff6309" stroke="none" /><path d="M 104.29559338865022 79.4440306129975 l 1.705744744815984 -8.162606090493012 a29.338926988709098,29.338926988709098 0 0,0 0.49210822578526464,0.1072526973735468 l -1.8456153872203827 8.132121934985747" fill="#ff6109" stroke="none" /><path d="M 104.64783097203109 79.52079915486377 l 2.472497542010316 -10.89428037651028 a32.17132888322889,32.17132888322889 0 0,0 0.5375183274563977,0.12685286169318372 l -2.6591480232065985 10.850231371170867" fill="#ff880c" stroke="none" /><path d="M 105.3480935250658 79.69241777938227 l 2.044794064206435 -7.764416121087249 a29.02915565090212,29.02915565090212 0 0,0 0.48080382145454864,0.13104521957706225 l -2.177779286595676 7.728170407366045" fill="#ff5d08" stroke="none" /><path d="M 105.69591212413111 79.78721728523813 l 2.2606690831208125 -8.022317053227262 a29.334758281190837,29.334758281190837 0 0,0 0.4835206127733344,0.14074580347340315 l -2.3980497082757513 7.982327555451342" fill="#ff6109" stroke="none" /><path d="M 106.72888874123014 80.10723608172694 l 4.852477691837946 -14.345488067138401 a36.14396142474601,36.14396142474601 0 0,0 0.5860385828835015,0.20385464020606286 l -5.0980220467664665 14.260074994363748" fill="#ffbd11" stroke="none" /><path d="M 107.06938296918511 80.22567764915836 l 7.592974947311787 -21.238902300877243 a43.55535944064543,43.55535944064543 0 0,0 0.7018860065865881,0.2577422637528075 l -7.956450105552499 21.10542918811571" fill="#e5ff1a" stroke="none" /><path d="M 108.07796709384702 80.6158196554323 l 5.8157122466130176 -13.955592256166296 a36.118897584009666,36.118897584009666 0 0,0 0.5702742648747192,0.24341617307110297 l -6.054421586658167 13.853701433435791" fill="#ffbc11" stroke="none" /><path d="M 109.06512990194946 81.05736502329252 l 14.197308383439156 -29.666914127882773 a53.88904618874865,53.88904618874865 0 0,0 0.8310197754890151,0.4064934151236815 l -14.704488408190239 29.41882696266187" fill="#71ff27" stroke="none" /><path d="M 109.3889696526874 81.21577127319529 l 3.486692622428501 -6.975720887649583 a28.79857085277091,28.79857085277091 0 0,0 0.4403065311608336,0.22482365211896596 l -3.6059263753029134 6.914839283857783" fill="#ff5a08" stroke="none" /><path d="M 110.34350942703115 81.72400993836675 l 7.776359766035241 -13.740082590183032 a36.7880220672465,36.7880220672465 0 0,0 0.5469284562815367,0.31576929146161176 l -8.011080690177176 13.604566401445249" fill="#ffc512" stroke="none" /><line stroke="#e1ed5e" stroke-width="0.3" x1="143.13028292997686" x2="145.6673583964461" y1="26.7553504044142" y2="22.446841604673864" /><path d="M 143.63769802327073 25.89364864446614 a86.0,86.0 0 0,1 29.32050498858742,28.57503671076993" fill="none" id="id26" stroke="none" /><text fill="#e1ed5e" style="font-size:6.75px; font-family:Arial;" text-anchor="middle"><textPath startOffset="20.669276256404974" xlink:href="#id26">February</textPath></text><path d="M 110.96478420261332 82.08984904055464 l 8.30329998795781 -13.562816513109412 a36.90266589155081,36.90266589155081 0 0,0 0.5374361415678381,0.33539990094350136 l -8.53490025831536 13.418280815324366" fill="#ffc612" stroke="none" /><path d="M 111.8722381534696 82.67804972795209 l 9.078314861235327 -13.245532691268933 a37.05801784141493,37.05801784141493 0 0,0 0.521644380252029,0.364148290360099 l -9.304354332661118 13.087739585103707" fill="#ffc812" stroke="none" /><path d="M 112.16784306229584 82.88440491214696 l 9.008263100599581 -12.67125018668829 a36.5470056725812,36.5470056725812 0 0,0 0.508210460493525,0.367905181324168 l -9.224454571467074 12.514744233991049" fill="#ffc212" stroke="none" /><path d="M 113.03279911837588 83.53348406188908 l 5.761963094200965 -7.280052141039276 a30.284362006900878,30.284362006900878 0 0,0 0.4048719668438032,0.3261361971066056 l -5.886085831400028 7.180067650139262" fill="#ff6e0a" stroke="none" /><path d="M 113.31354834802062 83.75963576809568 l 10.457599502411206 -12.756571011047521 a37.495196007102464,37.495196007102464 0 0,0 0.49426821906649915,0.41233612760364796 l -10.675042055639599 12.575172699532002" fill="#ffce13" stroke="none" /><path d="M 113.86319453409587 84.22622945171908 l 15.795745405923684 -17.97265868695049 a44.92743264970933,44.92743264970933 0 0,0 0.5749320194292494,0.5141077569803915 l -16.10194245217631 17.69885540008671" fill="#d5ff1c" stroke="none" /><path d="M 114.39649973595853 84.71141617570332 l 22.134445721721885 -23.506014310940348 a53.287248197918395,53.287248197918395 0 0,0 0.6605779456401059,0.6328187290455562 l -22.5346961532273 23.12258345158921" fill="#77ff27" stroke="none" /><path d="M 114.91283532996326 85.21462403516908 l 18.751426610384083 -18.59115896991179 a47.40543867783968,47.40543867783968 0 0,0 0.5679920985038226,0.5828099304377329 l -19.067805510038717 18.266526347406316" fill="#b8ff1f" stroke="none" /><path d="M 115.41159269507618 85.73525988315684 l 20.4390907561569 -18.91811726599152 a48.85052229004377,48.85052229004377 0 0,0 0.5643451915542729,0.6203142242446223 l -20.76083364855305 18.564465466189223" fill="#a8ff21" stroke="none" /><path d="M 116.35404254752997 86.82634096563983 l 13.149316580735409 -10.59215864615871 a37.88485567974443,37.88485567974443 0 0,0 0.403624475517077,0.5099663394444989 l -13.329207486894045 10.364872362799533" fill="#ffd313" stroke="none" /><path d="M 117.42321728460499 88.27688183743584 l 12.520553363796235 -8.424387077705042 a36.09087652095374,36.09087652095374 0 0,0 0.34144643536396857,0.5169934221849197 l -12.663324238080929 8.208213777181063" fill="#ffbc11" stroke="none" /><line stroke="#e1ed5e" stroke-width="0.3" x1="172.87174338648825" x2="177.1583165268699" y1="56.24261187166439" y2="53.66864786411523" /><path d="M 173.72905801456457 55.72781907015455 a86.0,86.0 0 0,1 12.242430191666344,42.057860355516425" fill="none" id="id27" stroke="none" /><text fill="#e1ed5e" style="font-size:6.75px; font-family:Arial;" text-anchor="middle"><textPath startOffset="22.145653131862474" xlink:href="#id27">March</textPath></text><path d="M 118.00360718960297 89.18935116829356 l 12.90997457731772 -7.75206879998127 a36.05861926826736,36.05861926826736 0 0,0 0.31409854478987703,0.5334079975540337 l -13.041146832237365 7.52930963413368" fill="#ffbb11" stroke="none" /><path d="M 118.36410011445183 89.81374322990088 l 39.20009949757784 -21.743634395759255 a65.82670451144548,65.82670451144548 0 0,0 0.5396368238639111,0.992870975347423 l -39.56758167105709 21.06750858693723" fill="#36ff71" stroke="none" /><path d="M 119.0197475246899 91.09779779509293 l 15.00757609545694 -7.024303389614302 a37.570098924577294,37.570098924577294 0 0,0 0.26838564264852954,0.586471065083842 l -15.125946202960522 6.7656433423157765" fill="#ffcf13" stroke="none" /><path d="M 119.4528033332814 92.08871423366111 l 29.21086397007074 -11.879804077055857 a52.53417699555848,52.53417699555848 0 0,0 0.3325696713977947,0.8382928225111507 l -29.41049231643466 11.37661023733114" fill="#7fff26" stroke="none" /><path d="M 119.94978838288452 93.4421083053983 l 14.941568934742717 -4.911590486119246 a36.72813413393355,36.72813413393355 0 0,0 0.19174759165451558,0.6006465998251977 l -15.02368124217449 4.654374852602661" fill="#ffc412" stroke="none" /><path d="M 120.16314734710363 94.1308016681162 l 25.30625456331836 -7.366281886076201 a47.35656709149744,47.35656709149744 0 0,0 0.22050459716084972,0.7824930253288068 l -25.428977652553794 6.93078093684438" fill="#b9ff1f" stroke="none" /><path d="M 120.26092885502905 94.47779374421319 l 17.564859004195092 -4.787380429051922 a39.20558384698834,39.20558384698834 0 0,0 0.17140404801646095,0.6508490888812871 l -17.64445253301628 4.485150835797835" fill="#ffe415" stroke="none" /><path d="M 120.51834098615036 95.52812308129327 l 8.243209057395296 -1.7965690474060316 a29.436714757891323,29.436714757891323 0 0,0 0.10336813009795481,0.4946539222030475 l -8.272834898317617 1.6547986739175797" fill="#ff6309" stroke="none" /><path d="M 120.7213421655516 96.59031103205396 l 31.12191248783468 -5.121098856596546 a52.54043579913687,52.54043579913687 0 0,0 0.13880309431149465,0.8912154361011874 l -31.205237074284444 4.586095238563917" fill="#7fff26" stroke="none" /><path d="M 120.96210409425399 98.7389718711861 l 15.026117302008107 -0.9039339037479366 a36.05328195697046,36.05328195697046 0 0,0 0.03186150514263804,0.6181046878976738 l -15.039420396607317 0.6458574224735322" fill="#ffbb11" stroke="none" /><path d="M 120.98066250479742 99.09900007780936 l 9.19457431532988 -0.3948545829186286 a30.203048787319112,30.203048787319112 0 0,0 0.017798675352025735,0.5181890128159681 l -9.199997677678754 0.23695930553854058" fill="#ff6d0a" stroke="none" /><line stroke="#e1ed5e" stroke-width="0.3" x1="184.99686870605535" x2="189.99668451229388" y1="99.2704041080226" y2="99.22748670261217" /><path d="M 185.99683186730306 99.26182062694052 a86.0,86.0 0 0,1 -10.086455211305974,41.156179273409016" fill="none" id="id28" stroke="none" /><text fill="#e1ed5e" style="font-size:6.75px; font-family:Arial;" text-anchor="middle"><textPath startOffset="21.40746469413373" xlink:href="#id28">April</textPath></text><path d="M 120.99922638620191 100.18025310272382 l 5.643153959121613 0.04843968970915455 a26.64336185353102,26.64336185353102 0 0,0 -0.00785163177485747,0.4573181880503459 l -5.641490895748087 -0.1453047937285715" fill="#ff3c05" stroke="none" /><path d="M 120.93736805541906 101.62068470465957 l 31.38344975330827 2.4292774937141375 a52.477330057676284,52.477330057676284 0 0,0 -0.07723257917036813,0.8975596403161001 l -31.33712355144016 -2.967658181405895" fill="#80ff26" stroke="none" /><path d="M 120.77682067341334 103.0534771498775 l 7.897070267018026 1.1605973787015862 a28.98189858853576,28.98189858853576 0 0,0 -0.07656535660438164,0.4916045136809833 l -7.875983418275377 -1.2959900743140202" fill="#ff5c08" stroke="none" /><path d="M 120.51834098615036 104.47187691870673 l 61.555022958451104 13.415630756120176 a84.0,84.0 0 0,0 -0.3191565537693437,1.4062626642439322 l -61.315655543124095 -14.470327754303124" fill="#4dd2ff" stroke="none" /><path d="M 119.83427380445688 106.89939002012753 l 7.072207277167216 2.4600808070621913 a28.487864405055202,28.487864405055202 0 0,0 -0.16463249428612864,0.4605063872798314 l -7.028934612837144 -2.5811221507229445" fill="#ff5607" stroke="none" /><path d="M 118.70294669586154 109.54985784667822 l 7.197481637239304 3.675085408061467 a29.08145993462464,29.08145993462464 0 0,0 -0.23084022445382035,0.4426665678146974 l -7.133333343810534 -3.798098218980667" fill="#ff5e08" stroke="none" /><line stroke="#e1ed5e" stroke-width="0.3" x1="174.33088141563837" x2="178.70328620479359" y1="141.23008692659167" y2="143.65538615756765" /><path d="M 175.20536237346943 141.71514677278685 a86.0,86.0 0 0,1 -30.301960400862466,31.631185727798858" fill="none" id="id29" stroke="none" /><text fill="#e1ed5e" style="font-size:6.75px; font-family:Arial;" text-anchor="middle"><textPath startOffset="22.145653131862474" xlink:href="#id29">May</textPath></text><path d="M 118.18653347947321 110.5 l 6.516811285465064 3.7624827499212437 a28.52496549984249,28.52496549984249 0 0,0 -0.2484745765506014,0.42196415271394655 l -6.4512629987846974 -3.8737980709287396" fill="#ff5608" stroke="none" /><path d="M 117.81537515405839 111.11811171558189 l 3.8400141657833173 2.3964528456685454 a25.526443972361683,25.526443972361683 0 0,0 -0.2351864430645203,0.3697521519273078 l -3.7983100310929068 -2.462018672274525" fill="#ff2c04" stroke="none" /><path d="M 116.79662413953412 112.60449989151573 l 6.423668174371436 4.820440353631894 a29.03119903982931,29.03119903982931 0 0,0 -0.3025438335666791,0.39603958992631527 l -6.339972363450452 -4.930000856799087" fill="#ff5d08" stroke="none" /><path d="M 116.1254893667686 113.45245675266167 l 6.407667849147883 5.345504416363397 a29.34461651188142,29.34461651188142 0 0,0 -0.32601231257242047,0.3840416844640113 l -6.314960973068348 -5.454712883276965" fill="#ff6209" stroke="none" /><path d="M 115.41159269507618 114.26474011684316 l 2.2453579503689935 2.0782697976137356 a24.059548606732484,24.059548606732484 0 0,0 -0.28315128957584895,0.30069685722463885 l -2.2093508270568845 -2.1165081147828717" fill="#ff1702" stroke="none" /><path d="M 114.91283532996324 114.78537596483092 l 3.3276090117295487 3.2991680799644483 a25.685882174660392,25.685882174660392 0 0,0 -0.31313301787156045,0.3104566833733381 l -3.270484073728023 -3.3558047735664482" fill="#ff2e04" stroke="none" /><path d="M 114.13192950727249 115.5334660781643 l 3.6779878935953163 4.042752983706925 a26.465477713128557,26.465477713128557 0 0,0 -0.3386761639687663,0.30284631420173286 l -3.608046702803172 -4.105294827792045" fill="#ff3905" stroke="none" /><path d="M 113.59037401385872 116.0094264158162 l 4.9162606743566775 5.791342712630535 a28.596661729560214,28.596661729560214 0 0,0 -0.3769661868586934,0.3144786003445541 l -4.816120153336089 -5.87488349688696" fill="#ff5708" stroke="none" /><path d="M 112.7482090630111 116.68781488649013 l 5.5658141833592065 7.285829431052746 a30.168511221680262,30.168511221680262 0 0,0 -0.41423809713254806,0.3108519906735075 l -5.4399230973158925 -7.380300448990269" fill="#ff6d0a" stroke="none" /><path d="M 112.16784306229584 117.11559508785304 l 4.3503649171595535 6.119333067109367 a28.508123074288992,28.508123074288992 0 0,0 -0.40129243438964146,0.2801332851450074 l -4.244677391596153 -6.193111168059497" fill="#ff5607" stroke="none" /><path d="M 111.27062007382361 117.71928675628689 l 5.056355589495878 7.949430825027892 a30.42126224501419,30.42126224501419 0 0,0 -0.4430434877152604,0.27649190368899734 l -4.919147972990903 -8.035058525558437" fill="#ff700a" stroke="none" /><line stroke="#e1ed5e" stroke-width="0.3" x1="143.1302829299769" x2="145.66735839644613" y1="173.24464959558577" y2="177.55315839532614" /><path d="M 143.63769802327073 174.10635135553383 a86.0,86.0 0 0,1 -40.68552437913181,11.842963189579606" fill="none" id="id30" stroke="none" /><text fill="#e1ed5e" style="font-size:6.75px; font-family:Arial;" text-anchor="middle"><textPath startOffset="21.407464694133747" xlink:href="#id30">June</textPath></text><path d="M 109.71004243097381 118.62028667847754 l 3.4741541675324146 6.6621487006409925 a28.513585860907913,28.513585860907913 0 0,0 -0.4359493443461914,0.22259884148522371 l -3.359277601472641 -6.720805493799052" fill="#ff5608" stroke="none" /><path d="M 109.06512990194946 118.94263497670748 l 3.2273136994191347 6.74384438222747 a28.476295256753804,28.476295256753804 0 0,0 -0.44275389468844817,0.207231178668917 l -3.1110710908591805 -6.798251792466921" fill="#ff5507" stroke="none" /><path d="M 108.07796709384702 119.3841803445677 l 5.816747849565183 13.958077326253473 a36.12158980369103,36.12158980369103 0 0,0 -0.5744116080786418,0.23360820037889418 l -5.5762817802961 -14.05587278321166" fill="#ffbc11" stroke="none" /><path d="M 103.58742460773223 120.69131181640829 l 2.5576077782830704 14.751602007318404 a35.9716772383676,35.9716772383676 0 0,0 -0.609330230790528,0.1002650575992313 l -2.30400004443947 -14.793333063413305" fill="#ffba11" stroke="none" /><path d="M 102.875027216393 120.80226474461374 l 2.0596316220957895 14.902468413140168 a36.04412334512641,36.04412334512641 0 0,0 -0.613646356494626,0.07944880647628531 l -1.8035074437103884 -14.935628815816848" fill="#ffbb11" stroke="none" /><path d="M 101.08105385017728 120.97215588758144 l 0.7855360178299795 15.239188888267371 a36.25942150959858,36.25942150959858 0 0,0 -0.6218909315844566,0.026706672434222405 l -0.5238193256446934 -15.250428129127423" fill="#ffbe11" stroke="none" /><line stroke="#e1ed5e" stroke-width="0.3" x1="101.45913802915013" x2="101.54496967792366" y1="184.9874750549273" y2="189.98673829345242" /><path d="M 101.47630435890484 185.9873277026323 a86.0,86.0 0 0,1 -42.54439059252881,-10.42667462771756" fill="none" id="id31" stroke="none" /><text fill="#e1ed5e" style="font-size:6.75px; font-family:Arial;" text-anchor="middle"><textPath startOffset="22.145653131862474" xlink:href="#id31">July</textPath></text><path d="M 100.0 121.0 l 1.8323975663092484e-15 14.96266162280451 a35.96266162280451,35.96266162280451 0 0,0 -0.6173469082740174,-0.00529918072346095 l 0.25685398342516347 -14.960456840275485" fill="#ffba11" stroke="none" /><path d="M 99.27912038922189 120.98762331915562 l -0.5133092138589478 14.944437692023412 a35.95325062586067,35.95325062586067 0 0,0 -0.6166397475284183,-0.026481163996406442 l 0.7697747219882048 -14.933423959601177" fill="#ffba11" stroke="none" /><path d="M 98.55909050195518 120.95050786540614 l -1.0269049809323079 14.930973048092044 a35.96624502013496,35.96624502013496 0 0,0 -0.6155896953212985,-0.04765053567919935 l 1.2830636710288426 -14.91114474541779" fill="#ffba11" stroke="none" /><path d="M 98.19965949673042 120.92268563240118 l -0.6807661595580851 7.911534690100816 a28.940769718148744,28.940769718148744 0 0,0 -0.49461213751511013,-0.04684028366898168 l 0.8164778604582105 -7.89868265092665" fill="#ff5c08" stroke="none" /><path d="M 97.12497278360702 120.80226474461374 l -0.20838327672803975 1.507757584390908 a22.522089525392058,22.522089525392058 0 0,0 -0.3825268525220704,-0.05621827428512069 l 0.23423523485779504 -1.5039582368069049" fill="#ff0000" stroke="none" /><path d="M 96.05791012581884 120.62667999033965 l -3.1161102680707984 16.304805665410846 a37.59990454760478,37.59990454760478 0 0,0 -0.6329380191085143,-0.12660533028475965 l 3.3955447727102706 -16.248910938463226" fill="#ffcf13" stroke="none" /><path d="M 95.35216902796893 120.47920084513623 l -3.3616952534496343 14.812249561100415 a36.18893452607474,36.18893452607474 0 0,0 -0.6046444531243835,-0.1426944445758653 l 3.6154718603139058 -14.752358972878323" fill="#ffbd11" stroke="none" /><path d="M 93.95794788825049 120.11202640906438 l -2.152477428877865 7.164897305391095 a28.481237362804983,28.481237362804983 0 0,0 -0.46703718444230025,-0.14468931358822823 l 2.2751552461917988 -7.126891403996218" fill="#ff5607" stroke="none" /><path d="M 93.27111125876986 119.89276391827306 l -4.83135171630991 14.283032874329615 a36.07802996070346,36.07802996070346 0 0,0 -0.5849695694098237,-0.20348278182776536 l 5.075827057764755 -14.197991659933258" fill="#ffbc11" stroke="none" /><path d="M 91.92203290615298 119.3841803445677 l -5.756680477127138 13.813937499161309 a35.96543481982638,35.96543481982638 0 0,0 -0.5678512710713567,-0.242381941096562 l 5.992966823368925 -13.713080908405344" fill="#ffba11" stroke="none" /><path d="M 90.93487009805054 118.94263497670748 l -6.465312237281107 13.51001596732979 a35.977342680296886,35.977342680296886 0 0,0 -0.5548044612285931,-0.27138266359300095 l 6.696276947771769 -13.397039553639567" fill="#ffba11" stroke="none" /><path d="M 89.97174638481275 118.45085714620012 l -7.15711485579739 13.16828521202079 a35.987595820684554,35.987595820684554 0 0,0 -0.5402523207980933,-0.29966885532063436 l 7.382111364751586 -13.043483441267005" fill="#ffbb11" stroke="none" /><line stroke="#e1ed5e" stroke-width="0.3" x1="58.13341422392154" x2="55.67067388415222" y1="173.97424548756322" y2="178.32567169271397" /><path d="M 57.64086615596768 174.84453072859336 a86.0,86.0 0 0,1 -31.369924170532247,-30.572349798747897" fill="none" id="id32" stroke="none" /><text fill="#e1ed5e" style="font-size:6.75px; font-family:Arial;" text-anchor="middle"><textPath startOffset="22.145653131862474" xlink:href="#id32">August</textPath></text><path d="M 89.03521579738668 117.91015095944536 l -7.873169957871501 12.860231434490126 a36.07887123541342,36.07887123541342 0 0,0 -0.5254387150745926,-0.3279126194858852 l 8.092772801735807 -12.723183018162693" fill="#ffbc11" stroke="none" /><path d="M 87.2517909369889 116.68781488649013 l -9.152308832325657 11.980666054574735 a36.07650874949189,36.07650874949189 0 0,0 -0.48890550582788417,-0.38017587845027667 l 9.35662428278877 -11.821789124503665" fill="#ffbc11" stroke="none" /><path d="M 86.96720088162412 116.46651593811092 l -4.827807312842797 6.099776827754952 a28.779138821126324,28.779138821126324 0 0,0 -0.3847486216128663,-0.30992625464542917 l 4.931806704810925 -6.016002279316113" fill="#ff5a08" stroke="none" /><path d="M 86.68645165197938 116.24036423190432 l -4.829438925842853 5.891130233743098 a28.61766996983777,28.61766996983777 0 0,0 -0.37724312114931186,-0.31470962877929476 l 4.929856381154058 -5.807358421051933" fill="#ff5708" stroke="none" /><path d="M 84.83555147118756 114.52719865689866 l -5.615529053445326 5.379549804794313 a28.7764852377119,28.7764852377119 0 0,0 -0.33866383105120623,-0.3596492525437522 l 5.707048718232786 -5.28235909230607" fill="#ff5a08" stroke="none" /><path d="M 83.20337586046588 112.60449989151573 l -12.351214757197598 9.268581815839969 a36.44212144931308,36.44212144931308 0 0,0 -0.371185532385183,-0.5035844629260898 l 12.50850230916661 -9.055191043645" fill="#ffc011" stroke="none" /><path d="M 82.98947788004972 112.3143062007846 l -6.632777166184799 4.801619163128353 a29.18836244459073,29.18836244459073 0 0,0 -0.2903337244433396,-0.40839074291799093 l 6.714225989158099 -4.687051193500858" fill="#ff5f08" stroke="none" /><path d="M 82.576782715395 111.72311816256416 l -12.548234140660835 8.443011939733365 a36.12423983753651,36.12423983753651 0 0,0 -0.34176207706118106,-0.5174713439446034 l 12.691320656642743 -8.2263607174497" fill="#ffbc11" stroke="none" /><path d="M 82.18462484594161 111.11811171558189 l -13.178954747178773 8.224642473518342 a36.53478651431644,36.53478651431644 0 0,0 -0.32747701113223876,-0.5349090868316845 l 13.318199722766417 -7.9971962705621005" fill="#ffc212" stroke="none" /><line stroke="#e1ed5e" stroke-width="0.3" x1="26.387840678322732" x2="22.057713659400548" y1="142.50000000000003" y2="145.00000000000006" /><path d="M 25.521815274538298 143.00000000000003 a86.0,86.0 0 0,1 -11.493303480769221,-40.785679425670985" fill="none" id="id33" stroke="none" /><text fill="#e1ed5e" style="font-size:6.75px; font-family:Arial;" text-anchor="middle"><textPath startOffset="21.40746469413373" xlink:href="#id33">September</textPath></text><path d="M 81.4637452351635 109.86951160357371 l -7.965069764518173 4.240951015267279 a30.023746553817773,30.023746553817773 0 0,0 -0.23831982331726656,-0.45700968485743265 l 8.036697656810388 -4.103595087305344" fill="#ff6b09" stroke="none" /><path d="M 81.1358732173502 109.22738970284198 l -8.077038240242398 3.9508841488503004 a29.99155338592696,29.99155338592696 0 0,0 -0.22225275204061276,-0.4644227716547822 l 8.143670250242922 -3.8116488751304134" fill="#ff6a09" stroke="none" /><path d="M 80.83023694016515 108.57439118712176 l -13.772569355215987 6.160295092578192 a36.087508153166894,36.087508153166894 0 0,0 -0.24808635522636768,-0.5676701309649673 l 13.876289592459324 -5.922962891837375" fill="#ffbc11" stroke="none" /><line stroke="#e1ed5e" stroke-width="0.3" x1="15.003131293944662" x2="10.003315487706104" y1="100.72959589197737" y2="100.7725132973878" /><path d="M 14.003168132696942 100.73817937305945 a86.0,86.0 0 0,1 10.791469493833604,-42.45332614584628" fill="none" id="id34" stroke="none" /><text fill="#e1ed5e" style="font-size:6.75px; font-family:Arial;" text-anchor="middle"><textPath startOffset="22.145653131862435" xlink:href="#id34">October</textPath></text><line stroke="#e1ed5e" stroke-width="0.3" x1="26.387840678322718" x2="22.05771365940052" y1="57.49999999999999" y2="54.99999999999999" /><path d="M 25.521815274538284 56.99999999999999 a86.0,86.0 0 0,1 29.574782752854787,-30.34633250058573" fill="none" id="id35" stroke="none" /><text fill="#e1ed5e" style="font-size:6.75px; font-family:Arial;" text-anchor="middle"><textPath startOffset="21.40746469413373" xlink:href="#id35">November</textPath></text><line stroke="#e1ed5e" stroke-width="0.3" x1="56.869717070023135" x2="54.33264160355391" y1="26.7553504044142" y2="22.446841604673864" /><path d="M 56.362301976729285 25.89364864446614 a86.0,86.0 0 0,1 42.16139366436587,-11.88097634709845" fill="none" id="id36" stroke="none" /><text fill="#e1ed5e" style="font-size:6.75px; font-family:Arial;" text-anchor="middle"><textPath startOffset="22.145653131862474" xlink:href="#id36">December</textPath></text></svg>