<?xml version="1.0" encoding="utf-8" ?>
<svg baseProfile="full" height="200mm" version="1.1" viewBox="0,0,200,200" width="200mm" xmlns="http://www.w3.org/2000/svg" xmlns:ev="http://www.w3.org/2001/xml-events" xmlns:xlink="http://www.w3.org/1999/xlink"><defs /><rect fill="#1a1a1a" height="200" width="200" x="0" y="0" /><rect fill="#1a1a1a" height="200" width="180" x="10" y="0" /><text alignment-baseline="middle" fill="#e1ed5e" style="dominant-baseline: central; font-size:9.0px; font-family:Arial;" text-anchor="middle" x="100.0" y="100.0">2026</text><line stroke="#e1ed5e" stroke-width="0.3" x1="100.0" x2="100.0" y1="15.0" y2="10.0" /><path d="M 100.0 14.0 a86.0,86.0 0 0,1 42.46469731375804,11.215312516191453" fill="none" id="id49" stroke="none" /><text fill="#e1ed5e" style="font-size:6.75px; font-family:Arial;" text-anchor="middle"><textPath startOffset="22.20632615414155" xlink:href="#id49">January</textPath></text><path d="M 100.0 79.0 l 0.0 -37.220496128532375 a58.220496128532375,58.220496128532375 0 0,0 1.0021701354298223,0.008625994752047991 l -0.6406896561572938 37.21498151038889" fill="#4dff2c" stroke="none" /><path d="M 100.72285384407766 79.0124445844662 l 1.1360127059643836 -32.983333788035445 a54.00289127699379,54.00289127699379 0 0,0 0.9287447267699289,0.039993701601142115 l -1.703598265123644 32.95889235991011" fill="#7bff26" stroke="none" /><path d="M 103.59715602781102 79.31037775812273 l 3.3326164427089284 -19.16808021215441 a40.45563238175001,40.45563238175001 0 0,0 0.6850581073246559,0.12518999033235712 l -3.662069671136485 19.107874740471317" fill="#ffdf14" stroke="none" /><path d="M 106.0581310904928 79.89281104454417 l 5.395826787209419 -17.908973437632326 a39.704178044153316,39.704178044153316 0 0,0 0.6526887154923653,0.20279356102934631 l -5.703300875412503 17.81343974172046" fill="#ffd614" stroke="none" /><path d="M 110.36928655335952 81.73862282372117 l 7.655989906821336 -13.482983484620924 a36.50500000322189,36.50500000322189 0 0,0 0.5437563467790956,0.3149787730980969 l -7.88694298606576 13.349200554132777" fill="#ffab0f" stroke="none" /><line stroke="#e1ed5e" stroke-width="0.3" x1="143.23703022742887" x2="145.7803849466894" y1="26.81831364943548" y2="22.513508569990506" /><path d="M 143.74570117128098 25.957352633546492 a86.0,86.0 0 0,1 28.547481713284135,27.462654790039103" fill="none" id="id50" stroke="none" /><text fill="#e1ed5e" style="font-size:6.75px; font-family:Arial;" text-anchor="middle"><textPath startOffset="19.985693538727396" xlink:href="#id50">February</textPath></text><path d="M 110.68208982089419 81.91981866633111 l 15.109771803336795 -25.57434160311319 a50.70441301190175,50.70441301190175 0 0,0 0.7476195085072759,0.4504323887038577 l -15.547753378061708 25.310462604950718" fill="#a0ff22" stroke="none" /><path d="M 112.77801427241765 83.33499621200491 l 23.74670422097226 -30.970298464068513 a60.026469841785925,60.026469841785925 0 0,0 0.8145518920768214,0.6357706719739803 l -24.27628866820851 30.55694940287131" fill="#3bff2e" stroke="none" /><path d="M 114.68862486808459 84.99185889309783 l 10.830910927114601 -11.066511737502188 a36.48471225264984,36.48471225264984 0 0,0 0.44505129144407285,0.4431400997617773 l -11.019798018725997 10.878435787090291" fill="#ffab0f" stroke="none" /><path d="M 115.19652480421416 85.50635884689758 l 11.197307483060245 -10.67939931209923 a36.47350201271394,36.47350201271394 0 0,0 0.42940197998661805,0.4580560930624995 l -11.379476785017326 10.485073802158675" fill="#ffaa0f" stroke="none" /><path d="M 115.4437574822437 85.77008943001954 l 21.917601481788896 -20.194924023697897 a50.80295641438019,50.80295641438019 0 0,0 0.5870314499740817,0.6482147890333217 l -22.261976572379012 19.814656447395027" fill="#9fff22" stroke="none" /><path d="M 115.9244219780498 86.31012108654704 l 42.53833165319142 -36.56927769907106 a77.09653938763677,77.09653938763677 0 0,0 0.856466875048004,1.0137866364982369 l -43.16150914172654 35.831632112943716" fill="#44ffe8" stroke="none" /><path d="M 116.15771136456269 86.58626213691792 l 14.760659367554345 -12.253939371442627 a40.18426686334303,40.18426686334303 0 0,0 0.4372459796703752,0.5360118705292862 l -14.969403839301128 11.99804333130524" fill="#ffdc14" stroke="none" /><path d="M 116.60985879189232 87.15038557335679 l 49.820544552723646 -38.541856137897064 a83.98858098166902,83.98858098166902 0 0,0 0.8747773051012598,1.1511043932701444 l -50.47659779804902 37.67856696874588" fill="#4dd2ff" stroke="none" /><path d="M 117.2510076193507 88.02491185347247 l 12.720077936458377 -8.829864195812252 a36.484407784157014,36.484407784157014 0 0,0 0.3536825147342661,0.518985448242474 l -12.870184916861376 8.609600724299371" fill="#ffab0f" stroke="none" /><line stroke="#e1ed5e" stroke-width="0.3" x1="172.23445277983987" x2="176.4835382374775" y1="55.19839476539836" y2="52.563006222186495" /><path d="M 173.08426987136738 54.67131705675599 a86.0,86.0 0 0,1 12.851231095245387,41.99856678651699" fill="none" id="id51" stroke="none" /><text fill="#e1ed5e" style="font-size:6.75px; font-family:Arial;" text-anchor="middle"><textPath startOffset="22.20632615414155" xlink:href="#id51">March</textPath></text><path d="M 117.84615892207809 88.93136811851018 l 40.54377147696757 -25.146256038918242 a68.70882097004076,68.70882097004076 0 0,0 0.6147286656500413,1.0104522943092222 l -40.97061594090383 24.44463597140194" fill="#39ff8b" stroke="none" /><path d="M 118.3937258080291 89.86733742301442 l 15.660299170370347 -8.626883373391593 a38.879264158337236,38.879264158337236 0 0,0 0.3178692744920159,0.5889634896575154 l -15.806476544080828 8.356038900401618" fill="#ffcb12" stroke="none" /><path d="M 118.89224826269711 90.83032412892265 l 43.64011727424556 -21.18147744071124 a69.50891487429156,69.50891487429156 0 0,0 0.5131803669623706,1.0808887301331411 l -43.99825583504969 20.42714629493756" fill="#3aff94" stroke="none" /><path d="M 119.04729006885535 91.15688171328212 l 24.708450931892642 -11.471435226870677 a48.241537651498966,48.241537651498966 0 0,0 0.3431987595837812,0.7561929740233534 l -24.90225200843977 11.04442024400526" fill="#bdff1f" stroke="none" /><path d="M 119.47837535516314 92.15188598940014 l 14.359951171414156 -5.785828228740453 a36.48173136112007,36.48173136112007 0 0,0 0.22967239035348216,0.5844911818844533 l -14.457417111649338 5.537788041960215" fill="#ffab0f" stroke="none" /><path d="M 119.85752413597 93.16781622104841 l 46.805491563604846 -16.103906913926835 a70.49838238168097,70.49838238168097 0 0,0 0.38493025279029075,1.150892460995614 l -47.075759110166906 15.295841350008907" fill="#3bffa0" stroke="none" /><path d="M 120.53481517161879 95.60439243477599 l 47.570495553114625 -10.18276660331111 a69.64813236771178,69.64813236771178 0 0,0 0.2408522100356535,1.1744809130552274 l -47.738727059065276 9.362410034092472" fill="#3aff96" stroke="none" /><path d="M 120.6074358757038 95.95851677861258 l 8.783938481154586 -1.7226859374164238 a29.95126929991946,29.95126929991946 0 0,0 0.09486604740309516,0.506778218575424 l -8.81229025246754 1.571229641378437" fill="#ff4f07" stroke="none" /><path d="M 120.78858239683441 97.02765380044208 l 15.337692573694648 -2.192979365363122 a36.49367522513869,36.49367522513869 0 0,0 0.08356009113850422,0.6226197363722082 l -15.373168663890988 1.9286412869262495" fill="#ffab0f" stroke="none" /><path d="M 120.91429891909075 98.10471618934814 l 37.22627952527628 -3.373498924731082 a58.37882264450241,58.37882264450241 0 0,0 0.0820792796471001,1.001575110886199 l -37.278833288742874 2.7322098966371144" fill="#4cff2c" stroke="none" /><line stroke="#e1ed5e" stroke-width="0.3" x1="184.98032266829074" x2="189.97916517819016" y1="98.17113171792111" y2="98.06355123074" /><path d="M 185.9800911702706 98.14961562048488 a86.0,86.0 0 0,1 -9.607161424134198,41.387399972396054" fill="none" id="id52" stroke="none" /><text fill="#e1ed5e" style="font-size:6.75px; font-family:Arial;" text-anchor="middle"><textPath startOffset="21.466115282336823" xlink:href="#id52">April</textPath></text><path d="M 120.99980553446 99.90962569577887 l 15.497167939660665 -0.06669327330896406 a36.497311448853026,36.497311448853026 0 0,0 -0.0027037603022301597,0.6282586742765958 l -15.496019882068932 -0.20007487917131647" fill="#ffab0f" stroke="none" /><path d="M 120.9904718944345 100.63252640178507 l 15.094198416937301 0.45484823116467016 a36.101050054988434,36.101050054988434 0 0,0 -0.024063700123894843,0.6209771755499088 l -15.084132583962203 -0.7146026537285852" fill="#ffa50f" stroke="none" /><path d="M 120.9764740272857 100.99374915477107 l 30.187865454839503 1.4301338604890008 a51.2217223794146,51.2217223794146 0 0,0 -0.04930371062447021,0.8803508735593119 l -30.158775393327502 -1.949556450383736" fill="#9aff22" stroke="none" /><path d="M 120.95626037817324 101.35467743843564 l 16.63265681275703 1.075186341402431 a37.66737226798787,37.66737226798787 0 0,0 -0.04739531435198721,0.6466714085802955 l -16.611684939740705 -1.3613308864794966" fill="#ffbb11" stroke="none" /><path d="M 120.8583938346157 102.4346265915055 l 15.398981456361076 1.7973948537465438 a36.50352405595666,36.50352405595666 0 0,0 -0.07821921379473443,0.6234840945149828 l -15.365760733319494 -2.0621967025489214" fill="#ffab0f" stroke="none" /><path d="M 120.76222939487914 103.15116336523771 l 62.27190661147199 9.451246639533448 a83.98504914715222,83.98504914715222 0 0,0 -0.22923217509503502,1.4274289731359815 l -62.09999268201567 -10.521754842362634" fill="#4dd2ff" stroke="none" /><path d="M 120.49622156327973 104.57218783832717 l 15.116596245299041 3.3721297018707044 a36.48814839706889,36.48814839706889 0 0,0 -0.14202479048659128,0.6118390802821275 l -15.056310888881896 -3.6318374395013966" fill="#ffab0f" stroke="none" /><path d="M 120.23288151984713 105.62410040840565 l 14.90620166609088 4.14345207309217 a36.47136203416436,36.47136203416436 0 0,0 -0.17333859399058907,0.6034143855684004 l -14.83267043521419 -4.399423934165152" fill="#ffaa0f" stroke="none" /><path d="M 120.13307415673323 105.97154293290107 l 29.25915038879163 8.678370295896666 a51.519043111910094,51.519043111910094 0 0,0 -0.259492165111544,0.8480354097007167 l -29.105431451173953 -9.18073267814944" fill="#97ff23" stroke="none" /><path d="M 119.67450827220406 107.3425965602758 l 14.527365388707528 5.42166450399646 a36.50608884054624,36.50608884054624 0 0,0 -0.22478314841667976,0.5868378695078081 l -14.431887960697342 -5.670925940337413" fill="#ffab0f" stroke="none" /><path d="M 119.41010516605496 108.01547362559984 l 28.15827693466161 11.628063020845005 a51.4647404312894,51.4647404312894 0 0,0 -0.3451789615685533,0.8159011009311808 l -27.953946991900747 -12.11103864744235" fill="#98ff23" stroke="none" /><path d="M 119.26925614724726 108.34839909993367 l 35.802064897472924 15.511233235047744 a60.01776784229094,60.01776784229094 0 0,0 -0.41886375961030725,0.9444272011181293 l -35.52976005313135 -16.12520877265856" fill="#3bff2e" stroke="none" /><line stroke="#e1ed5e" stroke-width="0.3" x1="174.80103733775053" x2="179.2010983576182" y1="140.37084112569926" y2="142.7455964860345" /><path d="M 175.68104954172406 140.8457921977663 a86.0,86.0 0 0,1 -30.038265399797805,32.042727171017184" fill="none" id="id53" stroke="none" /><text fill="#e1ed5e" style="font-size:6.75px; font-family:Arial;" text-anchor="middle"><textPath startOffset="22.206326154141568" xlink:href="#id53">May</textPath></text><path d="M 118.48025628344425 109.97397251340804 l 13.608984360108941 7.344900084785455 a36.464540490075066,36.464540490075066 0 0,0 -0.30287028952284306,0.5497975501064151 l -13.480537661134589 -7.578068153289675" fill="#ffaa0f" stroke="none" /><path d="M 118.30583269289576 110.29060199501025 l 13.48261921117553 7.579238294160258 a36.46692839296881,36.46692839296881 0 0,0 -0.31230972752045494,0.5445383345971878 l -13.350157487502695 -7.810196474615761" fill="#ffaa0f" stroke="none" /><path d="M 118.12598468904814 110.60418214915192 l 13.37554643005656 7.825049679891731 a36.49634294907584,36.49634294907584 0 0,0 -0.3218962229164289,0.5395165850440834 l -13.238869331441903 -8.054128358821918" fill="#ffab0f" stroke="none" /><path d="M 117.94076556474637 110.91462005526583 l 13.16882058184891 8.011512814663853 a36.414349583957495,36.414349583957495 0 0,0 -0.33039148663029083,0.5326962753875795 l -13.028964455550657 -8.237005421416706" fill="#ffaa0f" stroke="none" /><path d="M 117.75023020441432 111.22182372390056 l 25.72563883856507 16.26393465924248 a51.43557234967656,51.43557234967656 0 0,0 -0.47956356740402545,0.744293306321146 l -25.441870407784 -16.704349565485078" fill="#98ff23" stroke="none" /><path d="M 117.55443506779139 111.5257021239791 l 12.615295353464349 8.282814906235618 a36.091411452415514,36.091411452415514 0 0,0 -0.3454410296799741,0.5163874693171736 l -12.470851218373655 -8.498739289758598" fill="#ffa50f" stroke="none" /><path d="M 116.93607887273984 112.41649034213515 l 12.528165757336746 9.184879823689366 a36.53437976292974,36.53437976292974 0 0,0 -0.3761975239055424,0.5039780605922034 l -12.368206966736112 -9.399170763790885" fill="#ffab0f" stroke="none" /><path d="M 116.71984013943494 112.70617746262583 l 12.020766226865627 9.135134525302686 a36.09799667096037,36.09799667096037 0 0,0 -0.38022051312863303,0.4914862674597198 l -11.861738896518926 -9.340698786875658" fill="#ffa50f" stroke="none" /><path d="M 116.0416608686014 113.55231037782055 l 11.701951114079057 9.886038286377826 a36.31892335890562,36.31892335890562 0 0,0 -0.40756315875480575,0.47408802983206433 l -11.530045445753473 -10.086003415371417" fill="#ffa80f" stroke="none" /><path d="M 115.32070863581623 114.36230785411682 l 2.7537744079734043 2.581509559919596 a24.774581446725655,24.774581446725655 0 0,0 -0.29433789348982414,0.3086121045766898 l -2.7089299631046155 -2.628528781078793" fill="#ff0200" stroke="none" /><path d="M 115.07121518719521 114.62390073753431 l 2.6316005718419695 2.5534945301658545 a24.666831859426598,24.666831859426598 0 0,0 -0.298303485756199,0.30217985615324233 l -2.587256461030235 -2.5984148802997615" fill="#ff0000" stroke="none" /><path d="M 114.0293411484842 115.62618273729858 l 10.344129684036265 11.521514730471111 a36.483743752872655,36.483743752872655 0 0,0 -0.47091417803869723,0.4155270098665222 l -10.14427315309098 -11.697864882109922" fill="#ffab0f" stroke="none" /><path d="M 112.92097659922987 116.55440617244103 l 9.53304741704222 12.213777944018787 a36.49372017048763,36.49372017048763 0 0,0 -0.49852380511002004,0.3822467956127709 l -9.321394883438707 -12.37606408145893" fill="#ffab0f" stroke="none" /><path d="M 112.34349029814194 116.9893568818739 l 6.137755419068615 8.44789559108001 a31.44217321739566,31.44217321739566 0 0,0 -0.44059868242482164,0.3143554612895345 l -5.991429408794908 -8.552295314213763" fill="#ff6409" stroke="none" /><path d="M 111.1453310114006 117.79835938074945 l 7.915271301220551 12.640166817042063 a35.91393096854672,35.91393096854672 0 0,0 -0.5267732262146474,0.3235871400370722 l -7.696518875073595 -12.774542423907514" fill="#ffa30f" stroke="none" /><line stroke="#e1ed5e" stroke-width="0.3" x1="143.8653032363475" x2="146.44561519142675" y1="172.8068346515853" y2="177.08958963109032" /><path d="M 144.38136562736335 173.6633856474863 a86.0,86.0 0 0,1 -40.68145358897372,12.25698825130547" fill="none" id="id54" stroke="none" /><text fill="#e1ed5e" style="font-size:6.75px; font-family:Arial;" text-anchor="middle"><textPath startOffset="21.466115282336833" xlink:href="#id54">June</textPath></text><path d="M 110.5260780823613 118.17145234162733 l 7.766030629635706 13.406708022289925 a36.493580984890905,36.493580984890905 0 0,0 -0.5462762943838828,0.31018993688668434 l -7.534105568330624 -13.538401124971239" fill="#ffab0f" stroke="none" /><path d="M 109.57404056367764 118.69057910512821 l 7.063565804770872 13.789594326476877 a36.493446148844086,36.493446148844086 0 0,0 -0.5615578341994562,0.2815767558170153 l -6.825154062888656 -13.909138923203194" fill="#ffab0f" stroke="none" /><path d="M 109.2508944713604 118.85261126421891 l 6.820296216074012 13.899239005107583 a36.482418590003874,36.482418590003874 0 0,0 -0.566150383771194,0.271786589112336 l -6.580033164302585 -14.01457987071948" fill="#ffab0f" stroke="none" /><path d="M 108.92500713936063 119.00905698771935 l 26.775021418081884 57.02717096315804 a84.0,84.0 0 0,0 -1.3141280169303222,0.6032517186637025 l -25.789425405384144 -57.479609752155824" fill="#4dd2ff" stroke="none" /><path d="M 107.93186726928326 119.44442032107085 l 5.853022068053545 14.348276058585686 a36.49615736828021,36.49615736828021 0 0,0 -0.5837280983554605,0.2322774571106357 l -5.605172893656218 -14.44690036010239" fill="#ffab0f" stroke="none" /><path d="M 104.48393922423573 120.51570834832081 l 3.30896731264579 15.139769949031551 a36.49715776475664,36.49715776475664 0 0,0 -0.6149050500347608,0.12885933184459922 l -3.0478708011816513 -15.194485261602692" fill="#ffab0f" stroke="none" /><path d="M 103.41894727170886 120.7198165907248 l 2.5215831892528855 15.28152880037272 a36.48817304451831,36.48817304451831 0 0,0 -0.6205841339975413,0.0969224787730924 l -2.258163191646827 -15.32266958649292" fill="#ffab0f" stroke="none" /><path d="M 101.62511606390274 120.93702456842531 l 1.1984080054853372 15.439572847238715 a36.4860127680692,36.4860127680692 0 0,0 -0.6265816626124369,0.043212739978182764 l -0.93246358209397 -15.457913931733183" fill="#ffab0f" stroke="none" /><line stroke="#e1ed5e" stroke-width="0.3" x1="102.19456741930631" x2="102.32365962044197" y1="184.97166512339345" y2="189.96999836594603" /><path d="M 102.22038585953345 185.97133177190398 a86.0,86.0 0 0,1 -42.740103519485714,-10.115201625700543" fill="none" id="id55" stroke="none" /><text fill="#e1ed5e" style="font-size:6.75px; font-family:Arial;" text-anchor="middle"><textPath startOffset="22.20632615414155" xlink:href="#id55">July</textPath></text><line stroke="#e1ed5e" stroke-width="0.3" x1="58.666819895761336" x2="56.23545636021788" y1="174.27360380694188" y2="178.64263932499728" /><path d="M 58.180547188652646 175.14741091055294 a86.0,86.0 0 0,1 -31.652253787137756,-30.449443065178592" fill="none" id="id56" stroke="none" /><text fill="#e1ed5e" style="font-size:6.75px; font-family:Arial;" text-anchor="middle"><textPath startOffset="22.20632615414155" xlink:href="#id56">August</textPath></text><line stroke="#e1ed5e" stroke-width="0.3" x1="26.63291911575756" x2="22.317208475507996" y1="142.92168965132927" y2="145.44649492493687" /><path d="M 25.769776987707644 143.4266507060508 a86.0,86.0 0 0,1 -11.730757126820373,-40.83630448921669" fill="none" id="id57" stroke="none" /><text fill="#e1ed5e" style="font-size:6.75px; font-family:Arial;" text-anchor="middle"><textPath startOffset="21.46611528233685" xlink:href="#id57">September</textPath></text><line stroke="#e1ed5e" stroke-width="0.3" x1="15.007084014347285" x2="10.007500721073583" y1="101.09737516637583" y2="101.16192664675087" /><path d="M 14.007167355692545 101.11028546245083 a86.0,86.0 0 0,1 10.666146001902534,-42.60595125391555" fill="none" id="id58" stroke="none" /><text fill="#e1ed5e" style="font-size:6.75px; font-family:Arial;" text-anchor="middle"><textPath startOffset="22.20632615414155" xlink:href="#id58">October</textPath></text><line stroke="#e1ed5e" stroke-width="0.3" x1="26.266209847984243" x2="21.928928074336255" y1="57.711370442889674" y2="55.22380399835377" /><path d="M 25.398753493254645 57.213857153982495 a86.0,86.0 0 0,1 29.58750427330803,-30.492523968695096" fill="none" id="id59" stroke="none" /><text fill="#e1ed5e" style="font-size:6.75px; font-family:Arial;" text-anchor="middle"><textPath startOffset="21.46611528233685" xlink:href="#id59">November</textPath></text><line stroke="#e1ed5e" stroke-width="0.3" x1="56.762969772571076" x2="54.21961505331055" y1="26.818313649435495" y2="22.513508569990535" /><path d="M 56.25429882871897 25.957352633546506 a86.0,86.0 0 0,1 42.265352541879196,-11.944610805530505" fill="none" id="id60" stroke="none" /><text fill="#e1ed5e" style="font-size:6.75px; font-family:Arial;" text-anchor="middle"><textPath startOffset="22.20632615414155" xlink:href="#id60">December</textPath></text></svg>