<?xml version="1.0" encoding="utf-8" ?>
<svg baseProfile="full" height="200mm" version="1.1" viewBox="0,0,200,200" width="200mm" xmlns="http://www.w3.org/2000/svg" xmlns:ev="http://www.w3.org/2001/xml-events" xmlns:xlink="http://www.w3.org/1999/xlink"><defs /><rect fill="#1a1a1a" height="200" width="200" x="0" y="0" /><text alignment-baseline="middle" fill="#e1ed5e" style="dominant-baseline: central; font-size:9.0px; font-family:Arial;" text-anchor="middle" x="100.0" y="100.0">2022</text><line stroke="#e1ed5e" stroke-width="0.3" x1="100.0" x2="100.0" y1="15.0" y2="10.0" /><path d="M 100.0 14.0 a86.0,86.0 0 0,1 42.46469731375804,11.215312516191453" fill="none" id="id1" stroke="none" /><text fill="#e1ed5e" style="font-size:6.75px; font-family:Arial;" text-anchor="middle"><textPath startOffset="22.20632615414155" xlink:href="#id1">January</textPath></text><line stroke="#e1ed5e" stroke-width="0.3" x1="143.23703022742887" x2="145.7803849466894" y1="26.81831364943548" y2="22.513508569990506" /><path d="M 143.74570117128098 25.957352633546492 a86.0,86.0 0 0,1 28.547481713284135,27.462654790039103" fill="none" id="id2" stroke="none" /><text fill="#e1ed5e" style="font-size:6.75px; font-family:Arial;" text-anchor="middle"><textPath startOffset="19.985693538727396" xlink:href="#id2">February</textPath></text><line stroke="#e1ed5e" stroke-width="0.3" x1="172.23445277983987" x2="176.4835382374775" y1="55.19839476539836" y2="52.563006222186495" /><path d="M 173.08426987136738 54.67131705675599 a86.0,86.0 0 0,1 12.851231095245387,41.99856678651699" fill="none" id="id3" stroke="none" /><text fill="#e1ed5e" style="font-size:6.75px; font-family:Arial;" text-anchor="middle"><textPath startOffset="22.20632615414155" xlink:href="#id3">March</textPath></text><line stroke="#e1ed5e" stroke-width="0.3" x1="184.98032266829074" x2="189.97916517819016" y1="98.17113171792111" y2="98.06355123074" /><path d="M 185.9800911702706 98.14961562048488 a86.0,86.0 0 0,1 -9.607161424134198,41.387399972396054" fill="none" id="id4" stroke="none" /><text fill="#e1ed5e" style="font-size:6.75px; font-family:Arial;" text-anchor="middle"><textPath startOffset="21.466115282336823" xlink:href="#id4">April</textPath></text><line stroke="#e1ed5e" stroke-width="0.3" x1="174.80103733775053" x2="179.2010983576182" y1="140.37084112569926" y2="142.7455964860345" /><path d="M 175.68104954172406 140.8457921977663 a86.0,86.0 0 0,1 -30.038265399797805,32.042727171017184" fill="none" id="id5" stroke="none" /><text fill="#e1ed5e" style="font-size:6.75px; font-family:Arial;" text-anchor="middle"><textPath startOffset="22.206326154141568" xlink:href="#id5">May</textPath></text><line stroke="#e1ed5e" stroke-width="0.3" x1="143.8653032363475" x2="146.44561519142675" y1="172.8068346515853" y2="177.08958963109032" /><path d="M 144.38136562736335 173.6633856474863 a86.0,86.0 0 0,1 -40.68145358897372,12.25698825130547" fill="none" id="id6" stroke="none" /><text fill="#e1ed5e" style="font-size:6.75px; font-family:Arial;" text-anchor="middle"><textPath startOffset="21.466115282336833" xlink:href="#id6">June</textPath></text><line stroke="#e1ed5e" stroke-width="0.3" x1="102.19456741930631" x2="102.32365962044197" y1="184.97166512339345" y2="189.96999836594603" /><path d="M 102.22038585953345 185.97133177190398 a86.0,86.0 0 0,1 -42.740103519485714,-10.115201625700543" fill="none" id="id7" stroke="none" /><text fill="#e1ed5e" style="font-size:6.75px; font-family:Arial;" text-anchor="middle"><textPath startOffset="22.20632615414155" xlink:href="#id7">July</textPath></text><path d="M 97.2962882734958 120.8252237178851 l -1.402246719522849 10.800745270092499 a31.89139083183769,31.89139083183769 0 0,0 -0.5437807259127391,-0.07536305367024293 l 1.5879560366224186 -10.77500765092965" fill="#ff2b04" stroke="none" /><path d="M 96.93821686468263 120.77559828337769 l -1.646813563679405 11.174382879039085 a32.295079797897856,32.295079797897856 0 0,0 -0.5492687755100092,-0.08578448645176341 l 1.838918202797932 -11.144380085240215" fill="#ff3104" stroke="none" /><path d="M 94.46302465271185 120.25689768951611 l -2.178040300753247 7.968310633279282 a29.260619462252027,29.260619462252027 0 0,0 -0.48470750061280854,-0.13698318128554013 l 2.3148789694706706 -7.929638658655221" fill="#ff0000" stroke="none" /><path d="M 93.42475214034765 119.94407469862007 l -4.951560964591661 15.019099486511022 a36.81427536663579,36.81427536663579 0 0,0 -0.600125748475378,-0.20359523717100414 l 5.209356446004265 -14.931641262441895" fill="#ff780b" stroke="none" /><path d="M 92.40401165467489 119.57807347666478 l -9.523115947449146 24.545096078340222 a47.327770107692615,47.327770107692615 0 0,0 -0.7569714522433385,-0.30121456295796917 l 9.944208475734342 -24.377534670976186" fill="#eeff19" stroke="none" /><path d="M 91.40352486487194 119.15986991738527 l -4.404300260980732 9.816328059005064 a31.759096493241664,31.759096493241664 0 0,0 -0.4968514106447907,-0.22808011360421906 l 4.572619667392943 -9.739060875066771" fill="#ff2904" stroke="none" /><path d="M 90.10565033884886 118.52300852407294 l -4.3752207874607505 8.190760860113759 a30.28607131173351,30.28607131173351 0 0,0 -0.45771943583160857,-0.2495851315221836 l 4.5155630351610005 -8.11423507683181" fill="#ff1101" stroke="none" /><line stroke="#e1ed5e" stroke-width="0.3" x1="58.666819895761336" x2="56.23545636021788" y1="174.27360380694188" y2="178.64263932499728" /><path d="M 58.180547188652646 175.14741091055294 a86.0,86.0 0 0,1 -31.652253787137756,-30.449443065178592" fill="none" id="id8" stroke="none" /><text fill="#e1ed5e" style="font-size:6.75px; font-family:Arial;" text-anchor="middle"><textPath startOffset="22.20632615414155" xlink:href="#id8">August</textPath></text><path d="M 89.7882731507175 118.34994917583269 l -8.366252280473052 15.033726068540668 a38.204856777213806,38.204856777213806 0 0,0 -0.5718925636912301,-0.3247355231429581 l 8.623793611085489 -14.887487379603076" fill="#ff8d0d" stroke="none" /><path d="M 87.07902340077011 116.55440617244103 l -9.817812057630332 12.578619524501622 a36.956537930927404,36.956537930927404 0 0,0 -0.49810815030741673,-0.3957272398308844 l 10.032877700655108 -12.407758370665608" fill="#ff7a0b" stroke="none" /><path d="M 85.70375840098266 115.38237550388516 l -10.684174417471061 11.495887342155715 a36.69417117169553,36.69417117169553 0 0,0 -0.45896399302542595,-0.4339791024935829 l 10.880474244887305 -11.310273602916203" fill="#ff760a" stroke="none" /><path d="M 85.44109423537348 115.13401014063109 l -10.942612541268543 11.374866479795735 a36.78380045050964,36.78380045050964 0 0,0 -0.4525284094375451,-0.4428942932394332 l 11.136790903081883 -11.184822083633732" fill="#ff780b" stroke="none" /><path d="M 84.4343377721795 114.09645910891817 l -19.803894150436914 17.93465514046852 a47.7178980933988,47.7178980933988 0 0,0 -0.5461225961967117,-0.6135745262328922 l 20.10967559628196 -17.591106444494763" fill="#e9ff1a" stroke="none" /><path d="M 83.95833913139862 113.55231037782056 l -13.728241859995304 11.597888532390224 a38.97152311230954,38.97152311230954 0 0,0 -0.4285085988987467,-0.5161662117533184 l 13.925846458787591 -11.359861063523143" fill="#ff990e" stroke="none" /><path d="M 83.72743513129215 113.27417163493433 l -20.754065346183815 16.929907961692006 a47.783446603919934,47.783446603919934 0 0,0 -0.514427684639495,-0.6418276334602553 l 21.042410942878167 -16.570152494653495" fill="#e8ff1a" stroke="none" /><path d="M 83.50135304334701 112.99209946851258 l -16.404452994262563 12.917925063064366 a41.88010694359386,41.88010694359386 0 0,0 -0.44112353095719986,-0.5702116278125643 l 16.62438334243783 -12.63363544113855" fill="#ffc412" stroke="none" /><path d="M 82.85270091963577 112.12312394758628 l -14.988169552040222 10.59662144896599 a39.355751487024214,39.355751487024214 0 0,0 -0.38632185283274634,-0.5565254422508721 l 15.168352312035102 -10.337054744528105" fill="#ff9f0e" stroke="none" /><path d="M 82.24976979558568 111.22182372390057 l -9.00737725815055 5.694528952108959 a31.656477141018737,31.656477141018737 0 0,0 -0.28722277518605344,-0.4630945673225052 l 9.10406467300456 -5.538638053421189" fill="#ff2703" stroke="none" /><path d="M 82.05923443525364 110.91462005526583 l -12.864333804690629 7.826272253298659 a36.05794214430573,36.05794214430573 0 0,0 -0.318029546099625,-0.5330358122882866 l 12.997144226488487 -7.603674347124261" fill="#ff6d0a" stroke="none" /><line stroke="#e1ed5e" stroke-width="0.3" x1="26.63291911575756" x2="22.317208475507996" y1="142.92168965132927" y2="145.44649492493687" /><path d="M 25.769776987707644 143.4266507060508 a86.0,86.0 0 0,1 -11.730757126820373,-40.83630448921669" fill="none" id="id9" stroke="none" /><text fill="#e1ed5e" style="font-size:6.75px; font-family:Arial;" text-anchor="middle"><textPath startOffset="21.46611528233685" xlink:href="#id9">September</textPath></text><path d="M 81.69416730710424 110.29060199501025 l -15.434154100025566 8.676291302206492 a38.705681109295966,38.705681109295966 0 0,0 -0.3214849463670481,-0.58358855927122 l 15.58121545584413 -8.40933222453745" fill="#ff950d" stroke="none" /><path d="M 81.35079622478065 109.6543875284942 l -23.97828739475041 12.413166887378551 a48.000832923433265,48.000832923433265 0 0,0 -0.3735409508435537,-0.737031733853531 l 24.188407015380232 -11.998580941822336" fill="#e5ff1a" stroke="none" /><path d="M 80.87730276802145 108.67885076344099 l -16.057811833614085 7.287850181422032 a38.634230381579165,38.634230381579165 0 0,0 -0.2696281379507697,-0.6079402713293935 l 16.180881056296133 -7.010361573599942" fill="#ff940d" stroke="none" /><path d="M 80.45479744820244 107.68017299344265 l -34.99612026197325 13.751520711999934 a58.60096747801921,58.60096747801921 0 0,0 -0.36083049125060085,-0.9420145514931353 l 35.227645032817364 -13.147082593673641" fill="#60ff29" stroke="none" /><path d="M 80.32549172779594 107.34259656027581 l -10.18072622568639 3.7994832872872784 a31.86661215525584,31.86661215525584 0 0,0 -0.18736921357762445,-0.5155596038904675 l 10.244619700269238 -3.6236758863906937" fill="#ff2b04" stroke="none" /><path d="M 79.97269907076064 106.31721596034903 l -15.650268547304128 4.936567668309013 a37.41038104208829,37.41038104208829 0 0,0 -0.18842936879034058,-0.6157980796571493 l 15.7329246886006 -4.666442616099816" fill="#ff810b" stroke="none" /><path d="M 79.67330655649465 105.27499134158121 l -43.378519642628234 11.257183376206518 a65.81540074518384,65.81540074518384 0 0,0 -0.2751355966935029,-1.0990299419161962 l 43.5658665536168 -10.508825594892931" fill="#33ff56" stroke="none" /><path d="M 79.35854240842038 103.8639653848113 l -16.114665044820224 3.0165751446939777 a37.39457700309271,37.39457700309271 0 0,0 -0.11299137847939957,-0.6337156561744606 l 16.16420286563881 -2.7387407377863036" fill="#ff810b" stroke="none" /><path d="M 79.23777060512086 103.15116336523772 l -41.864797830889515 6.353981295010668 a63.34423662930526,63.34423662930526 0 0,0 -0.15433657046511967,-1.0794296143686615 l 41.96796845237123 -5.632406208661607" fill="#30ff35" stroke="none" /><path d="M 79.0235259727143 100.99374915477108 l -16.25003819459473 0.7698368038341772 a37.26826327640185,37.26826327640185 0 0,0 -0.024841723724263944,-0.6410545076051922 l 16.260882051170192 -0.490005049214988" fill="#ff7f0b" stroke="none" /><line stroke="#e1ed5e" stroke-width="0.3" x1="15.007084014347285" x2="10.007500721073583" y1="101.09737516637583" y2="101.16192664675087" /><path d="M 14.007167355692545 101.11028546245083 a86.0,86.0 0 0,1 10.666146001902534,-42.60595125391555" fill="none" id="id10" stroke="none" /><text fill="#e1ed5e" style="font-size:6.75px; font-family:Arial;" text-anchor="middle"><textPath startOffset="22.20632615414155" xlink:href="#id10">October</textPath></text><path d="M 79.00175016825051 100.2711162175752 l -20.00910807097329 0.25834504021632543 a41.010775795947865,41.010775795947865 0 0,0 -0.0030381226221590624,-0.7059527019880606 l 20.010590490884955 0.08611713997541057" fill="#ffb711" stroke="none" /><path d="M 79.00019446554 99.90962569577889 l -16.35151225383097 -0.07037001083072628 a37.35166367455032,37.35166367455032 0 0,0 0.008300949929076616,-0.6429177199747477 l 16.347878296784174 0.3518239888659459" fill="#ff810b" stroke="none" /><path d="M 79.00486145842228 99.54816195383935 l -17.347046412919077 -0.37332716535065247 a38.35106314968502,38.35106314968502 0 0,0 0.01988467112022008,-0.6598754282843056 l 17.338050047343213 0.6718727410599524" fill="#ff900d" stroke="none" /><path d="M 79.01574976396665 99.18683210126434 l -15.972765646653691 -0.6189661356393374 a36.9847540325145,36.9847540325145 0 0,0 0.030127413898470377,-0.6359420907343271 l 15.959744624521722 0.8938193329966735" fill="#ff7b0b" stroke="none" /><path d="M 79.05617556472873 98.46500227214037 l -53.07441381667224 -3.889886723786348 a74.21677010780773,74.21677010780773 0 0,0 0.1043470688896544,-1.2732985418872818 l 52.99959226396309 4.802899182881408" fill="#3fffc0" stroke="none" /><path d="M 79.54389044137918 95.25157060432595 l -10.562213965738852 -2.4517822968530654 a31.84304386642473,31.84304386642473 0 0,0 0.1285355076061363,-0.5328626611228243 l 10.5184456578719 2.6332301896352868" fill="#ff2a04" stroke="none" /><path d="M 79.62865764111835 94.90015583598534 l -32.16715258409048 -8.052854961097841 a54.15982777990014,54.15982777990014 0 0,0 0.23418623941368386,-0.9024151110402382 l 32.02377001280649 8.605366497686942" fill="#95ff23" stroke="none" /><path d="M 80.2630227832202 92.82701384747504 l -13.984208630426663 -5.082264308173343 a35.87909612568694,35.87909612568694 0 0,0 0.2159501485236124,-0.578639034384303 l 13.894653893401422 5.322226479586988" fill="#ff6a09" stroke="none" /><path d="M 80.38941819471856 92.48833698450439 l -34.90462879823523 -13.369914866202208 a58.37763683102621,58.37763683102621 0 0,0 0.36751905389170564,-0.935295904934881 l 34.669316194461835 13.968759776032853" fill="#63ff29" stroke="none" /><path d="M 81.26839172434947 90.50648371742162 l -14.135860035934217 -7.164308341523329 a36.84770812981937,36.84770812981937 0 0,0 0.2916067381354931,-0.5632914015172198 l 14.010443864638608 7.406572465300884" fill="#ff790b" stroke="none" /><path d="M 81.43458229118936 90.18545643968196 l -14.15495117327193 -7.482965751873315 a37.01116545294006,37.01116545294006 0 0,0 0.3025960641311861,-0.5606645504575453 l 14.024047009922272 7.725511285663333" fill="#ff7b0b" stroke="none" /><line stroke="#e1ed5e" stroke-width="0.3" x1="26.266209847984243" x2="21.928928074336255" y1="57.71137044288968" y2="55.22380399835378" /><path d="M 25.398753493254645 57.2138571539825 a86.0,86.0 0 0,1 29.58750427330803,-30.4925239686951" fill="none" id="id11" stroke="none" /><text fill="#e1ed5e" style="font-size:6.75px; font-family:Arial;" text-anchor="middle"><textPath startOffset="21.46611528233685" xlink:href="#id11">November</textPath></text><path d="M 82.54541684631803 88.32363383020207 l -22.25148520990411 -14.885287539959174 a47.77126032135666,47.77126032135666 0 0,0 0.46309808788561346,-0.6795393006694916 l 21.991962656349756 15.266104863899079" fill="#e8ff1a" stroke="none" /><path d="M 82.7489923806493 88.02491185347247 l -22.095019687892332 -15.337643701749773 a47.896713727334316,47.896713727334316 0 0,0 0.47597331941719145,-0.6732305054049451 l 21.827733748671264 15.715700707486503" fill="#e6ff1a" stroke="none" /><path d="M 83.6137871275137 86.86637796730984 l -20.57058911800314 -16.48741808543525 a47.36255093471887,47.36255093471887 0 0,0 0.515353062271044,-0.6317619183122989 l 20.283737563655706 16.839064173355634" fill="#eeff19" stroke="none" /><path d="M 84.07557802195018 86.31012108654704 l -20.412667855945756 -17.54832618939764 a47.91878082392775,47.91878082392775 0 0,0 0.54309808207261,-0.6208549918053075 l 20.1075779102953 17.89709673740589" fill="#e6ff1a" stroke="none" /><path d="M 84.31358615837235 86.03803664274999 l -42.78500659789731 -38.08153350986428 a78.27791881733337,78.27791881733337 0 0,0 0.9045064190650906,-0.9987785793068785 l 42.12315653821617 38.81236487644072" fill="#45ffef" stroke="none" /><path d="M 85.83668400450813 84.49514656593479 l -22.37665403484301 -24.49615197920153 a54.1779461025422,54.1779461025422 0 0,0 0.6939653436286437,-0.6230489374575551 l 21.951677703618394 24.877699925428363" fill="#95ff23" stroke="none" /><path d="M 86.10567301691215 84.25364557470405 l -35.351463818105834 -40.0635942576047 a74.43049296909791,74.43049296909791 0 0,0 0.9679728190303982,-0.8394164901006058 l 34.65659720042866 40.66617574112498" fill="#40ffc3" stroke="none" /><path d="M 87.80319425747018 82.90503203632743 l -15.777833044938149 -22.114113820709846 a48.16567771415343,48.16567771415343 0 0,0 0.6790646339052427,-0.47572817221249525 l 15.394837271449244 22.382426835686285" fill="#e3ff1b" stroke="none" /><path d="M 88.09926311788651 82.69761687909137 l -15.718233190527807 -22.852609493034635 a48.73634105777016,48.73634105777016 0 0,0 0.6952942377480895,-0.46946577305411247 l 15.32253425837318 23.119787178387412" fill="#dbff1b" stroke="none" /><line stroke="#e1ed5e" stroke-width="0.3" x1="56.76296977257108" x2="54.21961505331056" y1="26.818313649435495" y2="22.513508569990535" /><path d="M 56.25429882871898 25.957352633546506 a86.0,86.0 0 0,1 42.26535254187918,-11.944610805530505" fill="none" id="id12" stroke="none" /><text fill="#e1ed5e" style="font-size:6.75px; font-family:Arial;" text-anchor="middle"><textPath startOffset="22.20632615414155" xlink:href="#id12">December</textPath></text><path d="M 89.94658935756843 81.56283822128135 l -30.16023192729471 -55.31148533615593 a84.0,84.0 0 0,0 1.2754198138867834,-0.6812850939930022 l 29.203667066879625 55.822449156650684" fill="#4dd2ff" stroke="none" /><path d="M 92.23578459929587 80.48803036053334 l -15.616943812387861 -39.24637813383357 a63.23940258411723,63.23940258411723 0 0,0 1.0148925383909715,-0.3937625375940972 l 14.939068108997212 39.50938337531822" fill="#30ff34" stroke="none" /><path d="M 92.57280143429618 80.3572730644239 l -6.895432748263857 -18.236364812193635 a40.49646107244194,40.49646107244194 0 0,0 0.6541483494969276,-0.24092835770473187 l 6.580502072994361 18.35235643770469" fill="#ffb010" stroke="none" /><path d="M 94.63758080256005 79.69619591428918 l -13.50196123423051 -51.12266788160747 a73.8756099586927,73.8756099586927 0 0,0 1.232284262452565,-0.31413669645280723 l 12.619968083092944 51.34750757422914" fill="#3fffbc" stroke="none" /><path d="M 94.98787191387505 79.60689891045804 l -3.7571836119649937 -15.287044523638775 a36.7419871351025,36.7419871351025 0 0,0 0.6154743222883993,-0.14566288690784818 l 3.493485602714061 15.349453322687493" fill="#ff770b" stroke="none" /><path d="M 95.692805502759 79.44645832069477 l -5.530111547415494 -26.389190981233632 a47.962409654385134,47.962409654385134 0 0,0 0.8094994792577049,-0.16237798016338006 l 5.0750456586906525 26.480472917474223" fill="#e6ff1a" stroke="none" /><path d="M 96.04723909329186 79.375362276772 l -5.47781976234869 -28.582059673745558 a50.1022446650139,50.1022446650139 0 0,0 0.8484096498369276,-0.15504144060969396 l 4.985014991408869 28.67211659570599" fill="#c9ff1d" stroke="none" /><path d="M 97.11714578562143 79.19881850522333 l -7.262957861027276 -52.40573869556908 a73.90663479299477,73.90663479299477 0 0,0 1.261640001849399,-0.16379708155055872 l 6.35980313067002 52.522994100283775" fill="#3fffbc" stroke="none" /><path d="M 97.47563105711357 79.15227682838746 l -3.245278987866784 -26.80142225024259 a47.9971863412632,47.9971863412632 0 0,0 0.8210565462681104,-0.09225526965519536 l 2.7834557380889553 26.853313473368388" fill="#e5ff1a" stroke="none" /><path d="M 98.91598698831166 79.02799685794201 l -1.3569566606739007 -26.252544060302757 a47.28759024743586,47.28759024743586 0 0,0 0.8132546062894592,-0.035020454073335865 l 0.9048612219951174 26.272012240900285" fill="#efff19" stroke="none" /><path d="M 99.63851952072746 79.00311137660856 l -0.9112281837708868 -52.92943265881624 a73.93727588747896,73.93727588747896 0 0,0 1.2727086630434095,-0.010954605271279321 l 1.2965893094236293e-14 52.93727588747896" fill="#3fffbd" stroke="none" /></svg>