<?xml version="1.0" encoding="utf-8" ?>
<svg baseProfile="full" height="200mm" version="1.1" viewBox="0,0,200,200" width="200mm" xmlns="http://www.w3.org/2000/svg" xmlns:ev="http://www.w3.org/2001/xml-events" xmlns:xlink="http://www.w3.org/1999/xlink"><defs /><rect fill="#1a1a1a" height="200" width="200" x="0" y="0" /><text alignment-baseline="middle" fill="#e1ed5e" style="dominant-baseline: central; font-size:9.0px; font-family:Arial;" text-anchor="middle" x="100.0" y="100.0">2023</text><line stroke="#e1ed5e" stroke-width="0.3" x1="100.0" x2="100.0" y1="15.0" y2="10.0" /><path d="M 100.0 14.0 a86.0,86.0 0 0,1 42.46469731375804,11.215312516191453" fill="none" id="id13" stroke="none" /><text fill="#e1ed5e" style="font-size:6.75px; font-family:Arial;" text-anchor="middle"><textPath startOffset="22.20632615414155" xlink:href="#id13">January</textPath></text><path d="M 100.0 79.0 l 0.0 -21.66602730884493 a42.66602730884493,42.66602730884493 0 0,0 0.7344255238217167,0.006321432349946383 l -0.3729450445491883 21.662817253103544" fill="#fff617" stroke="none" /><path d="M 107.08798089147638 80.2323363322302 l 4.462897277906865 -12.446570289087274 a34.222502186588535,34.222502186588535 0 0,0 0.5528036951417847,0.20360226622301328 l -4.676483298821227 12.367904755057937" fill="#ff840c" stroke="none" /><path d="M 107.76421540070413 80.48803036053334 l 5.66586056689581 -14.238669802063509 a36.32454546457089,36.32454546457089 0 0,0 0.5789719665172314,0.23617720226270442 l -5.910116403001429 14.139031713617225" fill="#ffa10e" stroke="none" /><path d="M 108.09893153111575 80.62456947434976 l 5.245614932997468 -12.54931558664554 a34.601536594021674,34.601536594021674 0 0,0 0.547554886457437,0.23443442665762718 l -5.460853577245221 12.457161632025121" fill="#ff890c" stroke="none" /><path d="M 108.43124777332544 80.76684994638697 l 8.799026166472396 -20.07211686043032 a42.91603834494357,42.91603834494357 0 0,0 0.6740227071775103,0.30241434142022006 l -9.143230992116687 19.91768218849357" fill="#fff917" stroke="none" /><path d="M 108.76106565485865 80.91482961587045 l 9.1838541572816 -20.00617599270163 a43.01341079962779,43.01341079962779 0 0,0 0.6702345342837808,0.3146841007101667 l -9.52686690286498 19.845126909351457" fill="#fffb17" stroke="none" /><path d="M 109.08828744355905 81.06846463323043 l 9.592271711850492 -19.981369679197343 a43.164539491059,43.164539491059 0 0,0 0.6670539671957885,0.32732048471940056 l -9.934796946056712 19.81329403434311" fill="#fffd17" stroke="none" /><path d="M 109.41281617654863 81.2277094730956 l 3.8165586508104785 -7.611489108273937 a29.5147452328563,29.5147452328563 0 0,0 0.45219332096006126,0.23163098227961712 l -3.947012459359295 7.544665600681819" fill="#ff4006" stroke="none" /><path d="M 109.73455568895987 81.39251694778311 l 4.414980735118275 -8.439181183969914 a30.52427603271437,30.52427603271437 0 0,0 0.46346745781752985,0.24756826507161409 l -4.559593239464116 8.361934192396546" fill="#ff4f07" stroke="none" /><line stroke="#e1ed5e" stroke-width="0.3" x1="143.23703022742887" x2="145.7803849466894" y1="26.81831364943548" y2="22.513508569990506" /><path d="M 143.74570117128098 25.957352633546492 a86.0,86.0 0 0,1 28.547481713284135,27.462654790039103" fill="none" id="id14" stroke="none" /><text fill="#e1ed5e" style="font-size:6.75px; font-family:Arial;" text-anchor="middle"><textPath startOffset="19.985693538727396" xlink:href="#id14">February</textPath></text><path d="M 111.60114157652 82.49532879139004 l 23.337362741221117 -35.213160615843606 a63.24451657046787,63.24451657046787 0 0,0 0.9022742985257072,0.6092196340302389 l -23.940041734153365 34.80622906951469" fill="#32ff47" stroke="none" /><path d="M 113.6212207817346 84.01681056812373 l 13.709323432296262 -16.08656939876335 a42.13582891661779,42.13582891661779 0 0,0 0.5479788655374912,0.4752018723207038 l -13.984196096480519 15.848202533022972" fill="#ffef16" stroke="none" /><path d="M 115.4437574822437 85.77008943001954 l 21.37230896731286 -19.692490355959 a50.06148253296483,50.06148253296483 0 0,0 0.5784636712768175,0.6387540338029564 l -21.708116279205715 19.321683534886493" fill="#acff20" stroke="none" /><path d="M 115.68641384162765 86.03803664274999 l 9.679695852578359 -8.615580346629487 a33.95857771931978,33.95857771931978 0 0,0 0.3848770380248622,0.43998098718571865 l -9.826564754181069 8.44768380324082" fill="#ff800b" stroke="none" /><path d="M 116.60985879189232 87.15038557335679 l 6.994491185043355 -5.411034251671832 a29.843200699430888,29.843200699430888 0 0,0 0.3108298101755285,0.4090155951301903 l -7.086596935442997 5.289833880660607" fill="#ff4506" stroke="none" /><path d="M 116.82858285166822 87.43820079747576 l 6.807895560180502 -5.081795524467842 a29.495415687935864,29.495415687935864 0 0,0 0.3002034805697148,0.40947721012163385 l -6.894361653263844 4.963855870674715" fill="#ff4006" stroke="none" /><path d="M 117.04232023915458 87.72973835380427 l 6.863743753733275 -4.941811358365067 a29.45768749828099,29.45768749828099 0 0,0 0.2927356014596272,0.4140537481428564 l -6.947791974996786 4.822931109890417" fill="#ff3f05" stroke="none" /><path d="M 117.2510076193507 88.02491185347247 l 17.473812587421676 -12.129752105352832 a42.27122498770693,42.27122498770693 0 0,0 0.40978034350998227,0.601302089862343 l -17.68001739660039 11.827171992220082" fill="#fff116" stroke="none" /><line stroke="#e1ed5e" stroke-width="0.3" x1="172.23445277983987" x2="176.4835382374775" y1="55.19839476539836" y2="52.563006222186495" /><path d="M 173.08426987136738 54.67131705675599 a86.0,86.0 0 0,1 12.851231095245387,41.99856678651699" fill="none" id="id15" stroke="none" /><text fill="#e1ed5e" style="font-size:6.75px; font-family:Arial;" text-anchor="middle"><textPath startOffset="22.20632615414155" xlink:href="#id15">March</textPath></text><path d="M 120.08093135843002 93.85539295169968 l 8.082847980393563 -2.473287906032127 a29.452785608323275,29.452785608323275 0 0,0 0.1441701273413789,0.4860699985856941 l -8.124224004846644 2.333788520699903" fill="#ff3f05" stroke="none" /><path d="M 120.28053869075195 94.5502522615342 l 8.128567515626075 -2.1842931842560076 a29.416932135337596,29.416932135337596 0 0,0 0.12719834966719157,0.49014712874007205 l -8.16496219716357 2.044049629967085" fill="#ff3e05" stroke="none" /><path d="M 120.37134235888165 94.90015583598534 l 12.336651236285089 -3.0884071212627995 a33.717359091902736,33.717359091902736 0 0,0 0.13610124346766644,0.5642275206827436 l -12.387985280013575 2.8755943689206496" fill="#ff7d0b" stroke="none" /><path d="M 120.45610955862082 95.25157060432595 l 5.958630637854621 -1.383163147306713 a27.117059699761576,27.117059699761576 0 0,0 0.10163165744628941,0.45559479236632316 l -5.981556682302948 1.2803901853904258" fill="#ff1c02" stroke="none" /><path d="M 120.67395015179393 96.31383870115 l 21.365817941729453 -3.8095211914905325 a42.702779269659075,42.702779269659075 0 0,0 0.12279720704797722,0.7247560671484914 l -21.428227010297654 3.4411793360262033" fill="#fff717" stroke="none" /><path d="M 120.73433829027371 96.67025291283417 l 4.243946329466196 -0.6815393735163002 a25.298322505936774,25.298322505936774 0 0,0 0.06534690008661868,0.43055442469586513 l -4.255049122992115 0.608385836428353" fill="#ff0000" stroke="none" /><path d="M 120.83666639777658 97.38593545837742 l 21.57461984811424 -2.7066445115212914 a42.74373808944527,42.74373808944527 0 0,0 0.08530357022074772,0.7308288956389439 l -21.618013771338575 2.334871877557495" fill="#fff717" stroke="none" /><line stroke="#e1ed5e" stroke-width="0.3" x1="184.98032266829074" x2="189.97916517819016" y1="98.17113171792111" y2="98.06355123074" /><path d="M 185.9800911702706 98.14961562048488 a86.0,86.0 0 0,1 -9.607161424134198,41.387399972396054" fill="none" id="id16" stroke="none" /><text fill="#e1ed5e" style="font-size:6.75px; font-family:Arial;" text-anchor="middle"><textPath startOffset="21.466115282336823" xlink:href="#id16">April</textPath></text><path d="M 120.9764740272857 100.99374915477107 l 21.411768994716567 1.0143710193131141 a42.43578316852286,42.43578316852286 0 0,0 -0.04084676337054339,0.7293463992846232 l -21.391135880458492 -1.3827891349331607" fill="#fff316" stroke="none" /><path d="M 120.89721153311464 102.0752229133903 l 42.47953540386378 4.218481737650932 a63.68848224403171,63.68848224403171 0 0,0 -0.11772572864783017,1.0899940367657215 l -42.4006273737149 -4.949072096301445" fill="#32ff4c" stroke="none" /><path d="M 120.49622156327973 104.57218783832717 l 20.967492477949797 4.677316441565538 a42.48285432402828,42.48285432402828 0 0,0 -0.16535830810003993,0.7123592634659716 l -20.883873603919206 -5.037544362380075" fill="#fff417" stroke="none" /><path d="M 120.41448212921028 104.9243191809786 l 20.85462319625466 5.030488668162494 a42.452764970937295,42.452764970937295 0 0,0 -0.17747011625425066,0.7089048959958631 l -20.76494176570535 -5.388721403555754" fill="#fff417" stroke="none" /><path d="M 119.79798401119884 107.00284435728193 l 26.179356256633387 9.260031583788368 a48.76881126271861,48.76881126271861 0 0,0 -0.2867507147886096,0.7890148125667072 l -26.01608128083955 -9.709294193361206" fill="#bcff1f" stroke="none" /><path d="M 118.81262510543309 109.33194174019688 l 3.88362573239914 1.9264599635811366 a25.33518129039995,25.33518129039995 0 0,0 -0.1971575727468185,0.38901059537324584 l -3.8498894898660527 -1.9930247706570767" fill="#ff0100" stroke="none" /><path d="M 118.64920377521936 109.65438752849418 l 11.507357630409883 5.957170683103054 a33.9578996053286,33.9578996053286 0 0,0 -0.27319533163196,0.5167826110988336 l -11.40310979055303 -6.154368309288022" fill="#ff800b" stroke="none" /><line stroke="#e1ed5e" stroke-width="0.3" x1="174.80103733775053" x2="179.2010983576182" y1="140.37084112569926" y2="142.7455964860345" /><path d="M 175.68104954172406 140.8457921977663 a86.0,86.0 0 0,1 -30.038265399797805,32.042727171017184" fill="none" id="id17" stroke="none" /><text fill="#e1ed5e" style="font-size:6.75px; font-family:Arial;" text-anchor="middle"><textPath startOffset="22.206326154141568" xlink:href="#id17">May</textPath></text><path d="M 118.48025628344425 109.97397251340804 l 18.696710570638004 10.090794979382935 a42.245967369789184,42.245967369789184 0 0,0 -0.3508901578491903,0.6369675594323616 l -18.520244003337304 -10.411133057213101" fill="#fff116" stroke="none" /><path d="M 118.30583269289576 110.29060199501025 l 18.668948252084768 10.494726973124997 a42.41655721817716,42.41655721817716 0 0,0 -0.36326348313226375,0.6333805024112186 l -18.485532772800127 -10.81452732139453" fill="#fff316" stroke="none" /><path d="M 118.12598468904814 110.60418214915192 l 23.14070523870787 13.537926773123559 a47.809843346413224,47.809843346413224 0 0,0 -0.42168082464893314,0.7067613171473285 l -22.90424353836071 -13.93425018415699" fill="#c7ff1e" stroke="none" /><path d="M 117.94076556474637 110.91462005526583 l 17.78721997484382 10.82120755461752 a41.82027202928901,41.82027202928901 0 0,0 -0.3794400285849711,0.6117781424142772 l -17.598315306590884 -11.125782028397069" fill="#ffeb16" stroke="none" /><path d="M 117.75023020441432 111.22182372390056 l 11.333706302487045 7.165250974229085 a34.40871806231772,34.40871806231772 0 0,0 -0.3208123644777168,0.49790791397766243 l -11.208689074632277 -7.359280488128201" fill="#ff870c" stroke="none" /><path d="M 117.55443506779139 111.5257021239791 l 11.659684581583434 7.65539026621552 a34.94823446426399,34.94823446426399 0 0,0 -0.3344993618426226,0.5000311604853204 l -11.52618211433009 -7.854958340906648" fill="#ff8e0d" stroke="none" /><path d="M 117.35343817320211 111.8261652097733 l 17.610386994671988 12.001272827228139 a42.31094271907455,42.31094271907455 0 0,0 -0.4153304452011832,0.598314483120652 l -17.401195642308668 -12.302628572535811" fill="#fff216" stroke="none" /><path d="M 117.14729908036423 112.12312394758627 l 7.3371546587142165 5.18736128257425 a29.985686148638962,29.985686148638962 0 0,0 -0.30159918352740633,0.41889488730953184 l -7.246775682811207 -5.312889775334913" fill="#ff4706" stroke="none" /><path d="M 116.93607887273984 112.41649034213515 l 12.209916793839964 8.95155927698285 a36.139764912370104,36.139764912370104 0 0,0 -0.37213414221847946,0.49853449679403755 l -12.054021384926394 -9.160406653286204" fill="#ff9f0e" stroke="none" /><path d="M 116.0416608686014 113.55231037782055 l 9.770077791208326 8.253953734994443 a33.78992464034448,33.78992464034448 0 0,0 -0.3791832782160041,0.4410758172154568 l -9.626552003421544 -8.420906651371428" fill="#ff7e0b" stroke="none" /><path d="M 115.32070863581623 114.36230785411682 l 9.416486714345838 8.827429873541922 a33.907119748950656,33.907119748950656 0 0,0 -0.40283829709391045,0.4223743439766771 l -9.263141865872964 -8.988211334101106" fill="#ff800b" stroke="none" /><path d="M 114.55890576462653 115.13401014063108 l 8.850744011814758 9.200365178019297 a33.76645561507127,33.76645561507127 0 0,0 -0.4223446614148821,0.39935323879237605 l -8.691063516009068 -9.351353053557593" fill="#ff7e0b" stroke="none" /><path d="M 114.0293411484842 115.62618273729858 l 14.622008210463015 16.28630809278324 a42.88714132544277,42.88714132544277 0 0,0 -0.5535660770589126,0.4884577009803447 l -14.339499780497516 -16.535588935535873" fill="#fff917" stroke="none" /><path d="M 112.34349029814194 116.9893568818739 l 7.454792216599775 10.260641227797151 a33.682850050294185,33.682850050294185 0 0,0 -0.47199725190311437,0.33675750692857104 l -7.277067636847776 -10.387442996569941" fill="#ff7c0b" stroke="none" /><line stroke="#e1ed5e" stroke-width="0.3" x1="143.8653032363475" x2="146.44561519142675" y1="172.8068346515853" y2="177.08958963109032" /><path d="M 144.38136562736335 173.6633856474863 a86.0,86.0 0 0,1 -40.68145358897372,12.25698825130547" fill="none" id="id18" stroke="none" /><text fill="#e1ed5e" style="font-size:6.75px; font-family:Arial;" text-anchor="middle"><textPath startOffset="21.466115282336833" xlink:href="#id18">June</textPath></text><path d="M 110.21172684928248 118.3499491758327 l 5.869558527957589 10.547295502735166 a33.07050784909803,33.07050784909803 0 0,0 -0.4998011805344055,0.27253145401610945 l -5.687134535554535 -10.646767608511045" fill="#ff740a" stroke="none" /><path d="M 109.89434966115114 118.52300852407294 l 13.24767119243297 24.80069280197666 a49.11716834037232,49.11716834037232 0 0,0 -0.7491750410266115,0.39193297326601667 l -12.818805248879864 -25.02505519418739" fill="#b7ff1f" stroke="none" /><path d="M 107.93186726928326 119.44442032107085 l 4.79331127350431 11.750468832563708 a33.69052208341937,33.69052208341937 0 0,0 -0.5388541097603161,0.2144211709550486 l -4.590336087702128 -11.831236847924826" fill="#ff7c0b" stroke="none" /><path d="M 107.59598834532513 119.57807347666477 l 7.618227330950382 19.63539274505013 a42.061482282080874,42.061482282080874 0 0,0 -0.6772495104064581,0.25607781489871334 l -7.279107599783649 -19.763618810055473" fill="#ffee16" stroke="none" /><path d="M 105.18746579009965 120.34920634021253 l 8.416866853217854 33.01738599628145 a55.07332425303172,55.07332425303172 0 0,0 -0.9206337893951825,0.2262693865245235 l -7.84727977907946 -33.15737664112" fill="#73ff27" stroke="none" /><path d="M 103.7750983002368 120.6578951692458 l 1.2038905219077878 6.587866651117303 a27.696964939556047,27.696964939556047 0 0,0 -0.46972869287264085,0.08166835427196022 l -1.090312857563097 -6.60761358391027" fill="#ff2503" stroke="none" /><path d="M 103.41894727170886 120.7198165907248 l 3.435439621685009 20.819765036693386 a42.101299997331054,42.101299997331054 0 0,0 -0.7160511645002612,0.11183246555897226 l -3.0765525935762303 -20.875815809599466" fill="#ffef16" stroke="none" /><line stroke="#e1ed5e" stroke-width="0.3" x1="102.19456741930631" x2="102.32365962044197" y1="184.97166512339345" y2="189.96999836594603" /><path d="M 102.22038585953345 185.97133177190398 a86.0,86.0 0 0,1 -42.740103519485714,-10.115201625700543" fill="none" id="id19" stroke="none" /><text fill="#e1ed5e" style="font-size:6.75px; font-family:Arial;" text-anchor="middle"><textPath startOffset="22.20632615414155" xlink:href="#id19">July</textPath></text><path d="M 100.54218724476979 120.99299961872073 l 0.5448338989955502 21.095475676001946 a42.10251022921881,42.10251022921881 0 0,0 -0.7246449692164746,0.012475420309796518 l -0.1816292398864077 -21.1017285735909" fill="#ffef16" stroke="none" /><path d="M 100.18074693466247 120.99922214144158 l 0.1814806226462437 21.084462187048416 a42.085243203090414,42.085243203090414 0 0,0 -0.7244551146173838,0.0 l 0.1814806226462292 -21.084462187048416" fill="#ffef16" stroke="none" /><path d="M 98.01472825383883 120.90594882070398 l -2.402503033849676 25.29961228953573 a46.413429576278844,46.413429576278844 0 0,0 -0.7947026835891305,-0.08237418249723742 l 2.8376383140443995 -25.254508738582732" fill="#d8ff1c" stroke="none" /><path d="M 97.65516085044442 120.86867818915974 l -1.4927165440999046 13.284928815846337 a34.36852782931366,34.36852782931366 0 0,0 -0.5873296260969445,-0.07111743834814134 l 1.7211735932482384 -13.257265848772846" fill="#ff860c" stroke="none" /><path d="M 97.2962882734958 120.8252237178851 l -1.73234646167319 13.343324389052565 a34.45530861833933,34.45530861833933 0 0,0 -0.5874981380029184,-0.08142188863197544 l 1.9617731908629394 -13.311527934927986" fill="#ff870c" stroke="none" /><path d="M 95.51606077576429 120.51570834832081 l -3.0404748970381443 13.911316168353633 a35.23970523344554,35.23970523344554 0 0,0 -0.591489811244021,-0.1346211553136423 l 3.279484857675028 -13.856918279462304" fill="#ff920d" stroke="none" /><path d="M 95.16358092515715 120.4354850818985 l -5.007184949235284 21.15702790617439 a42.74147490255641,42.74147490255641 0 0,0 -0.7144883033225207,-0.1756038415426208 l 5.370626537301015 -21.067702806317744" fill="#fff717" stroke="none" /><path d="M 93.08242187328487 119.8279376855182 l -13.855817522038137 39.71509701464584 a63.06272233328164,63.06272233328164 0 0,0 -1.021857660164506,-0.36640180098086017 l 14.53739474283237 -39.470707672625025" fill="#32ff45" stroke="none" /><path d="M 92.7421414339146 119.70592522655815 l -5.539039713920365 15.039133297457319 a37.026743003214236,37.026743003214236 0 0,0 -0.5961830684591699,-0.22542542313394834 l 5.7970930031398185 -14.941559624216739" fill="#ffab0f" stroke="none" /><path d="M 90.7491055286396 118.85261126421891 l -9.299870677441977 18.95242100448899 a42.11117847370299,42.11117847370299 0 0,0 -0.6480029888881417,-0.324922150949896 l 9.624727574012878 -18.789531012629794" fill="#ffef16" stroke="none" /><path d="M 90.42595943632237 118.69057910512821 l -9.63712963866223 18.813742500857142 a42.13838155017882,42.13838155017882 0 0,0 -0.642728903015807,-0.3362453848139377 l 9.959549444204534 -18.645067697098487" fill="#ffef16" stroke="none" /><line stroke="#e1ed5e" stroke-width="0.3" x1="58.666819895761336" x2="56.23545636021788" y1="174.27360380694188" y2="178.64263932499728" /><path d="M 58.180547188652646 175.14741091055294 a86.0,86.0 0 0,1 -31.652253787137756,-30.449443065178592" fill="none" id="id20" stroke="none" /><text fill="#e1ed5e" style="font-size:6.75px; font-family:Arial;" text-anchor="middle"><textPath startOffset="22.20632615414155" xlink:href="#id20">August</textPath></text><path d="M 88.54995079064634 117.60387380957326 l -11.484815872933176 17.657325803293382 a42.06376391243569,42.06376391243569 0 0,0 -0.603565539668848,-0.4000103282695711 l 11.787056111341986 -17.457017453932494" fill="#ffee16" stroke="none" /><path d="M 88.24862548938628 117.40417183066458 l -8.30437289228803 12.299049156569328 a35.84012194322799,35.84012194322799 0 0,0 -0.5083206464317398,-0.34962757573086684 l 8.51485042334266 -12.15428079147336" fill="#ff9b0e" stroke="none" /><path d="M 87.65650970185807 116.9893568818739 l -8.797711037278148 12.109010413239343 a35.967560011016644,35.967560011016644 0 0,0 -0.4977482626939841,-0.368222265260666 l 9.004844270390697 -11.95577819923891" fill="#ff9c0e" stroke="none" /><path d="M 86.79598089348748 116.32954008644616 l -7.984258342817099 9.874210694323216 a33.69836281261216,33.69836281261216 0 0,0 -0.4479152228637558,-0.36860373450374656 l 8.153043694225543 -9.735311840962288" fill="#ff7d0b" stroke="none" /><path d="M 86.51685102203217 116.09983520530335 l -13.521748611716703 16.14592590291095 a42.060118916586234,42.060118916586234 0 0,0 -0.5510567034870134,-0.46962247763151094 l 13.797670791780773 -15.910779035056487" fill="#ffee16" stroke="none" /><path d="M 86.24171649860922 115.8653595955263 l -13.855748899652214 15.9777517839401 a42.14876662217952,42.14876662217952 0 0,0 -0.5440355004046349,-0.48004807518409126 l 14.128726752963438 -15.736880566983722" fill="#fff016" stroke="none" /><path d="M 85.44109423537348 115.13401014063109 l -8.801190606697602 9.148854319465096 a33.6949789859699,33.6949789859699 0 0,0 -0.4145285440819969,-0.4057034270775555 l 8.957369103155393 -8.99600078946497" fill="#ff7d0b" stroke="none" /><path d="M 84.67929136418377 114.36230785411682 l -15.359329840779521 14.398513074682336 a42.052937845337844,42.052937845337844 0 0,0 -0.4905246752165645,-0.5323676551476254 l 15.604900923991815 -14.131994164733367" fill="#ffee16" stroke="none" /><path d="M 84.43433777217949 114.09645910891817 l -15.778925369643888 14.289592887240794 a42.28771830666392,42.28771830666392 0 0,0 -0.4839751839795538,-0.5437512497867325 l 16.02255940327178 -14.015867467713196" fill="#fff116" stroke="none" /><path d="M 83.50135304334701 112.99209946851258 l -7.870169221640479 6.197479201186712 a31.017400462515162,31.017400462515162 0 0,0 -0.3267065490440707,-0.4223122551254695 l 7.975682587902618 -6.0610889519479905" fill="#ff5608" stroke="none" /><path d="M 83.28015986056508 112.70617746262583 l -11.03375323301552 8.385057840765635 a34.85831538824491,34.85831538824491 0 0,0 -0.35893895069987164,-0.4808573814274784 l 11.176453450410477 -8.193887579828848" fill="#ff8d0d" stroke="none" /><path d="M 83.06392112726016 112.41649034213515 l -17.471007067046763 12.808666760788846 a42.66328765736482,42.66328765736482 0 0,0 -0.4291118322346562,-0.5959988037924797 l 17.688898691657027 -12.506034351545228" fill="#fff617" stroke="none" /><path d="M 82.85270091963577 112.12312394758628 l -17.217717477280328 12.172909686436652 a42.08624019026597,42.08624019026597 0 0,0 -0.4131247320846652,-0.5951369888664574 l 17.424703116527127 -11.874731435383183" fill="#ffef16" stroke="none" /><path d="M 82.6465618267979 111.8261652097733 l -7.060149067126238 4.81140903837704 a29.54373230998138,29.54373230998138 0 0,0 -0.2827713547087108,-0.4227048083682951 l 7.141923527245679 -4.689167315802924" fill="#ff4006" stroke="none" /><path d="M 82.44556493220864 111.52570212397912 l -18.4843770833061 12.136273448092032 a43.11246999692064,43.11246999692064 0 0,0 -0.4019624739619093,-0.6238546860047051 l 18.690544420645054 -11.81629716216588" fill="#fffc17" stroke="none" /><path d="M 82.24976979558568 111.22182372390057 l -11.994827463341585 7.5832165466082735 a35.19087943251182,35.19087943251182 0 0,0 -0.31929080443215047,-0.5147984411500144 l 12.12358290744169 -7.375621774092995" fill="#ff920d" stroke="none" /><path d="M 82.05923443525364 110.91462005526583 l -7.318212977787119 4.45217980513705 a29.566104494198164,29.566104494198164 0 0,0 -0.26077180873475975,-0.4370685510058723 l 7.393765662220111 -4.325549160245066" fill="#ff4106" stroke="none" /><line stroke="#e1ed5e" stroke-width="0.3" x1="26.63291911575756" x2="22.317208475507996" y1="142.92168965132927" y2="145.44649492493687" /><path d="M 25.769776987707644 143.4266507060508 a86.0,86.0 0 0,1 -11.730757126820373,-40.83630448921669" fill="none" id="id21" stroke="none" /><text fill="#e1ed5e" style="font-size:6.75px; font-family:Arial;" text-anchor="middle"><textPath startOffset="21.46611528233685" xlink:href="#id21">September</textPath></text><path d="M 81.87401531095188 110.60418214915194 l -10.967213218184865 6.416110828146486 a33.70614984691222,33.70614984691222 0 0,0 -0.28866589368361995,-0.5033133173579875 l 11.076031108020862 -6.226377664930192" fill="#ff7d0b" stroke="none" /><path d="M 81.69416730710424 110.29060199501025 l -18.313467815915118 10.294894070300856 a42.00875882491097,42.00875882491097 0 0,0 -0.34891993089172674,-0.6333910252134504 l 18.48796415625836 -9.978132526689583" fill="#ffee16" stroke="none" /><path d="M 81.51974371655577 109.97397251340807 l -37.0096256352756 19.97445182340105 a63.05580953101032,63.05580953101032 0 0,0 -0.5072914696244532,-0.9596042827476207 l 37.34796961312494 -19.334432525567305" fill="#32ff44" stroke="none" /><path d="M 81.35079622478065 109.6543875284942 l -11.418099164471949 5.9109630363450405 a33.857389803018044,33.857389803018044 0 0,0 -0.263477127579719,-0.5198653687963632 l 11.518154961837935 -5.7135434558459925" fill="#ff7f0b" stroke="none" /><path d="M 81.18737489456691 109.33194174019688 l -7.831621194087886 3.8848503228511455 a29.742216684493883,29.742216684493883 0 0,0 -0.2235577164146062,-0.4605951114224277 l 7.897332167117212 -3.749466255463433" fill="#ff4306" stroke="none" /><path d="M 81.02952815118164 109.00673069616217 l -12.009710117863284 5.70192590003006 a34.29455136830654,34.29455136830654 0 0,0 -0.24859529630222427,-0.535452152159198 l 12.106080031005336 -5.494353680592035" fill="#ff850c" stroke="none" /><path d="M 80.87730276802145 108.67885076344099 l -11.575057532516533 5.253348713536085 a33.71139762524479,33.71139762524479 0 0,0 -0.2352717080070659,-0.5304755916389678 l 11.663770325254879 -5.053324785404421" fill="#ff7d0b" stroke="none" /><path d="M 80.73074385275274 108.34839909993369 l -8.036808196013386 3.481944595952799 a29.75866566029283,29.75866566029283 0 0,0 -0.19959423139421165,-0.47178180383310386 l 8.095553408599905 -3.3430882664535364" fill="#ff4306" stroke="none" /><path d="M 80.58989483394504 108.01547362559985 l -11.734003219234602 4.845599368053026 a33.69514335423921,33.69514335423921 0 0,0 -0.21676789425620335,-0.5380001365382715 l 11.815673727748193 -4.642899863671949" fill="#ff7d0b" stroke="none" /><path d="M 80.45479744820244 107.68017299344265 l -58.6356076553927 23.04051898032796 a84.0,84.0 0 0,0 -0.5172228816259636,-1.3503057326673686 l 59.02352481661217 -22.027789680827432" fill="#4dd2ff" stroke="none" /><path d="M 80.32549172779594 107.34259656027581 l -8.005726219417731 2.987765538427929 a29.54508017591936,29.54508017591936 0 0,0 -0.17371907658959704,-0.47800028939997613 l 8.055969557012553 -2.8495174520218356" fill="#ff4006" stroke="none" /><path d="M 80.20201598880116 107.00284435728193 l -8.182970873335545 2.894439725465272 a29.679792257779525,29.679792257779525 0 0,0 -0.166219795486431,-0.4831125314451424 l 8.231581499765205 -2.7531544909308328" fill="#ff4206" stroke="none" /><path d="M 80.0844068197444 106.66101706037122 l -8.114218290754822 2.7139009105628067 a29.55603860570847,29.55603860570847 0 0,0 -0.15722088292954886,-0.48387612309243244 l 8.15973142470062 -2.573825887492571" fill="#ff4006" stroke="none" /><path d="M 79.97269907076064 106.31721596034903 l -8.501192066008292 2.681532893080656 a29.914083531122863,29.914083531122863 0 0,0 -0.15067186488609893,-0.49240437226353184 l 8.546090703400521 -2.5348015482650763" fill="#ff4606" stroke="none" /><line stroke="#e1ed5e" stroke-width="0.3" x1="15.007084014347285" x2="10.007500721073583" y1="101.09737516637583" y2="101.16192664675087" /><path d="M 14.007167355692545 101.11028546245083 a86.0,86.0 0 0,1 10.666146001902534,-42.60595125391555" fill="none" id="id22" stroke="none" /><text fill="#e1ed5e" style="font-size:6.75px; font-family:Arial;" text-anchor="middle"><textPath startOffset="22.20632615414155" xlink:href="#id22">October</textPath></text><line stroke="#e1ed5e" stroke-width="0.3" x1="26.266209847984243" x2="21.928928074336255" y1="57.711370442889674" y2="55.22380399835377" /><path d="M 25.398753493254645 57.213857153982495 a86.0,86.0 0 0,1 29.58750427330803,-30.492523968695096" fill="none" id="id23" stroke="none" /><text fill="#e1ed5e" style="font-size:6.75px; font-family:Arial;" text-anchor="middle"><textPath startOffset="21.46611528233685" xlink:href="#id23">November</textPath></text><line stroke="#e1ed5e" stroke-width="0.3" x1="56.762969772571076" x2="54.21961505331055" y1="26.818313649435495" y2="22.513508569990535" /><path d="M 56.25429882871897 25.957352633546506 a86.0,86.0 0 0,1 42.265352541879196,-11.944610805530505" fill="none" id="id24" stroke="none" /><text fill="#e1ed5e" style="font-size:6.75px; font-family:Arial;" text-anchor="middle"><textPath startOffset="22.20632615414155" xlink:href="#id24">December</textPath></text></svg>