<?xml version="1.0" encoding="utf-8" ?>
<svg baseProfile="full" height="200mm" version="1.1" viewBox="0,0,200,200" width="200mm" xmlns="http://www.w3.org/2000/svg" xmlns:ev="http://www.w3.org/2001/xml-events" xmlns:xlink="http://www.w3.org/1999/xlink"><defs /><rect fill="#1a1a1a" height="200" width="200" x="0" y="0" /><text alignment-baseline="middle" fill="#e1ed5e" style="dominant-baseline: central; font-size:9.0px; font-family:Arial;" text-anchor="middle" x="100.0" y="100.0">2023</text><line stroke="#e1ed5e" stroke-width="0.3" x1="100.0" x2="100.0" y1="15.0" y2="10.0" /><path d="M 100.0 14.0 a86.0,86.0 0 0,1 42.46469731375804,11.215312516191453" fill="none" id="id13" stroke="none" /><text fill="#e1ed5e" style="font-size:6.75px; font-family:Arial;" text-anchor="middle"><textPath startOffset="22.20632615414155" xlink:href="#id13">January</textPath></text><path d="M 100.0 79.0 l 0.0 -13.889920055119923 a34.88992005511992,34.88992005511992 0 0,0 0.6005726201573786,0.005169318149237576 l -0.23909214088485017 13.887862113579244" fill="#ff9f0e" stroke="none" /><path d="M 107.08798089147638 80.2323363322302 l 2.8611284164232638 -7.979398521540489 a29.476842370884764,29.476842370884764 0 0,0 0.476145995839043,0.1753685886288767 l -2.998056738034883 7.928966665105287" fill="#ff5407" stroke="none" /><path d="M 107.76421540070413 80.48803036053334 l 3.632338739161076 -9.12829945345694 a30.82444581785622,30.82444581785622 0 0,0 0.49130662982072604,0.20041631027868398 l -3.7889292385701894 9.064422256994677" fill="#ff6709" stroke="none" /><path d="M 108.09893153111575 80.62456947434976 l 3.362922561697929 -8.045267725376542 a29.71983835452025,29.71983835452025 0 0,0 0.47030404766921097,0.20135964904527118 l -3.5009103671574553 7.98618854836848" fill="#ff5708" stroke="none" /><path d="M 108.43124777332544 80.76684994638697 l 5.6409866134210835 -12.868076576945166 a35.050200168073076,35.050200168073076 0 0,0 0.5504848936547222,0.24698652553337497 l -5.861653625542585 12.76906972089526" fill="#ffa10e" stroke="none" /><path d="M 108.76106565485865 80.91482961587045 l 5.887696817886214 -12.82580240420179 a35.11262488451301,35.11262488451301 0 0,0 0.5471245676512664,0.25688232065177247 l -6.107599596837079 12.722555100910014" fill="#ffa20f" stroke="none" /><path d="M 109.08828744355905 81.06846463323043 l 6.149530106527627 -12.809899271314293 a35.20951230240884,35.20951230240884 0 0,0 0.5441189722229216,0.26699681658703617 l -6.36912034576098 12.702147294592425" fill="#ffa30f" stroke="none" /><path d="M 109.41281617654863 81.2277094730956 l 2.4467657955823037 -4.879665926165462 a26.458736338147478,26.458736338147478 0 0,0 0.4053724251644402,0.20764750091964107 l -2.5303987083354995 4.83682589993332" fill="#ff2803" stroke="none" /><path d="M 109.73455568895987 81.39251694778311 l 2.8304094969294473 -5.410292819494453 a27.10593861031878,27.10593861031878 0 0,0 0.41156489497141185,0.21984371349879847 l -2.92311943842917 5.3607703794939" fill="#ff3204" stroke="none" /><line stroke="#e1ed5e" stroke-width="0.3" x1="143.23703022742887" x2="145.7803849466894" y1="26.81831364943548" y2="22.513508569990506" /><path d="M 143.74570117128098 25.957352633546492 a86.0,86.0 0 0,1 28.547481713284135,27.462654790039103" fill="none" id="id14" stroke="none" /><text fill="#e1ed5e" style="font-size:6.75px; font-family:Arial;" text-anchor="middle"><textPath startOffset="19.985693538727396" xlink:href="#id14">February</textPath></text><path d="M 111.60114157652 82.49532879139004 l 14.96140008281828 -22.574880889330913 a48.08262800404778,48.08262800404778 0 0,0 0.6859680776480601,0.4631687081234875 l -15.347772854872881 22.314000268908753" fill="#b9ff1f" stroke="none" /><path d="M 113.6212207817346 84.01681056812373 l 8.78893965053943 -10.312973381084214 a34.550014027290736,34.550014027290736 0 0,0 0.4493249089378279,0.3896501333097072 l -8.965158358124022 10.160158254354835" fill="#ff9a0e" stroke="none" /><path d="M 115.4437574822437 85.77008943001954 l 13.70161953170383 -12.624701004545765 a39.63108835376363,39.63108835376363 0 0,0 0.4579397913499291,0.5056685553269143 l -13.916902963669795 12.386979661949301" fill="#ffdd14" stroke="none" /><path d="M 115.68641384162765 86.03803664274999 l 6.205577036972595 -5.523380938151592 a29.307642466412354,29.307642466412354 0 0,0 0.33216463649321526,0.37972159997507965 l -6.299733537043658 5.415743781973565" fill="#ff5107" stroke="none" /><path d="M 116.60985879189232 87.15038557335679 l 4.484113400283196 -3.468971588554889 a26.66930655978316,26.66930655978316 0 0,0 0.27777233343635493,0.3655158306953053 l -4.543161673943664 3.39127098197855" fill="#ff2b04" stroke="none" /><path d="M 116.82858285166822 87.43820079747576 l 4.364488409737647 -3.2578992246773666 a26.446344318612958,26.446344318612958 0 0,0 0.269170121105973,0.36714774268908085 l -4.4199211433572465 3.1822890383167923" fill="#ff2803" stroke="none" /><path d="M 117.04232023915458 87.72973835380427 l 4.4002922482823426 -3.1681564744983137 a26.422157072346693,26.422157072346693 0 0,0 0.2625700351694447,0.37138669389655404 l -4.45417490325567 3.0919432802699665" fill="#ff2803" stroke="none" /><path d="M 117.2510076193507 88.02491185347247 l 11.202324101121732 -7.776288870594778 a34.63681538576764,34.63681538576764 0 0,0 0.33577181903290876,0.49270371236450045 l -11.334520385823375 7.58230713495987" fill="#ff9c0e" stroke="none" /><line stroke="#e1ed5e" stroke-width="0.3" x1="172.23445277983987" x2="176.4835382374775" y1="55.19839476539836" y2="52.563006222186495" /><path d="M 173.08426987136738 54.67131705675599 a86.0,86.0 0 0,1 12.851231095245387,41.99856678651699" fill="none" id="id15" stroke="none" /><text fill="#e1ed5e" style="font-size:6.75px; font-family:Arial;" text-anchor="middle"><textPath startOffset="22.20632615414155" xlink:href="#id15">March</textPath></text><path d="M 120.08093135843002 93.85539295169968 l 5.181850399474065 -1.5856054641847808 a26.419014509168818,26.419014509168818 0 0,0 0.12931994741252045,0.43600257428547434 l -5.208376243998288 1.4961735031527765" fill="#ff2803" stroke="none" /><path d="M 120.28053869075195 94.5502522615342 l 5.21116083466758 -1.4003332163194229 a26.396029129044877,26.396029129044877 0 0,0 0.11413601280836258,0.4398126163604508 l -5.234493179346245 1.3104241744101217" fill="#ff2703" stroke="none" /><path d="M 120.37134235888165 94.90015583598534 l 7.908930279523013 -1.979953565113932 a29.152999097655005,29.152999097655005 0 0,0 0.11767705226224155,0.4878473535398084 l -7.9418401320460745 1.8435209799147174" fill="#ff4f07" stroke="none" /><path d="M 120.45610955862082 95.25157060432595 l 3.8200313337554483 -0.886735037550478 a24.921598961864035,24.921598961864035 0 0,0 0.09340332015156631,0.4187087696888852 l -3.834729040909052 0.8208480983116289" fill="#ff1101" stroke="none" /><path d="M 120.67395015179393 96.31383870115 l 13.697458186149142 -2.4422541356479828 a34.91348144873862,34.91348144873862 0 0,0 0.10039810250178821,0.5925552841762759 l -13.737468150171152 2.2061130631558687" fill="#ff9f0e" stroke="none" /><path d="M 120.73433829027371 96.67025291283417 l 2.7207606818828354 -0.4369295430867158 a23.755620821829723,23.755620821829723 0 0,0 0.061362020346424656,0.40429904606662276 l -2.72787859566856 0.39003138462801085" fill="#ff0000" stroke="none" /><path d="M 120.83666639777658 97.38593545837742 l 13.831319449485468 -1.7352085523916994 a34.93973982662547,34.93973982662547 0 0,0 0.06972915058477709,0.5973967793357333 l -13.859138953073833 1.4968680347311134" fill="#ffa00e" stroke="none" /><line stroke="#e1ed5e" stroke-width="0.3" x1="184.98032266829074" x2="189.97916517819016" y1="98.17113171792111" y2="98.06355123074" /><path d="M 185.9800911702706 98.14961562048488 a86.0,86.0 0 0,1 -9.607161424134198,41.387399972396054" fill="none" id="id16" stroke="none" /><text fill="#e1ed5e" style="font-size:6.75px; font-family:Arial;" text-anchor="middle"><textPath startOffset="21.466115282336823" xlink:href="#id16">April</textPath></text><path d="M 120.9764740272857 100.99374915477107 l 13.726917045557995 0.6503052988739544 a34.74231234390247,34.74231234390247 0 0,0 -0.033441376717881145,0.5971182459439692 l -13.713689317952586 -0.8864952611533469" fill="#ff9d0e" stroke="none" /><path d="M 120.89721153311464 102.0752229133903 l 27.233296733519197 2.7044355319368716 a48.36725091276634,48.36725091276634 0 0,0 -0.0894050172930827,0.8277794227794953 l -27.18270941472506 -3.1728112766011587" fill="#b5ff1f" stroke="none" /><path d="M 120.49622156327973 104.57218783832717 l 13.442094857701786 2.998590859309079 a34.77248929224433,34.77248929224433 0 0,0 -0.13534683790161728,0.5830706353243165 l -13.388487453869615 -3.2295301519819604" fill="#ff9d0e" stroke="none" /><path d="M 120.41448212921028 104.9243191809786 l 13.36973524709684 3.225006801797891 a34.75319924414339,34.75319924414339 0 0,0 -0.14528274693739202,0.5803323555617405 l -13.312241185864387 -3.454666996757027" fill="#ff9d0e" stroke="none" /><path d="M 119.79798401119884 107.00284435728193 l 16.783379819275567 5.936533568117388 a38.80236694834288,38.80236694834288 0 0,0 -0.22815004446157153,0.6277709358131418 l -16.67870551380877 -6.224552300936661" fill="#ffd313" stroke="none" /><path d="M 118.81262510543309 109.33194174019688 l 2.489761975191864 1.2350383622293044 a23.77925069925139,23.77925069925139 0 0,0 -0.1850493705122597,0.36511996365901767 l -2.468133934893335 -1.2777125375910163" fill="#ff0000" stroke="none" /><path d="M 118.64920377521936 109.65438752849418 l 7.377276657766235 3.819095368223132 a29.307207732855,29.307207732855 0 0,0 -0.23577996368561288,0.44600683529390445 l -7.310444185855729 -3.9455172186031704" fill="#ff5107" stroke="none" /><line stroke="#e1ed5e" stroke-width="0.3" x1="174.80103733775053" x2="179.2010983576182" y1="140.37084112569926" y2="142.7455964860345" /><path d="M 175.68104954172406 140.8457921977663 a86.0,86.0 0 0,1 -30.038265399797805,32.042727171017184" fill="none" id="id17" stroke="none" /><text fill="#e1ed5e" style="font-size:6.75px; font-family:Arial;" text-anchor="middle"><textPath startOffset="22.206326154141568" xlink:href="#id17">May</textPath></text><path d="M 118.48025628344425 109.97397251340804 l 11.986314399865051 6.469129460527146 a34.62062292516288,34.62062292516288 0 0,0 -0.28755492179201386,0.5219957090256852 l -11.873183068621527 -6.674495687950636" fill="#ff9b0e" stroke="none" /><path d="M 118.30583269289576 110.29060199501025 l 11.968516195341802 6.728087091328804 a34.72998673803672,34.72998673803672 0 0,0 -0.29743422802334457,0.5186016473643917 l -11.850929971166078 -6.933108584551511" fill="#ff9d0e" stroke="none" /><path d="M 118.12598468904814 110.60418214915192 l 14.835324501484852 8.67905859760401 a38.18758014395863,38.18758014395863 0 0,0 -0.3368128644508468,0.5645177342593859 l -14.683730761335777 -8.9331384257495" fill="#ffcb12" stroke="none" /><path d="M 117.94076556474637 110.91462005526583 l 11.403247117322326 6.937391229638868 a34.347712983571014,34.347712983571014 0 0,0 -0.3116406604717187,0.5024639732269354 l -11.282141817182644 -7.132651534231077" fill="#ff980e" stroke="none" /><path d="M 117.75023020441432 111.22182372390056 l 7.265950154391572 4.593586160868641 a29.596223907241296,29.596223907241296 0 0,0 -0.2759427001638914,0.42826919853804424 l -7.1858025908506304 -4.717976959328138" fill="#ff5607" stroke="none" /><path d="M 117.55443506779139 111.5257021239791 l 7.474932270577956 4.907810613949866 a29.942103637966106,29.942103637966106 0 0,0 -0.2865842785095971,0.42840461210632536 l -7.389344886657638 -5.035752140261997" fill="#ff5a08" stroke="none" /><path d="M 117.35343817320211 111.8261652097733 l 11.28988088166303 7.693921813798771 a34.66227811161041,34.66227811161041 0 0,0 -0.3402500269343387,0.4901555408450632 l -11.155769947566556 -7.887118616830854" fill="#ff9c0e" stroke="none" /><path d="M 117.14729908036423 112.12312394758627 l 4.703792263752313 3.3255766036335683 a26.760652862928914,26.760652862928914 0 0,0 -0.26916145970820304,0.37384172600815807 l -4.6458510116685074 -3.406051935092858" fill="#ff2d04" stroke="none" /><path d="M 116.93607887273984 112.41649034213515 l 7.827681823186291 5.738774393365591 a30.70598445614816,30.70598445614816 0 0,0 -0.31618205636560337,0.4235775342349187 l -7.727738500125596 -5.872664807109825" fill="#ff6509" stroke="none" /><path d="M 116.0416608686014 113.55231037782055 l 6.263520188437399 5.2915449557717436 a29.19952030120764,29.19952030120764 0 0,0 -0.3276707464723662,0.3811551051456616 l -6.171506932394253 -5.398577160078934" fill="#ff5007" stroke="none" /><path d="M 115.32070863581623 114.36230785411682 l 6.036835724330838 5.659196007087995 a29.274653165492662,29.274653165492662 0 0,0 -0.3478016274020704,0.3646686158384886 l -5.938527545549802 -5.76227173950899" fill="#ff5107" stroke="none" /><path d="M 114.55890576462653 115.13401014063108 l 5.674142518146412 5.8982819036892495 a29.18447449330896,29.18447449330896 0 0,0 -0.3650340781679884,0.3451625051861938 l -5.571772605587616 -5.995079045621365" fill="#ff5007" stroke="none" /><path d="M 114.0293411484842 115.62618273729858 l 9.37405469833067 10.441024290108862 a35.0316745156784,35.0316745156784 0 0,0 -0.45217158418866854,0.39898884995789213 l -9.192940761235414 -10.600836281839042" fill="#ffa10e" stroke="none" /><path d="M 112.34349029814194 116.9893568818739 l 4.779208778797641 6.578016557294187 a29.130875621934756,29.130875621934756 0 0,0 -0.4082105053032632,0.29124735687274045 l -4.665270945645493 -6.659308176011146" fill="#ff4f07" stroke="none" /><line stroke="#e1ed5e" stroke-width="0.3" x1="143.8653032363475" x2="146.44561519142675" y1="172.8068346515853" y2="177.08958963109032" /><path d="M 144.38136562736335 173.6633856474863 a86.0,86.0 0 0,1 -40.68145358897372,12.25698825130547" fill="none" id="id18" stroke="none" /><text fill="#e1ed5e" style="font-size:6.75px; font-family:Arial;" text-anchor="middle"><textPath startOffset="21.466115282336833" xlink:href="#id18">June</textPath></text><path d="M 110.21172684928248 118.3499491758327 l 3.7629279032107315 6.761788363061363 a28.73830784290687,28.73830784290687 0 0,0 -0.43432777784928295,0.23683013451526375 l -3.6459773134928 -6.825559149336398" fill="#ff4906" stroke="none" /><path d="M 109.89434966115114 118.52300852407294 l 8.492978022984829 15.899529499365748 a39.02569593663737,39.02569593663737 0 0,0 -0.5952516877971297,0.3114075497232919 l -8.218035432661205 -16.043366468033756" fill="#ffd614" stroke="none" /><path d="M 107.93186726928326 119.44442032107085 l 3.0729542356433686 7.533133341332869 a29.13579410215496,29.13579410215496 0 0,0 -0.466004722461788,0.1854328963089551 l -2.942828437139714 -7.584913082047893" fill="#ff4f07" stroke="none" /><path d="M 107.59598834532513 119.57807347666477 l 4.8839857478362845 12.58809617434051 a34.50235098342189,34.50235098342189 0 0,0 -0.5555367772036172,0.2100564737459854 l -4.666578749872393 -12.670300898193126" fill="#ff9a0e" stroke="none" /><path d="M 105.18746579009965 120.34920634021253 l 5.395987277190297 21.167187014952347 a42.844140743493824,42.844140743493824 0 0,0 -0.7162045179049078,0.1760256453316785 l -5.030829474542179 -21.256933918598058" fill="#f8ff18" stroke="none" /><path d="M 103.7750983002368 120.6578951692458 l 0.7718047644844062 4.223429603102828 a25.293371659528923,25.293371659528923 0 0,0 -0.42896477768956803,0.07458102510259657 l -0.6989910153227882 -4.23608920672643" fill="#ff1702" stroke="none" /><path d="M 103.41894727170886 120.7198165907248 l 2.2024333773416704 13.347387954597258 a34.52787780814702,34.52787780814702 0 0,0 -0.5872437932751179,0.09171540323098783 l -1.9723537204580355 -13.38332166517535" fill="#ff9a0e" stroke="none" /><line stroke="#e1ed5e" stroke-width="0.3" x1="102.19456741930631" x2="102.32365962044197" y1="184.97166512339345" y2="189.96999836594603" /><path d="M 102.22038585953345 185.97133177190398 a86.0,86.0 0 0,1 -42.740103519485714,-10.115201625700543" fill="none" id="id19" stroke="none" /><text fill="#e1ed5e" style="font-size:6.75px; font-family:Arial;" text-anchor="middle"><textPath startOffset="22.20632615414155" xlink:href="#id19">July</textPath></text><path d="M 100.54218724476979 120.99299961872073 l 0.34928873634706625 13.52414388145693 a34.52865367831137,34.52865367831137 0 0,0 -0.5942879663370254,0.010231206287300947 l -0.11644108011737288 -13.52815256502339" fill="#ff9a0e" stroke="none" /><path d="M 100.18074693466247 120.99922214144158 l 0.11634580277117251 13.517083220131621 a34.5175839233861,34.5175839233861 0 0,0 -0.5941854748672466,0.0 l 0.1163458027711632 -13.517083220131621" fill="#ff9a0e" stroke="none" /><path d="M 98.01472825383883 120.90594882070398 l -1.5402258382057827 16.219382866914483 a37.29235023611498,37.29235023611498 0 0,0 -0.6385292162321262,-0.06618616405090312 l 1.8191876510435023 -16.190467334407817" fill="#ffbf11" stroke="none" /><path d="M 97.65516085044442 120.86867818915974 l -0.9569688603705513 8.516863592927052 a29.570458264307995,29.570458264307995 0 0,0 -0.5053345980411215,-0.06118898234403095 l 1.103430881463062 -8.499129081857673" fill="#ff5507" stroke="none" /><path d="M 97.2962882734958 120.8252237178851 l -1.1105937197165516 8.554300536573674 a29.626092747026227,29.626092747026227 0 0,0 -0.5051550841693947,-0.0700098916822649 l 1.2576773950727773 -8.533916079398804" fill="#ff5608" stroke="none" /><path d="M 95.51606077576429 120.51570834832081 l -1.9492245923745353 8.918435608222751 a30.128963260389057,30.128963260389057 0 0,0 -0.5057072604271364,-0.11509732603172758 l 2.1024520021945343 -8.883561548613338" fill="#ff5d08" stroke="none" /><path d="M 95.16358092515715 120.4354850818985 l -3.21006697050017 13.563604533108588 a34.938288915274356,34.938288915274356 0 0,0 -0.584046264780941,-0.14354436210813082 l 3.4430665200243213 -13.506338912686427" fill="#ffa00e" stroke="none" /><path d="M 93.08242187328487 119.8279376855182 l -8.88285586166834 25.461036979749462 a47.96608114545651,47.96608114545651 0 0,0 -0.7772342460498156,-0.278688547963527 l 9.319809668347881 -25.30436089074598" fill="#baff1f" stroke="none" /><path d="M 92.7421414339146 119.70592522655815 l -3.5510348857115837 9.641470317666226 a31.274619148463827,31.274619148463827 0 0,0 -0.5035657175464905,-0.19040546597046176 l 3.7164708240183573 -9.57891660158913" fill="#ff6d0a" stroke="none" /><path d="M 90.7491055286396 118.85261126421891 l -5.96207409836915 12.150248351983734 a34.53421082181476,34.53421082181476 0 0,0 -0.5314092989680554,-0.2664596543786662 l 6.170337305019965 -12.045820856695766" fill="#ff9a0e" stroke="none" /><path d="M 90.42595943632237 118.69057910512821 l -6.178288171325188 12.061342651766894 a34.551650500631574,34.551650500631574 0 0,0 -0.527009904194155,-0.2757066738480905 l 6.384988978045839 -11.953206558974086" fill="#ff9a0e" stroke="none" /><line stroke="#e1ed5e" stroke-width="0.3" x1="58.666819895761336" x2="56.23545636021788" y1="174.27360380694188" y2="178.64263932499728" /><path d="M 58.180547188652646 175.14741091055294 a86.0,86.0 0 0,1 -31.652253787137756,-30.449443065178592" fill="none" id="id20" stroke="none" /><text fill="#e1ed5e" style="font-size:6.75px; font-family:Arial;" text-anchor="middle"><textPath startOffset="22.20632615414155" xlink:href="#id20">August</textPath></text><path d="M 88.54995079064634 117.60387380957326 l -7.362825313973938 11.319972983456307 a34.50381371873428,34.50381371873428 0 0,0 -0.4950891458770403,-0.3281180895013215 l 7.55658915859094 -11.191556872863668" fill="#ff9a0e" stroke="none" /><path d="M 88.24862548938628 117.40417183066458 l -5.323868281782166 7.884823881348905 a30.513885700472557,30.513885700472557 0 0,0 -0.43277860853760886,-0.29766907323820646 l 5.458803774942664 -7.792014018745598" fill="#ff6309" stroke="none" /><path d="M 87.65650970185807 116.9893568818739 l -5.640143494416854 7.762991534578468 a30.595585245494394,30.595585245494394 0 0,0 -0.4234065195800329,-0.31322602096503227 l 5.772934984415452 -7.664755564873669" fill="#ff6409" stroke="none" /><path d="M 86.79598089348748 116.32954008644616 l -5.118645356635347 6.330278975304748 a29.140820732100046,29.140820732100046 0 0,0 -0.3873368354787311,-0.31875184584148786 l 5.226852320658767 -6.241232010606079" fill="#ff4f07" stroke="none" /><path d="M 86.51685102203217 116.09983520530335 l -8.668686905305421 10.351026370015182 a34.50147694050408,34.50147694050408 0 0,0 -0.4520260674006315,-0.3852264211349272 l 8.845578449283108 -10.200275558657303" fill="#ff9a0e" stroke="none" /><path d="M 86.24171649860922 115.8653595955263 l -8.882811868395331 10.24321126231006 a34.558308288780744,34.558308288780744 0 0,0 -0.4460616062993179,-0.393597504865488 l 9.057815827601237 -10.088790615672284" fill="#ff9a0e" stroke="none" /><path d="M 85.44109423537348 115.13401014063109 l -5.6423742190611765 5.865258696569208 a29.13865138739871,29.13865138739871 0 0,0 -0.35847485588759936,-0.3508430954418517 l 5.74249902732457 -5.767265498204787" fill="#ff4f07" stroke="none" /><path d="M 84.67929136418377 114.36230785411682 l -9.846745808427533 9.230773720953033 a34.49687321208962,34.49687321208962 0 0,0 -0.402387286010346,-0.43671192651005475 l 10.004179502433608 -9.059910539641635" fill="#ff9a0e" stroke="none" /><path d="M 84.43433777217949 114.09645910891817 l -10.115745208655957 9.160945843678366 a34.64738912309801,34.64738912309801 0 0,0 -0.39653301707271554,-0.445509048298852 l 10.27193707537701 -8.985462625638649" fill="#ff9c0e" stroke="none" /><path d="M 83.50135304334701 112.99209946851258 l -5.045503716513109 3.9731552730301236 a27.422076811823,27.422076811823 0 0,0 -0.2888369737379872,-0.373360724172233 l 5.113147507469165 -3.885716554744638" fill="#ff3605" stroke="none" /><path d="M 83.28015986056508 112.70617746262583 l -7.073652595828706 5.375594768970147 a29.884457224088223,29.884457224088223 0 0,0 -0.30772272264960726,-0.41224487431777984 l 7.165136585173399 -5.253037015143059" fill="#ff5a08" stroke="none" /><path d="M 83.06392112726016 112.41649034213515 l -11.20052550402938 8.211535727521142 a34.88816368605903,34.88816368605903 0 0,0 -0.35090881797158,-0.48738165680998413 l 11.340214114376568 -8.01752046526002" fill="#ff9f0e" stroke="none" /><path d="M 82.85270091963577 112.12312394758628 l -11.038143536052553 7.8039568570918645 a34.518223084039185,34.518223084039185 0 0,0 -0.33883596156756796,-0.48811847421825727 l 11.170840404782256 -7.6127971206865945" fill="#ff9a0e" stroke="none" /><path d="M 82.6465618267979 111.8261652097733 l -4.526206153150141 3.084556570657316 a26.47731972577824,26.47731972577824 0 0,0 -0.25342185913945897,-0.3788312946841152 l 4.57863111770033 -3.00618836176738" fill="#ff2803" stroke="none" /><path d="M 82.44556493220864 111.52570212397912 l -11.85018906770224 7.780469652240084 a35.176130958400414,35.176130958400414 0 0,0 -0.3279673984222354,-0.5090126855520157 l 11.982361329501522 -7.57533536676662" fill="#ffa30f" stroke="none" /><path d="M 82.24976979558568 111.22182372390057 l -7.689789741599553 4.861540608787634 a30.097661422634992,30.097661422634992 0 0,0 -0.2730794649673153,-0.4402910479218872 l 7.772333846234823 -4.728453229500483" fill="#ff5d08" stroke="none" /><path d="M 82.05923443525364 110.91462005526583 l -4.691648900779651 2.8542575287499665 a26.49166235748455,26.49166235748455 0 0,0 -0.23365535729292392,-0.39161981865398254 l 4.7400851337708065 -2.773075616209873" fill="#ff2903" stroke="none" /><line stroke="#e1ed5e" stroke-width="0.3" x1="26.63291911575756" x2="22.317208475507996" y1="142.92168965132927" y2="145.44649492493687" /><path d="M 25.769776987707644 143.4266507060508 a86.0,86.0 0 0,1 -11.730757126820373,-40.83630448921669" fill="none" id="id21" stroke="none" /><text fill="#e1ed5e" style="font-size:6.75px; font-family:Arial;" text-anchor="middle"><textPath startOffset="21.46611528233685" xlink:href="#id21">September</textPath></text><path d="M 81.87401531095188 110.60418214915194 l -7.030994314580852 4.113318293075442 a29.145812938670844,29.145812938670844 0 0,0 -0.2496102989302937,-0.43521659589968353 l 7.100756609663523 -3.991681851317451" fill="#ff4f07" stroke="none" /><path d="M 81.69416730710424 110.29060199501025 l -11.740620477812636 6.59997578577918 a34.468550388846786,34.468550388846786 0 0,0 -0.28629182475352294,-0.5197028210094805 l 11.852488712017674 -6.396902446371877" fill="#ff990e" stroke="none" /><path d="M 81.51974371655577 109.97397251340807 l -23.726580513172106 12.805464288260241 a47.961649402177656,47.961649402177656 0 0,0 -0.385857160375967,-0.7298963333637835 l 23.943490181772958 -12.395152939810332" fill="#baff1f" stroke="none" /><path d="M 81.35079622478065 109.6543875284942 l -7.320053755826365 3.7894720085617126 a29.24277168747627,29.24277168747627 0 0,0 -0.22756631658589857,-0.4490099318460329 l 7.384198742198531 -3.662907865012995" fill="#ff5007" stroke="none" /><path d="M 81.18737489456691 109.33194174019688 l -5.020790878605371 2.490547050519062 a26.604566500411615,26.604566500411615 0 0,0 -0.19997353244129126,-0.412004707032851 l 5.062917667661381 -2.4037533875209265" fill="#ff2a04" stroke="none" /><path d="M 81.02952815118164 109.00673069616217 l -7.699330894602252 3.6554599411634148 a29.523032535783678,29.523032535783678 0 0,0 -0.2140073780861873,-0.4609528534075119 l 7.761112889528265 -3.5223870204770757" fill="#ff5407" stroke="none" /><path d="M 80.87730276802145 108.67885076344099 l -7.420678533642989 3.367880627700246 a29.149177248171036,29.149177248171036 0 0,0 -0.2034319904032192,-0.45868543388225624 l 7.477551608777488 -3.239646857325294" fill="#ff4f07" stroke="none" /><path d="M 80.73074385275274 108.34839909993369 l -5.152334655065556 2.232247351335938 a26.6151118096914,26.6151118096914 0 0,0 -0.17851011351676604,-0.4219451773185584 l 5.189995749774629 -2.143227648351221" fill="#ff2a04" stroke="none" /><path d="M 80.58989483394504 108.01547362559985 l -7.522577365863086 3.1064757226591126 a29.13875676260607,29.13875676260607 0 0,0 -0.18745570773418774,-0.4652496934655498 l 7.574935687854661 -2.9765266613507575" fill="#ff4f07" stroke="none" /><path d="M 80.45479744820244 107.68017299344265 l -37.590827847996565 14.77109587758062 a61.38880552482821,61.38880552482821 0 0,0 -0.37799636777532764,-0.9868292383544971 l 37.839518495365404 -14.121843072392965" fill="#30ff37" stroke="none" /><path d="M 80.32549172779594 107.34259656027581 l -5.132408243826683 1.915433036275386 a26.478183832051936,26.478183832051936 0 0,0 -0.155686348376292,-0.42838196610555507 l 5.164618853208199 -1.8268032731637138" fill="#ff2803" stroke="none" /><path d="M 80.20201598880116 107.00284435728193 l -5.24603840029338 1.8556025900818098 a26.564546690402647,26.564546690402647 0 0,0 -0.148773060125146,-0.43240415184945247 l 5.277202291361755 -1.7650257351430605" fill="#ff2a04" stroke="none" /><path d="M 80.0844068197444 106.66101706037122 l -5.201961659226991 1.7398605728631016 a26.485209195379074,26.485209195379074 0 0,0 -0.14088586193235864,-0.43360209788996773 l 5.2311397721756 -1.6500595749953304" fill="#ff2903" stroke="none" /><path d="M 79.97269907076064 106.31721596034903 l -5.450047509257487 1.719109690905788 a26.71474898683485,26.71474898683485 0 0,0 -0.13455739152505267,-0.4397413409424436 l 5.47883167328867 -1.6250413774112964" fill="#ff2c04" stroke="none" /><path d="M 79.86692584326677 105.97154293290107 l -3.311121025595241 0.9820905245988373 a24.453697184850707,24.453697184850707 0 0,0 -0.11622185878122139,-0.4045835372928897 l 3.3275355212625666 -0.9249495118013515" fill="#ff0a01" stroke="none" /><path d="M 79.76711848015287 105.62410040840567 l -8.050781172543171 2.2378622459717183 a29.35602207513367,29.35602207513367 0 0,0 -0.1311402334200767,-0.48802159392039024 l 8.088109482305024 -2.098949718875789" fill="#ff5207" stroke="none" /><path d="M 79.67330655649465 105.27499134158121 l -55.811510572412324 14.48367565774008 a78.66022522443964,78.66022522443964 0 0,0 -0.3288322757003924,-1.3135214825210488 l 56.05255416240777 -13.520826335821639" fill="#46fff8" stroke="none" /><path d="M 79.58551787078972 104.9243191809786 l -5.617013907855667 1.3549189811040891 a26.77811826517943,26.77811826517943 0 0,0 -0.10422991583049669,-0.4490197494474429 l 5.639504389616719 -1.2580305743080722" fill="#ff2d04" stroke="none" /><path d="M 79.50377843672027 104.57218783832718 l -5.39691662047089 1.2039153880338076 a26.529567909869588,26.529567909869588 0 0,0 -0.09558977419645293,-0.4465636015713956 l 5.4168404333917834 -1.110837967046248" fill="#ff2904" stroke="none" /><path d="M 79.29508885075956 103.50808413554451 l -5.702183705243007 0.9661350415916778 a26.78345190409069,26.78345190409069 0 0,0 -0.073103832156725,-0.45521763262299103 l 5.717969291761023 -0.8678381792754731" fill="#ff2d04" stroke="none" /><path d="M 79.18660465613746 102.79330883721812 l -27.311740816333856 3.665434001597088 a48.55660706325546,48.55660706325546 0 0,0 -0.10404638256858714,-0.8293520412205879 l 27.37078870814929 -3.1947642060890917" fill="#b3ff20" stroke="none" /><path d="M 79.10278846688536 102.07522291339032 l -9.327964236282531 0.926324791599299 a30.37384629769965,30.37384629769965 0 0,0 -0.0471885237181196,-0.5207214270731954 l 9.342527356277726 -0.7656219759775376" fill="#ff6108" stroke="none" /><path d="M 79.07016306316243 101.71520430193888 l -5.535003913452236 0.45359467215401417 a26.553558899348964,26.553558899348964 0 0,0 -0.033411257420479214,-0.4558700621348005 l 5.541991729537051 -0.358251473522453" fill="#ff2a04" stroke="none" /><path d="M 79.04373962182676 101.35467743843564 l -5.42937712451646 0.3509717174062984 a26.440709246655416,26.440709246655416 0 0,0 -0.02545062947603288,-0.4544380860604316 l 5.434614104880024 -0.25746191501042914" fill="#ff2803" stroke="none" /><path d="M 79.0235259727143 100.99374915477108 l -57.05634119814363 2.703013421904553 a78.12033221610304,78.12033221610304 0 0,0 -0.0520722872371935,-1.3437543555848523 l 57.09441561823203 -1.720481819305704" fill="#45fff3" stroke="none" /><path d="M 79.0095281055655 100.63252640178507 l -8.54710111852578 0.2575581503542922 a29.550980863685673,29.550980863685673 0 0,0 -0.010945032226394829,-0.5085726398822389 l 8.550268213437183 -0.11039569468192446" fill="#ff5507" stroke="none" /><line stroke="#e1ed5e" stroke-width="0.3" x1="15.007084014347285" x2="10.007500721073583" y1="101.09737516637583" y2="101.16192664675087" /><path d="M 14.007167355692545 101.11028546245083 a86.0,86.0 0 0,1 10.666146001902534,-42.60595125391555" fill="none" id="id22" stroke="none" /><text fill="#e1ed5e" style="font-size:6.75px; font-family:Arial;" text-anchor="middle"><textPath startOffset="22.20632615414155" xlink:href="#id22">October</textPath></text><path d="M 79.00019446554 99.90962569577889 l -20.978288027656788 -0.0902817019490315 a41.97848229393716,41.97848229393716 0 0,0 0.009329203717852785,-0.7225571090908928 l 20.973625816821222 0.45137506910039626" fill="#fffb17" stroke="none" /><path d="M 79.01574976396665 99.18683210126434 l -62.95275070810006 -2.4395036962069616 a84.0,84.0 0 0,0 0.06842556706600478,-1.4443555735079636 l 62.90143153280056 3.522770376337934" fill="#4dd2ff" stroke="none" /><path d="M 79.05617556472873 98.46500227214037 l -6.950771060340642 -0.509430253174159 a27.969414431364953,27.969414431364953 0 0,0 0.03932435230249799,-0.4798567030223196 l 6.940972224218648 0.6290008734042569" fill="#ff3e05" stroke="none" /><path d="M 79.26566170972629 96.67025291283419 l -5.39471119219338 -0.8663417962430464 a26.463831709990174,26.463831709990174 0 0,0 0.07610007304801904,-0.44914693890755913 l 5.3789992576251375 0.9590745234664335" fill="#ff2803" stroke="none" /><path d="M 79.46518482838121 95.60439243477599 l -13.207906667174482 -2.8272362805215376 a34.50711159036933,34.50711159036933 0 0,0 0.12932873192900532,-0.5797553464218059 l 13.15728354824344 3.054169796493303" fill="#ff9a0e" stroke="none" /><path d="M 79.54389044137918 95.25157060432595 l -56.424504234190564 -13.097689654729695 a78.92472833225722,78.92472833225722 0 0,0 0.31858229575720853,-1.320729291582153 l 56.19068913817254 14.067004177971244" fill="#47fffb" stroke="none" /><path d="M 79.91906864156998 93.8553929516997 l -14.055265504538244 -4.300800692128356 a35.698550098444215,35.698550098444215 0 0,0 0.18485816955389786,-0.5860509145360452 l 13.979151851216143 4.542101773090816" fill="#ffaa0f" stroke="none" /><path d="M 80.2630227832202 92.82701384747504 l -53.38681150019282 -19.402305399267338 a77.80317858151565,77.80317858151565 0 0,0 0.46828403679485836,-1.254768402434936 l 53.044922874896336 20.318396938731617" fill="#45fff0" stroke="none" /><line stroke="#e1ed5e" stroke-width="0.3" x1="26.266209847984243" x2="21.928928074336255" y1="57.711370442889674" y2="55.22380399835377" /><path d="M 25.398753493254645 57.213857153982495 a86.0,86.0 0 0,1 29.58750427330803,-30.492523968695096" fill="none" id="id23" stroke="none" /><text fill="#e1ed5e" style="font-size:6.75px; font-family:Arial;" text-anchor="middle"><textPath startOffset="21.46611528233685" xlink:href="#id23">November</textPath></text><line stroke="#e1ed5e" stroke-width="0.3" x1="56.762969772571076" x2="54.21961505331055" y1="26.818313649435495" y2="22.513508569990535" /><path d="M 56.25429882871897 25.957352633546506 a86.0,86.0 0 0,1 42.265352541879196,-11.944610805530505" fill="none" id="id24" stroke="none" /><text fill="#e1ed5e" style="font-size:6.75px; font-family:Arial;" text-anchor="middle"><textPath startOffset="22.20632615414155" xlink:href="#id24">December</textPath></text></svg>