<?xml version="1.0" encoding="utf-8" ?>
<svg baseProfile="full" height="200mm" version="1.1" viewBox="0,0,200,200" width="200mm" xmlns="http://www.w3.org/2000/svg" xmlns:ev="http://www.w3.org/2001/xml-events" xmlns:xlink="http://www.w3.org/1999/xlink"><defs /><rect fill="#1a1a1a" height="200" width="200" x="0" y="0" /><text alignment-baseline="middle" fill="#e1ed5e" style="dominant-baseline: central; font-size:9.0px; font-family:Arial;" text-anchor="middle" x="100.0" y="100.0">2025</text><line stroke="#e1ed5e" stroke-width="0.3" x1="100.0" x2="100.0" y1="15.0" y2="10.0" /><path d="M 100.0 14.0 a86.0,86.0 0 0,1 42.46469731375804,11.215312516191453" fill="none" id="id37" stroke="none" /><text fill="#e1ed5e" style="font-size:6.75px; font-family:Arial;" text-anchor="middle"><textPath startOffset="22.20632615414155" xlink:href="#id37">January</textPath></text><path d="M 100.0 79.0 l 0.0 -63.0 a84.0,84.0 0 0,0 1.4459219170901134,0.012445506434235476 l -1.084441437817585 62.990665870174325" fill="#4dd2ff" stroke="none" /><path d="M 101.44485096284872 79.0497635885617 l 1.7686948360823627 -25.645949588155137 a46.706867014503715,46.706867014503715 0 0,0 0.8016006236274094,0.062219636129952204 l -2.2098856490721133 25.61170468983672" fill="#e3ff1b" stroke="none" /><path d="M 103.2404852339499 79.25152402106235 l 3.953105538959546 -25.311306608649552 a46.61814368058738,46.61814368058738 0 0,0 0.7917776340422419,0.13065009382952797 l -4.388212379140663 25.2395102518804" fill="#e4ff1a" stroke="none" /><path d="M 106.0581310904928 79.89281104454417 l 2.180319101692254 -7.236569745034974 a28.557892104281436,28.557892104281436 0 0,0 0.46945724185462084,0.14586265024498846 l -2.304561716257593 7.197966959907466" fill="#ff1802" stroke="none" /><line stroke="#e1ed5e" stroke-width="0.3" x1="143.23703022742887" x2="145.7803849466894" y1="26.81831364943548" y2="22.513508569990506" /><path d="M 143.74570117128098 25.957352633546492 a86.0,86.0 0 0,1 28.547481713284135,27.462654790039103" fill="none" id="id38" stroke="none" /><text fill="#e1ed5e" style="font-size:6.75px; font-family:Arial;" text-anchor="middle"><textPath startOffset="19.985693538727396" xlink:href="#id38">February</textPath></text><path d="M 111.60114157652 82.49532879139004 l 5.9777358780125125 -9.019655559440965 a31.82069834337102,31.82069834337102 0 0,0 0.4539681830656899,0.3065213436762571 l -6.132108755484745 8.915422303466038" fill="#ff4a06" stroke="none" /><path d="M 113.06298171725822 83.55741782278167 l 8.802061255321975 -11.079294042671142 a35.15016038164969,35.15016038164969 0 0,0 0.4705043153902284,0.3804484349969966 l -8.991468969276694 10.926139510410016" fill="#ff7c0b" stroke="none" /><path d="M 116.60985879189232 87.15038557335679 l 16.039990489408435 -12.40875649686611 a41.279510169104924,41.279510169104924 0 0,0 0.4299439071307914,0.5657557843258136 l -16.25121033676334 12.130815936659262" fill="#ffd313" stroke="none" /><line stroke="#e1ed5e" stroke-width="0.3" x1="172.23445277983987" x2="176.4835382374775" y1="55.19839476539836" y2="52.563006222186495" /><path d="M 173.08426987136738 54.67131705675599 a86.0,86.0 0 0,1 12.851231095245387,41.99856678651699" fill="none" id="id39" stroke="none" /><text fill="#e1ed5e" style="font-size:6.75px; font-family:Arial;" text-anchor="middle"><textPath startOffset="22.20632615414155" xlink:href="#id39">March</textPath></text><path d="M 119.196687751892 91.48605970444005 l 23.123072102513376 -10.25533455954262 a46.29522386511299,46.29522386511299 0 0,0 0.31681208377759873,0.7312459694101285 l -23.296174896133657 9.85578944554589" fill="#e8ff1a" stroke="none" /><path d="M 120.08093135843002 93.85539295169968 l 24.460233262418726 -7.4846389853442865 a46.579734791292715,46.579734791292715 0 0,0 0.22800581193551256,0.7687222500858245 l -24.58544497146594 7.062487348511932" fill="#e4ff1a" stroke="none" /><path d="M 120.37134235888165 94.90015583598534 l 14.76793335710953 -3.697064111878531 a36.22367034217992,36.22367034217992 0 0,0 0.1462180523419903,0.6061682248449142 l -14.829384209712341 3.442310655374211" fill="#ff8c0c" stroke="none" /><path d="M 120.67395015179393 96.31383870115 l 24.841407675037836 -4.429218166260012 a46.2331826934645,46.2331826934645 0 0,0 0.13294932565970297,0.7846744458733808 l -24.91396886221776 4.0009579320707935" fill="#e9ff1a" stroke="none" /><path d="M 120.78858239683441 97.02765380044208 l 25.007464698877477 -3.5755609131676946 a46.26178787238496,46.26178787238496 0 0,0 0.1059262786496162,0.7892738122843279 l -25.065306976584928 3.1445687588187026" fill="#e9ff1a" stroke="none" /><path d="M 120.91429891909075 98.10471618934814 l 25.234486309682765 -2.2867853977740262 a46.33789033777357,46.33789033777357 0 0,0 0.06515000623516246,0.7949950949834487 l -25.27011079973742 1.852076385582809" fill="#e8ff1a" stroke="none" /><path d="M 120.96714384426684 98.82574320788733 l 25.087758085196835 -1.4050302010245972 a46.127071369484156,46.127071369484156 0 0,0 0.03757465494704116,0.7931415788347116 l -25.10822634837737 0.9729775155668858" fill="#eaff1a" stroke="none" /><line stroke="#e1ed5e" stroke-width="0.3" x1="184.98032266829074" x2="189.97916517819016" y1="98.17113171792111" y2="98.06355123074" /><path d="M 185.9800911702706 98.14961562048488 a86.0,86.0 0 0,1 -9.607161424134198,41.387399972396054" fill="none" id="id40" stroke="none" /><text fill="#e1ed5e" style="font-size:6.75px; font-family:Arial;" text-anchor="middle"><textPath startOffset="21.466115282336823" xlink:href="#id40">April</textPath></text><path d="M 120.99513854157772 99.54816195383933 l 19.101896279190488 -0.4110934288745382 a40.10631935429258,40.10631935429258 0 0,0 0.008913138426719548,0.6903323937726039 l -19.106142424734923 0.08222477704147156" fill="#ffc312" stroke="none" /><path d="M 120.9764740272857 100.99374915477107 l 6.026563627461231 0.285505204696148 a27.033322664813085,27.033322664813085 0 0,0 -0.026021052318606335,0.46462336910293744 l -6.020756224255096 -0.3892002901345088" fill="#ff0000" stroke="none" /><path d="M 119.79798401119884 107.00284435728193 l 23.700129151775343 8.383091712948243 a46.13906021470439,46.13906021470439 0 0,0 -0.2712883122159508,0.7464689215244088 l -23.552316578554166 -8.789808431478782" fill="#eaff1a" stroke="none" /><path d="M 119.54520255179757 107.68017299344265 l 23.398450624398368 9.194284280127773 a46.140054794017715,46.140054794017715 0 0,0 -0.29682860860440285,0.7367042638191125 l -23.236719401536572 -9.5956879117897" fill="#eaff1a" stroke="none" /><path d="M 119.26925614724726 108.34839909993367 l 23.118021937857264 10.015875655159915 a46.19445779251609,46.19445779251609 0 0,0 -0.32239093454753126,0.7269064486835842 l -22.94218991857846 -10.412330440336186" fill="#e9ff1a" stroke="none" /><line stroke="#e1ed5e" stroke-width="0.3" x1="174.80103733775053" x2="179.2010983576182" y1="140.37084112569926" y2="142.7455964860345" /><path d="M 175.68104954172406 140.8457921977663 a86.0,86.0 0 0,1 -30.038265399797805,32.042727171017184" fill="none" id="id41" stroke="none" /><text fill="#e1ed5e" style="font-size:6.75px; font-family:Arial;" text-anchor="middle"><textPath startOffset="22.206326154141568" xlink:href="#id41">May</textPath></text><path d="M 118.48025628344425 109.97397251340804 l 22.100203744973435 11.927693064005533 a46.113519613914406,46.113519613914406 0 0,0 -0.3830136030422471,0.6952809433431604 l -21.891613732479676 -12.306344525746498" fill="#eaff1a" stroke="none" /><path d="M 118.12598468904814 110.60418214915192 l 21.74610189226669 12.72204679941849 a46.19411483413218,46.19411483413218 0 0,0 -0.4074301665463569,0.6828763944710882 l -21.523890850022106 -13.094485287775681" fill="#e9ff1a" stroke="none" /><path d="M 116.27256486870786 113.27417163493432 l 19.730554647646514 16.094990000559637 a46.46259000616159,46.46259000616159 0 0,0 -0.5108760898918565,0.6153831607405751 l -19.450582557861114 -16.43223441841398" fill="#e6ff1a" stroke="none" /><path d="M 113.75828350139079 115.86535959552629 l 8.236378174292177 9.497776484012721 a33.57162215349402,33.57162215349402 0 0,0 -0.43984344103509615,0.37484412264977796 l -8.071669256680034 -9.638144996885448" fill="#ff6509" stroke="none" /><path d="M 112.63410532772338 116.77436683061366 l 15.246053972331719 20.24226452268393 a46.34149630021006,46.34149630021006 0 0,0 -0.6413112056254067,0.4744266983360935 l -14.895357796287747 -20.50170116975979" fill="#e8ff1a" stroke="none" /><line stroke="#e1ed5e" stroke-width="0.3" x1="143.8653032363475" x2="146.44561519142675" y1="172.8068346515853" y2="177.08958963109032" /><path d="M 144.38136562736335 173.6633856474863 a86.0,86.0 0 0,1 -40.68145358897372,12.25698825130547" fill="none" id="id42" stroke="none" /><text fill="#e1ed5e" style="font-size:6.75px; font-family:Arial;" text-anchor="middle"><textPath startOffset="21.466115282336833" xlink:href="#id42">June</textPath></text><path d="M 110.21172684928248 118.3499491758327 l 12.231974545165386 21.980230624718985 a46.15455703425143,46.15455703425143 0 0,0 -0.6975430252847048,0.3803560742220978 l -11.851808708012031 -22.18752735070085" fill="#eaff1a" stroke="none" /><path d="M 109.2508944713604 118.85261126421891 l 11.122140985641263 22.666067705915193 a46.24782456675452,46.24782456675452 0 0,0 -0.7176942932787106,0.34453687498415864 l -10.73033402436232 -22.85415885739891" fill="#e9ff1a" stroke="none" /><path d="M 106.57524785965236 119.94407469862006 l 9.397080218901362 28.503270726071527 a51.01235676724161,51.01235676724161 0 0,0 -0.8363078843603337,0.2677593748396427 l -8.905050989450087 -28.660802947570875" fill="#adff20" stroke="none" /><path d="M 105.88484417918355 120.15858648285463 l 7.050988294561866 24.153223602471137 a46.16137210728019,46.16137210728019 0 0,0 -0.7646715520784854,0.21610381871506407 l -6.634185574378774 -24.27101621452472" fill="#eaff1a" stroke="none" /><path d="M 105.18746579009965 120.34920634021253 l 8.33616969155182 32.70083004000977 a54.746644432179515,54.746644432179515 0 0,0 -0.9151728428213328,0.2249272187208413 l -7.7720435639872765 -32.83947851704464" fill="#80ff25" stroke="none" /><path d="M 101.26447882468166 120.96189622390904 l 1.9916858483831201 33.01716980112006 a54.07718721709335,54.07718721709335 0 0,0 -0.9296433243813695,0.04805194110607369 l -1.4230544555882711 -33.046561548988336" fill="#88ff25" stroke="none" /><line stroke="#e1ed5e" stroke-width="0.3" x1="102.19456741930631" x2="102.32365962044197" y1="184.97166512339345" y2="189.96999836594603" /><path d="M 102.22038585953345 185.97133177190398 a86.0,86.0 0 0,1 -42.740103519485714,-10.115201625700543" fill="none" id="id43" stroke="none" /><text fill="#e1ed5e" style="font-size:6.75px; font-family:Arial;" text-anchor="middle"><textPath startOffset="22.20632615414155" xlink:href="#id43">July</textPath></text><path d="M 98.37488393609728 120.93702456842531 l -1.0204851490466846 13.147321051022853 a34.18686622204432,34.18686622204432 0 0,0 -0.5863140061180484,-0.05058963952853965 l 1.2466434729062748 -13.127807159215651" fill="#ff6e0a" stroke="none" /><path d="M 96.22490169976321 120.6578951692458 l -6.561610303499063 35.90610018886777 a57.500722740077286,57.500722740077286 0 0,0 -0.9721247027743437,-0.1863100129629908 l 7.178702620845102 -35.787832977556306" fill="#61ff29" stroke="none" /><path d="M 94.46302465271185 120.25689768951611 l -3.450210622383342 12.622516663205197 a34.085559989992774,34.085559989992774 0 0,0 -0.5646335208675664,-0.15957107296897177 l 3.666975311355522 -12.561256796897704" fill="#ff6c0a" stroke="none" /><path d="M 93.76903079525671 120.05430185196036 l -9.70951584722776 31.249963727708757 a53.723614271206046,53.723614271206046 0 0,0 -0.8807568408639989,-0.28199052706033356 l 10.245994033182699 -31.078200353988716" fill="#8cff24" stroke="none" /><path d="M 91.40352486487194 119.15986991738527 l -13.504949847535327 30.09990469957133 a53.99072495880805,53.99072495880805 0 0,0 -0.8446514800327247,-0.3877380669440502 l 14.021069323335471 -29.862979562293205" fill="#89ff24" stroke="none" /><line stroke="#e1ed5e" stroke-width="0.3" x1="58.666819895761336" x2="56.23545636021788" y1="174.27360380694188" y2="178.64263932499728" /><path d="M 58.180547188652646 175.14741091055294 a86.0,86.0 0 0,1 -31.652253787137756,-30.449443065178592" fill="none" id="id44" stroke="none" /><text fill="#e1ed5e" style="font-size:6.75px; font-family:Arial;" text-anchor="middle"><textPath startOffset="22.20632615414155" xlink:href="#id44">August</textPath></text><path d="M 89.1626897886671 117.98757091392108 l -16.87155080673061 28.00309400080961 a53.69285090416973,53.69285090416973 0 0,0 -0.7875483282579819,-0.4837765066634885 l 17.3510783349209 -27.708529027317745" fill="#8dff24" stroke="none" /><path d="M 85.18274418774928 114.88116024355367 l -8.920542600501925 8.95901546005311 a33.642786018154396,33.642786018154396 0 0,0 -0.4068524242171874,-0.4121393577211715 l 9.073435649774646 -8.804135608351272" fill="#ff6609" stroke="none" /><path d="M 83.95833913139862 113.55231037782056 l -5.833755854110982 4.928471599726117 a28.636919514744218,28.636919514744218 0 0,0 -0.3148752031752995,-0.3792874663793028 l 5.9177270571798175 -4.827322876233053" fill="#ff1902" stroke="none" /><path d="M 83.72743513129214 113.27417163493432 l -5.8639495691775245 4.7834544626425926 a28.567518823632525,28.567518823632525 0 0,0 -0.3075525858599478,-0.3837191392321845 l 5.945420067092333 -4.681807489832148" fill="#ff1802" stroke="none" /><path d="M 83.50135304334701 112.99209946851258 l -10.680862762217897 8.410800702678834 a34.59494015453969,34.59494015453969 0 0,0 -0.3643888057587182,-0.47102165154847475 l 10.824058385194684 -8.225701057017108" fill="#ff740a" stroke="none" /><path d="M 83.28015986056508 112.70617746262583 l -10.842125045480513 8.239430745209956 a34.61763175104052,34.61763175104052 0 0,0 -0.3564606114219527,-0.47753724096028954 l 10.98234692359755 -8.051580624740359" fill="#ff740a" stroke="none" /><path d="M 82.05923443525364 110.91462005526583 l -11.165988219987725 6.793050080439138 a34.06999702847169,34.06999702847169 0 0,0 -0.3004959530751128,-0.5036485018488175 l 11.28126504876107 -6.5998394847042094" fill="#ff6c0a" stroke="none" /><line stroke="#e1ed5e" stroke-width="0.3" x1="26.63291911575756" x2="22.317208475507996" y1="142.92168965132927" y2="145.44649492493687" /><path d="M 25.769776987707644 143.4266507060508 a86.0,86.0 0 0,1 -11.730757126820373,-40.83630448921669" fill="none" id="id45" stroke="none" /><text fill="#e1ed5e" style="font-size:6.75px; font-family:Arial;" text-anchor="middle"><textPath startOffset="21.46611528233685" xlink:href="#id45">September</textPath></text><path d="M 81.35079622478065 109.6543875284942 l -11.615423558214866 6.013114645013219 a34.07958761470733,34.07958761470733 0 0,0 -0.26520626386337814,-0.5232771187272247 l 11.717208491864511 -5.812283314583309" fill="#ff6c0a" stroke="none" /><path d="M 81.02952815118164 109.00673069616217 l -34.09341845837545 16.18674754182663 a58.74085290717112,58.74085290717112 0 0,0 -0.42580232575950017,-0.9171403285327419 l 34.36699540097478 -15.59748714601506" fill="#53ff2b" stroke="none" /><path d="M 80.73074385275274 108.34839909993369 l -11.746018406591462 5.088958740496129 a33.80103314074522,33.80103314074522 0 0,0 -0.2267067786933472,-0.5358678567312612 l 11.831876166477116 -4.886016358098709" fill="#ff6809" stroke="none" /><path d="M 80.32549172779594 107.34259656027581 l -11.987683263956129 4.47384608966085 a33.795305735734004,33.795305735734004 0 0,0 -0.1987095404892445,-0.5467633130746397 l 12.062917065450597 -4.266834979580094" fill="#ff6809" stroke="none" /><path d="M 80.0844068197444 106.66101706037122 l -23.850657736251645 7.977148189577958 a46.149329368599616,46.149329368599616 0 0,0 -0.24548750956552187,-0.7555328667719625 l 23.984437496833415 -7.565416422828193" fill="#eaff1a" stroke="none" /><path d="M 79.97269907076064 106.31721596034903 l -24.377836100503774 7.68950623136835 a46.56183481335559,46.56183481335559 0 0,0 -0.23452359744023998,-0.7664366858792421 l 24.506586470450145 -7.26874257293706" fill="#e5ff1a" stroke="none" /><path d="M 79.50377843672027 104.57218783832718 l -12.767593170584325 2.848126618802694 a34.081408968696145,34.081408968696145 0 0,0 -0.12280012244008857,-0.5736812897742906 l 12.814727331748854 -2.6279315096122398" fill="#ff6c0a" stroke="none" /><path d="M 79.4281124754447 104.21870165774334 l -38.113111981776626 7.8159016039416365 a59.906267140628415,59.906267140628415 0 0,0 -0.19846109619767377,-1.0119488538446653 l 38.242003010949965 -7.158689023029017" fill="#46ff2c" stroke="none" /><path d="M 79.35854240842038 103.8639653848113 l -24.723921415127347 4.628179773690875 a46.1533762775297,46.1533762775297 0 0,0 -0.1394569487079691,-0.7821486289298729 l 24.799924806174506 -4.201912394027788" fill="#eaff1a" stroke="none" /><path d="M 79.1416061653843 102.43462659150553 l -12.530293094576056 1.4625567533769348 a33.6153603711043,33.6153603711043 0 0,0 -0.06213671065804836,-0.5753087694544486 l 12.553612106735157 -1.2466516620377042" fill="#ff6509" stroke="none" /><path d="M 79.07016306316243 101.71520430193888 l -38.02956115944019 3.1165301047670457 a59.157047604256825,59.157047604256825 0 0,0 -0.07443489414105721,-1.0156049917559302 l 38.07757261224558 -2.461451976514355" fill="#4eff2b" stroke="none" /><line stroke="#e1ed5e" stroke-width="0.3" x1="15.007084014347285" x2="10.007500721073583" y1="101.09737516637583" y2="101.16192664675087" /><path d="M 14.007167355692545 101.11028546245083 a86.0,86.0 0 0,1 10.666146001902534,-42.60595125391555" fill="none" id="id46" stroke="none" /><text fill="#e1ed5e" style="font-size:6.75px; font-family:Arial;" text-anchor="middle"><textPath startOffset="22.20632615414155" xlink:href="#id46">October</textPath></text><path d="M 79.00019446554 99.90962569577889 l -32.98678413078664 -0.14196120337496226 a53.987089599938656,53.987089599938656 0 0,0 0.011997969661817452,-0.9292559725342097 l 32.97945315400711 0.709753433969644" fill="#89ff24" stroke="none" /><path d="M 79.01574976396665 99.18683210126434 l -12.669820104228432 -0.4909725568284918 a33.67932945881089,33.67932945881089 0 0,0 0.027434847816927798,-0.5791062763791007 l 12.659491648178006 0.7089899398306015" fill="#ff6609" stroke="none" /><path d="M 79.12142395522702 97.74499172005258 l -24.952747815339315 -2.695042650914748 a46.097866013391865,46.097866013391865 0 0,0 0.09199739485281472,-0.7881774972366615 l 24.902660067482913 3.1241638864762713" fill="#ebff1a" stroke="none" /><path d="M 79.32604984820605 96.31383870115002 l -12.413995782396963 -2.2134130382039197 a33.60977749855487,33.60977749855487 0 0,0 0.1064538104698571,-0.5686805122305563 l 12.374056248017245 2.4267716278970486" fill="#ff6509" stroke="none" /><path d="M 79.81627453868168 94.20196356495316 l -12.561756224747095 -3.6085270986688793 a34.06978145463037,34.06978145463037 0 0,0 0.16677012477280634,-0.5622659548639349 l 12.497780202862582 3.824222440279353" fill="#ff6c0a" stroke="none" /><path d="M 79.91906864156998 93.8553929516997 l -31.542333384946872 -9.651705918292405 a53.98597008578548,53.98597008578548 0 0,0 0.27955610477537907,-0.8862692477325291 l 31.37152179640329 10.19322533245135" fill="#89ff24" stroke="none" /><path d="M 80.803312248108 91.48605970444005 l -48.64416132844297 -21.574215855916638 a74.21373150931319,74.21373150931319 0 0,0 0.5279695017616807,-1.1633108121223628 l 48.265589509717934 22.408348676881072" fill="#40ffc4" stroke="none" /><path d="M 81.26839172434947 90.50648371742162 l -11.672796498470584 -5.915983400395228 a34.08636839189769,34.08636839189769 0 0,0 0.2697539468839357,-0.5210787644229649 l 11.569233118426535 6.116034887078528" fill="#ff6c0a" stroke="none" /><line stroke="#e1ed5e" stroke-width="0.3" x1="26.266209847984243" x2="21.928928074336255" y1="57.711370442889674" y2="55.22380399835377" /><path d="M 25.398753493254645 57.213857153982495 a86.0,86.0 0 0,1 29.58750427330803,-30.492523968695096" fill="none" id="id47" stroke="none" /><text fill="#e1ed5e" style="font-size:6.75px; font-family:Arial;" text-anchor="middle"><textPath startOffset="21.46611528233685" xlink:href="#id47">November</textPath></text><path d="M 81.78341655067845 89.55222093294921 l -21.846263098658394 -12.529513612166829 a46.18427927762232,46.18427927762232 0 0,0 0.40145206541383827,-0.6862117123912236 l 21.62735135877423 12.903704736911944" fill="#eaff1a" stroke="none" /><path d="M 81.96595687620814 89.24020034530311 l -14.846088786627979 -8.857744206523323 a38.28774087868737,38.28774087868737 0 0,0 0.3425553157341122,-0.5630708702112165 l 14.691417672607649 9.111982849941613" fill="#ffa90f" stroke="none" /><path d="M 84.80347519578584 85.50635884689758 l -18.341270012422303 -17.4929327117269 a46.34570733922387,46.34570733922387 0 0,0 0.5555652743447291,-0.5725588507785754 l 18.037440474374456 17.806055758055603" fill="#e7ff1a" stroke="none" /><path d="M 86.65592168130627 83.78471172551755 l -15.972994069537362 -19.409860858003523 a46.1372082394313,46.1372082394313 0 0,0 0.6175720207536222,-0.4993669581941752 l 15.636518650219239 19.68193391346183" fill="#eaff1a" stroke="none" /><path d="M 88.70189139769569 82.29822771554957 l -7.047339120490087 -11.041705891973026 a34.099017432006946,34.099017432006946 0 0,0 0.4974898030519988,-0.3115280690313608 l 6.856230165065846 11.161378302327316" fill="#ff6d0a" stroke="none" /><path d="M 89.00827224532344 82.1063720568725 l -13.186213332654328 -21.46606981353196 a46.192625414864935,46.192625414864935 0 0,0 0.6810947185448041,-0.410351947102429 l 12.814756547891875 21.689868370093006" fill="#e9ff1a" stroke="none" /><line stroke="#e1ed5e" stroke-width="0.3" x1="56.762969772571076" x2="54.21961505331055" y1="26.818313649435495" y2="22.513508569990535" /><path d="M 56.25429882871897 25.957352633546506 a86.0,86.0 0 0,1 42.265352541879196,-11.944610805530505" fill="none" id="id48" stroke="none" /><text fill="#e1ed5e" style="font-size:6.75px; font-family:Arial;" text-anchor="middle"><textPath startOffset="22.20632615414155" xlink:href="#id48">December</textPath></text></svg>