<?xml version="1.0" encoding="utf-8" ?>
<svg baseProfile="full" height="200mm" version="1.1" viewBox="0,0,200,200" width="200mm" xmlns="http://www.w3.org/2000/svg" xmlns:ev="http://www.w3.org/2001/xml-events" xmlns:xlink="http://www.w3.org/1999/xlink"><defs /><rect fill="#1a1a1a" height="200" width="200" x="0" y="0" /><text alignment-baseline="middle" fill="#e1ed5e" style="dominant-baseline: central; font-size:9.0px; font-family:Arial;" text-anchor="middle" x="100.0" y="100.0">2023</text><line stroke="#e1ed5e" stroke-width="0.3" x1="100.0" x2="100.0" y1="15.0" y2="10.0" /><path d="M 100.0 14.0 a86.0,86.0 0 0,1 42.46469731375804,11.215312516191453" fill="none" id="id13" stroke="none" /><text fill="#e1ed5e" style="font-size:6.75px; font-family:Arial;" text-anchor="middle"><textPath startOffset="22.20632615414155" xlink:href="#id13">January</textPath></text><path d="M 100.0 79.0 l 0.0 -13.889916067350157 a34.88991606735016,34.88991606735016 0 0,0 0.6005725515144773,0.0051693175584064536 l -0.23909207224194892 13.887858126400308" fill="#ff9f0e" stroke="none" /><path d="M 107.08798089147638 80.2323363322302 l 2.8611276185989607 -7.979396296488993 a29.476840007121286,29.476840007121286 0 0,0 0.4761459576566454,0.17536857456597743 l -2.9980559020281823 7.928964454116691" fill="#ff5407" stroke="none" /><path d="M 107.76421540070413 80.48803036053334 l 3.6323377895791635 -9.128297067096891 a30.824443249506537,30.824443249506537 0 0,0 0.4913065888841514,0.2004162935796273 l -3.7889282480517026 9.064419887333685" fill="#ff6709" stroke="none" /><path d="M 108.09893153111575 80.62456947434976 l 3.3629217111769387 -8.045265690637727 a29.719836149174924,29.719836149174924 0 0,0 0.4703040127705409,0.20135963410348195 l -3.500909481737795 7.986186528571453" fill="#ff5708" stroke="none" /><path d="M 108.43124777332544 80.76684994638697 l 5.640984939137693 -12.868072757612069 a35.050195997877616,35.050195997877616 0 0,0 0.5504848281592445,0.24698649614746326 l -5.861651885763718 12.769065930948074" fill="#ffa10e" stroke="none" /><path d="M 108.76106565485865 80.91482961587045 l 5.887695568907975 -12.825799683418332 a35.112621890751285,35.112621890751285 0 0,0 0.5471245210025013,0.25688229874955176 l -6.107598301210074 12.722552402028777" fill="#ffa20f" stroke="none" /><path d="M 109.08828744355905 81.06846463323043 l 6.149528435522557 -12.809895790494416 a35.20950844127365,35.20950844127365 0 0,0 0.5441189125539068,0.2669967873077097 l -6.3691186150868955 12.702143843051875" fill="#ffa30f" stroke="none" /><path d="M 109.41281617654863 81.2277094730956 l 2.446765204938716 -4.879664748225426 a26.458735020421187,26.458735020421187 0 0,0 0.4053724049756491,0.2076474905781581 l -2.53039809750312 4.836824732334767" fill="#ff2803" stroke="none" /><path d="M 109.73455568895987 81.39251694778311 l 2.830408893788209 -5.41029166659742 a27.105937309184306,27.105937309184306 0 0,0 0.4115648752155465,0.2198437029458994 l -2.9231188155320664 5.360769237149766" fill="#ff3204" stroke="none" /><line stroke="#e1ed5e" stroke-width="0.3" x1="143.23703022742887" x2="145.7803849466894" y1="26.81831364943548" y2="22.513508569990506" /><path d="M 143.74570117128098 25.957352633546492 a86.0,86.0 0 0,1 28.547481713284135,27.462654790039103" fill="none" id="id14" stroke="none" /><text fill="#e1ed5e" style="font-size:6.75px; font-family:Arial;" text-anchor="middle"><textPath startOffset="19.985693538727396" xlink:href="#id14">February</textPath></text><path d="M 111.60114157652 82.49532879139004 l 14.96139664898257 -22.574875708102436 a48.08262178823277,48.08262178823277 0 0,0 0.6859679889704888,0.46316864824799553 l -15.3477693323596 22.313995147555772" fill="#b9ff1f" stroke="none" /><path d="M 113.6212207817346 84.01681056812373 l 8.788937298989262 -10.312970621766793 a34.55001040187754,34.55001040187754 0 0,0 0.4493248617891219,0.389650092422814 l -8.965155959425148 10.160155535924307" fill="#ff9a0e" stroke="none" /><path d="M 115.4437574822437 85.77008943001954 l 13.701615942356362 -12.624697697313472 a39.63108347306689,39.63108347306689 0 0,0 0.4579397349531623,0.5056684930521959 l -13.916899317925559 12.386976416991727" fill="#ffdd14" stroke="none" /><path d="M 115.68641384162765 86.03803664274999 l 6.205575216312451 -5.52337931764161 a29.307640029025237,29.307640029025237 0 0,0 0.33216460886855026,0.3797215683953121 l -6.29973168875885 5.41574219304335" fill="#ff5107" stroke="none" /><path d="M 116.60985879189232 87.15038557335679 l 4.484112362019858 -3.46897078534014 a26.6693052470971,26.6693052470971 0 0,0 0.2777723197641633,0.3655158127043038 l -4.543160622008135 3.3912701967548027" fill="#ff2b04" stroke="none" /><line stroke="#e1ed5e" stroke-width="0.3" x1="172.23445277983987" x2="176.4835382374775" y1="55.19839476539836" y2="52.563006222186495" /><path d="M 173.08426987136738 54.67131705675599 a86.0,86.0 0 0,1 12.851231095245387,41.99856678651699" fill="none" id="id15" stroke="none" /><text fill="#e1ed5e" style="font-size:6.75px; font-family:Arial;" text-anchor="middle"><textPath startOffset="22.20632615414155" xlink:href="#id15">March</textPath></text><path d="M 120.08093135843002 93.85539295169968 l 5.181849187060324 -1.5856050931957122 a26.41901324126505,26.41901324126505 0 0,0 0.12931994120618567,0.4360025533607988 l -5.208375025378212 1.4961731530883835" fill="#ff2803" stroke="none" /><path d="M 120.28053869075195 94.5502522615342 l 5.2111596222885925 -1.4003328905312502 a26.396027873656195,26.396027873656195 0 0,0 0.11413600738008176,0.4398125954430705 l -5.234491961538977 1.3104238695393293" fill="#ff2703" stroke="none" /><path d="M 120.37134235888165 94.90015583598534 l 7.908928235891157 -1.9799530535028749 a29.15299699095687,29.15299699095687 0 0,0 0.11767704375848433,0.48784731828624467 l -7.94183807991046 1.843520503557224" fill="#ff4f07" stroke="none" /><path d="M 120.45610955862082 95.25157060432595 l 3.820030233917894 -0.8867347822477305 a24.921597832783817,24.921597832783817 0 0,0 0.093403315919902,0.4187087507191638 l -3.8347279368398337 0.8208478619786028" fill="#ff1101" stroke="none" /><path d="M 120.67395015179393 96.31383870115 l 13.697455167860202 -2.4422535974876505 a34.913478382848105,34.913478382848105 0 0,0 0.10039809368543483,0.5925552321416592 l -13.73746512306586 2.2061125770301535" fill="#ff9f0e" stroke="none" /><path d="M 120.73433829027371 96.67025291283417 l 2.7207598229595082 -0.43692940515140255 a23.755619951901316,23.755619951901316 0 0,0 0.061362018099353745,0.404299031261233 l -2.7278777344981617 0.39003126149808737" fill="#ff0000" stroke="none" /><path d="M 120.83666639777658 97.38593545837742 l 13.831315401890505 -1.7352080446005647 a34.939735747302386,34.939735747302386 0 0,0 0.06972914244368231,0.5973967095878049 l -13.859134897337777 1.496867596687907" fill="#ffa00e" stroke="none" /><line stroke="#e1ed5e" stroke-width="0.3" x1="184.98032266829074" x2="189.97916517819016" y1="98.17113171792111" y2="98.06355123074" /><path d="M 185.9800911702706 98.14961562048488 a86.0,86.0 0 0,1 -9.607161424134198,41.387399972396054" fill="none" id="id16" stroke="none" /><text fill="#e1ed5e" style="font-size:6.75px; font-family:Arial;" text-anchor="middle"><textPath startOffset="21.466115282336823" xlink:href="#id16">April</textPath></text><path d="M 120.9764740272857 100.99374915477107 l 13.72691400439484 0.6503051548004884 a34.742309299328525,34.742309299328525 0 0,0 -0.03344137378731212,0.5971181936166907 l -13.71368627972 -0.8864950647526025" fill="#ff9d0e" stroke="none" /><path d="M 120.89721153311464 102.0752229133903 l 27.2332900163643 2.7044348648816654 a48.36724416257134,48.36724416257134 0 0,0 -0.08940500481560489,0.8277793072535472 l -27.182702710047643 -3.172810494020004" fill="#b5ff1f" stroke="none" /><path d="M 120.49622156327973 104.57218783832717 l 13.4420921288429 2.998590250569787 a34.77248649631258,34.77248649631258 0 0,0 -0.13534682701886117,0.5830705884416879 l -13.388484735893485 -3.2295294963600396" fill="#ff9d0e" stroke="none" /><path d="M 120.41448212921028 104.9243191809786 l 13.369731925080593 3.225006000471253 a34.75319582684675,34.75319582684675 0 0,0 -0.14528273265167865,0.5803322984974167 l -13.312237878133853 -3.4546661383660657" fill="#ff9d0e" stroke="none" /><path d="M 119.79798401119884 107.00284435728193 l 16.78337622801905 5.936532297836008 a38.8023631390466,38.8023631390466 0 0,0 -0.22815002206368232,0.6277708741837702 l -16.67870194495014 -6.22455096902591" fill="#ffd313" stroke="none" /><path d="M 118.81262510543309 109.33194174019688 l 2.489761235318866 1.2350379952177006 a23.77924987335214,23.77924987335214 0 0,0 -0.18504936408513808,0.365119950977697 l -2.4681332014474586 -1.277712157898092" fill="#ff0000" stroke="none" /><path d="M 118.64920377521936 109.65438752849418 l 7.377274686492211 3.8190943477268373 a29.307205513095113,29.307205513095113 0 0,0 -0.23577994582738118,0.4460068015128601 l -7.310442232439937 -3.9455161643258316" fill="#ff5107" stroke="none" /><line stroke="#e1ed5e" stroke-width="0.3" x1="174.80103733775053" x2="179.2010983576182" y1="140.37084112569926" y2="142.7455964860345" /><path d="M 175.68104954172406 140.8457921977663 a86.0,86.0 0 0,1 -30.038265399797805,32.042727171017184" fill="none" id="id17" stroke="none" /><text fill="#e1ed5e" style="font-size:6.75px; font-family:Arial;" text-anchor="middle"><textPath startOffset="22.206326154141568" xlink:href="#id17">May</textPath></text><path d="M 118.48025628344425 109.97397251340804 l 11.986311734949187 6.469128022246357 a34.62061989689139,34.62061989689139 0 0,0 -0.2875548966395383,0.521995663366636 l -11.873180428858138 -6.674494204010799" fill="#ff9b0e" stroke="none" /><path d="M 118.30583269289576 110.29060199501025 l 11.96855387037617 6.728108270304398 a34.730029957907405,34.730029957907405 0 0,0 -0.2974345981665574,0.5186022927402828 l -11.850967276057233 -6.933130408902996" fill="#ff9d0e" stroke="none" /><path d="M 118.12598468904814 110.60418214915192 l 14.835320585787512 8.679056306817134 a38.187575607397136,38.187575607397136 0 0,0 -0.33681282443856364,0.5645176671964978 l -14.683726885650723 -8.933136067899737" fill="#ffcb12" stroke="none" /><path d="M 117.94076556474637 110.91462005526583 l 11.403244364731288 6.937389555045594 a34.34770976161197,34.34770976161197 0 0,0 -0.3116406312385222,0.5024639260937145 l -11.282139093824803 -7.132649812504582" fill="#ff980e" stroke="none" /><path d="M 117.75023020441432 111.22182372390056 l 7.2659482194142555 4.5935849375620075 a29.596221618002048,29.596221618002048 0 0,0 -0.27594267881999085,0.4282691654118366 l -7.185800677217214 -4.7179757028952976" fill="#ff5607" stroke="none" /><path d="M 117.55443506779139 111.5257021239791 l 7.474930524633531 4.907809467616458 a29.942101549329657,29.942101549329657 0 0,0 -0.28658425851867136,0.4284045822226038 l -7.389343160704139 -5.035750964044868" fill="#ff5a08" stroke="none" /><path d="M 117.35343817320211 111.8261652097733 l 11.289877775736658 7.6939196971462644 a34.66227435302072,34.66227435302072 0 0,0 -0.34024999003946876,0.49015548769525125 l -11.155766878535053 -7.887116447028535" fill="#ff9c0e" stroke="none" /><path d="M 117.14729908036423 112.12312394758627 l 4.703791062132648 3.325575754089621 a26.760651391326135,26.760651391326135 0 0,0 -0.2691614449066676,0.3738417054501199 l -4.6458498248503775 -3.4060510649908724" fill="#ff2d04" stroke="none" /><path d="M 116.93607887273984 112.41649034213515 l 7.827679735273322 5.738772862636346 a30.705981867227035,30.705981867227035 0 0,0 -0.3161820297072689,0.4235774985217232 l -7.727736438870961 -5.872663240667385" fill="#ff6509" stroke="none" /><path d="M 116.0416608686014 113.55231037782055 l 6.263519252280842 5.291544164888286 a29.19951907569316,29.19951907569316 0 0,0 -0.3276707327199059,0.38115508914844326 l -6.171506009990157 -5.398576353198257" fill="#ff5007" stroke="none" /><path d="M 115.32070863581623 114.36230785411682 l 6.036834107634013 5.659194491525102 a29.274650949496383,29.274650949496383 0 0,0 -0.34780160107461544,0.36466858823425735 l -5.938525955180433 -5.762270196341865" fill="#ff5107" stroke="none" /><path d="M 114.55890576462653 115.13401014063108 l 5.67414112567342 5.898280456210934 a29.184472484783505,29.184472484783505 0 0,0 -0.3650340530457187,0.3451624814315198 l -5.571771238236893 -5.995077574388375" fill="#ff5007" stroke="none" /><path d="M 114.0293411484842 115.62618273729858 l 9.374052118518325 10.441021416658234 a35.03167065405306,35.03167065405306 0 0,0 -0.45217153434471247,0.39898880597639613 l -9.192938231267025 -10.600833364406919" fill="#ffa10e" stroke="none" /><path d="M 112.34349029814194 116.9893568818739 l 4.779207493440777 6.578014788152238 a29.130873435155046,29.130873435155046 0 0,0 -0.40821047465995325,0.29124733500955247 l -4.6652696909319396 -6.65930638500601" fill="#ff4f07" stroke="none" /><line stroke="#e1ed5e" stroke-width="0.3" x1="143.8653032363475" x2="146.44561519142675" y1="172.8068346515853" y2="177.08958963109032" /><path d="M 144.38136562736335 173.6633856474863 a86.0,86.0 0 0,1 -40.68145358897372,12.25698825130547" fill="none" id="id18" stroke="none" /><text fill="#e1ed5e" style="font-size:6.75px; font-family:Arial;" text-anchor="middle"><textPath startOffset="21.466115282336833" xlink:href="#id18">June</textPath></text><path d="M 110.21172684928248 118.3499491758327 l 3.7629270139777873 6.76178676515539 a28.73830601423557,28.73830601423557 0 0,0 -0.4343277502122089,0.2368301194453274 l -3.6459764518969298 -6.8255575363604875" fill="#ff4906" stroke="none" /><path d="M 109.89434966115114 118.52300852407294 l 8.492975791160752 15.89952532121379 a39.02569119976155,39.02569119976155 0 0,0 -0.5952516155464431,0.31140751192514743 l -8.218033273087814 -16.043362252083654" fill="#ffd614" stroke="none" /><path d="M 107.93186726928326 119.44442032107085 l 3.0729356901134954 7.533087878257695 a29.135745001972857,29.135745001972857 0 0,0 -0.4660039371419627,0.18543258381398944 l -2.9428106769296662 -7.584867306477753" fill="#ff4f07" stroke="none" /><path d="M 107.59598834532513 119.57807347666477 l 4.883984505461987 12.58809297221668 a34.502347548732544,34.502347548732544 0 0,0 -0.555536721900248,0.21005645283498334 l -4.666577562801464 -12.670297675158295" fill="#ff9a0e" stroke="none" /><path d="M 105.18746579009965 120.34920634021253 l 5.395985732753737 21.167180956491528 a42.844134491275675,42.844134491275675 0 0,0 -0.716204413389639,0.17602561964436828 l -5.030828034620887 -21.25692783444993" fill="#f8ff18" stroke="none" /><path d="M 103.7750983002368 120.6578951692458 l 0.7718045588942055 4.223428478082901 a25.293370515878117,25.293370515878117 0 0,0 -0.4289647582937389,0.07458102173038306 l -0.6989908291284166 -4.23608807833429" fill="#ff1702" stroke="none" /><path d="M 103.41894727170886 120.7198165907248 l 2.2024327115520306 13.347383919718057 a34.527873718706225,34.527873718706225 0 0,0 -0.5872437237226613,0.09171539236832452 l -1.972353124220852 -13.383317619433488" fill="#ff9a0e" stroke="none" /><line stroke="#e1ed5e" stroke-width="0.3" x1="102.19456741930631" x2="102.32365962044197" y1="184.97166512339345" y2="189.96999836594603" /><path d="M 102.22038585953345 185.97133177190398 a86.0,86.0 0 0,1 -42.740103519485714,-10.115201625700543" fill="none" id="id19" stroke="none" /><text fill="#e1ed5e" style="font-size:6.75px; font-family:Arial;" text-anchor="middle"><textPath startOffset="22.20632615414155" xlink:href="#id19">July</textPath></text><path d="M 100.54218724476979 120.99299961872073 l 0.34928862966350843 13.524139750766084 a34.528649546243095,34.528649546243095 0 0,0 -0.5942878952181664,0.010231205062925294 l -0.11644104455267408 -13.528148433108168" fill="#ff9a0e" stroke="none" /><path d="M 100.18074693466247 120.99922214144158 l 0.11634577372172202 13.517079845159508 a34.51758054828897,34.51758054828897 0 0,0 -0.5941854167683456,0.0 l 0.1163457737217127 -13.517079845159508" fill="#ff9a0e" stroke="none" /><path d="M 98.01472825383883 120.90594882070398 l -1.5402254793719339 16.21937908820656 a37.29234644040749,37.29234644040749 0 0,0 -0.638529151241046,-0.06618615731431192 l 1.8191872272185732 -16.190463562436484" fill="#ffbf11" stroke="none" /><path d="M 97.65516085044442 120.86867818915974 l -0.9569685934192319 8.516861217104736 a29.570455873535174,29.570455873535174 0 0,0 -0.5053345571847975,-0.0611889773968991 l 1.1034305736554189 -8.49912671098249" fill="#ff5507" stroke="none" /><path d="M 97.2962882734958 120.8252237178851 l -1.110593407473492 8.554298131534885 a29.626090321803083,29.626090321803083 0 0,0 -0.5051550428168676,-0.07000988595118146 l 1.2576770414771907 -8.5339136800911" fill="#ff5608" stroke="none" /><path d="M 95.51606077576429 120.51570834832081 l -1.9492241356198439 8.918433518398254 a30.128961121232383,30.128961121232383 0 0,0 -0.5057072245219162,-0.11509731785981635 l 2.102451509534623 -8.883559466960751" fill="#ff5d08" stroke="none" /><path d="M 95.16358092515715 120.4354850818985 l -3.2100661086271143 13.563600891407217 a34.93828517297372,34.93828517297372 0 0,0 -0.5840462022227341,-0.14354434673284558 l 3.4430655955930587 -13.506335286360342" fill="#ffa00e" stroke="none" /><path d="M 93.08242187328487 119.8279376855182 l -8.882853631891924 25.461030588514408 a47.96607437642494,47.96607437642494 0 0,0 -0.7772341363655757,-0.27868850863466094 l 9.319807328887226 -25.30435453883979" fill="#baff1f" stroke="none" /><path d="M 92.7421414339146 119.70592522655815 l -3.551033864343924 9.64146754453493 a31.274616193222876,31.274616193222876 0 0,0 -0.5035656699629205,-0.19040544797842715 l 3.7164697550671275 -9.578913846449868" fill="#ff6d0a" stroke="none" /><path d="M 90.7491055286396 118.85261126421891 l -5.9620721336260925 12.150244347988531 a34.534206361748296,34.534206361748296 0 0,0 -0.5314092303369579,-0.26645961996560913 l 6.170335271645811 -12.04581688711362" fill="#ff9a0e" stroke="none" /><path d="M 90.42595943632237 118.69057910512821 l -6.178286750820868 12.061339878638014 a34.55164738485297,34.55164738485297 0 0,0 -0.527009856669763,-0.27570664898557473 l 6.384987510017126 -11.953203810707723" fill="#ff9a0e" stroke="none" /><line stroke="#e1ed5e" stroke-width="0.3" x1="58.666819895761336" x2="56.23545636021788" y1="174.27360380694188" y2="178.64263932499728" /><path d="M 58.180547188652646 175.14741091055294 a86.0,86.0 0 0,1 -31.652253787137756,-30.449443065178592" fill="none" id="id20" stroke="none" /><text fill="#e1ed5e" style="font-size:6.75px; font-family:Arial;" text-anchor="middle"><textPath startOffset="22.20632615414155" xlink:href="#id20">August</textPath></text><path d="M 88.54995079064634 117.60387380957326 l -7.362823252397743 11.31996981388677 a34.50380993769375,34.50380993769375 0 0,0 -0.4950890916235557,-0.3281180535450703 l 7.556587042761261 -11.19155373925038" fill="#ff9a0e" stroke="none" /><path d="M 88.24862548938628 117.40417183066458 l -5.323866861370145 7.884821777672024 a30.51388316216077,30.51388316216077 0 0,0 -0.43277857253671886,-0.2976690484764661 l 5.458802318529754 -7.7920119398304575" fill="#ff6309" stroke="none" /><path d="M 87.65650970185807 116.9893568818739 l -5.640141588262823 7.762988910982522 a30.59558200255146,30.59558200255146 0 0,0 -0.4234064747015588,-0.31322598776501 l 5.772933033382946 -7.664752974477746" fill="#ff6409" stroke="none" /><path d="M 86.79598089348748 116.32954008644616 l -5.118644097965852 6.3302774186958235 a29.140818730280813,29.140818730280813 0 0,0 -0.3873368088707528,-0.3187518239449331 l 5.226851035381293 -6.241230475893709" fill="#ff4f07" stroke="none" /><path d="M 86.51685102203217 116.09983520530335 l -8.668684546024286 10.351023552866344 a34.5014732659245,34.5014732659245 0 0,0 -0.45202601925759817,-0.38522638010638977 l 8.84557604185894 -10.200272782537002" fill="#ff9a0e" stroke="none" /><path d="M 86.24171649860922 115.8653595955263 l -8.882809238034737 10.243208229110703 a34.55830427392144,34.55830427392144 0 0,0 -0.44606155447749335,-0.39359745913875305 l 9.057813145418818 -10.088787628199661" fill="#ff9a0e" stroke="none" /><path d="M 85.44109423537348 115.13401014063109 l -5.642372863747577 5.865257287718153 a29.138649432472562,29.138649432472562 0 0,0 -0.3584748318373487,-0.3508430719036196 l 5.742497647960721 -5.767264112891964" fill="#ff4f07" stroke="none" /><path d="M 84.67929136418377 114.36230785411682 l -9.846743098379973 9.230771180434948 a34.49686949744429,34.49686949744429 0 0,0 -0.4023872426810262,-0.4367118794846357 l 10.004176749056727 -9.059908046148967" fill="#ff9a0e" stroke="none" /><path d="M 84.43433777217949 114.09645910891817 l -10.11574236788327 9.16094327103896 a34.647385290544946,34.647385290544946 0 0,0 -0.3965329732098483,-0.4455089990184557 l 10.271934190741456 -8.985460102279639" fill="#ff9c0e" stroke="none" /><path d="M 83.50135304334701 112.99209946851258 l -5.045502462618656 3.9731542856327025 a27.422075215826457,27.422075215826457 0 0,0 -0.28883695692734174,-0.3733607024422076 l 5.113146236764066 -3.885715589077242" fill="#ff3605" stroke="none" /><path d="M 83.28015986056508 112.70617746262583 l -7.073650566542245 5.375593226821795 a29.884454675318896,29.884454675318896 0 0,0 -0.3077226964047191,-0.41224483915846327 l 7.1651345296420486 -5.253035508154024" fill="#ff5a08" stroke="none" /><path d="M 83.06392112726016 112.41649034213515 l -11.200523287814654 8.21153410272895 a34.88816093804932,34.88816093804932 0 0,0 -0.35090879033180944,-0.4873816184207602 l 11.34021187052207 -8.01751887885705" fill="#ff9f0e" stroke="none" /><path d="M 82.85270091963577 112.12312394758628 l -11.038140896302579 7.803954990791172 a34.51821985118314,34.51821985118314 0 0,0 -0.3388359298333769,-0.4881184285027882 l 11.17083773329809 -7.6127953001013715" fill="#ff9a0e" stroke="none" /><path d="M 82.6465618267979 111.8261652097733 l -4.526153031552184 3.084520368909433 a26.477255441482185,26.477255441482185 0 0,0 -0.2534212438564171,-0.3788303749194504 l 4.578577380819332 -3.006153079784162" fill="#ff2803" stroke="none" /><path d="M 82.44556493220864 111.52570212397912 l -11.850185636225325 7.780467399237887 a35.17612685339704,35.17612685339704 0 0,0 -0.3279673601489165,-0.5090126261509749 l 11.982357859751287 -7.575333173165464" fill="#ffa30f" stroke="none" /><path d="M 82.24976979558568 111.22182372390057 l -7.689787616684014 4.861539265400685 a30.097658908683016,30.097658908683016 0 0,0 -0.27307944215794644,-0.44029101114592195 l 7.772331698509916 -4.7284519228895" fill="#ff5d08" stroke="none" /><path d="M 82.05923443525364 110.91462005526583 l -4.691647816723362 2.8542568692428536 a26.49166108857649,26.49166108857649 0 0,0 -0.23365534610120775,-0.39161979989602247 l 4.740084038522802 -2.77307497546072" fill="#ff2903" stroke="none" /><line stroke="#e1ed5e" stroke-width="0.3" x1="26.63291911575756" x2="22.317208475507996" y1="142.92168965132927" y2="145.44649492493687" /><path d="M 25.769776987707644 143.4266507060508 a86.0,86.0 0 0,1 -11.730757126820373,-40.83630448921669" fill="none" id="id21" stroke="none" /><text fill="#e1ed5e" style="font-size:6.75px; font-family:Arial;" text-anchor="middle"><textPath startOffset="21.46611528233685" xlink:href="#id21">September</textPath></text><path d="M 81.87401531095188 110.60418214915194 l -7.030992700701084 4.1133173489129415 a29.145811068897935,29.145811068897935 0 0,0 -0.24961028291720203,-0.4352165679795085 l 7.100754979770663 -3.991680935075126" fill="#ff4f07" stroke="none" /><path d="M 81.69416730710424 110.29060199501025 l -11.740617696130137 6.599974222059685 a34.4685471977692,34.4685471977692 0 0,0 -0.28629179824879863,-0.519702772895707 l 11.852485903830452 -6.396900930766155" fill="#ff990e" stroke="none" /><path d="M 81.51974371655577 109.97397251340807 l -23.726574506479317 12.805461046390223 a47.961642576485055,47.961642576485055 0 0,0 -0.3858571054624601,-0.729896229488123 l 23.943484120166662 -12.395149801815974" fill="#baff1f" stroke="none" /><path d="M 81.35079622478065 109.6543875284942 l -7.320052097358205 3.7894711499998937 a29.2427698199525,29.2427698199525 0 0,0 -0.22756630205288816,-0.44900990317102457 l 7.38419706919736 -3.662907035126184" fill="#ff5007" stroke="none" /><path d="M 81.18737489456691 109.33194174019688 l -5.020789533566012 2.4905463833166457 a26.604564998982315,26.604564998982315 0 0,0 -0.19997352115578054,-0.41200468378135624 l 5.0629163113365125 -2.4037527435700046" fill="#ff2a04" stroke="none" /><path d="M 81.02952815118164 109.00673069616217 l -7.699329169187497 3.655459121977358 a29.523030625777952,29.523030625777952 0 0,0 -0.21400736424088476,-0.46095282358596196 l 7.761111150268208 -3.522386231112569" fill="#ff5407" stroke="none" /><path d="M 80.87730276802145 108.67885076344099 l -7.420676447592351 3.3678796809445686 a29.149174957329798,29.149174957329798 0 0,0 -0.20343197441544744,-0.4586853978340516 l 7.477549506739078 -3.239645946617821" fill="#ff4f07" stroke="none" /><path d="M 80.73074385275274 108.34839909993369 l -5.152333191705383 2.232246717335608 a26.61511021489379,26.61511021489379 0 0,0 -0.17851010282030516,-0.4219451520352846 l 5.189994275717995 -2.143227039634165" fill="#ff2a04" stroke="none" /><path d="M 80.58989483394504 108.01547362559985 l -7.522575229663083 3.106474840507541 a29.138754451428483,29.138754451428483 0 0,0 -0.18745569286589964,-0.46524965656367806 l 7.574933536786371 -2.9765258161010575" fill="#ff4f07" stroke="none" /><path d="M 80.45479744820244 107.68017299344265 l -37.59081705390314 14.771091636104757 a61.38879392730388,61.38879392730388 0 0,0 -0.3779962963645544,-0.9868290519235021 l 37.839507629861195 -14.121839017348096" fill="#30ff37" stroke="none" /><path d="M 80.32549172779594 107.34259656027581 l -5.132407053894151 1.915432592188327 a26.478182561952433,26.478182561952433 0 0,0 -0.15568634090836464,-0.4283819455570263 l 5.1646176558077395 -1.8268028496251836" fill="#ff2803" stroke="none" /><path d="M 80.20201598880116 107.00284435728193 l -5.246037331504251 1.8556022120350388 a26.56454555672299,26.56454555672299 0 0,0 -0.14877305377604494,-0.4324041333959928 l 5.277201216223524 -1.7650253755497491" fill="#ff2a04" stroke="none" /><path d="M 80.0844068197444 106.66101706037122 l -5.2019602161583185 1.739860090210892 a26.48520767373511,26.48520767373511 0 0,0 -0.14088585383810046,-0.4336020729784026 l 5.2311383210126685 -1.6500591172546861" fill="#ff2903" stroke="none" /><path d="M 79.97269907076064 106.31721596034903 l -5.450046192088589 1.719109275430911 a26.71474760569283,26.71474760569283 0 0,0 -0.13455738456848843,-0.4397413182079892 l 5.478830349163207 -1.625040984670874" fill="#ff2c04" stroke="none" /><path d="M 79.86692584326677 105.97154293290107 l -3.3111205653191336 0.9820903880792717 a24.45369670475521,24.45369670475521 0 0,0 -0.11622185649945636,-0.4045835293497663 l 3.327535058704694 -0.9249493832249094" fill="#ff0a01" stroke="none" /><path d="M 79.76711848015287 105.62410040840567 l -8.050778823034227 2.237861592882626 a29.356019636544396,29.356019636544396 0 0,0 -0.13114022252632668,-0.48802155338069375 l 8.088107121902327 -2.0989491063263936" fill="#ff5207" stroke="none" /><path d="M 79.67330655649465 105.27499134158121 l -55.811497208793554 14.483672189740057 a78.66021141816097,78.66021141816097 0 0,0 -0.32883221798443724,-1.3135212519744979 l 56.05254074107305 -13.520823098368167" fill="#46fff8" stroke="none" /><path d="M 79.58551787078972 104.9243191809786 l -5.617012386378831 1.3549186140980825 a26.778116700064363,26.778116700064363 0 0,0 -0.1042299097385148,-0.4490197232033443 l 5.639502862047901 -1.2580302335461637" fill="#ff2d04" stroke="none" /><path d="M 79.50377843672027 104.57218783832718 l -5.3969151155698185 1.2039150523284994 a26.52956636797942,26.52956636797942 0 0,0 -0.09558976864080522,-0.4465635756172591 l 5.416838922935065 -1.1108376572950764" fill="#ff2904" stroke="none" /><path d="M 79.29508885075956 103.50808413554451 l -5.702182173274344 0.9661347820264508 a26.783450350288227,26.783450350288227 0 0,0 -0.07310382791571399,-0.4552176062142114 l 5.717967755551348 -0.8678379461190256" fill="#ff2d04" stroke="none" /><path d="M 79.18660465613746 102.79330883721812 l -27.311735021551698 3.6654332238952305 a48.55660121651958,48.55660121651958 0 0,0 -0.10404637004028759,-0.8293519413577138 l 27.370782900838833 -3.194763528250108" fill="#b3ff20" stroke="none" /><path d="M 79.10278846688536 102.07522291339032 l -9.327961617744618 0.9263245315622185 a30.373843666281765,30.373843666281765 0 0,0 -0.04718851962997337,-0.5207213819608423 l 9.342524733651667 -0.76562176105281" fill="#ff6108" stroke="none" /><path d="M 79.07016306316243 101.71520430193888 l -5.535002311564502 0.4535945408789956 a26.553557292091224,26.553557292091224 0 0,0 -0.033411255398132514,-0.4558700345414866 l 5.5419901256269695 -0.35825136984074835" fill="#ff2a04" stroke="none" /><path d="M 79.04373962182676 101.35467743843564 l -5.4293528159696836 0.35097014602670656 a26.44068488737217,26.44068488737217 0 0,0 -0.02545060602888982,-0.4544376673959415 l 5.434589772886104 -0.2574607622953275" fill="#ff2803" stroke="none" /><path d="M 79.0235259727143 100.99374915477108 l -57.056328463986375 2.7030128186307145 a78.1203194676639,78.1203194676639 0 0,0 -0.05207227873952887,-1.3437541362978864 l 57.0944028755771 -1.7204814353188311" fill="#45fff3" stroke="none" /><path d="M 79.0095281055655 100.63252640178507 l -8.54709905120109 0.25755808805757713 a29.550978795422573,29.550978795422573 0 0,0 -0.010945031460355746,-0.5085726042874128 l 8.550266145346455 -0.11039566798003549" fill="#ff5507" stroke="none" /><line stroke="#e1ed5e" stroke-width="0.3" x1="15.007084014347285" x2="10.007500721073583" y1="101.09737516637583" y2="101.16192664675087" /><path d="M 14.007167355692545 101.11028546245083 a86.0,86.0 0 0,1 10.666146001902534,-42.60595125391555" fill="none" id="id22" stroke="none" /><text fill="#e1ed5e" style="font-size:6.75px; font-family:Arial;" text-anchor="middle"><textPath startOffset="22.20632615414155" xlink:href="#id22">October</textPath></text><path d="M 79.00019446554 99.90962569577889 l -20.978282098758406 -0.09028167643355398 a41.97847636498388,41.97847636498388 0 0,0 0.00932920240021551,-0.7225570070384337 l 20.973619889240478 0.45137494153245966" fill="#fffb17" stroke="none" /><path d="M 79.01574976396665 99.18683210126434 l -62.95275070810006 -2.4395036962069616 a84.0,84.0 0 0,0 0.06842556706600478,-1.4443555735079636 l 62.90143153280056 3.522770376337934" fill="#4dd2ff" stroke="none" /><path d="M 79.05617556472873 98.46500227214037 l -6.950769315769104 -0.5094301253124423 a27.969412682114122,27.969412682114122 0 0,0 0.039324349843091626,-0.47985667301133245 l 6.940970482106516 0.6290007155315531" fill="#ff3e05" stroke="none" /><path d="M 80.95270993114464 91.15688171328213 l -5.416583859132413 -2.5147667517573127 a26.971886847450964,26.971886847450964 0 0,0 0.19913190725355734,-0.4194225816438328 l 5.372493758037105 2.6076317490416776" fill="#ff3004" stroke="none" /><path d="M 81.10775173730289 90.83032412892265 l -12.206748014470564 -5.924753961317691 a34.56861844812989,34.56861844812989 0 0,0 0.264433448558381,-0.5330816963459416 l 12.10295455295877 6.133995246162594" fill="#ff9b0e" stroke="none" /><path d="M 81.26839172434947 90.50648371742162 l -52.37594536602717 -26.545071989049283 a79.71865546731185,79.71865546731185 0 0,0 0.6308804066583872,-1.218660140463683 l 51.91125552620866 27.442704851773303" fill="#48fbff" stroke="none" /><line stroke="#e1ed5e" stroke-width="0.3" x1="26.266209847984243" x2="21.928928074336255" y1="57.711370442889674" y2="55.22380399835377" /><path d="M 25.398753493254645 57.213857153982495 a86.0,86.0 0 0,1 29.58750427330803,-30.492523968695096" fill="none" id="id23" stroke="none" /><text fill="#e1ed5e" style="font-size:6.75px; font-family:Arial;" text-anchor="middle"><textPath startOffset="21.46611528233685" xlink:href="#id23">November</textPath></text><path d="M 81.78341655067845 89.55222093294921 l -11.84675786535211 -6.794485320607955 a34.656892131529744,34.656892131529744 0 0,0 0.30125144626363204,-0.5149363737556044 l 11.728046744618153 6.997401106717451" fill="#ff9c0e" stroke="none" /><path d="M 82.34701348167596 88.62581576622439 l -11.380284395095766 -7.332552551842645 a34.53799098237232,34.53799098237232 0 0,0 0.3263073151847847,-0.49698842768453083 l 11.25238044455306 7.527359043504843" fill="#ff9a0e" stroke="none" /><path d="M 82.54541684631803 88.32363383020206 l -47.21803427480335 -31.586836142481676 a77.80907478799924,77.80907478799924 0 0,0 0.7542868559898994,-1.1068228870557708 l 46.667322953144705 32.39493705280786" fill="#45fff0" stroke="none" /><path d="M 83.17141714833178 87.43820079747576 l -11.303001541344667 -8.437195038922635 a35.10475465821581,35.10475465821581 0 0,0 0.3656311645848375,-0.4811277537902838 l 11.156094436535719 8.630507568593947" fill="#ffa20f" stroke="none" /><path d="M 83.6137871275137 86.86637796730984 l -11.064966550703321 -8.868619589661582 a35.18047595090914,35.18047595090914 0 0,0 0.3827996097263308,-0.4692670587891337 l 10.910668448900598 9.057770818058799" fill="#ffa30f" stroke="none" /><path d="M 83.84228863543731 86.58626213691792 l -20.781160073618267 -17.252012208215813 a48.00904550771414,48.00904550771414 0 0,0 0.5333333701696842,-0.6312984882763694 l 20.48111608996146 17.6071696461213" fill="#baff1f" stroke="none" /><path d="M 85.57189188830299 84.74124197986013 l -9.832561018628134 -10.398637724364818 a35.31121667460977,35.31121667460977 0 0,0 0.4452443709070611,-0.4138061182736143 l 9.652108763926215 10.566348428713079" fill="#ffa50f" stroke="none" /><path d="M 85.83668400450813 84.49514656593479 l -38.51177422172909 -42.159577247572635 a78.10154732929294,78.10154732929294 0 0,0 1.0004027658730004,-0.8981714807941588 l 37.78036046826012 42.81624773713607" fill="#45fff3" stroke="none" /><path d="M 87.51073957382395 83.11751280151077 l -25.669620173487957 -34.699175065699194 a64.16204524916748,64.16204524916748 0 0,0 0.8935471735923628,-0.6492000223938422 l 25.068527683541813 35.13589432290971" fill="#34ff59" stroke="none" /><path d="M 87.80319425747018 82.90503203632743 l -17.34110745080367 -24.305189619639254 a50.85726461126234,50.85726461126234 0 0,0 0.717012017968985,-0.5023127398067027 l 16.920164293251023 24.600087202209902" fill="#99ff23" stroke="none" /><path d="M 88.70189139769569 82.29822771554957 l -9.65768655815067 -15.131574165618577 a38.95091770314542,38.95091770314542 0 0,0 0.5682769134175585,-0.3558549510482525 l 9.395790492360868 15.295573457989759" fill="#ffd513" stroke="none" /><path d="M 89.00827224532344 82.1063720568725 l -11.433511450421285 -18.612815432067322 a42.84403997421535,42.84403997421535 0 0,0 0.631720952976404,-0.38060480579430117 l 11.111428431227232 18.806866847320244" fill="#f8ff18" stroke="none" /><line stroke="#e1ed5e" stroke-width="0.3" x1="56.762969772571076" x2="54.21961505331055" y1="26.818313649435495" y2="22.513508569990535" /><path d="M 56.25429882871897 25.957352633546506 a86.0,86.0 0 0,1 42.265352541879196,-11.944610805530505" fill="none" id="id24" stroke="none" /><text fill="#e1ed5e" style="font-size:6.75px; font-family:Arial;" text-anchor="middle"><textPath startOffset="22.20632615414155" xlink:href="#id24">December</textPath></text><path d="M 89.94658935756843 81.56283822128135 l -6.5522841508642555 -12.016372075735656 a34.68669519848333,34.68669519848333 0 0,0 0.5266678373142504,-0.28132771903101583 l 6.344471267021699 12.127378521268422" fill="#ff9c0e" stroke="none" /><path d="M 90.91171255644093 81.06846463323043 l -6.110759891853651 -12.729138215412837 a35.11992727187257,35.11992727187257 0 0,0 0.5472383533776097,-0.2569357445759911 l 5.890743327176433 12.832438942628835" fill="#ffa20f" stroke="none" /><path d="M 91.23893434514133 80.91482961587045 l -6.280450017768652 -13.681378887013688 a36.05404200458183,36.05404200458183 0 0,0 0.5662508454600529,-0.254060248541962 l 6.044017053841825 13.787459466072178" fill="#ffaf10" stroke="none" /><path d="M 91.90106846888425 80.62456947434976 l -21.91803704364786 -52.43548514594272 a77.83203718271147,77.83203718271147 0 0,0 1.2405542051357368,-0.5060532087359196 l 21.01219896892374 52.80499924086222" fill="#45fff0" stroke="none" /><path d="M 92.23578459929587 80.48803036053334 l -5.0622189238016935 -12.72167976439634 a34.69186606932551,34.69186606932551 0 0,0 0.556749662044724,-0.21601021924838698 l 4.842486096757294 12.806932687535278" fill="#ff9c0e" stroke="none" /><path d="M 94.28887869178378 79.79150937346287 l -3.8551187698301432 -13.641127078183606 a35.175411411759825,35.175411411759825 0 0,0 0.5840828669859338,-0.1596519114053816 l 3.619738013620487 13.705465530415283" fill="#ffa30f" stroke="none" /><path d="M 94.63758080256005 79.69619591428918 l -6.978756407742901 -26.423764656884167 a48.32980753025922,48.32980753025922 0 0,0 0.8061667614006945,-0.2055098575327458 l 6.522880757657208 26.539977510585775" fill="#b6ff1f" stroke="none" /><path d="M 95.692805502759 79.44645832069477 l -3.0980557781873777 -14.783641324433953 a36.104767473028886,36.104767473028886 0 0,0 0.609368684324751,-0.12223362543259798 l 2.84312068439549 14.834778905943761" fill="#ffaf10" stroke="none" /><path d="M 96.04723909329186 79.375362276772 l -5.316022201883575 -27.73783556106728 a49.242655924394356,49.242655924394356 0 0,0 0.8338537474555309,-0.15238144248848026 l 4.837773333325151 27.825232484906497" fill="#abff21" stroke="none" /><path d="M 96.75951476605007 79.25152402106235 l -2.3188630062855666 -14.847428675278074 a36.02741707378182,36.02741707378182 0 0,0 0.6135486619342333,-0.09042112386769453 l 2.0629453639226845 14.885144283306737" fill="#ffae10" stroke="none" /><path d="M 97.11714578562143 79.19881850522333 l -7.828984299500626 -56.48989203873917 a78.02982463334632,78.02982463334632 0 0,0 1.3320258508652096,-0.1729351848402043 l 6.855443720127559 56.61628554674351" fill="#45fff2" stroke="none" /><path d="M 98.19473922651362 79.07773832637324 l -1.5401409513763662 -17.849627307158627 a38.915949016297446,38.915949016297446 0 0,0 0.6678899912261342,-0.051841117638956845 l 1.2326607707878976 17.873493686986045" fill="#ffd413" stroke="none" /><path d="M 98.55514903715128 79.0497635885617 l -1.2364705371047127 -17.928735028177556 a38.971321573544024,38.971321573544024 0 0,0 0.6696348490766584,-0.04039420278975171 l 0.9276736391884313 17.947362500347612" fill="#ffd513" stroke="none" /><path d="M 99.27714615592234 79.0124445844662 l -0.7185131364568246 -20.861526007955295 a41.87389586320331,41.87389586320331 0 0,0 0.7205766974088103,-0.018610370185736344 l 0.35930980385313527 20.87080317028339" fill="#fffa17" stroke="none" /></svg>