<?xml version="1.0" encoding="utf-8" ?>
<svg baseProfile="full" height="200mm" version="1.1" viewBox="0,0,200,200" width="200mm" xmlns="http://www.w3.org/2000/svg" xmlns:ev="http://www.w3.org/2001/xml-events" xmlns:xlink="http://www.w3.org/1999/xlink"><defs /><rect fill="#1a1a1a" height="200" width="200" x="0" y="0" /><text alignment-baseline="middle" fill="#e1ed5e" style="dominant-baseline: central; font-size:9.0px; font-family:Arial;" text-anchor="middle" x="100.0" y="100.0">2023</text><line stroke="#e1ed5e" stroke-width="0.3" x1="100.0" x2="100.0" y1="15.0" y2="10.0" /><path d="M 100.0 14.0 a86.0,86.0 0 0,1 42.46469731375804,11.215312516191453" fill="none" id="id13" stroke="none" /><text fill="#e1ed5e" style="font-size:6.75px; font-family:Arial;" text-anchor="middle"><textPath startOffset="22.20632615414155" xlink:href="#id13">January</textPath></text><path d="M 100.0 79.0 l 0.0 -32.31093243025632 a53.31093243025632,53.31093243025632 0 0,0 0.9176600669216396,0.007898589911617236 l -0.5561795876491112 32.30614521695326" fill="#c2ff1e" stroke="none" /><path d="M 107.08798089147638 80.2323363322302 l 6.655598201464247 -18.561791964277504 a40.7189530235368,40.7189530235368 0 0,0 0.657742311505708,0.24225204424326008 l -6.974122838742532 18.44447665222792" fill="#ff7b0b" stroke="none" /><path d="M 107.76421540070413 80.48803036053334 l 8.449598780921324 -21.234381887970223 a43.85376760454838,43.85376760454838 0 0,0 0.6989792093602173,0.2851311698207759 l -8.81386185986993 21.08578983196587" fill="#ffae10" stroke="none" /><path d="M 108.09893153111575 80.62456947434976 l 7.822878981881089 -18.71501785657463 a41.284213786515465,41.284213786515465 0 0,0 0.6533054661007657,0.27971130596335614 l -8.14386820577217 18.57758702264848" fill="#ff840c" stroke="none" /><path d="M 108.43124777332544 80.76684994638697 l 13.122144445967832 -29.933905388590063 a53.6837783414633,53.6837783414633 0 0,0 0.843136668822875,0.37829084645683514 l -13.635463233257488 29.703594211616696" fill="#bdff1f" stroke="none" /><path d="M 108.76106565485865 80.91482961587045 l 13.69604528302767 -29.835566598040092 a53.82899161748393,53.82899161748393 0 0,0 0.838762805762478,0.3938103838868229 l -14.207586300089746 29.595391231513265" fill="#bbff1f" stroke="none" /><path d="M 109.08828744355905 81.06846463323043 l 14.305125656687999 -29.798572500873362 a54.05437252684491,54.05437252684491 0 0,0 0.8353427156515763,0.40989904271664546 l -14.815939639350006 29.547918298021887" fill="#b7ff1f" stroke="none" /><path d="M 109.41281617654863 81.2277094730956 l 5.691701894611055 -11.351149279253002 a33.69819122619458,33.69819122619458 0 0,0 0.5162876006788915,0.26446256178693234 l -5.886249982878701 11.25149419215357" fill="#ff0200" stroke="none" /><path d="M 109.73455568895987 81.39251694778311 l 6.584139407737832 -12.585501214180809 a35.20372248928685,35.20372248928685 0 0,0 0.5345181569691335,0.2855210879168654 l -6.799802611235277 12.47030139976219" fill="#ff1c02" stroke="none" /><line stroke="#e1ed5e" stroke-width="0.3" x1="143.23703022742887" x2="145.7803849466894" y1="26.81831364943548" y2="22.513508569990506" /><path d="M 143.74570117128098 25.957352633546492 a86.0,86.0 0 0,1 28.547481713284135,27.462654790039103" fill="none" id="id14" stroke="none" /><text fill="#e1ed5e" style="font-size:6.75px; font-family:Arial;" text-anchor="middle"><textPath startOffset="19.985693538727396" xlink:href="#id14">February</textPath></text><path d="M 111.60114157652 82.49532879139004 l 34.803424729560035 -52.514013625829904 a84.0,84.0 0 0,0 1.1983812223738326,0.8091523508053196 l -35.70221064634041 51.90714936272591" fill="#4dd2ff" stroke="none" /><path d="M 113.6212207817346 84.01681056812373 l 20.44495821828028 -23.99018747040349 a52.52023812429613,52.52023812429613 0 0,0 0.6830287013473291,0.5923157591318146 l -20.854880718274377 23.634706717852005" fill="#cdff1d" stroke="none" /><path d="M 115.4437574822437 85.77008943001954 l 31.87290503596354 -29.367761620752216 a64.3399065301816,64.3399065301816 0 0,0 0.7434517848437343,0.8209380296238047 l -32.37370046142331 28.814770803858863" fill="#32ff2f" stroke="none" /><path d="M 115.68641384162765 86.03803664274999 l 14.435502834911068 -12.848568427389774 a40.32535776460666,40.32535776460666 0 0,0 0.45703634533859905,0.522471549442864 l -14.654531043827516 12.598181321743962" fill="#ff740a" stroke="none" /><path d="M 116.60985879189232 87.15038557335679 l 10.431009286677012 -8.069571758187356 a34.18802271378379,34.18802271378379 0 0,0 0.3560830058890005,0.46856349616914267 l -10.568368232790126 7.888823486137181" fill="#ff0a01" stroke="none" /><path d="M 116.82858285166822 87.43820079747576 l 10.152735907769944 -7.578572180070475 a33.66936473156643,33.66936473156643 0 0,0 0.3426858121928979,0.46742306271305106 l -10.28168433247647 7.402686673685931" fill="#ff0100" stroke="none" /><path d="M 117.04232023915458 87.72973835380427 l 10.236023313555634 -7.369811299832591 a33.61310001033824,33.61310001033824 0 0,0 0.3340299895917888,0.4724617316547133 l -10.361365922951306 7.192523067846085" fill="#ff0000" stroke="none" /><line stroke="#e1ed5e" stroke-width="0.3" x1="172.23445277983987" x2="176.4835382374775" y1="55.19839476539836" y2="52.563006222186495" /><path d="M 173.08426987136738 54.67131705675599 a86.0,86.0 0 0,1 12.851231095245387,41.99856678651699" fill="none" id="id15" stroke="none" /><text fill="#e1ed5e" style="font-size:6.75px; font-family:Arial;" text-anchor="middle"><textPath startOffset="22.20632615414155" xlink:href="#id15">March</textPath></text><line stroke="#e1ed5e" stroke-width="0.3" x1="184.98032266829074" x2="189.97916517819016" y1="98.17113171792111" y2="98.06355123074" /><path d="M 185.9800911702706 98.14961562048488 a86.0,86.0 0 0,1 -9.607161424134198,41.387399972396054" fill="none" id="id16" stroke="none" /><text fill="#e1ed5e" style="font-size:6.75px; font-family:Arial;" text-anchor="middle"><textPath startOffset="21.466115282336823" xlink:href="#id16">April</textPath></text><line stroke="#e1ed5e" stroke-width="0.3" x1="174.80103733775053" x2="179.2010983576182" y1="140.37084112569926" y2="142.7455964860345" /><path d="M 175.68104954172406 140.8457921977663 a86.0,86.0 0 0,1 -30.038265399797805,32.042727171017184" fill="none" id="id17" stroke="none" /><text fill="#e1ed5e" style="font-size:6.75px; font-family:Arial;" text-anchor="middle"><textPath startOffset="22.206326154141568" xlink:href="#id17">May</textPath></text><line stroke="#e1ed5e" stroke-width="0.3" x1="143.8653032363475" x2="146.44561519142675" y1="172.8068346515853" y2="177.08958963109032" /><path d="M 144.38136562736335 173.6633856474863 a86.0,86.0 0 0,1 -40.68145358897372,12.25698825130547" fill="none" id="id18" stroke="none" /><text fill="#e1ed5e" style="font-size:6.75px; font-family:Arial;" text-anchor="middle"><textPath startOffset="21.466115282336833" xlink:href="#id18">June</textPath></text><line stroke="#e1ed5e" stroke-width="0.3" x1="102.19456741930631" x2="102.32365962044197" y1="184.97166512339345" y2="189.96999836594603" /><path d="M 102.22038585953345 185.97133177190398 a86.0,86.0 0 0,1 -42.740103519485714,-10.115201625700543" fill="none" id="id19" stroke="none" /><text fill="#e1ed5e" style="font-size:6.75px; font-family:Arial;" text-anchor="middle"><textPath startOffset="22.20632615414155" xlink:href="#id19">July</textPath></text><line stroke="#e1ed5e" stroke-width="0.3" x1="58.666819895761336" x2="56.23545636021788" y1="174.27360380694188" y2="178.64263932499728" /><path d="M 58.180547188652646 175.14741091055294 a86.0,86.0 0 0,1 -31.652253787137756,-30.449443065178592" fill="none" id="id20" stroke="none" /><text fill="#e1ed5e" style="font-size:6.75px; font-family:Arial;" text-anchor="middle"><textPath startOffset="22.20632615414155" xlink:href="#id20">August</textPath></text><line stroke="#e1ed5e" stroke-width="0.3" x1="26.63291911575756" x2="22.317208475507996" y1="142.92168965132927" y2="145.44649492493687" /><path d="M 25.769776987707644 143.4266507060508 a86.0,86.0 0 0,1 -11.730757126820373,-40.83630448921669" fill="none" id="id21" stroke="none" /><text fill="#e1ed5e" style="font-size:6.75px; font-family:Arial;" text-anchor="middle"><textPath startOffset="21.46611528233685" xlink:href="#id21">September</textPath></text><line stroke="#e1ed5e" stroke-width="0.3" x1="15.007084014347285" x2="10.007500721073583" y1="101.09737516637583" y2="101.16192664675087" /><path d="M 14.007167355692545 101.11028546245083 a86.0,86.0 0 0,1 10.666146001902534,-42.60595125391555" fill="none" id="id22" stroke="none" /><text fill="#e1ed5e" style="font-size:6.75px; font-family:Arial;" text-anchor="middle"><textPath startOffset="22.20632615414155" xlink:href="#id22">October</textPath></text><line stroke="#e1ed5e" stroke-width="0.3" x1="26.266209847984243" x2="21.928928074336255" y1="57.711370442889674" y2="55.22380399835377" /><path d="M 25.398753493254645 57.213857153982495 a86.0,86.0 0 0,1 29.58750427330803,-30.492523968695096" fill="none" id="id23" stroke="none" /><text fill="#e1ed5e" style="font-size:6.75px; font-family:Arial;" text-anchor="middle"><textPath startOffset="21.46611528233685" xlink:href="#id23">November</textPath></text><line stroke="#e1ed5e" stroke-width="0.3" x1="56.762969772571076" x2="54.21961505331055" y1="26.818313649435495" y2="22.513508569990535" /><path d="M 56.25429882871897 25.957352633546506 a86.0,86.0 0 0,1 42.265352541879196,-11.944610805530505" fill="none" id="id24" stroke="none" /><text fill="#e1ed5e" style="font-size:6.75px; font-family:Arial;" text-anchor="middle"><textPath startOffset="22.20632615414155" xlink:href="#id24">December</textPath></text></svg>