<?xml version="1.0" encoding="utf-8" ?>
<svg baseProfile="full" height="200mm" version="1.1" viewBox="0,0,200,200" width="200mm" xmlns="http://www.w3.org/2000/svg" xmlns:ev="http://www.w3.org/2001/xml-events" xmlns:xlink="http://www.w3.org/1999/xlink"><defs /><rect fill="#1a1a1a" height="200" width="200" x="0" y="0" /><text alignment-baseline="middle" fill="#e1ed5e" style="dominant-baseline: central; font-size:9.0px; font-family:Arial;" text-anchor="middle" x="100.0" y="100.0">2022</text><line stroke="#e1ed5e" stroke-width="0.3" x1="100.0" x2="100.0" y1="15.0" y2="10.0" /><path d="M 100.0 14.0 a86.0,86.0 0 0,1 42.46469731375804,11.215312516191453" fill="none" id="id1" stroke="none" /><text fill="#e1ed5e" style="font-size:6.75px; font-family:Arial;" text-anchor="middle"><textPath startOffset="22.20632615414155" xlink:href="#id1">January</textPath></text><line stroke="#e1ed5e" stroke-width="0.3" x1="143.23703022742887" x2="145.7803849466894" y1="26.818313649435467" y2="22.513508569990506" /><path d="M 143.74570117128098 25.957352633546478 a86.0,86.0 0 0,1 28.547481713284135,27.462654790039114" fill="none" id="id2" stroke="none" /><text fill="#e1ed5e" style="font-size:6.75px; font-family:Arial;" text-anchor="middle"><textPath startOffset="19.985693538727396" xlink:href="#id2">February</textPath></text><line stroke="#e1ed5e" stroke-width="0.3" x1="172.23445277983987" x2="176.4835382374775" y1="55.19839476539836" y2="52.563006222186495" /><path d="M 173.08426987136738 54.67131705675599 a86.0,86.0 0 0,1 12.851231095245387,41.99856678651699" fill="none" id="id3" stroke="none" /><text fill="#e1ed5e" style="font-size:6.75px; font-family:Arial;" text-anchor="middle"><textPath startOffset="22.20632615414155" xlink:href="#id3">March</textPath></text><line stroke="#e1ed5e" stroke-width="0.3" x1="184.98032266829074" x2="189.97916517819016" y1="98.17113171792111" y2="98.06355123074" /><path d="M 185.9800911702706 98.14961562048488 a86.0,86.0 0 0,1 -9.607161424134198,41.387399972396054" fill="none" id="id4" stroke="none" /><text fill="#e1ed5e" style="font-size:6.75px; font-family:Arial;" text-anchor="middle"><textPath startOffset="21.466115282336823" xlink:href="#id4">April</textPath></text><line stroke="#e1ed5e" stroke-width="0.3" x1="174.80103733775053" x2="179.2010983576182" y1="140.37084112569926" y2="142.7455964860345" /><path d="M 175.68104954172406 140.8457921977663 a86.0,86.0 0 0,1 -30.038265399797805,32.042727171017184" fill="none" id="id5" stroke="none" /><text fill="#e1ed5e" style="font-size:6.75px; font-family:Arial;" text-anchor="middle"><textPath startOffset="22.206326154141568" xlink:href="#id5">May</textPath></text><line stroke="#e1ed5e" stroke-width="0.3" x1="143.8653032363475" x2="146.44561519142675" y1="172.8068346515853" y2="177.08958963109032" /><path d="M 144.38136562736335 173.6633856474863 a86.0,86.0 0 0,1 -40.68145358897372,12.25698825130547" fill="none" id="id6" stroke="none" /><text fill="#e1ed5e" style="font-size:6.75px; font-family:Arial;" text-anchor="middle"><textPath startOffset="21.466115282336833" xlink:href="#id6">June</textPath></text><line stroke="#e1ed5e" stroke-width="0.3" x1="102.19456741930631" x2="102.32365962044197" y1="184.97166512339345" y2="189.96999836594603" /><path d="M 102.22038585953345 185.97133177190398 a86.0,86.0 0 0,1 -42.740103519485714,-10.115201625700543" fill="none" id="id7" stroke="none" /><text fill="#e1ed5e" style="font-size:6.75px; font-family:Arial;" text-anchor="middle"><textPath startOffset="22.20632615414155" xlink:href="#id7">July</textPath></text><path d="M 97.2962882734958 120.8252237178851 l -1.6655042211895805 12.82847489595381 a33.93613823623254,33.93613823623254 0 0,0 -0.5786457537107741,-0.08019502883219354 l 1.886078566087185 -12.797905301629012" fill="#ff3405" stroke="none" /><path d="M 96.93821686468263 120.77559828337769 l -1.9572447870448368 13.280800644838555 a34.42424943616433,34.42424943616433 0 0,0 -0.585481300990124,-0.0914401381835565 l 2.1855619516434786 -13.245142199307892" fill="#ff3c05" stroke="none" /><path d="M 94.46302465271185 120.25689768951611 l -2.5881324444830587 9.468623363202806 a30.81596953664669,30.81596953664669 0 0,0 -0.5104721584017643,-0.14426453093290967 l 2.7507357709894382 -9.422670038931374" fill="#ff0000" stroke="none" /><path d="M 93.42475214034765 119.94407469862007 l -5.866321092920425 17.793754483573405 a39.73583256188344,39.73583256188344 0 0,0 -0.647751341565297,-0.2197524241358784 l 6.171742167422948 -17.690139072539406" fill="#ff910d" stroke="none" /><path d="M 92.40401165467489 119.57807347666478 l -11.312003144497904 29.155814709423964 a52.27335841433397,52.27335841433397 0 0,0 -0.8360723512326084,-0.33269044312230606 l 11.81219657177237 -28.95677742189559" fill="#b9ff1f" stroke="none" /><path d="M 91.40352486487194 119.15986991738527 l -5.2281980241159935 11.652635815237662 a33.77176479668843,33.77176479668843 0 0,0 -0.5283383607203503,-0.24253422804653121 l 5.428004380603764 -11.560914516857055" fill="#ff3204" stroke="none" /><path d="M 90.10565033884886 118.52300852407294 l -5.224839238436542 9.781314089845008 a32.0893214576775,32.0893214576775 0 0,0 -0.4849723149181402,-0.26444557413985853 l 5.392434365223324 -9.689927863945384" fill="#ff1602" stroke="none" /><line stroke="#e1ed5e" stroke-width="0.3" x1="58.666819895761336" x2="56.23545636021788" y1="174.27360380694188" y2="178.64263932499728" /><path d="M 58.180547188652646 175.14741091055294 a86.0,86.0 0 0,1 -31.652253787137756,-30.449443065178592" fill="none" id="id8" stroke="none" /><text fill="#e1ed5e" style="font-size:6.75px; font-family:Arial;" text-anchor="middle"><textPath startOffset="22.20632615414155" xlink:href="#id8">August</textPath></text><path d="M 89.7882731507175 118.34994917583269 l -9.946237645600531 17.87287869929144 a41.45403227489257,41.45403227489257 0 0,0 -0.6205298172238358,-0.35235302505311555 l 10.252416229745574 -17.69902250844369" fill="#ffab0f" stroke="none" /><path d="M 87.07902340077011 116.55440617244103 l -11.70450905327173 14.995863155453902 a40.02291891259645,40.02291891259645 0 0,0 -0.5394374913233889,-0.42856176790311923 l 11.960904037312476 -14.79216747354565" fill="#ff950d" stroke="none" /><path d="M 85.70375840098266 115.38237550388516 l -12.785300422647452 13.75664300781423 a39.78055200844196,39.78055200844196 0 0,0 -0.49756788098905325,-0.47048148809638474 l 13.020204138027323 -13.534526882971914" fill="#ff920d" stroke="none" /><path d="M 85.44109423537348 115.13401014063109 l -13.052125173743944 13.567708860109821 a39.82659542412762,39.82659542412762 0 0,0 -0.48996203926349263,-0.4795309787588111 l 13.283737165383231 -13.341027778428439" fill="#ff920d" stroke="none" /><path d="M 84.4343377721795 114.09645910891817 l -23.48320732775595 21.26668734018327 a52.681745798227126,52.681745798227126 0 0,0 -0.6029329232228559,-0.6774015308888999 l 23.84579910062714 -20.859311639553507" fill="#b4ff20" stroke="none" /><path d="M 83.95833913139862 113.55231037782056 l -16.362285247613766 13.823180154626323 a42.4197266115031,42.4197266115031 0 0,0 -0.4664230741913699,-0.5618366396810146 l 16.597804321698668 -13.539482257831544" fill="#ffba11" stroke="none" /><path d="M 83.72743513129214 113.27417163493433 l -24.607655535076567 20.073433152144865 a52.756565139300136,52.756565139300136 0 0,0 -0.5679673523574624,-0.7086266010386751 l 24.94954079948889 -19.646878717527933" fill="#b3ff20" stroke="none" /><path d="M 83.50135304334701 112.99209946851258 l -19.44444511041774 15.311811062343576 a45.74950511951614,45.74950511951614 0 0,0 -0.4818799356230498,-0.6228947748618129 l 19.70513186325886 -14.97483829336851" fill="#ffeb16" stroke="none" /><path d="M 82.85270091963577 112.12312394758628 l -17.77032603208547 12.56360340286403 a42.763010309951866,42.763010309951866 0 0,0 -0.41976800725284735,-0.6047071222250988 l 17.983954946500454 -12.25585501845192" fill="#ffbf11" stroke="none" /><path d="M 82.24976979558568 111.22182372390057 l -10.709387120166324 6.770551878455651 a33.670096496414054,33.670096496414054 0 0,0 -0.30549256992185464,-0.49255129366590295 l 10.824344329756133 -6.585204253424483" fill="#ff3004" stroke="none" /><path d="M 82.05923443525364 110.91462005526583 l -12.947650565250129 7.8769596547064005 a36.15546596319936,36.15546596319936 0 0,0 -0.31888970211553186,-0.534477483247028 l 13.081321143063892 -7.6529200775732615" fill="#ff5808" stroke="none" /><line stroke="#e1ed5e" stroke-width="0.3" x1="26.63291911575756" x2="22.317208475507996" y1="142.92168965132927" y2="145.44649492493687" /><path d="M 25.769776987707644 143.4266507060508 a86.0,86.0 0 0,1 -11.730757126820373,-40.83630448921669" fill="none" id="id9" stroke="none" /><text fill="#e1ed5e" style="font-size:6.75px; font-family:Arial;" text-anchor="middle"><textPath startOffset="21.46611528233685" xlink:href="#id9">September</textPath></text><path d="M 81.69416730710424 110.29060199501025 l -18.34218432633724 10.3110370223532 a42.041701697763656,42.041701697763656 0 0,0 -0.3491935506139147,-0.6338877244874448 l 18.516954286402672 -9.993778779467934" fill="#ffb410" stroke="none" /><path d="M 81.35079622478065 109.6543875284942 l -27.752462551833577 14.366995587310154 a52.25075582920699,52.25075582920699 0 0,0 -0.40661371534676116,-0.8022874358323416 l 27.995654936966606 -13.887153939775128" fill="#b9ff1f" stroke="none" /><path d="M 80.87730276802145 108.67885076344099 l -19.069059781462933 8.654507365503491 a41.941096883605724,41.941096883605724 0 0,0 -0.2927067459257929,-0.6599764397385011 l 19.215207612120004 -8.324982589272294" fill="#ffb310" stroke="none" /><path d="M 80.45479744820244 107.68017299344265 l -41.54785569876935 16.325986820934414 a65.64036468089262,65.64036468089262 0 0,0 -0.40417498299083815,-1.055173341940309 l 41.82272496135369 -15.608389912160948" fill="#32ff4d" stroke="none" /><path d="M 80.32549172779594 107.34259656027581 l -11.658511369068654 4.350997966104191 a33.443957193905234,33.443957193905234 0 0,0 -0.19664368235367097,-0.5410789587363057 l 11.731679312427548 -4.149671210361768" fill="#ff2c04" stroke="none" /><path d="M 79.97269907076064 106.31721596034903 l -18.49684356620635 5.834463455927905 a40.39521038120668,40.39521038120668 0 0,0 -0.20346341796733802,-0.664930222231841 l 18.59453375667982 -5.515206261144017" fill="#ff9b0e" stroke="none" /><path d="M 79.67330655649465 105.27499134158121 l -45.97256957271456 11.930366693447267 a68.49537664402922,68.49537664402922 0 0,0 -0.28633900440210047,-1.1437819866214833 l 46.17111989141172 -11.137256867428393" fill="#37ff74" stroke="none" /><path d="M 79.35854240842038 103.8639653848113 l -19.022837101257302 3.5609686842147696 a40.353264049015856,40.353264049015856 0 0,0 -0.12193134129219861,-0.6838557153217266 l 19.08131488488869 -3.2329942181598295" fill="#ff9a0e" stroke="none" /><path d="M 79.23777060512086 103.15116336523772 l -49.26071394772199 7.476487913952174 a70.82485133110549,70.82485133110549 0 0,0 -0.17256289190306207,-1.206904464054814 l 49.38211089064165 -6.62743797791696" fill="#3aff92" stroke="none" /><path d="M 79.0235259727143 100.99374915477108 l -19.27795373451384 0.9132826710756788 a40.299574747318744,40.299574747318744 0 0,0 -0.026862290165050873,-0.6931963492567469 l 19.290818157530094 -0.581309074804935" fill="#ff9a0e" stroke="none" /><line stroke="#e1ed5e" stroke-width="0.3" x1="15.007084014347285" x2="10.007500721073583" y1="101.09737516637583" y2="101.16192664675087" /><path d="M 14.007167355692545 101.11028546245083 a86.0,86.0 0 0,1 10.666146001902526,-42.60595125391555" fill="none" id="id10" stroke="none" /><text fill="#e1ed5e" style="font-size:6.75px; font-family:Arial;" text-anchor="middle"><textPath startOffset="22.20632615414155" xlink:href="#id10">October</textPath></text><path d="M 79.00175016825051 100.2711162175752 l -24.00299149237225 0.30991155529839626 a45.00499210070693,45.00499210070693 0 0,0 -0.0033340184855697734,-0.7747084799011436 l 24.004769808147323 0.10330640280642268" fill="#ffe015" stroke="none" /><path d="M 79.00019446554 99.90962569577889 l -19.453318606518067 -0.08371887687106869 a40.45349875104853,40.45349875104853 0 0,0 0.00899029479688792,-0.6963082396714297 l 19.448995304603464 0.4185633746029704" fill="#ff9c0e" stroke="none" /><path d="M 79.00486145842228 99.54816195383935 l -20.61140324253853 -0.4435796482740437 a41.6161758464292,41.6161758464292 0 0,0 0.02157760181921548,-0.7160555563488462 l 20.60071394626367 0.7983053520478844" fill="#ffae10" stroke="none" /><path d="M 79.01574976396665 99.18683210126434 l -18.860147616675704 -0.7308560675168292 a39.87430313188342,39.87430313188342 0 0,0 0.03248121194239159,-0.6856270472414511 l 18.844772796499814 1.0553942213812892" fill="#ff930d" stroke="none" /><path d="M 79.05617556472873 98.46500227214037 l -62.831473305813795 -4.604993183578899 a84.0,84.0 0 0,0 0.11810206472201168,-1.4411443311688876 l 62.742896757272284 5.685851431955564" fill="#4dd2ff" stroke="none" /><line stroke="#e1ed5e" stroke-width="0.3" x1="26.266209847984243" x2="21.928928074336255" y1="57.71137044288968" y2="55.22380399835378" /><path d="M 25.398753493254645 57.2138571539825 a86.0,86.0 0 0,1 29.58750427330803,-30.4925239686951" fill="none" id="id11" stroke="none" /><text fill="#e1ed5e" style="font-size:6.75px; font-family:Arial;" text-anchor="middle"><textPath startOffset="21.46611528233685" xlink:href="#id11">November</textPath></text><line stroke="#e1ed5e" stroke-width="0.3" x1="56.76296977257108" x2="54.21961505331056" y1="26.818313649435495" y2="22.513508569990535" /><path d="M 56.25429882871898 25.957352633546506 a86.0,86.0 0 0,1 42.26535254187918,-11.944610805530505" fill="none" id="id12" stroke="none" /><text fill="#e1ed5e" style="font-size:6.75px; font-family:Arial;" text-anchor="middle"><textPath startOffset="22.20632615414155" xlink:href="#id12">December</textPath></text></svg>