<?xml version="1.0" encoding="utf-8" ?>
<svg baseProfile="full" height="200mm" version="1.1" viewBox="0,0,200,200" width="200mm" xmlns="http://www.w3.org/2000/svg" xmlns:ev="http://www.w3.org/2001/xml-events" xmlns:xlink="http://www.w3.org/1999/xlink"><defs /><rect fill="#1a1a1a" height="200" width="200" x="0" y="0" /><text alignment-baseline="middle" fill="#e1ed5e" style="dominant-baseline: central; font-size:9.0px; font-family:Arial;" text-anchor="middle" x="100.0" y="100.0">2023</text><line stroke="#e1ed5e" stroke-width="0.3" x1="100.0" x2="100.0" y1="15.0" y2="10.0" /><path d="M 100.0 14.0 a86.0,86.0 0 0,1 42.46469731375804,11.215312516191453" fill="none" id="id13" stroke="none" /><text fill="#e1ed5e" style="font-size:6.75px; font-family:Arial;" text-anchor="middle"><textPath startOffset="22.20632615414155" xlink:href="#id13">January</textPath></text><path d="M 100.0 79.0 l 0.0 -61.79278397402845 a82.79278397402845,82.79278397402845 0 0,0 1.425141677678034,0.012266644353059988 l -1.0636611984055055 61.78362870628395" fill="#4bdeff" stroke="none" /><path d="M 107.08798089147638 80.2323363322302 l 12.678600201431586 -35.35933693915674 a58.56367409938164,58.56367409938164 0 0,0 0.945992062962145,0.3484168603443868 l -13.285374590166306 35.13585681100603" fill="#56ff2b" stroke="none" /><path d="M 107.76421540070413 80.48803036053334 l 16.0832918945449 -40.418340676197666 a64.50074184634451,64.50074184634451 0 0,0 1.0280685104517524,0.4193749586762668 l -16.776644274585042 40.13550483133782" fill="#33ff4e" stroke="none" /><path d="M 108.09893153111575 80.62456947434976 l 14.910350058406095 -35.67068699863089 a59.66156295105651,59.66156295105651 0 0,0 0.9441193525834118,0.40422263519780904 l -15.522153168779822 35.40874483547029" fill="#4aff2c" stroke="none" /><path d="M 108.43124777332544 80.76684994638697 l 24.973988249559778 -56.970032948219455 a83.20357500345426,83.20357500345426 0 0,0 1.306763183029983,0.5863065489930555 l -25.95093355105654 56.531706068709866" fill="#4cdaff" stroke="none" /><path d="M 108.76106565485865 80.91482961587045 l 26.043815856076446 -56.734041570669326 a83.42621097974515,83.42621097974515 0 0,0 1.2999463800613966,0.6103422558167583 l -27.01654044743744 56.27733433221256" fill="#4cd8ff" stroke="none" /><path d="M 109.08828744355905 81.06846463323043 l 27.264862330677165 -56.79460610030869 a84.0,84.0 0 0,0 1.2981149319582728,0.6369793594606721 l -28.23844852964587 56.31687158071319" fill="#4dd2ff" stroke="none" /><path d="M 109.41281617654863 81.2277094730956 l 10.718886622882593 -21.377030002032967 a44.91384415233212,44.91384415233212 0 0,0 0.6881218246707599,0.3524827253930367 l -11.085268935142109 21.18935475132743" fill="#fcff18" stroke="none" /><path d="M 109.73455568895987 81.39251694778311 l 12.553237220842913 -23.995358011275727 a48.08063830141472,48.08063830141472 0 0,0 0.7300356994517473,0.3899597879097854 l -12.964417966822971 23.775719496864188" fill="#d3ff1c" stroke="none" /><line stroke="#e1ed5e" stroke-width="0.3" x1="143.23703022742887" x2="145.7803849466894" y1="26.81831364943548" y2="22.513508569990506" /><path d="M 143.74570117128098 25.957352633546492 a86.0,86.0 0 0,1 28.547481713284135,27.462654790039103" fill="none" id="id14" stroke="none" /><text fill="#e1ed5e" style="font-size:6.75px; font-family:Arial;" text-anchor="middle"><textPath startOffset="19.985693538727396" xlink:href="#id14">February</textPath></text><path d="M 111.60114157652 82.49532879139004 l 33.696591817026864 -50.84394123778366 a81.99644793489634,81.99644793489634 0 0,0 1.1697976607920642,0.78985260243104 l -34.56679417222547 50.25637672305395" fill="#4ae6ff" stroke="none" /><path d="M 113.6212207817346 84.01681056812373 l 19.794759198293086 -23.22724160296618 a51.51781847054228,51.51781847054228 0 0,0 0.6699921764045416,0.5810106131654734 l -20.19164517334439 22.88306599638103" fill="#a8ff21" stroke="none" /><path d="M 115.4437574822437 85.77008943001952 l 30.85926972317532 -28.433795915312057 a62.96159289161103,62.96159289161103 0 0,0 0.7275252815282677,0.8033515868750809 l -31.344138645319624 27.898391541167427" fill="#30ff3a" stroke="none" /><path d="M 115.68641384162765 86.03803664274999 l 13.976419001328596 -12.439952938400527 a39.7107647414615,39.7107647414615 0 0,0 0.45007071961970213,0.5145086351160069 l -14.188481584526146 12.197528747081574" fill="#ffbb11" stroke="none" /><path d="M 116.60985879189232 87.15038557335679 l 10.099278013701822 -7.812939898495005 a33.76861175913561,33.76861175913561 0 0,0 0.3517146598549467,0.46281526484009805 l -10.232268613780883 7.637939857773875" fill="#ff6509" stroke="none" /><path d="M 116.82858285166822 87.43820079747576 l 9.829854399921302 -7.337555292103534 a33.26644835265403,33.26644835265403 0 0,0 0.33858494104031667,0.4618294790695782 l -9.954701953475245 7.167263369362461" fill="#ff5e08" stroke="none" /><path d="M 117.04232023915458 87.72973835380427 l 9.91049306516954 -7.135433511749988 a33.21197298536884,33.21197298536884 0 0,0 0.33004379206955997,0.4668235379512982 l -10.031849477042986 6.963783473466896" fill="#ff5d08" stroke="none" /><path d="M 117.2510076193507 88.02491185347247 l 25.230268594383823 -17.51403147253862 a51.71331554498511,51.71331554498511 0 0,0 0.5013126592434219,0.7356144687066328 l -25.528005719295976 17.077138980561582" fill="#a5ff21" stroke="none" /><line stroke="#e1ed5e" stroke-width="0.3" x1="172.23445277983987" x2="176.4835382374775" y1="55.19839476539836" y2="52.563006222186495" /><path d="M 173.08426987136738 54.67131705675599 a86.0,86.0 0 0,1 12.851231095245387,41.99856678651699" fill="none" id="id15" stroke="none" /><text fill="#e1ed5e" style="font-size:6.75px; font-family:Arial;" text-anchor="middle"><textPath startOffset="22.20632615414155" xlink:href="#id15">March</textPath></text><path d="M 120.08093135843002 93.85539295169968 l 11.670745839388303 -3.5711564301285277 a33.20489519398048,33.20489519398048 0 0,0 0.16253654347453197,0.5479924233521436 l -11.730488279974537 3.3697346200298544" fill="#ff5d08" stroke="none" /><path d="M 120.28053869075195 94.5502522615342 l 11.736759833080612 -3.1538797530271965 a33.15312671191942,33.15312671191942 0 0,0 0.14335359597194924,0.5523998828920235 l -11.789309760922864 2.9513834445863227" fill="#ff5c08" stroke="none" /><path d="M 120.37134235888165 94.90015583598534 l 17.812771121899573 -4.45932110170158 a39.36247150383794,39.36247150383794 0 0,0 0.15888792781874447,0.6586930383254493 l -17.886891849979136 4.152042831716725" fill="#ffb710" stroke="none" /><path d="M 120.45610955862082 95.25157060432595 l 8.603609011808658 -1.9971358592641806 a29.832363198399058,29.832363198399058 0 0,0 0.11180830631942155,0.5012147138242595 l -8.636711705130118 1.8487429758899572" fill="#ff2904" stroke="none" /><path d="M 120.67395015179393 96.31383870115 l 30.849897394262943 -5.50053071683341 a52.33643258897508,52.33643258897508 0 0,0 0.15049998755812094,0.8882594458838512 l -30.940009243341287 4.968685482633721" fill="#9eff22" stroke="none" /><path d="M 120.73433829027371 96.67025291283417 l 6.127792962004116 -0.9840680942087168 a27.206306196057906,27.206306196057906 0 0,0 0.07027532249628575,0.46302657061923214 l -6.143824177939702 0.8784424111974019" fill="#ff0000" stroke="none" /><path d="M 120.83666639777658 97.38593545837742 l 31.151384442653278 -3.9080977705091278 a52.39557263178742,52.39557263178742 0 0,0 0.1045657120558585,0.8958551636903928 l -31.214040507712724 3.371298868493882" fill="#9dff22" stroke="none" /><line stroke="#e1ed5e" stroke-width="0.3" x1="184.98032266829074" x2="189.97916517819016" y1="98.17113171792111" y2="98.06355123074" /><path d="M 185.9800911702706 98.14961562048488 a86.0,86.0 0 0,1 -9.607161424134198,41.387399972396054" fill="none" id="id16" stroke="none" /><text fill="#e1ed5e" style="font-size:6.75px; font-family:Arial;" text-anchor="middle"><textPath startOffset="21.466115282336823" xlink:href="#id16">April</textPath></text><path d="M 120.9764740272857 100.99374915477107 l 30.916245674196677 1.4646404809246667 a51.95091950694919,51.95091950694919 0 0,0 -0.05000560276112763,0.8928836291637975 l -30.88645372054802 -1.9965958264238877" fill="#a3ff22" stroke="none" /><path d="M 120.89721153311464 102.0752229133903 l 61.335789350036954 6.091024884749588 a82.6374856669117,82.6374856669117 0 0,0 -0.15275223825377737,1.4142960142324248 l -61.221854810282125 -7.145917220866805" fill="#4be0ff" stroke="none" /><path d="M 120.49622156327973 104.57218783832717 l 30.27475911869408 6.753531865539991 a52.018885092050205,52.018885092050205 0 0,0 -0.20247591563560885,0.8722609452711614 l -30.15402263712792 -7.273661468159717" fill="#a2ff22" stroke="none" /><path d="M 120.41448212921028 104.9243191809786 l 30.111788257070366 7.263473819680671 a51.9754393668246,51.9754393668246 0 0,0 -0.21727883385477553,0.8679209343349522 l -29.982298108920528 -7.78072259341302" fill="#a2ff22" stroke="none" /><path d="M 119.79798401119884 107.00284435728193 l 37.8001187021077 13.370469832075232 a61.095117376357265,61.095117376357265 0 0,0 -0.35922689366752986,0.9884381295612595 l -37.56436754743495 -14.019155758642622" fill="#3aff2e" stroke="none" /><path d="M 118.81262510543309 109.33194174019688 l 5.607529545041829 2.781596865269504 a27.259526237615283,27.259526237615283 0 0,0 -0.2121327637498662,0.4185580679189975 l -5.558818111505693 -2.877709144891196" fill="#ff0100" stroke="none" /><path d="M 118.64920377521936 109.65438752849418 l 16.615362123997308 8.60150099729646 a39.70978561924365,39.70978561924365 0 0,0 -0.3194699371094488,0.6043167256218486 l -16.464839678662965 -8.886232738004445" fill="#ffbb11" stroke="none" /><line stroke="#e1ed5e" stroke-width="0.3" x1="174.80103733775053" x2="179.2010983576182" y1="140.37084112569926" y2="142.7455964860345" /><path d="M 175.68104954172406 140.8457921977663 a86.0,86.0 0 0,1 -30.038265399797805,32.042727171017184" fill="none" id="id17" stroke="none" /><text fill="#e1ed5e" style="font-size:6.75px; font-family:Arial;" text-anchor="middle"><textPath startOffset="22.206326154141568" xlink:href="#id17">May</textPath></text><path d="M 118.48025628344425 109.97397251340804 l 26.99599913691512 14.570001045104343 a51.67684631533469,51.67684631533469 0 0,0 -0.4292219563115812,0.7791625266505077 l -26.74120077115203 -15.032534090152657" fill="#a6ff21" stroke="none" /><path d="M 118.30583269289576 110.29060199501023 l 26.955913394299042 15.153234534933189 a51.923159343631795,51.923159343631795 0 0,0 -0.4446798362578143,0.7753367766904411 l -26.69108156188885 -15.614991157481947" fill="#a3ff22" stroke="none" /><path d="M 118.12598468904814 110.60418214915192 l 33.41263995565223 19.547281223725566 a59.7104728987578,59.7104728987578 0 0,0 -0.526643881045358,0.8826854371314713 l -33.07121519890865 -20.119528754743143" fill="#49ff2c" stroke="none" /><path d="M 117.94076556474637 110.91462005526583 l 25.682794482741862 15.624636681470824 a51.06218894010746,51.06218894010746 0 0,0 -0.46329297947838355,0.7469757986152707 l -25.41003686359552 -16.064408811451365" fill="#adff20" stroke="none" /><path d="M 117.75023020441432 111.22182372390056 l 16.36462865507946 10.345836417869304 a40.36071801881218,40.36071801881218 0 0,0 -0.37630629993779413,0.5840357341703779 l -16.184117491764617 -10.625993751961138" fill="#ffc512" stroke="none" /><path d="M 117.55443506779139 111.5257021239791 l 16.83530553205691 11.053543789893002 a41.139720521218464,41.139720521218464 0 0,0 -0.39375981281122585,0.5886174941198091 l -16.642542613834962 -11.341698198218618" fill="#ffcf13" stroke="none" /><path d="M 117.35343817320211 111.8261652097733 l 25.427467056986345 17.32852148840201 a51.77066359226164,51.77066359226164 0 0,0 -0.5081884585010913,0.7320833769570742 l -25.125417691323115 -17.7636461275461" fill="#a5ff21" stroke="none" /><path d="M 117.14729908036423 112.12312394758627 l 10.594046481370048 7.489980666821796 a33.9743451179161,33.9743451179161 0 0,0 -0.34171753474805544,0.47461576830485386 l -10.46354915424639 -7.671230040577783" fill="#ff6809" stroke="none" /><path d="M 116.93607887273984 112.41649034213513 l 17.62978048908532 12.925069658776199 a42.86015978389798,42.86015978389798 0 0,0 -0.4413346029007693,0.5912398224556221 l -17.40468461948946 -13.226622360741136" fill="#ffe715" stroke="none" /><path d="M 116.0416608686014 113.55231037782055 l 14.106920606304989 11.91780377966474 a39.46724819574328,39.46724819574328 0 0,0 -0.4428929839979038,0.515184598263286 l -13.899685112736304 -12.158865477089556" fill="#ffb811" stroke="none" /><path d="M 115.32070863581623 114.36230785411682 l 13.596373878326474 12.745840416525452 a39.636465076906944,39.636465076906944 0 0,0 -0.47090658872308777,0.49374367561642124 l -13.374960738224425 -12.97799120872438" fill="#ffba11" stroke="none" /><path d="M 114.55890576462653 115.13401014063108 l 12.77950347475772 13.284318087223689 a39.43336149767272,39.43336149767272 0 0,0 -0.493225285473898,0.46637529298566094 l -12.548942354893015 -13.50232801695527" fill="#ffb811" stroke="none" /><path d="M 114.0293411484842 115.62618273729858 l 21.112575901427967 23.515642366886524 a52.60263117401564,52.60263117401564 0 0,0 -0.6789688303310124,0.5991110504148628 l -20.704664718190365 -23.875576559073675" fill="#9bff22" stroke="none" /><path d="M 112.34349029814194 116.9893568818739 l 10.763902210758864 14.815240396608193 a39.31264423320867,39.31264423320867 0 0,0 -0.5508874698967835,0.3930435828018535 l -10.507287413013197 -14.998328241254265" fill="#ffb610" stroke="none" /><line stroke="#e1ed5e" stroke-width="0.3" x1="143.8653032363475" x2="146.44561519142675" y1="172.8068346515853" y2="177.08958963109032" /><path d="M 144.38136562736335 173.6633856474863 a86.0,86.0 0 0,1 -40.68145358897372,12.25698825130547" fill="none" id="id18" stroke="none" /><text fill="#e1ed5e" style="font-size:6.75px; font-family:Arial;" text-anchor="middle"><textPath startOffset="21.466115282336833" xlink:href="#id18">June</textPath></text><path d="M 110.21172684928248 118.3499491758327 l 8.474998655841564 15.229137725209542 a38.42848926527818,38.42848926527818 0 0,0 -0.5807774222452268,0.3166861574336047 l -8.211598421727688 -15.372764534402917" fill="#ffa90f" stroke="none" /><path d="M 109.89434966115114 118.52300852407294 l 19.12818400466109 35.80947990543838 a61.59810678361945,61.59810678361945 0 0,0 -0.9395444757113188,0.4915252640779283 l -18.508948626423276 -36.13343458846103" fill="#35ff2f" stroke="none" /><path d="M 107.93186726928326 119.44442032107085 l 6.921015678859721 16.966388031935683 a39.32372180746129,39.32372180746129 0 0,0 -0.6289528269866236,0.2502733099650041 l -6.627941775831231 -17.083008186306756" fill="#ffb610" stroke="none" /><path d="M 107.59598834532513 119.57807347666477 l 10.99988458794127 28.351353228455856 a51.41047008569092,51.41047008569092 0 0,0 -0.8277814714611984,0.3129961220617281 l -10.510232895719797 -28.536497600624216" fill="#a9ff21" stroke="none" /><line stroke="#e1ed5e" stroke-width="0.3" x1="102.19456741930631" x2="102.32365962044197" y1="184.97166512339345" y2="189.96999836594603" /><path d="M 102.22038585953345 185.97133177190398 a86.0,86.0 0 0,1 -42.740103519485714,-10.115201625700543" fill="none" id="id19" stroke="none" /><text fill="#e1ed5e" style="font-size:6.75px; font-family:Arial;" text-anchor="middle"><textPath startOffset="22.20632615414155" xlink:href="#id19">July</textPath></text><line stroke="#e1ed5e" stroke-width="0.3" x1="58.666819895761336" x2="56.23545636021788" y1="174.27360380694188" y2="178.64263932499728" /><path d="M 58.180547188652646 175.14741091055294 a86.0,86.0 0 0,1 -31.652253787137756,-30.449443065178592" fill="none" id="id20" stroke="none" /><text fill="#e1ed5e" style="font-size:6.75px; font-family:Arial;" text-anchor="middle"><textPath startOffset="22.20632615414155" xlink:href="#id20">August</textPath></text><line stroke="#e1ed5e" stroke-width="0.3" x1="26.63291911575756" x2="22.317208475507996" y1="142.92168965132927" y2="145.44649492493687" /><path d="M 25.769776987707644 143.4266507060508 a86.0,86.0 0 0,1 -11.730757126820373,-40.83630448921669" fill="none" id="id21" stroke="none" /><text fill="#e1ed5e" style="font-size:6.75px; font-family:Arial;" text-anchor="middle"><textPath startOffset="21.46611528233685" xlink:href="#id21">September</textPath></text><line stroke="#e1ed5e" stroke-width="0.3" x1="15.007084014347285" x2="10.007500721073583" y1="101.09737516637583" y2="101.16192664675087" /><path d="M 14.007167355692545 101.11028546245083 a86.0,86.0 0 0,1 10.666146001902534,-42.60595125391555" fill="none" id="id22" stroke="none" /><text fill="#e1ed5e" style="font-size:6.75px; font-family:Arial;" text-anchor="middle"><textPath startOffset="22.20632615414155" xlink:href="#id22">October</textPath></text><line stroke="#e1ed5e" stroke-width="0.3" x1="26.266209847984243" x2="21.928928074336255" y1="57.71137044288968" y2="55.22380399835378" /><path d="M 25.398753493254645 57.2138571539825 a86.0,86.0 0 0,1 29.58750427330803,-30.4925239686951" fill="none" id="id23" stroke="none" /><text fill="#e1ed5e" style="font-size:6.75px; font-family:Arial;" text-anchor="middle"><textPath startOffset="21.46611528233685" xlink:href="#id23">November</textPath></text><line stroke="#e1ed5e" stroke-width="0.3" x1="56.76296977257108" x2="54.21961505331056" y1="26.818313649435495" y2="22.513508569990535" /><path d="M 56.25429882871898 25.957352633546506 a86.0,86.0 0 0,1 42.26535254187918,-11.944610805530505" fill="none" id="id24" stroke="none" /><text fill="#e1ed5e" style="font-size:6.75px; font-family:Arial;" text-anchor="middle"><textPath startOffset="22.20632615414155" xlink:href="#id24">December</textPath></text></svg>