<?xml version="1.0" encoding="utf-8" ?>
<svg baseProfile="full" height="200mm" version="1.1" viewBox="0,0,200,200" width="200mm" xmlns="http://www.w3.org/2000/svg" xmlns:ev="http://www.w3.org/2001/xml-events" xmlns:xlink="http://www.w3.org/1999/xlink"><defs /><rect fill="#1a1a1a" height="200" width="200" x="0" y="0" /><rect fill="#1a1a1a" height="200" width="180" x="10" y="0" /><text alignment-baseline="middle" fill="#e1ed5e" style="dominant-baseline: central; font-size:9.0px; font-family:Arial;" text-anchor="middle" x="100.0" y="100.0">2024</text><line stroke="#e1ed5e" stroke-width="0.3" x1="100.0" x2="100.0" y1="15.0" y2="10.0" /><path d="M 100.0 14.0 a86.0,86.0 0 0,1 42.35913384403234,11.155469271406648" fill="none" id="id25" stroke="none" /><text fill="#e1ed5e" style="font-size:6.75px; font-family:Arial;" text-anchor="middle"><textPath startOffset="22.145653131862478" xlink:href="#id25">January</textPath></text><path d="M 100.0 79.0 l 0.0 -31.334303201806947 a52.33430320180695,52.33430320180695 0 0,0 0.8983879062450558,0.007711579682603838 l -0.5378949813962011 31.32968602031878" fill="#81ff25" stroke="none" /><path d="M 100.72087961077811 79.0123766808444 l 0.26815661935466917 -7.807087387974797 a28.811691331330167,28.811691331330167 0 0,0 0.494153762431682,0.02122108877159189 l -0.4021361423871875 7.801333730777374" fill="#ff5a08" stroke="none" /><path d="M 101.08105385017728 79.02784411241856 l 0.4194019897236403 -8.136286556496364 a29.147088864030366,29.147088864030366 0 0,0 0.4994640260294447,0.030046515527343318 l -0.5590103678855474 8.127888063144328" fill="#ff5f08" stroke="none" /><path d="M 101.80034050326958 79.07731436759882 l 1.596772023141574 -18.556911321014585 a39.62548358217544,39.62548358217544 0 0,0 0.6772192075582271,0.06413336305791943 l -1.915090794084814 18.526766202451483" fill="#ffe915" stroke="none" /><path d="M 102.15924093988457 79.11130261209362 l 1.8718956330748744 -18.10889220317155 a39.20538299754257,39.20538299754257 0 0,0 0.6688514853338117,0.07494620402234675 l -2.182483020009483 18.07409023864223" fill="#ffe415" stroke="none" /><path d="M 102.51750503828377 79.15144685158666 l 0.933064559930762 -7.7271130634474865 a28.783243910369222,28.783243910369222 0 0,0 0.49003085980399097,0.06344430556122066 l -1.0655732416255446 7.709957161685868" fill="#ff5a08" stroke="none" /><path d="M 102.87502721639298 79.19773525538626 l 1.1500351612677944 -8.32108153755898 a29.400177309251106,29.400177309251106 0 0,0 0.4993478636615506,0.07338693997016639 l -1.292708130537027 8.30011352428993" fill="#ff6309" stroke="none" /><path d="M 104.29559338865022 79.4440306129975 l 3.404194811032155 -16.290304503182544 a37.64219225696746,37.64219225696746 0 0,0 0.6313807063691506,0.13760648629607686 l -3.68333793402044 16.229466558752748" fill="#ffd013" stroke="none" /><path d="M 104.64783097203109 79.52079915486377 l 2.4557578819470387 -10.820522345596915 a32.095695138489845,32.095695138489845 0 0,0 0.5362546394030083,0.126554634753428 l -2.641144675089932 10.77677156719726" fill="#ff870c" stroke="none" /><path d="M 105.3480935250658 79.69241777938227 l 2.030950183702531 -7.711848651900747 a28.974795814220244,28.974795814220244 0 0,0 0.47990347087168633,0.13079982502202192 l -2.16303505550891 7.675848332734583" fill="#ff5d08" stroke="none" /><path d="M 105.69591212413111 79.78721728523813 l 2.245363569989875 -7.9680031866310905 a29.278329079204383,29.278329079204383 0 0,0 0.4825904983315769,0.14047506071504065 l -2.3818140807030566 7.928284431613534" fill="#ff6108" stroke="none" /><path d="M 106.72888874123014 80.10723608172694 l 4.819625614848526 -14.24836673895071 a36.04143429979139,36.04143429979139 0 0,0 0.5843762069665555,0.20327637956873615 l -5.0635075938601 14.163531926813382" fill="#ffbb11" stroke="none" /><path d="M 107.06938296918511 80.22567764915836 l 7.5415681828968415 -21.095108431598142 a43.40265275359516,43.40265275359516 0 0,0 0.6994251685145515,0.2568386099265967 l -7.902582503065518 20.96253897266282" fill="#e7ff1a" stroke="none" /><path d="M 108.07796709384702 80.6158196554323 l 5.776337951854414 -13.861108282454358 a36.01653764860457,36.01653764860457 0 0,0 0.5686581237181406,0.24272633851305309 l -6.013431150742984 13.759907294281904" fill="#ffbb11" stroke="none" /><path d="M 109.06512990194946 81.05736502329252 l 14.101188693446794 -29.46606094416744 a53.666378283084605,53.666378283084605 0 0,0 0.8275860269619874,0.40481379665177925 l -14.604934969670847 29.21965339741844" fill="#73ff27" stroke="none" /><path d="M 109.3889696526874 81.21577127319529 l 3.4630866946957903 -6.92849321920007 a28.745772249652088,28.745772249652088 0 0,0 0.43949928381830966,0.2244114658740082 l -3.581513200227679 6.868023801653228" fill="#ff5908" stroke="none" /><path d="M 110.34350942703115 81.72400993836675 l 7.723711130179349 -13.647057495320523 a36.681131716271004,36.681131716271004 0 0,0 0.5453393147249845,0.31485180015615594 l -7.956842912764731 13.512458797888195" fill="#ffc412" stroke="none" /><line stroke="#e1ed5e" stroke-width="0.3" x1="143.13028292997686" x2="145.6673583964461" y1="26.7553504044142" y2="22.446841604673864" /><path d="M 143.63769802327073 25.89364864446614 a86.0,86.0 0 0,1 29.32050498858742,28.57503671076993" fill="none" id="id26" stroke="none" /><text fill="#e1ed5e" style="font-size:6.75px; font-family:Arial;" text-anchor="middle"><textPath startOffset="20.669276256404974" xlink:href="#id26">February</textPath></text><path d="M 110.96478420261332 82.08984904055464 l 8.247083899962265 -13.470991758171715 a36.79499958220155,36.79499958220155 0 0,0 0.535868131114513,0.3344213464510748 l -8.477116159866489 13.327434614879094" fill="#ffc512" stroke="none" /><path d="M 111.8722381534696 82.67804972795209 l 9.016852157635094 -13.155856769881042 a36.94930061733973,36.94930061733973 0 0,0 0.5201140304848579,0.36307998736966124 l -9.241361279293713 12.999131966706253" fill="#ffc712" stroke="none" /><path d="M 112.16784306229584 82.88440491214696 l 8.947273920040976 -12.58546126634828 a36.441746853481256,36.441746853481256 0 0,0 0.506746766493392,0.36684557974493426 l -9.162001696908336 12.430014915230272" fill="#ffc111" stroke="none" /><path d="M 113.03279911837588 83.53348406188908 l 5.722952831357791 -7.230763948301669 a30.221504019735896,30.221504019735896 0 0,0 0.40403161772601337,0.32545927134250685 l -5.846235219439063 7.131456383165753" fill="#ff6e0a" stroke="none" /><path d="M 113.31354834802062 83.75963576809568 l 10.386798134009608 -12.67020485373904 a37.38351813599197,37.38351813599197 0 0,0 0.49279606187461605,0.4111080017150942 l -10.602768530046117 12.490034668112076" fill="#ffcd13" stroke="none" /><path d="M 113.59037401385872 83.9905735841838 l 2.8718484036203558 -3.383030198304683 a25.437612711359364,25.437612711359364 0 0,0 0.33047155873828293,0.28545346150104084 l -2.929499442121499 3.333232604338922" fill="#ff2b04" stroke="none" /><path d="M 113.86319453409587 84.22622945171908 l 15.688797253381447 -17.850971321559 a44.765427334277646,44.765427334277646 0 0,0 0.5728588530436778,0.512253918814635 l -15.9929211332485 17.579021872860977" fill="#d7ff1c" stroke="none" /><path d="M 114.39649973595853 84.71141617570332 l 21.98457247058243 -23.34685411192737 a53.06862989960611,53.06862989960611 0 0,0 0.6578678333475347,0.6302225027744933 l -22.382112789795276 22.966019478847297" fill="#79ff26" stroke="none" /><path d="M 114.65682725009322 84.96080404539774 l 4.117096191647767 -4.224503389008946 a26.89889056815166,26.89889056815166 0 0,0 0.32792063452317943,0.3251179108985078 l -4.1890087463009085 4.153205467881779" fill="#ff4006" stroke="none" /><path d="M 114.91283532996326 85.21462403516908 l 18.624472861845415 -18.46529028962687 a47.22666457752119,47.22666457752119 0 0,0 0.5658501021584644,0.5806120534878166 l -18.938709765154695 18.14285554407131" fill="#baff1f" stroke="none" /><path d="M 115.16444852881244 85.47280134310134 l 3.5883118984830125 -3.4375216278476937 a25.969158603095238,25.969158603095238 0 0,0 0.3056250500729907,0.32456321206848754 l -3.646792782292263 3.3754169558347114" fill="#ff3204" stroke="none" /><path d="M 115.41159269507618 85.73525988315684 l 20.300718483662433 -18.79004195634872 a48.66197476092874,48.66197476092874 0 0,0 0.562166998027421,0.6179200079952688 l -20.62028318253173 18.43878437279578" fill="#aaff21" stroke="none" /><path d="M 115.6541949942343 86.00192230759917 l 1.119129787034853 -1.000732756463286 a22.501305275447763,22.501305275447763 0 0,0 0.25500293819270353,0.29014653341957747 l -1.136143789186147 0.9813739452324107" fill="#ff0000" stroke="none" /><path d="M 116.35404254752997 86.82634096563983 l 13.060292573702629 -10.520447207771909 a37.770541182747436,37.770541182747436 0 0,0 0.4024065712102888,0.5084275571386667 l -13.238965575554477 10.294699706718564" fill="#ffd213" stroke="none" /><path d="M 116.7966241395341 87.39550010848427 l 1.8636750293420679 -1.3985364862617116 a23.33006199883145,23.33006199883145 0 0,0 0.23763110212067526,0.32239222840127935 l -1.887408151046569 1.3663379485915574" fill="#ff0c01" stroke="none" /><path d="M 117.01052211995028 87.68569379921539 l 31.475010218403412 -22.785480114550236 a59.856844600393934,59.856844600393934 0 0,0 0.5953900517457497,0.8374906705193331 l -31.86151536867912 22.241812217321396" fill="#34ff2f" stroke="none" /><path d="M 117.42321728460499 88.27688183743584 l 12.435785058040633 -8.367351178503384 a35.98870627353104,35.98870627353104 0 0,0 0.3404798291148108,0.5155298571249279 l -12.577589326076167 8.152641443039398" fill="#ffbb11" stroke="none" /><line stroke="#e1ed5e" stroke-width="0.3" x1="172.87174338648825" x2="177.1583165268699" y1="56.24261187166439" y2="53.66864786411523" /><path d="M 173.72905801456457 55.72781907015455 a86.0,86.0 0 0,1 12.242430191666344,42.057860355516425" fill="none" id="id27" stroke="none" /><text fill="#e1ed5e" style="font-size:6.75px; font-family:Arial;" text-anchor="middle"><textPath startOffset="22.145653131862474" xlink:href="#id27">March</textPath></text><path d="M 118.00360718960297 89.18935116829356 l 12.822569872690988 -7.699584786194061 a35.95666754393617,35.95666754393617 0 0,0 0.3132104661861734,0.5318998459324175 l -12.952854049006929 7.478333771968087" fill="#ffba11" stroke="none" /><path d="M 118.36410011445183 89.81374322990088 l 38.934704443299424 -21.59642423291186 a65.52321585122735,65.52321585122735 0 0,0 0.5371488722355511,0.9882934245750723 l -39.299698665150316 20.924875974862182" fill="#36ff6d" stroke="none" /><path d="M 119.0197475246899 91.09779779509293 l 14.905970120963223 -6.97674666316483 a37.457914182818854,37.457914182818854 0 0,0 0.2675842400737681,0.5847198558278507 l -15.023538825892043 6.719837825122296" fill="#ffce13" stroke="none" /><path d="M 119.4528033332814 92.08871423366111 l 29.013103937406832 -11.79937679340117 a52.32068793617768,52.32068793617768 0 0,0 0.33121817051996993,0.8348861574333154 l -29.211380782892927 11.299589618754288" fill="#81ff25" stroke="none" /><path d="M 119.71291397450082 92.76114493625339 l 12.11934335359041 -4.450390749835515 a33.91063364627924,33.91063364627924 0 0,0 0.19597089204831358,0.5481654633278539 l -12.193954415682665 4.241690330126745" fill="#ffa00e" stroke="none" /><path d="M 119.94978838288452 93.4421083053983 l 14.84040972563424 -4.878337444808086 a36.62164962640361,36.62164962640361 0 0,0 0.1911916650236411,0.5989051675719641 l -14.92196610643514 4.622863243544735" fill="#ffc312" stroke="none" /><path d="M 120.16314734710363 94.1308016681162 l 25.134923492523956 -7.316409908373729 a47.17812508416869,47.17812508416869 0 0,0 0.21967372437257146,0.7795445509199537 l -25.25681570897111 6.883857433550763" fill="#bbff1f" stroke="none" /><path d="M 120.26092885502905 94.47779374421319 l 17.445973146626592 -4.754977559909701 a39.082361312286096,39.082361312286096 0 0,0 0.1708653277837195,0.6488034804099633 l -17.52502795521504 4.4547935751269385" fill="#ffe215" stroke="none" /><path d="M 120.51834098615036 95.52812308129327 l 8.187399554006046 -1.784405625898448 a29.379595151000817,29.379595151000817 0 0,0 0.10316755245181586,0.49369408555634725 l -8.216824817282228 1.6435950890566964" fill="#ff6209" stroke="none" /><path d="M 120.7213421655516 96.59031103205396 l 30.911206408824413 -5.086427251478472 a52.32689617299375,52.32689617299375 0 0,0 0.13823895812921974,0.8875932771269911 l -30.9939668590919 4.5550457924200405" fill="#81ff25" stroke="none" /><path d="M 120.77682067341334 96.94652285012252 l 9.727911783590974 -1.4296680331475866 a30.832406539313364,30.832406539313364 0 0,0 0.07246420621495417,0.5243148981674732 l -9.75102050636114 1.2624648267800276" fill="#ff760a" stroke="none" /><path d="M 120.96210409425399 98.7389718711861 l 14.924386345257368 -0.8978140220100629 a35.95136708801648,35.95136708801648 0 0,0 0.03177143952461292,0.6163574389692097 l -14.937599374238554 0.6414847896641226" fill="#ffba11" stroke="none" /><path d="M 120.98066250479742 99.09900007780936 l 9.132324103094449 -0.3921812909590611 a30.14074120019477,30.14074120019477 0 0,0 0.017761957452352647,0.5171200112297288 l -9.13771074754365 0.23535501516521237" fill="#ff6d0a" stroke="none" /><line stroke="#e1ed5e" stroke-width="0.3" x1="184.99686870605535" x2="189.99668451229388" y1="99.2704041080226" y2="99.22748670261217" /><path d="M 185.99683186730306 99.26182062694052 a86.0,86.0 0 0,1 -10.086455211305974,41.156179273409016" fill="none" id="id28" stroke="none" /><text fill="#e1ed5e" style="font-size:6.75px; font-family:Arial;" text-anchor="middle"><textPath startOffset="21.40746469413373" xlink:href="#id28">April</textPath></text><path d="M 120.99922638620191 100.18025310272382 l 5.604967734789846 0.048111906899896785 a26.60517422241457,26.60517422241457 0 0,0 -0.007840378119274185,0.45666271903092875 l -5.603315925071904 -0.14432154189989657" fill="#ff3b05" stroke="none" /><path d="M 120.96210409425399 101.26102812881392 l 5.691195708307309 0.3423682013261154 a26.70148441859967,26.70148441859967 0 0,0 -0.031451855025184015,0.4573030693328432 l -5.684479892117059 -0.4400146948133021" fill="#ff3d05" stroke="none" /><path d="M 120.93736805541906 101.62068470465957 l 31.17098126423933 2.412831088915563 a52.26422599136586,52.26422599136586 0 0,0 -0.07691894704284263,0.8939147595857494 l -31.124968694498747 -2.94756689587697" fill="#82ff25" stroke="none" /><path d="M 120.9064616781168 101.97986365728391 l 1.610545903402969 0.15252037153052342 a22.61775170242528,22.61775170242528 0 0,0 -0.03992314014536331,0.38622016555320166 l -1.6076903707759396 -0.1801450593666565" fill="#ff0200" stroke="none" /><path d="M 120.77682067341334 103.0534771498775 l 7.8436043257713814 1.1527397265391344 a28.927858329738307,28.927858329738307 0 0,0 -0.07642259122711761,0.4906878575459768 l -7.8226602424059966 -1.2872157660165617" fill="#ff5c08" stroke="none" /><path d="M 120.51834098615036 104.47187691870673 l 61.138267801771555 13.324800909439821 a83.57346169964823,83.57346169964823 0 0,0 -0.31753592884088055,1.3991218917837567 l -60.90052101137301 -14.372357135162593" fill="#4cd6ff" stroke="none" /><path d="M 119.83427380445688 106.89939002012753 l 7.0243264433279125 2.443425367573802 a28.43716945546751,28.43716945546751 0 0,0 -0.16433952616890993,0.45968690331444795 l -6.981346747115059 -2.5636472272691715" fill="#ff5507" stroke="none" /><path d="M 118.70294669586154 109.54985784667822 l 7.148752182396933 3.6502038012078404 a29.026745639153958,29.026745639153958 0 0,0 -0.2304059181887402,0.4418337282859786 l -7.085038195233244 -3.772383772598322" fill="#ff5d08" stroke="none" /><line stroke="#e1ed5e" stroke-width="0.3" x1="174.33088141563837" x2="178.70328620479359" y1="141.23008692659167" y2="143.65538615756765" /><path d="M 175.20536237346943 141.71514677278685 a86.0,86.0 0 0,1 -30.301960400862466,31.631185727798858" fill="none" id="id29" stroke="none" /><text fill="#e1ed5e" style="font-size:6.75px; font-family:Arial;" text-anchor="middle"><textPath startOffset="22.145653131862474" xlink:href="#id29">May</textPath></text><path d="M 118.18653347947321 110.5 l 6.472690564015973 3.7370096395157706 a28.474019279031545,28.474019279031545 0 0,0 -0.2480307954479416,0.4212105153818142 l -6.407586058438266 -3.847571323191134" fill="#ff5607" stroke="none" /><path d="M 117.81537515405839 111.11811171558189 l 3.814016164400009 2.3802281700014922 a25.495798643575267,25.495798643575267 0 0,0 -0.23490409406668794,0.36930825240579335 l -3.772594378707431 -2.4453500970859574" fill="#ff2c04" stroke="none" /><path d="M 116.79662413953412 112.60449989151573 l 6.380177626580492 4.787804235781126 a28.976824928935194,28.976824928935194 0 0,0 -0.30197718277371266,0.39529782584858736 l -6.297048466452475 -4.89662297487059" fill="#ff5d08" stroke="none" /><path d="M 116.1254893667686 113.45245675266167 l 6.364285790483754 5.3093135600893975 a29.288120661664053,29.288120661664053 0 0,0 -0.32538465595361094,0.3833023065452738 l -6.272206571023029 -5.417782649084228" fill="#ff6108" stroke="none" /><path d="M 115.41159269507618 114.26474011684316 l 2.230156211518404 2.0641992950824135 a24.0388345558113,24.0388345558113 0 0,0 -0.2829075106784746,0.30043797248352405 l -2.1943928671036694 -2.102178727510435" fill="#ff1702" stroke="none" /><path d="M 114.91283532996324 114.78537596483092 l 3.305079985155436 3.2768316080159754 a25.654157184235146,25.654157184235146 0 0,0 -0.31274626292476704,0.31007323400451753 l -3.2483418021007044 -3.3330848522491547" fill="#ff2e04" stroke="none" /><path d="M 114.13192950727249 115.5334660781643 l 3.6530867811752317 4.015382299124407 a26.42847474332513,26.42847474332513 0 0,0 -0.3382026405355482,0.3024228866278589 l -3.5836191138163054 -4.077500715635653" fill="#ff3905" stroke="none" /><path d="M 113.59037401385872 116.0094264158162 l 4.8829761658893895 5.752133645348777 a28.545230129730786,28.545230129730786 0 0,0 -0.3762882065316505,0.31391300504252906 l -4.7835136251958446 -5.835108834303176" fill="#ff5708" stroke="none" /><path d="M 112.7482090630111 116.68781488649013 l 5.528131776549832 7.2365019509177655 a30.10643736180822,30.10643736180822 0 0,0 -0.4133857727534587,0.31021239056966987 l -5.403093014885607 -7.33033336875145" fill="#ff6c0a" stroke="none" /><path d="M 112.16784306229584 117.11559508785304 l 4.320911441978364 6.077903065707274 a28.4572904841875,28.4572904841875 0 0,0 -0.4005768932866723,0.27963378188341237 l -4.215939457517933 -6.151181663395809" fill="#ff5507" stroke="none" /><path d="M 111.27062007382361 117.71928675628689 l 5.022122370046816 7.8956105180673495 a30.357477146792313,30.357477146792313 0 0,0 -0.44211454623502605,0.27591217550111624 l -4.885843695022075 -7.980658490410014" fill="#ff700a" stroke="none" /><line stroke="#e1ed5e" stroke-width="0.3" x1="143.1302829299769" x2="145.66735839644613" y1="173.24464959558577" y2="177.55315839532614" /><path d="M 143.63769802327073 174.10635135553383 a86.0,86.0 0 0,1 -40.68552437913181,11.842963189579606" fill="none" id="id30" stroke="none" /><text fill="#e1ed5e" style="font-size:6.75px; font-family:Arial;" text-anchor="middle"><textPath startOffset="21.407464694133747" xlink:href="#id30">June</textPath></text><path d="M 109.71004243097381 118.62028667847754 l 3.450632891499296 6.6170435524509905 a28.462716176227662,28.462716176227662 0 0,0 -0.43517158858472277,0.2222017138516886 l -3.336534081200991 -6.675303217975515" fill="#ff5607" stroke="none" /><path d="M 109.06512990194946 118.94263497670748 l 3.2054636627476043 6.698186209275368 a28.425678136528813,28.425678136528813 0 0,0 -0.44196689178250614,0.20686282157082983 l -3.0900080570935917 -6.752225262416732" fill="#ff5507" stroke="none" /><path d="M 108.07796709384702 119.3841803445677 l 5.777366591310227 13.863576642685263 a36.01921176553537,36.01921176553537 0 0,0 -0.5727835752636818,0.2329460936061346 l -5.5385285548561045 -13.96070999287069" fill="#ffbb11" stroke="none" /><path d="M 103.58742460773223 120.69131181640829 l 2.5402921664329 14.651730159611406 a35.870315429099236,35.870315429099236 0 0,0 -0.6076132462244327,0.09998252844226958 l -2.2884014171553946 -14.693178686549345" fill="#ffb911" stroke="none" /><path d="M 102.875027216393 120.80226474461374 l 2.0456873447544126 14.80157456863195 a35.94227045743921,35.94227045743921 0 0,0 -0.6119123247683097,0.07922430135278907 l -1.7912971980953274 -14.834510466185135" fill="#ffba11" stroke="none" /><path d="M 101.08105385017728 120.97215588758144 l 0.7802175978647977 15.13601296177016 a36.1561085994688,36.1561085994688 0 0,0 -0.6201189959260706,0.02663057789288142 l -0.5202728413378976 -15.147176108088871" fill="#ffbd11" stroke="none" /><line stroke="#e1ed5e" stroke-width="0.3" x1="101.45913802915013" x2="101.54496967792366" y1="184.9874750549273" y2="189.98673829345242" /><path d="M 101.47630435890484 185.9873277026323 a86.0,86.0 0 0,1 -42.54439059252881,-10.42667462771756" fill="none" id="id31" stroke="none" /><text fill="#e1ed5e" style="font-size:6.75px; font-family:Arial;" text-anchor="middle"><textPath startOffset="22.145653131862474" xlink:href="#id31">July</textPath></text><path d="M 100.0 121.0 l 1.8199907154903075e-15 14.861351997632752 a35.86135199763275,35.86135199763275 0 0,0 -0.6156077938409933,-0.005284252517689028 l 0.25511486899213925 -14.859162143309499" fill="#ffb911" stroke="none" /><path d="M 99.27912038922189 120.98762331915562 l -0.5098339393502433 14.843258866559578 a35.852012133896636,35.852012133896636 0 0,0 -0.6149033905359867,-0.02640659735606711 l 0.7645630904870688 -14.832319700777683" fill="#ffb911" stroke="none" /><path d="M 98.55909050195518 120.95050786540614 l -1.0199524518990402 14.829884801818709 a35.86491796947929,35.86491796947929 0 0,0 -0.6138554056225543,-0.04751629068810192 l 1.2743768522968306 -14.810190744135554" fill="#ffb911" stroke="none" /><path d="M 98.19965949673042 120.92268563240118 l -0.6761572188704389 7.857971813005691 a28.88700891330944,28.88700891330944 0 0,0 -0.4936933386422721,-0.046753272460452334 l 0.8109501208977262 -7.845206785040055" fill="#ff5b08" stroke="none" /><path d="M 97.12497278360702 120.80226474461374 l -0.20697159881520721 1.4975433862402174 a22.511778236510878,22.511778236510878 0 0,0 -0.3823517202424159,-0.056192535871022756 l 0.23264842466530808 -1.4937697770703124" fill="#ff0000" stroke="none" /><path d="M 96.05791012581884 120.62667999033965 l -3.0950131674847774 16.194416720358635 a37.4875176851925,37.4875176851925 0 0,0 -0.6310461547826625,-0.12622690443483867 l 3.3725558077983977 -16.138900419260935" fill="#ffce13" stroke="none" /><path d="M 95.35216902796893 120.47920084513623 l -3.338935568421159 14.711966189421236 a36.08610088421596,36.08610088421596 0 0,0 -0.6029263093890467,-0.14228896733258867 l 3.5909940315500934 -14.65248107844242" fill="#ffbc11" stroke="none" /><path d="M 93.95794788825049 120.11202640906438 l -2.1379027919350624 7.116383079152274 a28.430581166840756,28.430581166840756 0 0,0 -0.4662065208430921,-0.1444319718818378 l 2.259749945649788 -7.078634519463787" fill="#ff5507" stroke="none" /><path d="M 93.27111125876986 119.89276391827306 l -4.798642781141375 14.186334719500739 a35.97594956303981,35.97594956303981 0 0,0 -0.5833144367340226,-0.20290704076570326 l 5.0414629899204195 -14.101869246166446" fill="#ffbb11" stroke="none" /><path d="M 91.92203290615298 119.3841803445677 l -5.717706059797395 13.72041308570837 a35.86411443136527,35.86411443136527 0 0,0 -0.5662515431197468,-0.24169911235972374 l 5.952392678087572 -13.620239323689244" fill="#ffb911" stroke="none" /><path d="M 90.93487009805054 118.94263497670748 l -6.4215401625754875 13.418549166270118 a35.8759416437138,35.8759416437138 0 0,0 -0.5532407618756582,-0.27061777988150665 l 6.650941173713216 -13.30633763629139" fill="#ffb911" stroke="none" /><path d="M 89.97174638481275 118.45085714620012 l -7.108657102424667 13.079128403725486 a35.886121240974475,35.886121240974475 0 0,0 -0.5387289659881875,-0.29882387608675115 l 7.332130256568957 -12.955171612205586" fill="#ffb911" stroke="none" /><line stroke="#e1ed5e" stroke-width="0.3" x1="58.13341422392154" x2="55.67067388415222" y1="173.97424548756322" y2="178.32567169271397" /><path d="M 57.64086615596768 174.84453072859336 a86.0,86.0 0 0,1 -31.369924170532247,-30.572349798747897" fill="none" id="id32" stroke="none" /><text fill="#e1ed5e" style="font-size:6.75px; font-family:Arial;" text-anchor="middle"><textPath startOffset="22.145653131862474" xlink:href="#id32">August</textPath></text><path d="M 89.03521579738668 117.91015095944536 l -7.819865871898295 12.773163216010476 a35.97678205748227,35.97678205748227 0 0,0 -0.5239519278044156,-0.3269847542669837 l 8.037981928492423 -12.637042664901944" fill="#ffbb11" stroke="none" /><path d="M 87.2517909369889 116.68781488649013 l -9.090339884282159 11.899546712355841 a35.97442790798065,35.97442790798065 0 0,0 -0.48752211571658094,-0.379100145932367 l 9.293271944633968 -11.74174551480268" fill="#ffbb11" stroke="none" /><path d="M 86.96720088162412 116.46651593811092 l -4.795121417453527 6.058479266694569 a28.726471408934966,28.726471408934966 0 0,0 -0.3840445104033375,-0.30935907249645006 l 4.898416698212126 -5.975271900404708" fill="#ff5908" stroke="none" /><path d="M 86.68645165197938 116.24036423190432 l -4.796742176217836 5.8512455156177 a28.56609605999972,28.56609605999972 0 0,0 -0.3765632648668931,-0.31414246848857447 l 4.896479775246622 -5.768040863217256" fill="#ff5708" stroke="none" /><path d="M 84.83555147118756 114.52719865689866 l -5.5774911000927485 5.343110305935859 a28.72380959844375,28.72380959844375 0 0,0 -0.3380439035774283,-0.3589909110495232 l 5.66839083740643 -5.246577934941846" fill="#ff5908" stroke="none" /><path d="M 83.20337586046588 112.60449989151573 l -12.267593257417381 9.205830683460498 a36.33757356631013,36.33757356631013 0 0,0 -0.3701206475741774,-0.5021397421629111 l 12.423815924575388 -8.993884632028706" fill="#ffbf11" stroke="none" /><path d="M 82.98947788004972 112.3143062007846 l -6.587871357271694 4.769110820512499 a29.132924875977288,29.132924875977288 0 0,0 -0.2897822924882178,-0.4076150848153965 l 6.668768748289872 -4.655318508987599" fill="#ff5f08" stroke="none" /><path d="M 82.576782715395 111.72311816256416 l -12.463273776632619 8.385846815154604 a36.02183810452426,36.02183810452426 0 0,0 -0.3407932807868145,-0.5160044629073159 l 12.60539149634016 -8.170662473908228" fill="#ffbb11" stroke="none" /><path d="M 82.18462484594161 111.11811171558189 l -13.089729191005102 8.168959127372368 a36.42961125623492,36.42961125623492 0 0,0 -0.3265342800409239,-0.5333692064430137 l 13.22803143550143 -7.943052804804798" fill="#ffc011" stroke="none" /><line stroke="#e1ed5e" stroke-width="0.3" x1="26.387840678322732" x2="22.057713659400548" y1="142.50000000000003" y2="145.00000000000006" /><path d="M 25.521815274538298 143.00000000000003 a86.0,86.0 0 0,1 -11.493303480769221,-40.785679425670985" fill="none" id="id33" stroke="none" /><text fill="#e1ed5e" style="font-size:6.75px; font-family:Arial;" text-anchor="middle"><textPath startOffset="21.40746469413373" xlink:href="#id33">September</textPath></text><path d="M 81.4637452351635 109.86951160357371 l -7.91114401389729 4.2122385904416415 a29.96265326515696,29.96265326515696 0 0,0 -0.23783488244776455,-0.4560797467983122 l 7.982286965320003 -4.075812600538827" fill="#ff6a09" stroke="none" /><path d="M 81.1358732173502 109.22738970284198 l -8.022349396072384 3.9241330946738167 a29.93067244821896,29.93067244821896 0 0,0 -0.2218015931500311,-0.4634800230926301 l 8.088530247182327 -3.785840569516082" fill="#ff6a09" stroke="none" /><path d="M 80.83023694016515 108.57439118712176 l -13.679325495677652 6.118588300220706 a35.98536181759701,35.98536181759701 0 0,0 -0.2473841423724431,-0.5660633305329608 l 13.782343520067062 -5.8828628999118955" fill="#ffbb11" stroke="none" /><path d="M 80.68587082218212 108.24405325689762 l -8.229985962831917 3.512891622317072 a29.94835607799309,29.94835607799309 0 0,0 -0.1977649041255382,-0.4745637761158434 l 8.28907671149394 -3.3710953367599474" fill="#ff6a09" stroke="none" /><path d="M 80.41425534168474 107.57618678355246 l -8.376352419594134 3.2401530604435838 a29.98119545006913,29.98119545006913 0 0,0 -0.181556577324335,-0.48160039157177603 l 8.430739680732906 -3.095884388677663" fill="#ff6b09" stroke="none" /><path d="M 80.16572619554312 106.89939002012753 l -8.433885357129535 2.9337431275554873 a29.92957283164671,29.92957283164671 0 0,0 -0.16463342800794278,-0.4867094764624274 l 8.483004206709845 -2.788531976618898" fill="#ff6a09" stroke="none" /><path d="M 79.83685265289637 105.86919833188381 l -8.13898881213392 2.3691410243182727 a29.47678996301955,29.47678996301955 0 0,0 -0.13725166530405156,-0.48705774028302345 l 8.178458969512548 -2.2290753601322537" fill="#ff6409" stroke="none" /><path d="M 79.64726062577567 105.17358676015961 l -7.348871787139833 1.8680544707513649 a28.582581621684923,28.582581621684923 0 0,0 -0.11679723940508158,-0.4765725939284074 l 7.379856553061208 -1.741626052214858" fill="#ff5708" stroke="none" /><path d="M 79.34024301695615 103.76489593502545 l -7.423771040571678 1.3528583824169507 a28.546032220028383,28.546032220028383 0 0,0 -0.08371488591157178,-0.48284521557272964 l 7.445900743975484 -1.2252201339236284" fill="#ff5708" stroke="none" /><path d="M 79.2786578344484 103.40968896794605 l -7.399468232830416 1.2175796818843503 a28.49897529069166,28.49897529069166 0 0,0 -0.0752895535579027,-0.48341294292323617 l 7.419279278526586 -1.090378557029664" fill="#ff5608" stroke="none" /><path d="M 79.17382384314188 102.69636545807758 l -7.801381979460772 1.0100450863496573 a28.866495526339182,28.866495526339182 0 0,0 -0.05940712922110472,-0.49197625113996196 l 7.8175711949415385 -0.875975158286296" fill="#ff5b08" stroke="none" /><path d="M 79.0935383218832 101.97986365728391 l -8.903051330445582 0.8431282174607643 a29.942884779735643,29.942884779735643 0 0,0 -0.04406790926288496,-0.5121359044636514 l 8.916212862406208 -0.6901712656214509" fill="#ff6a09" stroke="none" /><path d="M 79.03789590574601 101.26102812881392 l -7.494591027470306 0.4508559855013354 a28.508139968640755,28.508139968640755 0 0,0 -0.02519360787464403,-0.48874926224166065 l 7.501226224801523 -0.32213492988294395" fill="#ff5608" stroke="none" /><line stroke="#e1ed5e" stroke-width="0.3" x1="15.003131293944662" x2="10.003315487706104" y1="100.72959589197737" y2="100.7725132973878" /><path d="M 14.003168132696942 100.73817937305945 a86.0,86.0 0 0,1 10.791469493833604,-42.45332614584628" fill="none" id="id34" stroke="none" /><text fill="#e1ed5e" style="font-size:6.75px; font-family:Arial;" text-anchor="middle"><textPath startOffset="22.145653131862435" xlink:href="#id34">October</textPath></text><path d="M 79.00077361379809 99.81974689727619 l -14.871031522406664 -0.12764992020747798 a35.87157937283534,35.87157937283534 0 0,0 0.01057112964822249,-0.615715305428544 l 14.866648961159775 0.3829121416050744" fill="#ffb911" stroke="none" /><path d="M 79.01933749520258 99.09900007780938 l -14.869970497566502 -0.6385805147106643 a35.88367587903829,35.88367587903829 0 0,0 0.031711618512883656,-0.6151969273229283 l 14.856817289597048 0.8937492354103046" fill="#ffb911" stroke="none" /><path d="M 79.0935383218832 98.0201363427161 l -31.538932337407 -2.9867696832567474 a52.68004176329884,52.68004176329884 0 0,0 0.09298681486340593,-0.8995630829650597 l 31.48301313006193 3.52773728850472" fill="#7dff26" stroke="none" /><path d="M 79.17382384314186 97.30363454192245 l -7.679772720767975 -0.9943003331096869 a28.74387126669045,28.74387126669045 0 0,0 0.06755560297344651,-0.48879869032987194 l 7.66157260123932 1.1259873316396258" fill="#ff5908" stroke="none" /><path d="M 79.407916724674 95.88100663000787 l -30.850301447868286 -6.170924302656133 a52.46142727489419,52.46142727489419 0 0,0 0.18422027336531893,-0.8815606965427187 l 30.7398234636786 6.699601450484261" fill="#80ff26" stroke="none" /><path d="M 79.73907114497095 94.47779374421319 l -7.9811249495620835 -2.1752910954893507 a29.27225766104016,29.27225766104016 0 0,0 0.13629930926085118,-0.4836781646595359 l 7.94260714822665 2.3119771840518997" fill="#ff6108" stroke="none" /><path d="M 79.94057633289273 93.78553927170692 l -7.117145677335055 -2.2049099238013024 a28.450865074908183,28.450865074908183 0 0,0 0.14853422280335551,-0.46528133738055016 l 7.0782467387544425 2.326760294873244" fill="#ff5507" stroke="none" /><path d="M 80.05021161711548 93.44210830539832 l -28.679187385853435 -9.427418534773452 a51.188938526266284,51.188938526266284 0 0,0 0.28157469781046546,-0.8324255615316672 l 28.513127266470605 9.918345770779279" fill="#8eff24" stroke="none" /><path d="M 80.5471966667186 92.08871423366112 l -7.156406944433394 -2.910448403123512 a28.725598375632707,28.725598375632707 0 0,0 0.18969038547262712,-0.45518787077416206 l 7.1053907144242885 3.032868783338938" fill="#ff5908" stroke="none" /><line stroke="#e1ed5e" stroke-width="0.3" x1="26.387840678322718" x2="22.05771365940052" y1="57.49999999999999" y2="54.99999999999999" /><path d="M 25.521815274538284 56.99999999999999 a86.0,86.0 0 0,1 29.574782752854787,-30.34633250058573" fill="none" id="id35" stroke="none" /><text fill="#e1ed5e" style="font-size:6.75px; font-family:Arial;" text-anchor="middle"><textPath startOffset="21.40746469413373" xlink:href="#id35">November</textPath></text><path d="M 82.18462484594161 88.88188828441811 l -31.55019054593865 -19.689652342669486 a58.190011197366246,58.190011197366246 0 0,0 0.5361303662277016,-0.8428859845968463 l 31.20754248808506 20.228352001945005" fill="#44ff2d" stroke="none" /><path d="M 83.64595745247003 86.82634096563983 l -29.1230894860941 -23.459499374661263 a58.39655668807995,58.39655668807995 0 0,0 0.6355580369796349,-0.7752774648238717 l 28.716084629875834 23.955979121183628" fill="#42ff2d" stroke="none" /><path d="M 85.34317274990677 84.96080404539775 l -43.441972650844676 -44.57529096867598 a83.24276305514452,83.24276305514452 0 0,0 1.0319229321833134,-0.9885588259905151 l 42.67037723279606 45.314461924972065" fill="#4cd9ff" stroke="none" /><path d="M 89.03521579738668 82.08984904055464 l -1.1158031961134025 -1.8225806649856058 a23.137011243029914,23.137011243029914 0 0,0 0.34051868030394794,-0.2044716836261564 l 1.0843517592520204 1.8414663491476855" fill="#ff0901" stroke="none" /><line stroke="#e1ed5e" stroke-width="0.3" x1="56.869717070023135" x2="54.33264160355391" y1="26.7553504044142" y2="22.446841604673864" /><path d="M 56.362301976729285 25.89364864446614 a86.0,86.0 0 0,1 42.16139366436587,-11.88097634709845" fill="none" id="id36" stroke="none" /><text fill="#e1ed5e" style="font-size:6.75px; font-family:Arial;" text-anchor="middle"><textPath startOffset="22.145653131862474" xlink:href="#id36">December</textPath></text><path d="M 89.34428304082924 81.90426304109057 l -31.967150877512267 -54.287210876728295 a84.0,84.0 0 0,0 1.2488301285584011,-0.721012410895304 l 31.030528281093464 54.827970184899776" fill="#4dd2ff" stroke="none" /><path d="M 91.26138138417902 80.90454125486306 l -3.2154156512889607 -7.026263488200943 a28.727048363778998,28.727048363778998 0 0,0 0.450175552001814,-0.20135779840855836 l 3.0943266964315277 7.080425037519347" fill="#ff5908" stroke="none" /><path d="M 92.93061703081487 80.22567764915836 l -2.6008865131939403 -7.275142474815147 a28.726079774592908,28.726079774592908 0 0,0 0.4657649692868394,-0.1620172340315538 l 2.4756157718620964 7.318718141415287" fill="#ff5908" stroke="none" /><path d="M 93.95794788825049 79.88797359093562 l -9.051049550444834 -30.128000259101988 a52.458192853008214,52.458192853008214 0 0,0 0.8646608678391728,-0.25169017692547735 l 8.532528670224035 30.278934130329983" fill="#80ff26" stroke="none" /><path d="M 95.00130118170881 79.60360301121753 l -4.638653260599169 -18.9272882475512 a40.48741502811384,40.48741502811384 0 0,0 0.6764634338834699,-0.15964352848206287 l 4.313057672975793 19.004127919679494" fill="#fff417" stroke="none" /><path d="M 96.41257539226777 79.30868818359171 l -5.348546717986789 -30.848996148367945 a52.30922412575099,52.30922412575099 0 0,0 0.8860746580651706,-0.1458032477936728 l 4.818194556868546 30.936265394657287" fill="#81ff25" stroke="none" /><path d="M 98.5590905019552 79.04949213459386 l -0.5299966764142848 -7.706035356782192 a28.72423959992098,28.72423959992098 0 0,0 0.4922180881300633,-0.02961061789656619 l 0.39763423615173776 7.713997952503452" fill="#ff5908" stroke="none" /><path d="M 98.9189461498227 79.02784411241856 l -0.7776949204863624 -15.087073694567025 a36.10710435704495,36.10710435704495 0 0,0 0.6192785166050229,-0.026594484094479006 l 0.5185906432805194 15.098200747087333" fill="#ffbc11" stroke="none" /></svg>