<?xml version="1.0" encoding="utf-8" ?>
<svg baseProfile="full" height="200mm" version="1.1" viewBox="0,0,200,200" width="200mm" xmlns="http://www.w3.org/2000/svg" xmlns:ev="http://www.w3.org/2001/xml-events" xmlns:xlink="http://www.w3.org/1999/xlink"><defs /><rect fill="#1a1a1a" height="200" width="200" x="0" y="0" /><text alignment-baseline="middle" fill="#e1ed5e" style="dominant-baseline: central; font-size:9.0px; font-family:Arial;" text-anchor="middle" x="100.0" y="100.0">2022</text><line stroke="#e1ed5e" stroke-width="0.3" x1="100.0" x2="100.0" y1="15.0" y2="10.0" /><path d="M 100.0 14.0 a86.0,86.0 0 0,1 42.46469731375804,11.215312516191453" fill="none" id="id1" stroke="none" /><text fill="#e1ed5e" style="font-size:6.75px; font-family:Arial;" text-anchor="middle"><textPath startOffset="22.20632615414155" xlink:href="#id1">January</textPath></text><line stroke="#e1ed5e" stroke-width="0.3" x1="143.23703022742887" x2="145.7803849466894" y1="26.818313649435467" y2="22.513508569990506" /><path d="M 143.74570117128098 25.957352633546478 a86.0,86.0 0 0,1 28.547481713284135,27.462654790039114" fill="none" id="id2" stroke="none" /><text fill="#e1ed5e" style="font-size:6.75px; font-family:Arial;" text-anchor="middle"><textPath startOffset="19.985693538727396" xlink:href="#id2">February</textPath></text><line stroke="#e1ed5e" stroke-width="0.3" x1="172.23445277983987" x2="176.4835382374775" y1="55.19839476539836" y2="52.563006222186495" /><path d="M 173.08426987136738 54.67131705675599 a86.0,86.0 0 0,1 12.851231095245387,41.99856678651699" fill="none" id="id3" stroke="none" /><text fill="#e1ed5e" style="font-size:6.75px; font-family:Arial;" text-anchor="middle"><textPath startOffset="22.20632615414155" xlink:href="#id3">March</textPath></text><line stroke="#e1ed5e" stroke-width="0.3" x1="184.98032266829074" x2="189.97916517819016" y1="98.17113171792111" y2="98.06355123074" /><path d="M 185.9800911702706 98.14961562048488 a86.0,86.0 0 0,1 -9.607161424134198,41.387399972396054" fill="none" id="id4" stroke="none" /><text fill="#e1ed5e" style="font-size:6.75px; font-family:Arial;" text-anchor="middle"><textPath startOffset="21.466115282336823" xlink:href="#id4">April</textPath></text><line stroke="#e1ed5e" stroke-width="0.3" x1="174.80103733775053" x2="179.2010983576182" y1="140.37084112569926" y2="142.7455964860345" /><path d="M 175.68104954172406 140.8457921977663 a86.0,86.0 0 0,1 -30.038265399797805,32.042727171017184" fill="none" id="id5" stroke="none" /><text fill="#e1ed5e" style="font-size:6.75px; font-family:Arial;" text-anchor="middle"><textPath startOffset="22.206326154141568" xlink:href="#id5">May</textPath></text><line stroke="#e1ed5e" stroke-width="0.3" x1="143.8653032363475" x2="146.44561519142675" y1="172.8068346515853" y2="177.08958963109032" /><path d="M 144.38136562736335 173.6633856474863 a86.0,86.0 0 0,1 -40.68145358897372,12.25698825130547" fill="none" id="id6" stroke="none" /><text fill="#e1ed5e" style="font-size:6.75px; font-family:Arial;" text-anchor="middle"><textPath startOffset="21.466115282336833" xlink:href="#id6">June</textPath></text><line stroke="#e1ed5e" stroke-width="0.3" x1="102.19456741930631" x2="102.32365962044197" y1="184.97166512339345" y2="189.96999836594603" /><path d="M 102.22038585953345 185.97133177190398 a86.0,86.0 0 0,1 -42.740103519485714,-10.115201625700543" fill="none" id="id7" stroke="none" /><text fill="#e1ed5e" style="font-size:6.75px; font-family:Arial;" text-anchor="middle"><textPath startOffset="22.20632615414155" xlink:href="#id7">July</textPath></text><path d="M 97.2962882734958 120.8252237178851 l -2.1059122733285123 16.220699045830106 a37.35683172372784,37.35683172372784 0 0,0 -0.6369720649577015,-0.08827852410045882 l 2.384812929473044 -16.18204595623704" fill="#ff4506" stroke="none" /><path d="M 96.93821686468263 120.77559828337769 l -2.4747975817209285 16.792632958695563 a37.9740138080526,37.9740138080526 0 0,0 -0.6458550403367299,-0.1008692746208358 l 2.7634884856661763 -16.747545376727622" fill="#ff5007" stroke="none" /><path d="M 94.46302465271185 120.25689768951611 l -3.272510396847679 11.972404451699166 a33.411599117460334,33.411599117460334 0 0,0 -0.5534692360356095,-0.15641593455843428 l 3.4781108009879036 -11.914299723802209" fill="#ff0000" stroke="none" /><path d="M 93.42475214034765 119.94407469862007 l -7.41754805042961 22.498943850641933 a44.69013493998653,44.69013493998653 0 0,0 -0.7285136109084288,-0.24715137081189834 l 7.803731394275264 -22.36792949293191" fill="#ffbe11" stroke="none" /><path d="M 92.40401165467489 119.57807347666478 l -14.303227788227414 36.86546527730412 a60.542949501447616,60.542949501447616 0 0,0 -0.9683381300856356,-0.3853217261825063 l 14.935686994354908 -36.61379670671554" fill="#60ff29" stroke="none" /><path d="M 91.40352486487194 119.15986991738527 l -6.6106865694485055 14.73393370471868 a37.14899313686559,37.14899313686559 0 0,0 -0.5811730081179444,-0.26678802329095547 l 6.86332757333387 -14.61795861109365" fill="#ff4206" stroke="none" /><path d="M 90.10565033884886 118.52300852407294 l -6.606439622550476 12.36777975643511 a35.02166254729057,35.02166254729057 0 0,0 -0.5292893706163992,-0.28861076641540595 l 6.818351805035517 -12.25222833825994" fill="#ff1d02" stroke="none" /><line stroke="#e1ed5e" stroke-width="0.3" x1="58.666819895761336" x2="56.23545636021788" y1="174.27360380694188" y2="178.64263932499728" /><path d="M 58.180547188652646 175.14741091055294 a86.0,86.0 0 0,1 -31.652253787137756,-30.449443065178592" fill="none" id="id8" stroke="none" /><text fill="#e1ed5e" style="font-size:6.75px; font-family:Arial;" text-anchor="middle"><textPath startOffset="22.20632615414155" xlink:href="#id8">August</textPath></text><path d="M 89.7882731507175 118.34994917583269 l -12.576313926332599 22.59899082433203 a46.86267693514944,46.86267693514944 0 0,0 -0.7014923942827298,-0.39832568930062096 l 12.963455087536536 -22.37916196923678" fill="#ffdf14" stroke="none" /><path d="M 87.07902340077011 116.55440617244103 l -14.799523744805885 18.961208183350823 a45.053135322561246,45.053135322561246 0 0,0 -0.6072358277448521,-0.48242486675149704 l 15.123717065268094 -18.703649402594195" fill="#ffc312" stroke="none" /><path d="M 85.70375840098266 115.38237550388516 l -16.166107978408252 17.394301966561777 a44.7466795167975,44.7466795167975 0 0,0 -0.5596832970981493,-0.5292154910763252 l 16.46312710989722 -17.113451838739522" fill="#ffbf11" stroke="none" /><path d="M 85.44109423537348 115.13401014063109 l -16.50348900153203 17.155408101605133 a44.80489815891485,44.80489815891485 0 0,0 -0.5512070272930163,-0.5394720899069649 l 16.796345981200844 -16.868785908775596" fill="#ffbf11" stroke="none" /><path d="M 84.4343377721795 114.09645910891817 l -29.692854511841027 26.89022177965059 a61.05932645989137,61.05932645989137 0 0,0 -0.6988127981461063,-0.7851235867807451 l 30.151326159635467 -26.37512402312898" fill="#59ff2a" stroke="none" /><path d="M 83.95833913139862 113.55231037782056 l -20.688952260979992 17.478433482003847 a48.08372911254915,48.08372911254915 0 0,0 -0.52870120914873,-0.636854665173655 l 20.986749470022257 -17.119717559716428" fill="#fff216" stroke="none" /><path d="M 83.72743513129214 113.27417163493433 l -31.114639728829196 25.381436267239277 a61.15393022411088,61.15393022411088 0 0,0 -0.6583718205294444,-0.8214200754056689 l 31.5469294614135 -24.84208835825535" fill="#58ff2a" stroke="none" /><path d="M 83.50135304334701 112.99209946851258 l -24.586125381804273 19.360701962103413 a52.29399849420325,52.29399849420325 0 0,0 -0.5508131413012549,-0.7120002354905304 l 24.915745340323596 -18.93462373249963" fill="#cfff1d" stroke="none" /><path d="M 82.85270091963577 112.12312394758628 l -22.469320231016233 15.885787779286332 a48.517787066050175,48.517787066050175 0 0,0 -0.47625774344268273,-0.6860848004101688 l 22.739438881621048 -15.49666171668915" fill="#fff817" stroke="none" /><path d="M 82.24976979558568 111.22182372390057 l -13.541262453286452 8.560883915300623 a37.02044076297648,37.02044076297648 0 0,0 -0.33589062002022935,-0.5415626293743472 l 13.686617712974636 -8.326524954561012" fill="#ff3f05" stroke="none" /><path d="M 82.05923443525364 110.91462005526583 l -16.371388249411954 9.959858283344177 a40.163014643768435,40.163014643768435 0 0,0 -0.35423611436370855,-0.5937201032968061 l 16.540405239473895 -9.67657608616126" fill="#ff750a" stroke="none" /><line stroke="#e1ed5e" stroke-width="0.3" x1="26.63291911575756" x2="22.317208475507996" y1="142.92168965132927" y2="145.44649492493687" /><path d="M 25.769776987707644 143.4266507060508 a86.0,86.0 0 0,1 -11.730757126820373,-40.83630448921669" fill="none" id="id9" stroke="none" /><text fill="#e1ed5e" style="font-size:6.75px; font-family:Arial;" text-anchor="middle"><textPath startOffset="21.46611528233685" xlink:href="#id9">September</textPath></text><path d="M 81.69416730710424 110.29060199501025 l -23.192394592010263 13.037576933073787 a47.60574334983566,47.60574334983566 0 0,0 -0.39540784218132974,-0.7177800875307061 l 23.41337884364311 -12.63642632714526" fill="#ffeb16" stroke="none" /><path d="M 81.35079622478065 109.6543875284942 l -35.09102574429543 18.166049628239946 a60.51437013141524,60.51437013141524 0 0,0 -0.47092089828200423,-0.929171608587604 l 35.398525312363695 -17.559323807949657" fill="#60ff29" stroke="none" /><path d="M 80.87730276802145 108.67885076344099 l -24.11147718733212 10.94301236151069 a47.478535678911946,47.478535678911946 0 0,0 -0.33135250893565105,-0.7471124331422545 l 24.29627078099905 -10.52635159187574" fill="#ffe915" stroke="none" /><path d="M 80.45479744820244 107.68017299344265 l -52.53432452067072 20.643055468120497 a77.4445833707987,77.4445833707987 0 0,0 -0.4768584592543653,-1.2449269629717314 l 52.881877259518596 -19.735704938315607" fill="#43ffdf" stroke="none" /><path d="M 80.32549172779594 107.34259656027581 l -14.74136292691329 5.501529147432421 a36.73450361158629,36.73450361158629 0 0,0 -0.21599142762127954,-0.5943156441868185 l 14.833878615539794 -5.246965706239484" fill="#ff3a05" stroke="none" /><path d="M 79.97269907076064 106.31721596034903 l -23.387950260546116 7.377266321996721 a45.52387154948105,45.52387154948105 0 0,0 -0.22929556294309328,-0.7493511666505149 l 23.51147259599534 -6.973588182794159" fill="#ffcb12" stroke="none" /><path d="M 79.67330655649465 105.27499134158121 l -58.129062219055406 15.085104754099849 a81.05454404047191,81.05454404047191 0 0,0 -0.33884151865362555,-1.3535034326348352 l 58.38011505200409 -14.082273482067622" fill="#49f3ff" stroke="none" /><path d="M 79.35854240842038 103.8639653848113 l -24.053031877910062 4.502593005540493 a45.470833379623585,45.470833379623585 0 0,0 -0.13739457846376607,-0.7705817613496347 l 24.126972898713017 -4.087892493457645" fill="#ffca12" stroke="none" /><path d="M 79.23777060512086 103.15116336523772 l -62.286688184637434 9.453490095713171 a84.0,84.0 0 0,0 -0.20466379593360395,-1.4314181120784 l 62.440186031587636 -8.379926511654372" fill="#4dd2ff" stroke="none" /><path d="M 79.0235259727143 100.99374915477108 l -24.37560881423357 1.154781333825029 a45.4029470554991,45.4029470554991 0 0,0 -0.030264020049849398,-0.7809798823364346 l 24.39187496713462 -0.7350242044745976" fill="#ffc912" stroke="none" /><line stroke="#e1ed5e" stroke-width="0.3" x1="15.007084014347285" x2="10.007500721073583" y1="101.09737516637583" y2="101.16192664675087" /><path d="M 14.007167355692545 101.11028546245083 a86.0,86.0 0 0,1 10.666146001902526,-42.60595125391555" fill="none" id="id10" stroke="none" /><text fill="#e1ed5e" style="font-size:6.75px; font-family:Arial;" text-anchor="middle"><textPath startOffset="22.20632615414155" xlink:href="#id10">October</textPath></text><path d="M 79.00175016825051 100.2711162175752 l -30.350084819528554 0.3918612391646 a51.35261444724881,51.35261444724881 0 0,0 -0.0038042572136519856,-0.8839753996257833 l 30.352333374031712 0.13062363866485874" fill="#dcff1b" stroke="none" /><path d="M 79.00019446554 99.90962569577889 l -24.597345289930157 -0.10585659770116773 a45.59757306994587,45.59757306994587 0 0,0 0.010133502331756306,-0.7848509231058898 l 24.591878780480684 0.5292437788675295" fill="#ffcc13" stroke="none" /><path d="M 79.00486145842228 99.54816195383935 l -26.06166139163703 -0.5608750873245145 a47.06769601165254,47.06769601165254 0 0,0 0.024404164544937573,-0.8098554124255043 l 26.04814553263645 1.0094006471750132" fill="#ffe215" stroke="none" /><path d="M 79.01574976396665 99.18683210126434 l -23.847322532978357 -0.9241157981100715 a44.86522118062629,44.86522118062629 0 0,0 0.0365467642955486,-0.7714444317726804 l 23.82788216044931 1.3344713365057608" fill="#ffc011" stroke="none" /><line stroke="#e1ed5e" stroke-width="0.3" x1="26.266209847984243" x2="21.928928074336255" y1="57.71137044288968" y2="55.22380399835378" /><path d="M 25.398753493254645 57.2138571539825 a86.0,86.0 0 0,1 29.58750427330803,-30.4925239686951" fill="none" id="id11" stroke="none" /><text fill="#e1ed5e" style="font-size:6.75px; font-family:Arial;" text-anchor="middle"><textPath startOffset="21.46611528233685" xlink:href="#id11">November</textPath></text><line stroke="#e1ed5e" stroke-width="0.3" x1="56.76296977257108" x2="54.21961505331056" y1="26.818313649435495" y2="22.513508569990535" /><path d="M 56.25429882871898 25.957352633546506 a86.0,86.0 0 0,1 42.26535254187918,-11.944610805530505" fill="none" id="id12" stroke="none" /><text fill="#e1ed5e" style="font-size:6.75px; font-family:Arial;" text-anchor="middle"><textPath startOffset="22.20632615414155" xlink:href="#id12">December</textPath></text></svg>