<?xml version="1.0" encoding="utf-8" ?>
<svg baseProfile="full" height="200mm" version="1.1" viewBox="0,0,200,200" width="200mm" xmlns="http://www.w3.org/2000/svg" xmlns:ev="http://www.w3.org/2001/xml-events" xmlns:xlink="http://www.w3.org/1999/xlink"><defs /><rect fill="#1a1a1a" height="200" width="200" x="0" y="0" /><text alignment-baseline="middle" fill="#e1ed5e" style="dominant-baseline: central; font-size:9.0px; font-family:Arial;" text-anchor="middle" x="100.0" y="100.0">2022</text><line stroke="#e1ed5e" stroke-width="0.3" x1="100.0" x2="100.0" y1="15.0" y2="10.0" /><path d="M 100.0 14.0 a86.0,86.0 0 0,1 42.46469731375804,11.215312516191453" fill="none" id="id1" stroke="none" /><text fill="#e1ed5e" style="font-size:6.75px; font-family:Arial;" text-anchor="middle"><textPath startOffset="22.20632615414155" xlink:href="#id1">January</textPath></text><line stroke="#e1ed5e" stroke-width="0.3" x1="143.23703022742887" x2="145.7803849466894" y1="26.81831364943548" y2="22.513508569990506" /><path d="M 143.74570117128098 25.957352633546492 a86.0,86.0 0 0,1 28.547481713284135,27.462654790039103" fill="none" id="id2" stroke="none" /><text fill="#e1ed5e" style="font-size:6.75px; font-family:Arial;" text-anchor="middle"><textPath startOffset="19.985693538727396" xlink:href="#id2">February</textPath></text><line stroke="#e1ed5e" stroke-width="0.3" x1="172.23445277983987" x2="176.4835382374775" y1="55.19839476539836" y2="52.563006222186495" /><path d="M 173.08426987136738 54.67131705675599 a86.0,86.0 0 0,1 12.851231095245387,41.99856678651699" fill="none" id="id3" stroke="none" /><text fill="#e1ed5e" style="font-size:6.75px; font-family:Arial;" text-anchor="middle"><textPath startOffset="22.20632615414155" xlink:href="#id3">March</textPath></text><line stroke="#e1ed5e" stroke-width="0.3" x1="184.98032266829074" x2="189.97916517819016" y1="98.17113171792111" y2="98.06355123074" /><path d="M 185.9800911702706 98.14961562048488 a86.0,86.0 0 0,1 -9.607161424134198,41.387399972396054" fill="none" id="id4" stroke="none" /><text fill="#e1ed5e" style="font-size:6.75px; font-family:Arial;" text-anchor="middle"><textPath startOffset="21.466115282336823" xlink:href="#id4">April</textPath></text><line stroke="#e1ed5e" stroke-width="0.3" x1="174.80103733775053" x2="179.2010983576182" y1="140.37084112569926" y2="142.7455964860345" /><path d="M 175.68104954172406 140.8457921977663 a86.0,86.0 0 0,1 -30.038265399797805,32.042727171017184" fill="none" id="id5" stroke="none" /><text fill="#e1ed5e" style="font-size:6.75px; font-family:Arial;" text-anchor="middle"><textPath startOffset="22.206326154141568" xlink:href="#id5">May</textPath></text><line stroke="#e1ed5e" stroke-width="0.3" x1="143.8653032363475" x2="146.44561519142675" y1="172.8068346515853" y2="177.08958963109032" /><path d="M 144.38136562736335 173.6633856474863 a86.0,86.0 0 0,1 -40.68145358897372,12.25698825130547" fill="none" id="id6" stroke="none" /><text fill="#e1ed5e" style="font-size:6.75px; font-family:Arial;" text-anchor="middle"><textPath startOffset="21.466115282336833" xlink:href="#id6">June</textPath></text><line stroke="#e1ed5e" stroke-width="0.3" x1="102.19456741930631" x2="102.32365962044197" y1="184.97166512339345" y2="189.96999836594603" /><path d="M 102.22038585953345 185.97133177190398 a86.0,86.0 0 0,1 -42.740103519485714,-10.115201625700543" fill="none" id="id7" stroke="none" /><text fill="#e1ed5e" style="font-size:6.75px; font-family:Arial;" text-anchor="middle"><textPath startOffset="22.20632615414155" xlink:href="#id7">July</textPath></text><path d="M 97.2962882734958 120.8252237178851 l -1.417830116010639 10.920775713782712 a32.01242863443905,32.01242863443905 0 0,0 -0.5458445438411733,-0.07564908002957212 l 1.6056032510386427 -10.894752068260535" fill="#ff2b04" stroke="none" /><path d="M 96.93821686468263 120.77559828337769 l -1.6661864726436646 11.305836922788718 a32.4279537051177,32.4279537051177 0 0,0 -0.5515286704776825,-0.08613743556862659 l 1.8605510067298647 -11.275481179872985" fill="#ff3204" stroke="none" /><path d="M 94.46302465271185 120.25689768951611 l -2.203255973372055 8.06056159492781 a29.356254550324852,29.356254550324852 0 0,0 -0.48629171329738496,-0.13743089561447425 l 2.341678854774055 -8.021441905974815" fill="#ff0000" stroke="none" /><path d="M 93.42475214034765 119.94407469862007 l -4.993951146992784 15.147677599814394 a36.949660959608806,36.949660959608806 0 0,0 -0.602332728770564,-0.20434396471314284 l 5.2539536087005745 -15.059470648203128" fill="#ff790b" stroke="none" /><path d="M 92.40401165467489 119.57807347666478 l -9.629815719842934 24.82010650343581 a47.622754133260344,47.622754133260344 0 0,0 -0.7616894959144114,-0.3030919699040134 l 10.055626291799204 -24.65066768912573" fill="#ebff1a" stroke="none" /><path d="M 91.40352486487194 119.15986991738527 l -4.4507221997699205 9.919793525319173 a31.872498870291455,31.872498870291455 0 0,0 -0.49862552065511956,-0.22889452049535997 l 4.6208157161924595 -9.841711934489739" fill="#ff2904" stroke="none" /><path d="M 90.10565033884886 118.52300852407294 l -4.447862893003259 8.326752652020367 a30.440248621878744,30.440248621878744 0 0,0 -0.4600495482681586,-0.25085569460823914 l 4.590535253140059 -8.248956305652362" fill="#ff1202" stroke="none" /><line stroke="#e1ed5e" stroke-width="0.3" x1="58.666819895761336" x2="56.23545636021788" y1="174.27360380694188" y2="178.64263932499728" /><path d="M 58.180547188652646 175.14741091055294 a86.0,86.0 0 0,1 -31.652253787137756,-30.449443065178592" fill="none" id="id8" stroke="none" /><text fill="#e1ed5e" style="font-size:6.75px; font-family:Arial;" text-anchor="middle"><textPath startOffset="22.20632615414155" xlink:href="#id8">August</textPath></text><path d="M 89.7882731507175 118.34994917583269 l -8.467150725597582 15.215035397245025 a38.41235031664039,38.41235031664039 0 0,0 -0.5749985565471649,-0.326499186947992 l 8.727798049065955 -15.0670330445024" fill="#ff8f0d" stroke="none" /><path d="M 87.07902340077011 116.55440617244103 l -9.963952788420384 12.765855605091696 a37.194055220972956,37.194055220972956 0 0,0 -0.5013094593215821,-0.3982705533246297 l 10.182219740459324 -12.592451137761936" fill="#ff7d0b" stroke="none" /><path d="M 85.70375840098266 115.38237550388516 l -10.884021637919176 11.710917632952698 a36.98773025856063,36.98773025856063 0 0,0 -0.46263577648296955,-0.43745100293385836 l 11.083993248792963 -11.521831993272912" fill="#ff7a0b" stroke="none" /><path d="M 85.44109423537348 115.13401014063109 l -11.111167365314234 11.55007953890885 a37.02692664159741,37.02692664159741 0 0,0 -0.45551944101117453,-0.4458216471629271 l 11.308336758701204 -11.357107788823352" fill="#ff7a0b" stroke="none" /><path d="M 84.4343377721795 114.09645910891817 l -19.99106225382794 18.10415692441638 a47.97041097166148,47.97041097166148 0 0,0 -0.5490125597986288,-0.6168214309759399 l 20.299733663274907 -17.757361323699573" fill="#e6ff1a" stroke="none" /><path d="M 83.95833913139862 113.55231037782056 l -13.929079551809027 11.76756016161361 a39.234438003893075,39.234438003893075 0 0,0 -0.4313994608108512,-0.5196484411548001 l 14.129575012513417 -11.526050463345046" fill="#ff9c0e" stroke="none" /><path d="M 83.72743513129215 113.27417163493433 l -20.948295812260252 17.088349397583276 a48.03410406453014,48.03410406453014 0 0,0 -0.5171262161658656,-0.645194466457593 l 21.239339940480974 -16.725227097547425" fill="#e5ff1a" stroke="none" /><path d="M 83.50135304334701 112.99209946851258 l -16.55289702416671 13.034819473078024 a42.069051202852044,42.069051202852044 0 0,0 -0.4431136824845186,-0.5727841669367494 l 16.7748175238693 -12.74795731202802" fill="#ffc512" stroke="none" /><path d="M 82.85270091963577 112.12312394758628 l -15.127733150758978 10.695292778946824 a39.52667260756675,39.52667260756675 0 0,0 -0.3879996397249116,-0.5589424194042956 l 15.309593697646024 -10.433309097355515" fill="#ffa00e" stroke="none" /><path d="M 82.24976979558568 111.22182372390057 l -9.11681362905408 5.763715416122107 a31.785949478138207,31.785949478138207 0 0,0 -0.2883974922530101,-0.46498858527249637 l 9.214675760975046 -5.605930499484346" fill="#ff2803" stroke="none" /><path d="M 82.05923443525364 110.91462005526583 l -11.02222898593556 6.705591303195059 a33.901724169423375,33.901724169423375 0 0,0 -0.2990117934752707,-0.5011609649907814 l 11.136021655109063 -6.5148682443181665" fill="#ff4a06" stroke="none" /><line stroke="#e1ed5e" stroke-width="0.3" x1="26.63291911575756" x2="22.317208475507996" y1="142.92168965132927" y2="145.44649492493687" /><path d="M 25.769776987707644 143.4266507060508 a86.0,86.0 0 0,1 -11.730757126820373,-40.83630448921669" fill="none" id="id9" stroke="none" /><text fill="#e1ed5e" style="font-size:6.75px; font-family:Arial;" text-anchor="middle"><textPath startOffset="21.46611528233685" xlink:href="#id9">September</textPath></text><path d="M 81.69416730710424 110.29060199501025 l -15.614551437596786 8.777701450165802 a38.91262848790201,38.91262848790201 0 0,0 -0.3232038275494797,-0.5867088279001229 l 15.763331674597783 -8.507622103867858" fill="#ff970d" stroke="none" /><path d="M 81.35079622478065 109.6543875284942 l -23.625444294186643 12.230505789850918 a47.60351273748061,47.60351273748061 0 0,0 -0.3704490178288322,-0.7309310566837243 l 23.832471981801742 -11.822020521464507" fill="#ebff1a" stroke="none" /><path d="M 80.87730276802145 108.67885076344099 l -16.233334565105192 7.367511307346015 a38.82698443277803,38.82698443277803 0 0,0 -0.27097336769635816,-0.6109734092754144 l 16.35774901753283 -7.086989561577904" fill="#ff960d" stroke="none" /><path d="M 80.45479744820244 107.68017299344265 l -35.369349603512134 13.898178998177873 a59.00197719646777,59.00197719646777 0 0,0 -0.3632996746093626,-0.9484608100845213 l 35.60334355771501 -13.287294621260193" fill="#5cff2a" stroke="none" /><path d="M 80.32549172779594 107.34259656027581 l -9.924795336220537 3.703968967810476 a31.59343894022937,31.59343894022937 0 0,0 -0.18576301050148292,-0.5111400228616977 l 9.987082607727245 -3.532581147942661" fill="#ff2503" stroke="none" /><path d="M 79.97269907076064 106.31721596034903 l -15.746211583044577 4.966831001286599 a37.51098390203772,37.51098390203772 0 0,0 -0.1889360873232913,-0.6174540651413704 l 15.829374442873998 -4.69504996359318" fill="#ff820b" stroke="none" /><path d="M 79.67330655649465 105.27499134158121 l -39.13607232050939 10.156223549489516 a61.43242552040808,61.43242552040808 0 0,0 -0.2568129474334851,-1.0258400661095384 l 39.30509658223794 -9.481055643982584" fill="#40ff2d" stroke="none" /><path d="M 79.35854240842038 103.8639653848113 l -16.193985575649332 3.031423504315324 a37.475275332656935,37.475275332656935 0 0,0 -0.11323521638931075,-0.6350832286667968 l 16.243767234377835 -2.7522215249153135" fill="#ff810b" stroke="none" /><path d="M 79.23777060512086 103.15116336523772 l -41.935242722699485 6.36467298703072 a63.41548826128916,63.41548826128916 0 0,0 -0.15451017319688504,-1.0806437914702913 l 42.03858694691297 -5.641883723580029" fill="#30ff36" stroke="none" /><path d="M 79.0235259727143 100.99374915477108 l -16.411164278125405 0.777470065225577 a37.42957006941877,37.42957006941877 0 0,0 -0.024949245203256785,-0.6438291592170453 l 16.422115656179862 -0.49486365899453477" fill="#ff800b" stroke="none" /><line stroke="#e1ed5e" stroke-width="0.3" x1="15.007084014347285" x2="10.007500721073583" y1="101.09737516637583" y2="101.16192664675087" /><path d="M 14.007167355692545 101.11028546245083 a86.0,86.0 0 0,1 10.666146001902534,-42.60595125391555" fill="none" id="id10" stroke="none" /><text fill="#e1ed5e" style="font-size:6.75px; font-family:Arial;" text-anchor="middle"><textPath startOffset="22.20632615414155" xlink:href="#id10">October</textPath></text><path d="M 79.00175016825051 100.2711162175752 l -20.43355026018799 0.2638251712673065 a41.435253361693924,41.435253361693924 0 0,0 -0.0030695683792817435,-0.7132595884991262 l 20.435064125856773 0.08794389543549509" fill="#ffbc11" stroke="none" /><path d="M 79.00019446554 99.90962569577889 l -16.560450958792206 -0.07126919487577603 a37.56060431435701,37.56060431435701 0 0,0 0.008347384428066986,-0.646514123094165 l 16.556770567246424 0.356319576030413" fill="#ff820c" stroke="none" /><path d="M 79.00486145842228 99.54816195383935 l -17.546318933756726 -0.37761572511845215 a38.550381812398456,38.550381812398456 0 0,0 0.019988016001187516,-0.6633049417611482 l 17.537219223299893 0.6795908143045947" fill="#ff910d" stroke="none" /><path d="M 79.01574976396665 99.18683210126434 l -16.055489348582853 -0.622171790266819 a37.067539822855935,37.067539822855935 0 0,0 0.03019485038238847,-0.6373655683258379 l 16.042400889966967 0.8984484652156659" fill="#ff7b0b" stroke="none" /><path d="M 79.05617556472873 98.46500227214037 l -53.4879191255806 -3.9201930182071174 a74.63138452142226,74.63138452142226 0 0,0 0.10493000720288514,-1.2804118658372996 l 53.41251463455822 4.840318801252195" fill="#40ffc5" stroke="none" /><path d="M 79.54389044137918 95.25157060432595 l -10.615096765069254 -2.464057858740648 a31.897332722414475,31.897332722414475 0 0,0 0.12875464638229317,-0.5337711328252583 l 10.571109318426146 2.6464142232253027" fill="#ff2a04" stroke="none" /><path d="M 79.62865764111835 94.90015583598534 l -32.35066472074042 -8.09879613093499 a54.349003083213844,54.349003083213844 0 0,0 0.23500423043560917,-0.9055671641272546 l 32.20646415843451 8.654459720611106" fill="#94ff23" stroke="none" /><path d="M 80.2630227832202 92.82701384747504 l -13.155761297834957 -4.781182679537503 a34.99763419798937,34.99763419798937 0 0,0 0.21064477980592272,-0.5644232838842705 l 13.071511929527407 5.0069291004511145" fill="#ff5b08" stroke="none" /><path d="M 80.38941819471856 92.48833698450439 l -35.15610347022371 -13.46624005490217 a58.64692859218833,58.64692859218833 0 0,0 0.36921439235786524,-0.9396103564118509 l 34.919095527984155 14.069399416209784" fill="#60ff29" stroke="none" /><path d="M 81.26839172434947 90.50648371742162 l -14.215961226685328 -7.204905066986465 a36.93750954895111,36.93750954895111 0 0,0 0.29231741188542315,-0.5646641969991733 l 14.089834381639792 7.448541986245974" fill="#ff790b" stroke="none" /><path d="M 81.43458229118936 90.18545643968196 l -14.309398727848608 -7.564613914923157 a37.18586653949687,37.18586653949687 0 0,0 0.3040243861130688,-0.5633110141654596 l 14.177066242517068 7.80980591242109" fill="#ff7d0b" stroke="none" /><line stroke="#e1ed5e" stroke-width="0.3" x1="26.266209847984243" x2="21.928928074336255" y1="57.71137044288968" y2="55.22380399835378" /><path d="M 25.398753493254645 57.2138571539825 a86.0,86.0 0 0,1 29.58750427330803,-30.4925239686951" fill="none" id="id11" stroke="none" /><text fill="#e1ed5e" style="font-size:6.75px; font-family:Arial;" text-anchor="middle"><textPath startOffset="21.46611528233685" xlink:href="#id11">November</textPath></text><path d="M 82.54541684631803 88.32363383020207 l -22.47022847540506 -15.031617385976014 a48.03443524424509,48.03443524424509 0 0,0 0.46564932481654686,-0.683282926059534 l 22.208154684919773 15.416178335305963" fill="#e5ff1a" stroke="none" /><path d="M 82.7489923806493 88.02491185347247 l -22.212316241800362 -15.419067152676602 a48.03950119148833,48.03950119148833 0 0,0 0.4773922690276271,-0.6752375090003303 l 21.94361135296886 15.799131162008718" fill="#e5ff1a" stroke="none" /><path d="M 83.6137871275137 86.86637796730984 l -20.685157639298474 -16.579245261564743 a47.50937796338769,47.50937796338769 0 0,0 0.5169506907212712,-0.633720421886563 l 20.39670845650081 16.932849853059388" fill="#edff1a" stroke="none" /><path d="M 84.07557802195018 86.31012108654704 l -20.587139729211597 -17.698315860740497 a48.148861974981955,48.148861974981955 0 0,0 0.5457057575958613,-0.6238360157106775 l 20.27944210803789 18.050067432654117" fill="#e4ff1a" stroke="none" /><path d="M 84.31358615837235 86.03803664274999 l -43.193240274923355 -38.44488893943401 a78.82443679805863,78.82443679805863 0 0,0 0.910821469709884,-1.0057518159565166 l 42.525075164597425 39.18269354266008" fill="#46fff5" stroke="none" /><path d="M 85.83668400450813 84.49514656593479 l -22.544727066513385 -24.680144747780417 a54.42714859623798,54.42714859623798 0 0,0 0.6971573785175889,-0.6259147778977788 l 22.116558700399825 25.06455853444747" fill="#93ff23" stroke="none" /><path d="M 86.10567301691215 84.25364557470405 l -35.54391771023688 -40.28170105757506 a74.72136936344731,74.72136936344731 0 0,0 0.9717556831791643,-0.8426969526134533 l 34.84526822841095 40.8875630036082" fill="#40ffc6" stroke="none" /><path d="M 87.80319425747018 82.90503203632743 l -15.913210117092895 -22.303857492975727 a48.39876484985623,48.39876484985623 0 0,0 0.6823508168883492,-0.47803035339828087 l 15.526928160620885 22.574472689137952" fill="#e1ff1b" stroke="none" /><path d="M 88.09926311788651 82.69761687909137 l -15.665466240447802 -22.775892059866415 a48.64322867635573,48.64322867635573 0 0,0 0.6939658552545471,-0.46856884326470094 l 15.271095690786717 23.042172815429783" fill="#ddff1b" stroke="none" /><line stroke="#e1ed5e" stroke-width="0.3" x1="56.76296977257108" x2="54.21961505331056" y1="26.818313649435495" y2="22.513508569990535" /><path d="M 56.25429882871898 25.957352633546506 a86.0,86.0 0 0,1 42.26535254187918,-11.944610805530505" fill="none" id="id12" stroke="none" /><text fill="#e1ed5e" style="font-size:6.75px; font-family:Arial;" text-anchor="middle"><textPath startOffset="22.20632615414155" xlink:href="#id12">December</textPath></text><path d="M 89.94658935756843 81.56283822128135 l -30.16023192729471 -55.31148533615593 a84.0,84.0 0 0,0 1.2754198138867834,-0.6812850939930022 l 29.203667066879625 55.822449156650684" fill="#4dd2ff" stroke="none" /><path d="M 92.23578459929587 80.48803036053334 l -15.712636428188882 -39.48685979461559 a63.49822396246786,63.49822396246786 0 0,0 1.019046212760598,-0.39537409871830903 l 15.030607050428607 39.75147659722445" fill="#30ff37" stroke="none" /><path d="M 92.57280143429618 80.3572730644239 l -6.96722362262265 -18.426230281525193 a40.699445865186846,40.699445865186846 0 0,0 0.6574272080349497,-0.2421359889757109 l 6.649014088815132 18.543429538307226" fill="#ffb110" stroke="none" /><path d="M 94.63758080256005 79.69619591428918 l -13.629936130722859 -51.60722105259236 a74.37677794414643,74.37677794414643 0 0,0 1.240644009623045,-0.3162677821440979 l 12.739583232414812 51.83419183090532" fill="#3fffc2" stroke="none" /><path d="M 94.98787191387505 79.60689891045804 l -3.7855062423752432 -15.402282254030558 a36.86065434160541,36.86065434160541 0 0,0 0.6174621466875446,-0.14613334071909537 l 3.519820408725165 15.465161506890524" fill="#ff780b" stroke="none" /><path d="M 95.692805502759 79.44645832069477 l -5.590006370710075 -26.675003648330126 a48.25443066481127,48.25443066481127 0 0,0 0.8144281485546749,-0.1633666248578388 l 5.130011812688264 26.767274229265176" fill="#e2ff1b" stroke="none" /><path d="M 96.04723909329186 79.375362276772 l -5.5300009443978 -28.854329613955272 a50.37946983721484,50.37946983721484 0 0,0 0.8531040604934869,-0.15589931415126243 l 5.03250176280142 28.94524440945727" fill="#c6ff1e" stroke="none" /><path d="M 97.11714578562143 79.19881850522333 l -7.34048164070961 -52.96511010023129 a74.47135269139184,74.47135269139184 0 0,0 1.2712801470457489,-0.16504864907106465 l 6.427686765156005 53.08361707246649" fill="#40ffc3" stroke="none" /><path d="M 97.47563105711357 79.15227682838746 l -3.273027495907382 -27.030585746999215 a48.22802370380272,48.22802370380272 0 0,0 0.8250053303965957,-0.09269896156197009 l 2.8072554620010686 27.082920662031782" fill="#e3ff1b" stroke="none" /><path d="M 98.91598698831166 79.02799685794201 l -1.3693152886971005 -26.49164191516189 a47.527007289195325,47.527007289195325 0 0,0 0.8173721138853477,-0.035197762611822156 l 0.9131023424224285 26.511287404297903" fill="#ecff1a" stroke="none" /><path d="M 99.63851952072746 79.00311137660856 l -0.9167242898784134 -53.24867846714956 a74.25656900253273,74.25656900253273 0 0,0 1.278204769150936,-0.011001911991729424 l 1.3044097352504371e-14 53.25656900253273" fill="#3fffc0" stroke="none" /></svg>