<?xml version="1.0" encoding="utf-8" ?>
<svg baseProfile="full" height="200mm" version="1.1" viewBox="0,0,200,200" width="200mm" xmlns="http://www.w3.org/2000/svg" xmlns:ev="http://www.w3.org/2001/xml-events" xmlns:xlink="http://www.w3.org/1999/xlink"><defs /><rect fill="#1a1a1a" height="200" width="200" x="0" y="0" /><text alignment-baseline="middle" fill="#e1ed5e" style="dominant-baseline: central; font-size:9.0px; font-family:Arial;" text-anchor="middle" x="100.0" y="100.0">2022</text><line stroke="#e1ed5e" stroke-width="0.3" x1="100.0" x2="100.0" y1="15.0" y2="10.0" /><path d="M 100.0 14.0 a86.0,86.0 0 0,1 42.46469731375804,11.215312516191453" fill="none" id="id1" stroke="none" /><text fill="#e1ed5e" style="font-size:6.75px; font-family:Arial;" text-anchor="middle"><textPath startOffset="22.20632615414155" xlink:href="#id1">January</textPath></text><line stroke="#e1ed5e" stroke-width="0.3" x1="143.23703022742887" x2="145.7803849466894" y1="26.81831364943548" y2="22.513508569990506" /><path d="M 143.74570117128098 25.957352633546492 a86.0,86.0 0 0,1 28.547481713284135,27.462654790039103" fill="none" id="id2" stroke="none" /><text fill="#e1ed5e" style="font-size:6.75px; font-family:Arial;" text-anchor="middle"><textPath startOffset="19.985693538727396" xlink:href="#id2">February</textPath></text><line stroke="#e1ed5e" stroke-width="0.3" x1="172.23445277983987" x2="176.4835382374775" y1="55.19839476539836" y2="52.563006222186495" /><path d="M 173.08426987136738 54.67131705675599 a86.0,86.0 0 0,1 12.851231095245387,41.99856678651699" fill="none" id="id3" stroke="none" /><text fill="#e1ed5e" style="font-size:6.75px; font-family:Arial;" text-anchor="middle"><textPath startOffset="22.20632615414155" xlink:href="#id3">March</textPath></text><line stroke="#e1ed5e" stroke-width="0.3" x1="184.98032266829074" x2="189.97916517819016" y1="98.17113171792111" y2="98.06355123074" /><path d="M 185.9800911702706 98.14961562048488 a86.0,86.0 0 0,1 -9.607161424134198,41.387399972396054" fill="none" id="id4" stroke="none" /><text fill="#e1ed5e" style="font-size:6.75px; font-family:Arial;" text-anchor="middle"><textPath startOffset="21.466115282336823" xlink:href="#id4">April</textPath></text><line stroke="#e1ed5e" stroke-width="0.3" x1="174.80103733775053" x2="179.2010983576182" y1="140.37084112569926" y2="142.7455964860345" /><path d="M 175.68104954172406 140.8457921977663 a86.0,86.0 0 0,1 -30.038265399797805,32.042727171017184" fill="none" id="id5" stroke="none" /><text fill="#e1ed5e" style="font-size:6.75px; font-family:Arial;" text-anchor="middle"><textPath startOffset="22.206326154141568" xlink:href="#id5">May</textPath></text><line stroke="#e1ed5e" stroke-width="0.3" x1="143.8653032363475" x2="146.44561519142675" y1="172.8068346515853" y2="177.08958963109032" /><path d="M 144.38136562736335 173.6633856474863 a86.0,86.0 0 0,1 -40.68145358897372,12.25698825130547" fill="none" id="id6" stroke="none" /><text fill="#e1ed5e" style="font-size:6.75px; font-family:Arial;" text-anchor="middle"><textPath startOffset="21.466115282336833" xlink:href="#id6">June</textPath></text><line stroke="#e1ed5e" stroke-width="0.3" x1="102.19456741930631" x2="102.32365962044197" y1="184.97166512339345" y2="189.96999836594603" /><path d="M 102.22038585953345 185.97133177190398 a86.0,86.0 0 0,1 -42.740103519485714,-10.115201625700543" fill="none" id="id7" stroke="none" /><text fill="#e1ed5e" style="font-size:6.75px; font-family:Arial;" text-anchor="middle"><textPath startOffset="22.20632615414155" xlink:href="#id7">July</textPath></text><path d="M 91.40352486487194 119.15986991738527 l -4.450722074000521 9.91979324500366 a31.872498563054204,31.872498563054204 0 0,0 -0.49862551584858295,-0.22889451828891474 l 4.620815585616524 -9.84171165638067" fill="red" stroke="none" /><path d="M 90.10565033884886 118.52300852407294 l -4.447863101746004 8.32675304280337 a30.44024906491925,30.44024906491925 0 0,0 -0.4600495549639198,-0.2508556982593011 l 4.590535468578565 -8.248956692784303" fill="red" stroke="none" /><line stroke="#e1ed5e" stroke-width="0.3" x1="58.666819895761336" x2="56.23545636021788" y1="174.27360380694188" y2="178.64263932499728" /><path d="M 58.180547188652646 175.14741091055294 a86.0,86.0 0 0,1 -31.652253787137756,-30.449443065178592" fill="none" id="id8" stroke="none" /><text fill="#e1ed5e" style="font-size:6.75px; font-family:Arial;" text-anchor="middle"><textPath startOffset="22.20632615414155" xlink:href="#id8">August</textPath></text><path d="M 89.7882731507175 118.34994917583269 l -8.467151056351586 15.215035991592998 a38.41235099682252,38.41235099682252 0 0,0 -0.5749985667288835,-0.32649919272943756 l 8.727798390001677 -15.067033633068927" fill="red" stroke="none" /><path d="M 87.07902340077011 116.55440617244103 l -9.96395320947191 12.765856144544573 a37.194055905292906,37.194055905292906 0 0,0 -0.5013094685449933,-0.39827056065226535 l 10.182220170734261 -12.592451669887177" fill="red" stroke="none" /><path d="M 85.70375840098266 115.38237550388516 l -10.884021822433985 11.71091783148572 a36.98773052959767,36.98773052959767 0 0,0 -0.4626357798730513,-0.43745100613938814 l 11.083993436697853 -11.521832188600401" fill="red" stroke="none" /><path d="M 85.44109423537348 115.13401014063109 l -11.111167731853689 11.550079919927306 a37.02692717029982,37.02692717029982 0 0,0 -0.4555194475154742,-0.44582165352875325 l 11.308337131744956 -11.357108163475983" fill="red" stroke="none" /><path d="M 84.43433777217949 114.09645910891817 l -19.991063432035386 18.104157991415832 a47.970412561208775,47.970412561208775 0 0,0 -0.5490125779907009,-0.616821451414937 l 20.299734859674427 -17.75736237026003" fill="red" stroke="none" /><path d="M 83.95833913139862 113.55231037782056 l -13.929079487477873 11.767560107265387 a39.23443791967772,39.23443791967772 0 0,0 -0.4313994598848716,-0.5196484400393971 l 14.129574947256282 -11.526050410112228" fill="red" stroke="none" /><path d="M 83.72743513129214 113.27417163493432 l -20.948296927197767 17.088350307081686 a48.03410550337448,48.03410550337448 0 0,0 -0.5171262316561903,-0.6451944857841563 l 21.239341070908818 -16.725227987719272" fill="red" stroke="none" /><path d="M 83.50135304334701 112.99209946851258 l -16.552897201181516 13.034819612470905 a42.06905142816209,42.06905142816209 0 0,0 -0.44311368485771124,-0.5727841700044208 l 16.774817703257295 -12.747957448353231" fill="red" stroke="none" /><path d="M 82.85270091963577 112.12312394758628 l -15.127733503715794 10.695293028486953 a39.526673039826846,39.526673039826846 0 0,0 -0.3879996439680403,-0.558942425516839 l 15.309594054845968 -10.4333093407831" fill="red" stroke="none" /><path d="M 82.24976979558568 111.22182372390057 l -9.116813418033896 5.763715282713623 a31.785949228483762,31.785949228483762 0 0,0 -0.2883974899878673,-0.4649885816203648 l 9.214675547689719 -5.605930369727994" fill="red" stroke="none" /><path d="M 82.05923443525364 110.91462005526583 l -11.022229564485029 6.705591655167086 a33.901724846626294,33.901724846626294 0 0,0 -0.2990117994481722,-0.501160975001708 l 11.136022239631432 -6.514868586279267" fill="red" stroke="none" /><line stroke="#e1ed5e" stroke-width="0.3" x1="26.63291911575756" x2="22.317208475507996" y1="142.92168965132927" y2="145.44649492493687" /><path d="M 25.769776987707644 143.4266507060508 a86.0,86.0 0 0,1 -11.730757126820373,-40.83630448921669" fill="none" id="id9" stroke="none" /><text fill="#e1ed5e" style="font-size:6.75px; font-family:Arial;" text-anchor="middle"><textPath startOffset="21.46611528233685" xlink:href="#id9">September</textPath></text><path d="M 81.69416730710424 110.29060199501025 l -15.614552260328821 8.777701912663632 a38.91262943171992,38.91262943171992 0 0,0 -0.32320383538872294,-0.5867088421306244 l 15.76333250516906 -8.507622552135187" fill="red" stroke="none" /><path d="M 81.35079622478065 109.6543875284942 l -23.625444500708078 12.230505896763683 a47.60351297003478,47.60351297003478 0 0,0 -0.37044901963856136,-0.7309310602544916 l 23.832472190132904 -11.822020624806507" fill="red" stroke="none" /><path d="M 80.87730276802145 108.67885076344099 l -16.233334605896847 7.36751132585934 a38.826984477574264,38.826984477574264 0 0,0 -0.2709733680089866,-0.6109734099803187 l 16.357749058637115 -7.086989579386326" fill="red" stroke="none" /><path d="M 80.45479744820244 107.68017299344265 l -35.36935078456302 13.898179462264906 a59.00197846542717,59.00197846542717 0 0,0 -0.3632996824228725,-0.9484608304831302 l 35.603344746579396 -13.28729506494862" fill="red" stroke="none" /><path d="M 80.32549172779594 107.34259656027581 l -9.924795391568175 3.703968988466411 a31.59343899930583,31.59343899930583 0 0,0 -0.18576301084884053,-0.5111400238174767 l 9.987082663422239 -3.532581167642817" fill="red" stroke="none" /><path d="M 79.97269907076064 106.31721596034903 l -15.74621198227811 4.9668311272169205 a37.51098432066149,37.51098432066149 0 0,0 -0.18893608943182405,-0.6174540720321774 l 15.829374844216066 -4.6950500826326955" fill="red" stroke="none" /><path d="M 79.67330655649465 105.27499134158121 l -34.90635608680312 9.058567574494973 a57.06260309185111,57.06260309185111 0 0,0 -0.23854528230173042,-0.9528698245632617 l 35.05711268339991 -8.456369910534319" fill="red" stroke="none" /><path d="M 79.35854240842038 103.8639653848113 l -16.193986235977444 3.031423627925052 a37.475276004454955,37.475276004454955 0 0,0 -0.11323521841921429,-0.6350832400515738 l 16.24376789673585 -2.7522216371402646" fill="red" stroke="none" /><path d="M 79.23777060512086 103.15116336523772 l -41.93524243782023 6.364672943793499 a63.41548797314745,63.41548797314745 0 0,0 -0.1545101724948353,-1.0806437865601555 l 42.038586661331664 -5.641883685252943" fill="red" stroke="none" /><path d="M 79.0235259727143 100.99374915477108 l -16.41116510250893 0.7774701042803025 a37.42957089472688,37.42957089472688 0 0,0 -0.024949245753378365,-0.6438291734132392 l 16.42211648111351 -0.49486368385306656" fill="red" stroke="none" /><line stroke="#e1ed5e" stroke-width="0.3" x1="15.007084014347285" x2="10.007500721073583" y1="101.09737516637583" y2="101.16192664675087" /><path d="M 14.007167355692545 101.11028546245083 a86.0,86.0 0 0,1 10.666146001902534,-42.60595125391555" fill="none" id="id10" stroke="none" /><text fill="#e1ed5e" style="font-size:6.75px; font-family:Arial;" text-anchor="middle"><textPath startOffset="22.20632615414155" xlink:href="#id10">October</textPath></text><path d="M 79.00175016825051 100.2711162175752 l -20.433550338203215 0.26382517227459007 a41.43525343971565,41.43525343971565 0 0,0 -0.003069568385061678,-0.7132595898421793 l 20.43506420387778 0.08794389577126459" fill="red" stroke="none" /><path d="M 79.00019446554 99.90962569577889 l -16.56045164551188 -0.07126919783112781 a37.56060500108304,37.56060500108304 0 0,0 0.008347384580683438,-0.6465141349144774 l 16.55677125381348 0.35631959080607717" fill="red" stroke="none" /><path d="M 79.00486145842228 99.54816195383935 l -17.546319340317776 -0.37761573386808484 a38.550382219053645,38.550382219053645 0 0,0 0.019988016212034467,-0.663304948758132 l 17.537219629650096 0.6795908300512111" fill="red" stroke="none" /><path d="M 79.01574976396665 99.18683210126434 l -16.05548938921642 -0.6221717918414242 a37.06753986352,37.06753986352 0 0,0 0.030194850415513015,-0.6373655690250444 l 16.042400930567407 0.8984484674894778" fill="red" stroke="none" /><path d="M 79.05617556472873 98.46500227214037 l -53.48792090669471 -3.920193148747082 a74.63138630731368,74.63138630731368 0 0,0 0.10493000971380734,-1.2804118964769091 l 53.412516413161406 4.84031896243177" fill="red" stroke="none" /><path d="M 79.54389044137918 95.25157060432595 l -10.615096614750765 -2.4640578238475648 a31.897332568099294,31.897332568099294 0 0,0 0.1287546457593948,-0.5337711302429424 l 10.571109168730557 2.646414185749904" fill="red" stroke="none" /><path d="M 79.62865764111835 94.90015583598534 l -32.35066547399439 -8.098796319507631 a54.34900385971316,54.34900385971316 0 0,0 0.23500423379317992,-0.9055671770653443 l 32.2064649083309 8.65445992212184" fill="red" stroke="none" /><path d="M 80.2630227832202 92.82701384747504 l -13.155761458894561 -4.7811827380712035 a34.997634369355616,34.997634369355616 0 0,0 0.21064478083734686,-0.5644232866479745 l 13.071512089555588 5.006929161748519" fill="red" stroke="none" /><path d="M 80.38941819471856 92.48833698450439 l -35.15610403775781 -13.466240272291174 a58.64692919993246,58.64692919993246 0 0,0 0.3692143961839459,-0.9396103661488089 l 34.91909609169217 14.069399643335746" fill="red" stroke="none" /><path d="M 81.26839172434947 90.50648371742162 l -14.215961551987085 -7.204905231855252 a36.93750991364681,36.93750991364681 0 0,0 0.29231741477156525,-0.5646642025742812 l 14.089834704055406 7.448542156689868" fill="red" stroke="none" /><path d="M 81.43458229118936 90.18545643968196 l -14.3093987755386 -7.564613940134306 a37.18586659344071,37.18586659344071 0 0,0 0.30402438655410313,-0.563311014982629 l 14.177066289766026 7.809805938449408" fill="red" stroke="none" /><line stroke="#e1ed5e" stroke-width="0.3" x1="26.266209847984243" x2="21.928928074336255" y1="57.711370442889674" y2="55.22380399835377" /><path d="M 25.398753493254645 57.213857153982495 a86.0,86.0 0 0,1 29.58750427330803,-30.492523968695096" fill="none" id="id11" stroke="none" /><text fill="#e1ed5e" style="font-size:6.75px; font-family:Arial;" text-anchor="middle"><textPath startOffset="21.46611528233685" xlink:href="#id11">November</textPath></text><path d="M 82.54541684631803 88.32363383020206 l -22.470228714474274 -15.03161754590305 a48.034435531874614,48.034435531874614 0 0,0 0.46564932760484845,-0.6832829301510173 l 22.208154921200684 15.416178499324483" fill="red" stroke="none" /><path d="M 82.7489923806493 88.02491185347247 l -22.212316154813628 -15.419067092293243 a48.03950108559762,48.03950108559762 0 0,0 0.4773922679753388,-0.6752375075119432 l 21.943611267034413 15.799131100136973" fill="red" stroke="none" /><path d="M 83.6137871275137 86.86637796730984 l -20.685157743307585 -16.579245344928506 a47.50937809668215,47.50937809668215 0 0,0 0.5169506921716513,-0.6337204236645576 l 20.396708559059544 16.932849938201144" fill="red" stroke="none" /><path d="M 84.07557802195018 86.31012108654704 l -20.587140749483947 -17.698316737846426 a48.14886332044488,48.14886332044488 0 0,0 0.5457057728449624,-0.6238360331430362 l 20.27944311306114 18.050068327192406" fill="red" stroke="none" /><path d="M 84.31358615837235 86.03803664274999 l -43.19324025915085 -38.44488892539542 a78.82443677694337,78.82443677694337 0 0,0 0.9108214694658958,-1.0057518156870988 l 42.52507514906891 39.18269352835207" fill="red" stroke="none" /><path d="M 85.83668400450813 84.49514656593479 l -22.544727325441908 -24.680145031234435 a54.42714898015224,54.42714898015224 0 0,0 0.6971573834351469,-0.625914782312805 l 22.116558954410788 25.064558822316517" fill="red" stroke="none" /><path d="M 86.10567301691215 84.25364557470407 l -35.54391744438045 -40.281700756281616 a74.72136896162971,74.72136896162971 0 0,0 0.9717556779535034,-0.8426969480818117 l 34.845267967780174 40.8875626977831" fill="red" stroke="none" /><path d="M 87.80319425747018 82.90503203632743 l -15.913211092421703 -22.303858859990587 a48.39876652914057,48.39876652914057 0 0,0 0.6823508405637684,-0.478030369984425 l 15.526929112274273 22.574474072738955" fill="red" stroke="none" /><path d="M 88.09926311788651 82.69761687909137 l -15.665465916730192 -22.775891589216055 a48.643228105124734,48.643228105124734 0 0,0 0.6939658471051071,-0.4685688377621664 l 15.271095375218545 23.042172339276885" fill="red" stroke="none" /><line stroke="#e1ed5e" stroke-width="0.3" x1="56.762969772571076" x2="54.21961505331055" y1="26.818313649435495" y2="22.513508569990535" /><path d="M 56.25429882871897 25.957352633546506 a86.0,86.0 0 0,1 42.265352541879196,-11.944610805530505" fill="none" id="id12" stroke="none" /><text fill="#e1ed5e" style="font-size:6.75px; font-family:Arial;" text-anchor="middle"><textPath startOffset="22.20632615414155" xlink:href="#id12">December</textPath></text><path d="M 89.94658935756843 81.56283822128135 l -30.16023192729471 -55.31148533615593 a84.0,84.0 0 0,0 1.2754198138867787,-0.6812850939930022 l 29.20366706687963 55.822449156650684" fill="red" stroke="none" /><path d="M 92.23578459929587 80.48803036053334 l -15.71263694142402 -39.4868610844083 a63.4982253506233,63.4982253506233 0 0,0 1.0190462350383038,-0.3953741073617115 l 15.03060754138604 39.75147789566056" fill="red" stroke="none" /><path d="M 92.57280143429618 80.3572730644239 l -6.967223650639056 -18.426230355620238 a40.69944594440171,40.69944594440171 0 0,0 0.6574272093145228,-0.2421359894469893 l 6.649014115551964 18.54342961287355" fill="red" stroke="none" /><path d="M 94.63758080256005 79.69619591428918 l -13.629936214880736 -51.60722137124051 a74.37677827372069,74.37677827372069 0 0,0 1.2406440151205245,-0.31626778354552615 l 12.739583311075211 51.834192150954905" fill="red" stroke="none" /><path d="M 94.98787191387505 79.60689891045804 l -3.7855062102205936 -15.402282123201298 a36.86065420688267,36.86065420688267 0 0,0 0.6174621444307689,-0.1461333401849897 l 3.519820378827291 15.46516137552716" fill="red" stroke="none" /><path d="M 95.692805502759 79.44645832069477 l -5.590006543389512 -26.675004472340742 a48.25443150672081,48.25443150672081 0 0,0 0.8144281627642475,-0.16336662770814536 l 5.130011971158128 26.7672750561261" fill="red" stroke="none" /><path d="M 96.04723909329186 79.375362276772 l -5.530000912722306 -28.8543294486795 a50.3794696689311,50.3794696689311 0 0,0 0.8531040576438431,-0.15589931363050824 l 5.032501733975569 28.945244243660746" fill="red" stroke="none" /><path d="M 97.11714578562143 79.19881850522333 l -7.340482059690205 -52.96511312337807 a74.47135574343397,74.47135574343397 0 0,0 1.2712801991463254,-0.16504865583521505 l 6.427687132036022 53.08362010237742" fill="red" stroke="none" /><path d="M 97.47563105711357 79.15227682838746 l -3.273027544734245 -27.03058615024016 a48.228024109989036,48.228024109989036 0 0,0 0.8250053373449601,-0.09269896234269978 l 2.8072555038795675 27.08292106605346" fill="red" stroke="none" /><path d="M 98.91598698831166 79.02799685794201 l -1.3693153129304274 -26.491642383995192 a47.527007758654506,47.527007758654506 0 0,0 0.8173721219591331,-0.03519776295949632 l 0.9131023585819701 26.51128787347888" fill="red" stroke="none" /><path d="M 99.63851952072746 79.00311137660856 l -0.9167243268238633 -53.248680613156175 a74.25657114885735,74.25657114885735 0 0,0 1.2782048060963858,-0.011001912309730577 l 1.3044097878202286e-14 53.25657114885735" fill="red" stroke="none" /></svg>