<?xml version="1.0" encoding="utf-8" ?>
<svg baseProfile="full" height="200mm" version="1.1" viewBox="0,0,200,200" width="200mm" xmlns="http://www.w3.org/2000/svg" xmlns:ev="http://www.w3.org/2001/xml-events" xmlns:xlink="http://www.w3.org/1999/xlink"><defs /><rect fill="#1a1a1a" height="200" width="200" x="0" y="0" /><text alignment-baseline="middle" fill="#e1ed5e" style="dominant-baseline: central; font-size:9.0px; font-family:Arial;" text-anchor="middle" x="100.0" y="100.0">2024</text><line stroke="#e1ed5e" stroke-width="0.3" x1="100.0" x2="100.0" y1="15.0" y2="10.0" /><path d="M 100.0 14.0 a86.0,86.0 0 0,1 42.35913384403234,11.155469271406648" fill="none" id="id25" stroke="none" /><text fill="#e1ed5e" style="font-size:6.75px; font-family:Arial;" text-anchor="middle"><textPath startOffset="22.145653131862478" xlink:href="#id25">January</textPath></text><path d="M 100.0 79.0 l 0.0 -63.0 a84.0,84.0 0 0,0 1.441971699395419,0.012377592777739643 l -1.0814787745465644 62.990716805416696" fill="#4dd2ff" stroke="none" /><path d="M 100.72087961077811 79.0123766808444 l 0.5391492631952196 -15.696742534481883 a36.705999112498915,36.705999112498915 0 0,0 0.629550252939556,0.02703559664924228 l -0.8085252767356119 15.68517436940681" fill="#ff0100" stroke="none" /><path d="M 101.08105385017728 79.02784411241856 l 0.8432395063612271 -16.358621150162747 a37.38034000867016,37.38034000867016 0 0,0 0.6405488795870875,0.038533829972774006 l -1.123932738080777 16.341735342365283" fill="#ff0e01" stroke="none" /><path d="M 102.15924093988457 79.11130261209362 l 1.649298597815514 -15.955467810789255 a37.04048437316929,37.04048437316929 0 0,0 0.6319178922963465,0.07080771788639578 l -1.9229523917126572 15.924804332395889" fill="#ff0701" stroke="none" /><path d="M 102.51750503828377 79.15144685158666 l 1.87599720236591 -15.535948006071775 a36.6488033392541,36.6488033392541 0 0,0 0.623940952140293,0.08078164798760151 l -2.1424159763969945 15.501454761883778" fill="#ff0000" stroke="none" /><path d="M 102.87502721639298 79.19773525538626 l 2.312232950203399 -16.73016579011604 a37.889193840464245,37.889193840464245 0 0,0 0.6435297243646501,0.09457670831846339 l -2.599087780175731 16.688008008498695" fill="#ff1802" stroke="none" /><path d="M 104.29559338865022 79.4440306129975 l 3.4063102925211513 -16.30042784792031 a37.65253427662563,37.65253427662563 0 0,0 0.6315541753220872,0.13764429304698686 l -3.6856268844623727 16.239552096739605" fill="#ff1302" stroke="none" /><path d="M 104.64783097203109 79.52079915486377 l 4.937487775459372 -21.75548216630826 a43.30873797016244,43.30873797016244 0 0,0 0.723602076944503,0.17076811989259544 l -5.310222006143761 21.667517902769436" fill="#ff7b0b" stroke="none" /><path d="M 105.3480935250658 79.69241777938227 l 4.083379467039742 -15.505256943664136 a37.033932167777394,37.033932167777394 0 0,0 0.6133852573559976,0.16718087949545996 l -4.348946125330432 15.432875570024535" fill="#ff0701" stroke="none" /><path d="M 105.69591212413111 79.78721728523813 l 4.514474037936733 -16.020275736639576 a37.64420951914411,37.64420951914411 0 0,0 0.6204841055648015,0.1806138800976678 l -4.788818155883139 15.940418162239393" fill="#ff1302" stroke="none" /><path d="M 106.72888874123014 80.10723608172694 l 9.690221679516322 -28.647418555936685 a51.24194084573928,51.24194084573928 0 0,0 0.8308373851040398,0.28900837104747273 l -10.18056483666538 28.476851752320623" fill="#feff18" stroke="none" /><path d="M 107.06938296918511 80.22567764915836 l 15.162895147405894 -42.413316370576915 a66.04223345707751,66.04223345707751 0 0,0 1.0642575357555215,0.390810108632324 l -15.88874183481554 42.14677541293587" fill="#30ff34" stroke="none" /><path d="M 108.07796709384702 80.6158196554323 l 11.613766094947781 -27.868810784778958 a51.19188926625776,51.19188926625776 0 0,0 0.8082588055452584,0.3449976220478214 l -12.09045997566347 27.665338513071738" fill="#ffff18" stroke="none" /><line stroke="#e1ed5e" stroke-width="0.3" x1="143.13028292997686" x2="145.6673583964461" y1="26.7553504044142" y2="22.446841604673864" /><path d="M 143.63769802327073 25.89364864446614 a86.0,86.0 0 0,1 29.32050498858742,28.57503671076993" fill="none" id="id26" stroke="none" /><text fill="#e1ed5e" style="font-size:6.75px; font-family:Arial;" text-anchor="middle"><textPath startOffset="20.669276256404974" xlink:href="#id26">February</textPath></text><line stroke="#e1ed5e" stroke-width="0.3" x1="172.87174338648825" x2="177.1583165268699" y1="56.24261187166439" y2="53.66864786411523" /><path d="M 173.72905801456457 55.72781907015455 a86.0,86.0 0 0,1 12.242430191666344,42.057860355516425" fill="none" id="id27" stroke="none" /><text fill="#e1ed5e" style="font-size:6.75px; font-family:Arial;" text-anchor="middle"><textPath startOffset="22.145653131862474" xlink:href="#id27">March</textPath></text><line stroke="#e1ed5e" stroke-width="0.3" x1="184.99686870605535" x2="189.99668451229388" y1="99.2704041080226" y2="99.22748670261217" /><path d="M 185.99683186730306 99.26182062694052 a86.0,86.0 0 0,1 -10.086455211305974,41.156179273409016" fill="none" id="id28" stroke="none" /><text fill="#e1ed5e" style="font-size:6.75px; font-family:Arial;" text-anchor="middle"><textPath startOffset="21.40746469413373" xlink:href="#id28">April</textPath></text><line stroke="#e1ed5e" stroke-width="0.3" x1="174.33088141563837" x2="178.70328620479359" y1="141.23008692659167" y2="143.65538615756765" /><path d="M 175.20536237346943 141.71514677278685 a86.0,86.0 0 0,1 -30.301960400862466,31.631185727798858" fill="none" id="id29" stroke="none" /><text fill="#e1ed5e" style="font-size:6.75px; font-family:Arial;" text-anchor="middle"><textPath startOffset="22.145653131862474" xlink:href="#id29">May</textPath></text><line stroke="#e1ed5e" stroke-width="0.3" x1="143.1302829299769" x2="145.66735839644613" y1="173.24464959558577" y2="177.55315839532614" /><path d="M 143.63769802327073 174.10635135553383 a86.0,86.0 0 0,1 -40.68552437913181,11.842963189579606" fill="none" id="id30" stroke="none" /><text fill="#e1ed5e" style="font-size:6.75px; font-family:Arial;" text-anchor="middle"><textPath startOffset="21.407464694133747" xlink:href="#id30">June</textPath></text><line stroke="#e1ed5e" stroke-width="0.3" x1="101.45913802915013" x2="101.54496967792366" y1="184.9874750549273" y2="189.98673829345242" /><path d="M 101.47630435890484 185.9873277026323 a86.0,86.0 0 0,1 -42.54439059252881,-10.42667462771756" fill="none" id="id31" stroke="none" /><text fill="#e1ed5e" style="font-size:6.75px; font-family:Arial;" text-anchor="middle"><textPath startOffset="22.145653131862474" xlink:href="#id31">July</textPath></text><line stroke="#e1ed5e" stroke-width="0.3" x1="58.13341422392154" x2="55.67067388415222" y1="173.97424548756322" y2="178.32567169271397" /><path d="M 57.64086615596768 174.84453072859336 a86.0,86.0 0 0,1 -31.369924170532247,-30.572349798747897" fill="none" id="id32" stroke="none" /><text fill="#e1ed5e" style="font-size:6.75px; font-family:Arial;" text-anchor="middle"><textPath startOffset="22.145653131862474" xlink:href="#id32">August</textPath></text><line stroke="#e1ed5e" stroke-width="0.3" x1="26.387840678322732" x2="22.057713659400548" y1="142.50000000000003" y2="145.00000000000006" /><path d="M 25.521815274538298 143.00000000000003 a86.0,86.0 0 0,1 -11.493303480769221,-40.785679425670985" fill="none" id="id33" stroke="none" /><text fill="#e1ed5e" style="font-size:6.75px; font-family:Arial;" text-anchor="middle"><textPath startOffset="21.40746469413373" xlink:href="#id33">September</textPath></text><line stroke="#e1ed5e" stroke-width="0.3" x1="15.003131293944662" x2="10.003315487706104" y1="100.72959589197737" y2="100.7725132973878" /><path d="M 14.003168132696942 100.73817937305945 a86.0,86.0 0 0,1 10.791469493833604,-42.45332614584628" fill="none" id="id34" stroke="none" /><text fill="#e1ed5e" style="font-size:6.75px; font-family:Arial;" text-anchor="middle"><textPath startOffset="22.145653131862435" xlink:href="#id34">October</textPath></text><line stroke="#e1ed5e" stroke-width="0.3" x1="26.387840678322718" x2="22.05771365940052" y1="57.49999999999999" y2="54.99999999999999" /><path d="M 25.521815274538284 56.99999999999999 a86.0,86.0 0 0,1 29.574782752854787,-30.34633250058573" fill="none" id="id35" stroke="none" /><text fill="#e1ed5e" style="font-size:6.75px; font-family:Arial;" text-anchor="middle"><textPath startOffset="21.40746469413373" xlink:href="#id35">November</textPath></text><line stroke="#e1ed5e" stroke-width="0.3" x1="56.869717070023135" x2="54.33264160355391" y1="26.7553504044142" y2="22.446841604673864" /><path d="M 56.362301976729285 25.89364864446614 a86.0,86.0 0 0,1 42.16139366436587,-11.88097634709845" fill="none" id="id36" stroke="none" /><text fill="#e1ed5e" style="font-size:6.75px; font-family:Arial;" text-anchor="middle"><textPath startOffset="22.145653131862474" xlink:href="#id36">December</textPath></text></svg>