<?xml version="1.0" encoding="utf-8" ?>
<svg baseProfile="full" height="200mm" version="1.1" viewBox="0,0,200,200" width="200mm" xmlns="http://www.w3.org/2000/svg" xmlns:ev="http://www.w3.org/2001/xml-events" xmlns:xlink="http://www.w3.org/1999/xlink"><defs /><rect fill="#1a1a1a" height="200" width="200" x="0" y="0" /><text alignment-baseline="middle" fill="#e1ed5e" style="dominant-baseline: central; font-size:9.0px; font-family:Arial;" text-anchor="middle" x="100.0" y="100.0">2026</text><line stroke="#e1ed5e" stroke-width="0.3" x1="100.0" x2="100.0" y1="15.0" y2="10.0" /><path d="M 100.0 14.0 a86.0,86.0 0 0,1 42.46469731375804,11.215312516191453" fill="none" id="id49" stroke="none" /><text fill="#e1ed5e" style="font-size:6.75px; font-family:Arial;" text-anchor="middle"><textPath startOffset="22.20632615414155" xlink:href="#id49">January</textPath></text><path d="M 100.0 79.0 l 0.0 -37.22724372501663 a58.22724372501663,58.22724372501663 0 0,0 1.0022862842113014,0.008626994481279663 l -0.6408058049387731 37.22172810714391" fill="#91ff24" stroke="none" /><path d="M 100.72285384407766 79.0124445844662 l 1.136218650434182 -32.989313241569285 a54.008874276048445,54.008874276048445 0 0,0 0.9288476227203286,0.03999813251721371 l -1.7039071055438422 32.96486738252787" fill="#ceff1d" stroke="none" /><path d="M 103.59715602781102 79.31037775812273 l 3.3332206031401737 -19.171555138179116 a40.45915943727889,40.45915943727889 0 0,0 0.6851178329510469,0.12520090480882348 l -3.6627335571941213 19.111338752019552" fill="#ff5007" stroke="none" /><path d="M 106.0581310904928 79.89281104454417 l 5.396804981098435 -17.91222010381827 a39.70756887069082,39.70756887069082 0 0,0 0.6527444565837628,0.20281088005777725 l -5.704334810392916 17.816669088877973" fill="#ff4306" stroke="none" /><path d="M 110.36928655335952 81.73862282372117 l 7.6573778391691585 -13.485427775842727 a36.50781085999147,36.50781085999147 0 0,0 0.5437982155972907,0.3150030262200407 l -7.888372787231778 13.351620592232637" fill="#ff0801" stroke="none" /><line stroke="#e1ed5e" stroke-width="0.3" x1="143.23703022742887" x2="145.7803849466894" y1="26.81831364943548" y2="22.513508569990506" /><path d="M 143.74570117128098 25.957352633546492 a86.0,86.0 0 0,1 28.547481713284135,27.462654790039103" fill="none" id="id50" stroke="none" /><text fill="#e1ed5e" style="font-size:6.75px; font-family:Arial;" text-anchor="middle"><textPath startOffset="19.985693538727396" xlink:href="#id50">February</textPath></text><path d="M 110.68208982089419 81.91981866633111 l 15.112511010324955 -25.578977901804436 a50.709798039337,50.709798039337 0 0,0 0.7476989089248193,0.4504802265670103 l -15.55057198546741 25.315051065778814" fill="#fffd17" stroke="none" /><path d="M 112.77801427241765 83.33499621200491 l 23.751009192549233 -30.975912980229474 a60.033544838040356,60.033544838040356 0 0,0 0.8146478989151491,0.6358456068341304 l -24.280689646623813 30.56248898417212" fill="#78ff26" stroke="none" /><path d="M 114.68862486808459 84.99185889309783 l 10.83287443174497 -11.06851795352454 a36.487519431511586,36.487519431511586 0 0,0 0.4450855342405922,0.44317419550884607 l -11.021795766152886 10.880407907365575" fill="#ff0701" stroke="none" /><path d="M 115.19652480421416 85.50635884689758 l 11.199337410666391 -10.681335349625527 a36.476307159303595,36.476307159303595 0 0,0 0.4294350049344097,0.45809132177420575 l -11.381539737571265 10.486974610973267" fill="#ff0701" stroke="none" /><path d="M 115.4437574822437 85.77008943001954 l 21.921574860601233 -20.198585103278127 a50.80835930646491,50.80835930646491 0 0,0 0.5870938807418637,0.6482837266464067 l -22.266012381959133 19.81824858936217" fill="#ffff18" stroke="none" /><path d="M 115.9244219780498 86.31012108654704 l 42.54604330475345 -36.57590723804286 a77.10670896760807,77.10670896760807 0 0,0 0.8565798490990801,1.013920362140861 l -43.169333767339644 35.83812792627289" fill="#42ffd6" stroke="none" /><path d="M 116.60985879189232 87.15038557335679 l 49.829576375676965 -38.54884327992963 a84.0,84.0 0 0,0 0.874896239103546,1.1512608964758657 l -50.48574855500462 37.68539760757273" fill="#4dd2ff" stroke="none" /><path d="M 117.2510076193507 88.02491185347247 l 12.722383922731833 -8.831464936447155 a36.48721490782255,36.48721490782255 0 0,0 0.3537097271961777,0.5190253791724879 l -12.872518115596744 8.61116153400426" fill="#ff0701" stroke="none" /><line stroke="#e1ed5e" stroke-width="0.3" x1="172.23445277983987" x2="176.4835382374775" y1="55.19839476539836" y2="52.563006222186495" /><path d="M 173.08426987136738 54.67131705675599 a86.0,86.0 0 0,1 12.851231095245387,41.99856678651699" fill="none" id="id51" stroke="none" /><text fill="#e1ed5e" style="font-size:6.75px; font-family:Arial;" text-anchor="middle"><textPath startOffset="22.20632615414155" xlink:href="#id51">March</textPath></text><path d="M 117.84615892207809 88.93136811851018 l 40.551121540463 -25.150814731211177 a68.71746996471116,68.71746996471116 0 0,0 0.6148060470528638,1.0105794889893926 l -40.97804338580209 24.4490674690147" fill="#34ff60" stroke="none" /><path d="M 118.3937258080291 89.86733742301442 l 15.663138180878418 -8.62844731621813 a38.88250543861355,38.88250543861355 0 0,0 0.31789577456685425,0.5890125902715271 l -15.809342054663738 8.357553742614146" fill="#ff3404" stroke="none" /><path d="M 118.89224826269711 90.83032412892265 l 43.64802866534781 -21.185317369717477 a69.51770891568023,69.51770891568023 0 0,0 0.5132452928700053,1.0810254806527908 l -44.00623215205957 20.430849473424146" fill="#36ff6c" stroke="none" /><path d="M 119.04729006885535 91.15688171328212 l 16.212953137572377 -7.527215780002155 a38.875089561728956,38.875089561728956 0 0,0 0.2765642051602229,0.6093725660959444 l -16.340119659695947 7.247021205064148" fill="#ff3404" stroke="none" /><path d="M 119.47837535516314 92.15188598940014 l 14.362554445580722 -5.786877124866928 a36.484537999584575,36.484537999584575 0 0,0 0.22969005967291825,0.5845361483751332 l -14.46003805513534 5.53879197159601" fill="#ff0701" stroke="none" /><path d="M 119.85752413597 93.16781622104841 l 46.81397679629029 -16.10682634480438 a70.50735580078268,70.50735580078268 0 0,0 0.38497924881497275,1.1510389528730813 l -47.08429333887703 15.298614289008983" fill="#37ff7a" stroke="none" /><path d="M 120.53481517161879 95.60439243477599 l 47.5791194711688 -10.184612607724786 a69.65695164743863,69.65695164743863 0 0,0 0.2408827082405719,1.1746296331336266 l -47.74738147532437 9.364107318427747" fill="#36ff6e" stroke="none" /><path d="M 120.78858239683441 97.02765380044208 l 15.34047309978246 -2.1933769242727252 a36.49648402887188,36.49648402887188 0 0,0 0.08356652249666391,0.6226676574607007 l -15.37595562133696 1.92899092474736" fill="#ff0701" stroke="none" /><path d="M 120.91429891909075 98.10471618934814 l 37.23302817021586 -3.3741104966296818 a58.38559894354449,58.38559894354449 0 0,0 0.08208880696743395,1.0016913683260893 l -37.28559146100279 2.7327052110958236" fill="#8fff24" stroke="none" /><line stroke="#e1ed5e" stroke-width="0.3" x1="184.98032266829074" x2="189.97916517819016" y1="98.17113171792111" y2="98.06355123074" /><path d="M 185.9800911702706 98.14961562048488 a86.0,86.0 0 0,1 -9.607161424134198,41.387399972396054" fill="none" id="id52" stroke="none" /><text fill="#e1ed5e" style="font-size:6.75px; font-family:Arial;" text-anchor="middle"><textPath startOffset="21.466115282336823" xlink:href="#id52">April</textPath></text><path d="M 120.99980553446 99.90962569577887 l 15.49997737657801 -0.06670536394029117 a36.50012091178674,36.50012091178674 0 0,0 -0.0027039684302825892,0.628307035906209 l -15.498829110858225 -0.20011115016960246" fill="#ff0701" stroke="none" /><path d="M 120.9904718944345 100.63252640178507 l 15.096934800671121 0.4549306892897548 a36.10378768083597,36.10378768083597 0 0,0 -0.02406552492974803,0.6210242656806371 l -15.086867142890169 -0.714732201984398" fill="#ff0000" stroke="none" /><path d="M 120.9764740272857 100.99374915477107 l 30.193338125974964 1.4303931253353295 a51.22720118837435,51.22720118837435 0 0,0 -0.04930898427789244,0.8804450381838056 l -30.164242790809542 -1.9499098798545584" fill="#f9ff18" stroke="none" /><path d="M 120.95626037817324 101.35467743843564 l 16.635672099180027 1.0753812588358824 a37.67039384787571,37.67039384787571 0 0,0 -0.04739911628241136,0.6467232829002852 l -16.614696424233276 -1.361577678232938" fill="#ff1d03" stroke="none" /><path d="M 120.8583938346157 102.4346265915055 l 15.401773093333814 1.7977206982799987 a36.50633464515602,36.50633464515602 0 0,0 -0.07822523628388195,0.6235320996790685 l -15.368546347803084 -2.062570552246462" fill="#ff0801" stroke="none" /><path d="M 120.76222939487914 103.15116336523771 l 62.28319570597164 9.452960028800922 a83.9964675252071,83.9964675252071 0 0,0 -0.22926334087589903,1.427623042483172 l -62.11125061073446 -10.523662300977298" fill="#4dd2ff" stroke="none" /><path d="M 120.49622156327973 104.57218783832717 l 15.119336689470614 3.3727410255468366 a36.49095619885935,36.49095619885935 0 0,0 -0.14203571944513088,0.6118861619494786 l -15.059040404094931 -3.63249584484488" fill="#ff0701" stroke="none" /><path d="M 120.23288151984713 105.62410040840565 l 14.908903968435483 4.144203227578248 a36.47416679280346,36.47416679280346 0 0,0 -0.17335192425553855,0.6034607899694561 l -14.835359407293845 -4.400221493052286" fill="#ff0701" stroke="none" /><path d="M 120.13307415673323 105.97154293290107 l 29.264454695849064 8.679943572639015 a51.52457582128865,51.52457582128865 0 0,0 -0.25952003237477045,0.8481264815293298 l -29.11070789096816 -9.182397026720402" fill="#f4ff19" stroke="none" /><path d="M 119.67450827220406 107.3425965602758 l 14.529999012915109 5.422647381930694 a36.508899894708,36.508899894708 0 0,0 -0.22480045724446493,0.5868830573953018 l -14.434504276077137 -5.671954006159139" fill="#ff0801" stroke="none" /><line stroke="#e1ed5e" stroke-width="0.3" x1="174.80103733775053" x2="179.2010983576182" y1="140.37084112569926" y2="142.7455964860345" /><path d="M 175.68104954172406 140.8457921977663 a86.0,86.0 0 0,1 -30.038265399797805,32.042727171017184" fill="none" id="id53" stroke="none" /><text fill="#e1ed5e" style="font-size:6.75px; font-family:Arial;" text-anchor="middle"><textPath startOffset="22.206326154141568" xlink:href="#id53">May</textPath></text><line stroke="#e1ed5e" stroke-width="0.3" x1="143.8653032363475" x2="146.44561519142675" y1="172.8068346515853" y2="177.08958963109032" /><path d="M 144.38136562736335 173.6633856474863 a86.0,86.0 0 0,1 -40.68145358897372,12.25698825130547" fill="none" id="id54" stroke="none" /><text fill="#e1ed5e" style="font-size:6.75px; font-family:Arial;" text-anchor="middle"><textPath startOffset="21.466115282336833" xlink:href="#id54">June</textPath></text><line stroke="#e1ed5e" stroke-width="0.3" x1="102.19456741930631" x2="102.32365962044197" y1="184.97166512339345" y2="189.96999836594603" /><path d="M 102.22038585953345 185.97133177190398 a86.0,86.0 0 0,1 -42.740103519485714,-10.115201625700543" fill="none" id="id55" stroke="none" /><text fill="#e1ed5e" style="font-size:6.75px; font-family:Arial;" text-anchor="middle"><textPath startOffset="22.20632615414155" xlink:href="#id55">July</textPath></text><line stroke="#e1ed5e" stroke-width="0.3" x1="58.666819895761336" x2="56.23545636021788" y1="174.27360380694188" y2="178.64263932499728" /><path d="M 58.180547188652646 175.14741091055294 a86.0,86.0 0 0,1 -31.652253787137756,-30.449443065178592" fill="none" id="id56" stroke="none" /><text fill="#e1ed5e" style="font-size:6.75px; font-family:Arial;" text-anchor="middle"><textPath startOffset="22.20632615414155" xlink:href="#id56">August</textPath></text><line stroke="#e1ed5e" stroke-width="0.3" x1="26.63291911575756" x2="22.317208475507996" y1="142.92168965132927" y2="145.44649492493687" /><path d="M 25.769776987707644 143.4266507060508 a86.0,86.0 0 0,1 -11.730757126820373,-40.83630448921669" fill="none" id="id57" stroke="none" /><text fill="#e1ed5e" style="font-size:6.75px; font-family:Arial;" text-anchor="middle"><textPath startOffset="21.46611528233685" xlink:href="#id57">September</textPath></text><line stroke="#e1ed5e" stroke-width="0.3" x1="15.007084014347285" x2="10.007500721073583" y1="101.09737516637583" y2="101.16192664675087" /><path d="M 14.007167355692545 101.11028546245083 a86.0,86.0 0 0,1 10.666146001902534,-42.60595125391555" fill="none" id="id58" stroke="none" /><text fill="#e1ed5e" style="font-size:6.75px; font-family:Arial;" text-anchor="middle"><textPath startOffset="22.20632615414155" xlink:href="#id58">October</textPath></text><line stroke="#e1ed5e" stroke-width="0.3" x1="26.266209847984243" x2="21.928928074336255" y1="57.711370442889674" y2="55.22380399835377" /><path d="M 25.398753493254645 57.213857153982495 a86.0,86.0 0 0,1 29.58750427330803,-30.492523968695096" fill="none" id="id59" stroke="none" /><text fill="#e1ed5e" style="font-size:6.75px; font-family:Arial;" text-anchor="middle"><textPath startOffset="21.46611528233685" xlink:href="#id59">November</textPath></text><line stroke="#e1ed5e" stroke-width="0.3" x1="56.762969772571076" x2="54.21961505331055" y1="26.818313649435495" y2="22.513508569990535" /><path d="M 56.25429882871897 25.957352633546506 a86.0,86.0 0 0,1 42.265352541879196,-11.944610805530505" fill="none" id="id60" stroke="none" /><text fill="#e1ed5e" style="font-size:6.75px; font-family:Arial;" text-anchor="middle"><textPath startOffset="22.20632615414155" xlink:href="#id60">December</textPath></text></svg>