<?xml version="1.0" encoding="utf-8" ?>
<svg baseProfile="full" height="200mm" version="1.1" viewBox="0,0,200,200" width="200mm" xmlns="http://www.w3.org/2000/svg" xmlns:ev="http://www.w3.org/2001/xml-events" xmlns:xlink="http://www.w3.org/1999/xlink"><defs /><rect fill="#1a1a1a" height="200" width="200" x="0" y="0" /><text alignment-baseline="middle" fill="#e1ed5e" style="dominant-baseline: central; font-size:9.0px; font-family:Arial;" text-anchor="middle" x="100.0" y="100.0">2025</text><line stroke="#e1ed5e" stroke-width="0.3" x1="100.0" x2="100.0" y1="15.0" y2="10.0" /><path d="M 100.0 14.0 a86.0,86.0 0 0,1 42.46469731375804,11.215312516191453" fill="none" id="id37" stroke="none" /><text fill="#e1ed5e" style="font-size:6.75px; font-family:Arial;" text-anchor="middle"><textPath startOffset="22.20632615414155" xlink:href="#id37">January</textPath></text><path d="M 100.0 79.0 l 0.0 -63.0 a84.0,84.0 0 0,0 1.4459219170901134,0.012445506434235476 l -1.084441437817585 62.990665870174325" fill="#4dd2ff" stroke="none" /><path d="M 101.44485096284872 79.0497635885617 l 1.7686943952162988 -25.6459431956285 a46.70686060679276,46.70686060679276 0 0,0 0.8016005136558907,0.06221962759404582 l -2.2098850982345306 25.61169830584599" fill="#e3ff1b" stroke="none" /><path d="M 103.2404852339499 79.25152402106235 l 3.9531063234545076 -25.311311631685825 a46.61814876451556,46.61814876451556 0 0,0 0.7917777203893228,0.1306501080775362 l -4.388213249982706 25.239515260668664" fill="#e4ff1a" stroke="none" /><path d="M 106.0581310904928 79.89281104454417 l 2.1803185930306483 -7.236568056765958 a28.55789034104892,28.55789034104892 0 0,0 0.4694572128692087,0.1458626412390798 l -2.3045611786105753 7.1979652806443575" fill="#ff1802" stroke="none" /><line stroke="#e1ed5e" stroke-width="0.3" x1="143.23703022742887" x2="145.7803849466894" y1="26.81831364943548" y2="22.513508569990506" /><path d="M 143.74570117128098 25.957352633546492 a86.0,86.0 0 0,1 28.547481713284135,27.462654790039103" fill="none" id="id38" stroke="none" /><text fill="#e1ed5e" style="font-size:6.75px; font-family:Arial;" text-anchor="middle"><textPath startOffset="19.985693538727396" xlink:href="#id38">February</textPath></text><path d="M 111.60114157652 82.49532879139004 l 5.97773471430205 -9.019653803547472 a31.82069623686111,31.82069623686111 0 0,0 0.4539681530132861,0.3065213233847399 l -6.132107561721878 8.91542056786406" fill="#ff4a06" stroke="none" /><path d="M 113.06298171725822 83.55741782278167 l 8.802058926517324 -11.07929111136781 a35.15015663787214,35.15015663787214 0 0,0 0.47050426527769773,0.38044839447614853 l -8.991466590359513 10.926136619627531" fill="#ff7c0b" stroke="none" /><path d="M 116.60985879189232 87.15038557335679 l 16.039986777962746 -12.408753625640854 a41.27950547668939,41.27950547668939 0 0,0 0.4299438582572592,0.5657557200139742 l -16.25120657644412 12.130813129745846" fill="#ffd313" stroke="none" /><line stroke="#e1ed5e" stroke-width="0.3" x1="172.23445277983987" x2="176.4835382374775" y1="55.19839476539836" y2="52.563006222186495" /><path d="M 173.08426987136738 54.67131705675599 a86.0,86.0 0 0,1 12.851231095245387,41.99856678651699" fill="none" id="id39" stroke="none" /><text fill="#e1ed5e" style="font-size:6.75px; font-family:Arial;" text-anchor="middle"><textPath startOffset="22.20632615414155" xlink:href="#id39">March</textPath></text><path d="M 119.196687751892 91.48605970444005 l 23.123066943623087 -10.255332271518537 a46.29521822160316,46.29521822160316 0 0,0 0.31681204515737055,0.7312458802693172 l -23.29616969862314 9.855787246662617" fill="#e8ff1a" stroke="none" /><path d="M 120.08093135843002 93.85539295169968 l 24.460228013527896 -7.484637379224978 a46.579729302169454,46.579729302169454 0 0,0 0.2280057850664887,0.7687221594968333 l -24.585439695706086 7.062485832981615" fill="#e4ff1a" stroke="none" /><path d="M 120.37134235888165 94.90015583598534 l 14.767930150173521 -3.6970633090412117 a36.22366703627818,36.22366703627818 0 0,0 0.14621803899760777,0.6061681695238335 l -14.829380989431948 3.4423099078579718" fill="#ff8c0c" stroke="none" /><path d="M 120.67395015179393 96.31383870115 l 24.841421272452198 -4.429220590676353 a46.23319650532433,46.23319650532433 0 0,0 0.13294936537744126,0.7846746802897204 l -24.913982499349864 4.000960122070795" fill="#e9ff1a" stroke="none" /><path d="M 120.78858239683441 97.02765380044208 l 25.007475707066238 -3.575562487115711 a46.26179899252579,46.26179899252579 0 0,0 0.10592630411156204,0.7892740020053991 l -25.065318010235636 3.1445701430456476" fill="#e9ff1a" stroke="none" /><path d="M 120.91429891909075 98.10471618934814 l 25.234491611255507 -2.2867858782101638 a46.33789566107071,46.33789566107071 0 0,0 0.06515001371959558,0.7949951863124902 l -25.270116108794596 1.8520767746899047" fill="#e8ff1a" stroke="none" /><path d="M 120.96714384426684 98.82574320788733 l 25.087756751281 -1.405030126319156 a46.127070033478034,46.127070033478034 0 0,0 0.03757465385874382,0.7931415558624749 l -25.10822501337324 0.9729774638336814" fill="#eaff1a" stroke="none" /><line stroke="#e1ed5e" stroke-width="0.3" x1="184.98032266829074" x2="189.97916517819016" y1="98.17113171792111" y2="98.06355123074" /><path d="M 185.9800911702706 98.14961562048488 a86.0,86.0 0 0,1 -9.607161424134198,41.387399972396054" fill="none" id="id40" stroke="none" /><text fill="#e1ed5e" style="font-size:6.75px; font-family:Arial;" text-anchor="middle"><textPath startOffset="21.466115282336823" xlink:href="#id40">April</textPath></text><path d="M 120.99513854157772 99.54816195383933 l 19.10189227161838 -0.4110933426272601 a40.10631534579251,40.10631534579251 0 0,0 0.008913137535879486,0.6903323247760594 l -19.106138416271975 0.082224759790738" fill="#ffc312" stroke="none" /><path d="M 120.9764740272857 100.99374915477107 l 6.026561965464194 0.2855051259599338 a27.03332100095205,27.03332100095205 0 0,0 -0.026021050717049046,0.46462334050605614 l -6.020754563859616 -0.38920018280141333" fill="#ff0000" stroke="none" /><path d="M 119.79798401119884 107.00284435728193 l 23.700122781622397 8.383089459729453 a46.139053457793594,46.139053457793594 0 0,0 -0.2712882724866863,0.746468812206536 l -23.552310248130485 -8.78980606894212" fill="#eaff1a" stroke="none" /><path d="M 119.54520255179757 107.68017299344265 l 23.398456617425392 9.194286635052679 a46.14006123312046,46.14006123312046 0 0,0 -0.2968286500284956,0.7367043666303136 l -23.2367253531395 -9.595690369525807" fill="#eaff1a" stroke="none" /><path d="M 119.26925614724726 108.34839909993367 l 23.118015513037587 10.015872871608831 a46.19445079062602,46.19445079062602 0 0,0 -0.3223908856813687,0.726906338503288 l -22.942183542624946 -10.412327546604807" fill="#e9ff1a" stroke="none" /><line stroke="#e1ed5e" stroke-width="0.3" x1="174.80103733775053" x2="179.2010983576182" y1="140.37084112569926" y2="142.7455964860345" /><path d="M 175.68104954172406 140.8457921977663 a86.0,86.0 0 0,1 -30.038265399797805,32.042727171017184" fill="none" id="id41" stroke="none" /><text fill="#e1ed5e" style="font-size:6.75px; font-family:Arial;" text-anchor="middle"><textPath startOffset="22.206326154141568" xlink:href="#id41">May</textPath></text><path d="M 118.48025628344425 109.97397251340804 l 22.100078752549884 11.927625604389295 a46.11337757903922,46.11337757903922 0 0,0 -0.3830124233168703,0.6952788017989271 l -21.891489919781506 -12.306274924586027" fill="#eaff1a" stroke="none" /><line stroke="#e1ed5e" stroke-width="0.3" x1="143.8653032363475" x2="146.44561519142675" y1="172.8068346515853" y2="177.08958963109032" /><path d="M 144.38136562736335 173.6633856474863 a86.0,86.0 0 0,1 -40.68145358897372,12.25698825130547" fill="none" id="id42" stroke="none" /><text fill="#e1ed5e" style="font-size:6.75px; font-family:Arial;" text-anchor="middle"><textPath startOffset="21.466115282336833" xlink:href="#id42">June</textPath></text><line stroke="#e1ed5e" stroke-width="0.3" x1="102.19456741930631" x2="102.32365962044197" y1="184.97166512339345" y2="189.96999836594603" /><path d="M 102.22038585953345 185.97133177190398 a86.0,86.0 0 0,1 -42.740103519485714,-10.115201625700543" fill="none" id="id43" stroke="none" /><text fill="#e1ed5e" style="font-size:6.75px; font-family:Arial;" text-anchor="middle"><textPath startOffset="22.20632615414155" xlink:href="#id43">July</textPath></text><line stroke="#e1ed5e" stroke-width="0.3" x1="58.666819895761336" x2="56.23545636021788" y1="174.27360380694188" y2="178.64263932499728" /><path d="M 58.180547188652646 175.14741091055294 a86.0,86.0 0 0,1 -31.652253787137756,-30.449443065178592" fill="none" id="id44" stroke="none" /><text fill="#e1ed5e" style="font-size:6.75px; font-family:Arial;" text-anchor="middle"><textPath startOffset="22.20632615414155" xlink:href="#id44">August</textPath></text><line stroke="#e1ed5e" stroke-width="0.3" x1="26.63291911575756" x2="22.317208475507996" y1="142.92168965132927" y2="145.44649492493687" /><path d="M 25.769776987707644 143.4266507060508 a86.0,86.0 0 0,1 -11.730757126820373,-40.83630448921669" fill="none" id="id45" stroke="none" /><text fill="#e1ed5e" style="font-size:6.75px; font-family:Arial;" text-anchor="middle"><textPath startOffset="21.46611528233685" xlink:href="#id45">September</textPath></text><line stroke="#e1ed5e" stroke-width="0.3" x1="15.007084014347285" x2="10.007500721073583" y1="101.09737516637583" y2="101.16192664675087" /><path d="M 14.007167355692545 101.11028546245083 a86.0,86.0 0 0,1 10.666146001902534,-42.60595125391555" fill="none" id="id46" stroke="none" /><text fill="#e1ed5e" style="font-size:6.75px; font-family:Arial;" text-anchor="middle"><textPath startOffset="22.20632615414155" xlink:href="#id46">October</textPath></text><line stroke="#e1ed5e" stroke-width="0.3" x1="26.266209847984243" x2="21.928928074336255" y1="57.711370442889674" y2="55.22380399835377" /><path d="M 25.398753493254645 57.213857153982495 a86.0,86.0 0 0,1 29.58750427330803,-30.492523968695096" fill="none" id="id47" stroke="none" /><text fill="#e1ed5e" style="font-size:6.75px; font-family:Arial;" text-anchor="middle"><textPath startOffset="21.46611528233685" xlink:href="#id47">November</textPath></text><line stroke="#e1ed5e" stroke-width="0.3" x1="56.762969772571076" x2="54.21961505331055" y1="26.818313649435495" y2="22.513508569990535" /><path d="M 56.25429882871897 25.957352633546506 a86.0,86.0 0 0,1 42.265352541879196,-11.944610805530505" fill="none" id="id48" stroke="none" /><text fill="#e1ed5e" style="font-size:6.75px; font-family:Arial;" text-anchor="middle"><textPath startOffset="22.20632615414155" xlink:href="#id48">December</textPath></text></svg>