<?xml version="1.0" encoding="utf-8" ?>
<svg baseProfile="full" height="200mm" version="1.1" viewBox="0,0,200,200" width="200mm" xmlns="http://www.w3.org/2000/svg" xmlns:ev="http://www.w3.org/2001/xml-events" xmlns:xlink="http://www.w3.org/1999/xlink"><defs /><rect fill="#1a1a1a" height="200" width="200" x="0" y="0" /><text alignment-baseline="middle" fill="#e1ed5e" style="dominant-baseline: central; font-size:9.0px; font-family:Arial;" text-anchor="middle" x="100.0" y="100.0">2024</text><line stroke="#e1ed5e" stroke-width="0.3" x1="100.0" x2="100.0" y1="15.0" y2="10.0" /><path d="M 100.0 14.0 a86.0,86.0 0 0,1 42.35913384403234,11.155469271406648" fill="none" id="id25" stroke="none" /><text fill="#e1ed5e" style="font-size:6.75px; font-family:Arial;" text-anchor="middle"><textPath startOffset="22.145653131862478" xlink:href="#id25">January</textPath></text><path d="M 100.0 79.0 l 0.0 -44.33779812721707 a65.33779812721707,65.33779812721707 0 0,0 1.1216101880983098,0.009627674502533962 l -0.7611172632494552 44.33126485090897" fill="#31ff43" stroke="none" /><path d="M 100.72087961077811 79.0123766808444 l 0.3794395427299599 -11.046968281726338 a32.05348282597186,32.05348282597186 0 0,0 0.5497542284256464,0.023608812015453496 l -0.5690195317564425 11.038826901285054" fill="#ff0200" stroke="none" /><path d="M 101.08105385017728 79.02784411241856 l 0.5934505239037818 -11.512781622151417 a32.528066802533246,32.528066802533246 0 0,0 0.5574004072906735,0.03353182435529276 l -0.7909952833269177 11.500897819971433" fill="#ff0a01" stroke="none" /><path d="M 102.15924093988457 79.11130261209362 l 1.160734417165816 -11.229052552699743 a32.28888504762476,32.28888504762476 0 0,0 0.550854680471562,0.06172441591974934 l -1.3533249992381746 11.207472376273023" fill="#ff0600" stroke="none" /><path d="M 102.51750503828377 79.15144685158666 l 1.3202791308845032 -10.93380518108176 a32.01322989505347,32.01322989505347 0 0,0 0.5450209371614447,0.07056387201484556 l -1.5077778899367396 10.909529712866517" fill="#ff0100" stroke="none" /><path d="M 102.87502721639298 79.19773525538626 l 1.627290758241553 -11.774265292651394 a32.88618519095145,32.88618519095145 0 0,0 0.5585560299975629,0.08208850147637442 l -1.8291718938467978 11.744595717876138" fill="#ff1001" stroke="none" /><path d="M 104.29559338865022 79.4440306129975 l 2.3972745731502307 -11.471826655688224 a32.71963020735857,32.71963020735857 0 0,0 0.5488134987312172,0.11961134768680222 l -2.593850488500582 11.428983849867702" fill="#ff0d01" stroke="none" /><path d="M 104.64783097203109 79.52079915486377 l 3.4748783530780907 -15.31095518174677 a36.70032254911182,36.70032254911182 0 0,0 0.6131887204694475,0.1447108684044654 l -3.737199227287423 15.249048169696078" fill="#ff5007" stroke="none" /><path d="M 105.3480935250658 79.69241777938227 l 2.8737786426417666 -10.912205591727162 a32.28427377206994,32.28427377206994 0 0,0 0.5347176607258194,0.1457396762146412 l -3.060677704302279 10.86126542136838" fill="#ff0600" stroke="none" /><path d="M 105.69591212413111 79.78721728523813 l 3.177172040390497 -11.274662723071096 a32.713771454712955,32.713771454712955 0 0,0 0.539216402204065,0.15695803605755648 l -3.370248454976166 11.218460992711023" fill="#ff0d01" stroke="none" /><path d="M 106.72888874123014 80.10723608172694 l 6.819731629117093 -20.161324774587502 a42.283509018946475,42.283509018946475 0 0,0 0.6855852742206516,0.2384821468906744 l -7.164822675382762 20.041284195128238" fill="#ffaa0f" stroke="none" /><path d="M 107.06938296918511 80.22567764915836 l 10.671260064600661 -29.849413637213168 a52.699578638394996,52.699578638394996 0 0,0 0.8492432911661628,0.31185389976149724 l -11.182092507420949 29.661828888442948" fill="#bdff1f" stroke="none" /><path d="M 108.07796709384702 80.6158196554323 l 8.173473279595441 -19.613360422557772 a42.248283989946486,42.248283989946486 0 0,0 0.667049957395473,0.2847239615698225 l -8.508958312161345 19.47016181132855" fill="#ffa90f" stroke="none" /><path d="M 109.06512990194946 81.05736502329252 l 19.95307123075029 -41.69424476830333 a67.22266866309846,67.22266866309846 0 0,0 1.0366367744664982,0.5070709929227846 l -20.665868254478852 41.345580025283326" fill="#34ff5e" stroke="none" /><path d="M 109.3889696526874 81.21577127319529 l 4.900240550962428 -9.80376364293554 a31.960207070299415,31.960207070299415 0 0,0 0.4886453561271597,0.24950580057453628 l -5.0678131288031665 9.718199890688169" fill="#ff0000" stroke="none" /><path d="M 110.34350942703115 81.72400993836675 l 10.928991336740637 -19.310480496296872 a43.188679740723956,43.188679740723956 0 0,0 0.6420871961056704,0.3707092155148209 l -11.258871000706705 19.12002438350588" fill="#ffb811" stroke="none" /><line stroke="#e1ed5e" stroke-width="0.3" x1="143.13028292997686" x2="145.6673583964461" y1="26.7553504044142" y2="22.446841604673864" /><path d="M 143.63769802327073 25.89364864446614 a86.0,86.0 0 0,1 29.32050498858742,28.57503671076993" fill="none" id="id26" stroke="none" /><text fill="#e1ed5e" style="font-size:6.75px; font-family:Arial;" text-anchor="middle"><textPath startOffset="20.669276256404974" xlink:href="#id26">February</textPath></text><path d="M 110.96478420261332 82.08984904055464 l 11.669559583791807 -19.061348578674274 a43.34980157668956,43.34980157668956 0 0,0 0.6313297300952354,0.3939964445243797 l -11.995053442676756 18.85821633730835" fill="#ffba11" stroke="none" /><path d="M 111.8722381534696 82.67804972795209 l 12.758774986722374 -18.615434006237958 a43.56813511131155,43.56813511131155 0 0,0 0.6132835527289773,0.428119549805801 l -13.076453630625112 18.39366964062703" fill="#ffbe11" stroke="none" /><path d="M 112.16784306229584 82.88440491214696 l 12.660323383639993 -17.808330334823907 a42.84995234531533,42.84995234531533 0 0,0 0.5958571328286957,0.43135461297619854 l -12.964161526842656 17.588374950474634" fill="#ffb310" stroke="none" /><path d="M 113.03279911837588 83.53348406188908 l 8.097933561945782 -10.231474516900304 a34.048356170938476,34.048356170938476 0 0,0 0.4551928459838439,0.3666711353136892 l -8.272377178284886 10.090955087793207" fill="#ff2403" stroke="none" /><path d="M 113.31354834802062 83.75963576809568 l 14.697238528513491 -17.92824126722937 a44.18255066423899,44.18255066423899 0 0,0 0.5824220955263747,0.48587722664773814 l -15.002834958201758 17.673301856669763" fill="#ffc712" stroke="none" /><path d="M 113.86319453409587 84.22622945171908 l 22.199534215572495 -25.258994825032904 a54.627907145099186,54.627907145099186 0 0,0 0.6990680553015886,0.625110965718219 l -22.62986729769746 24.8741883294313" fill="#a3ff22" stroke="none" /><path d="M 114.39649973595853 84.71141617570332 l 31.10802133831704 -33.035640646104895 a66.37689439002813,66.37689439002813 0 0,0 0.8228443767874635,0.7882662994695525 l -31.670538200969816 32.49676221632976" fill="#33ff52" stroke="none" /><path d="M 114.91283532996326 85.21462403516908 l 26.353484810657207 -26.128242704198623 a58.11052719209266,58.11052719209266 0 0,0 0.6962559825531033,0.7144199749037504 l -26.798127594361123 25.672000037227132" fill="#76ff27" stroke="none" /><path d="M 115.41159269507618 85.73525988315684 l 28.725348688282647 -26.58775390131915 a60.141465414321594,60.141465414321594 0 0,0 0.6947837040120535,0.7636889988998776 l -29.17753009313658 26.0907273268616" fill="#5dff2a" stroke="none" /><path d="M 116.35404254752997 86.82634096563983 l 18.48021070509021 -14.886349598543813 a44.73018314456499,44.73018314456499 0 0,0 0.47655445395191837,0.6021109847624926 l -18.733031589683687 14.566918669866642" fill="#ffcf13" stroke="none" /><path d="M 117.42321728460499 88.27688183743584 l 17.596539172710358 -11.839736863991552 a42.20890284444933,42.20890284444933 0 0,0 0.3993274978648383,0.6046327280400999 l -17.797191109495923 11.535924257612393" fill="#ffa90f" stroke="none" /><line stroke="#e1ed5e" stroke-width="0.3" x1="172.87174338648825" x2="177.1583165268699" y1="56.24261187166439" y2="53.66864786411523" /><path d="M 173.72905801456457 55.72781907015455 a86.0,86.0 0 0,1 12.242430191666344,42.057860355516425" fill="none" id="id27" stroke="none" /><text fill="#e1ed5e" style="font-size:6.75px; font-family:Arial;" text-anchor="middle"><textPath startOffset="22.145653131862474" xlink:href="#id27">March</textPath></text><path d="M 118.00360718960297 89.18935116829356 l 18.14383651966544 -10.894852515293046 a42.16356810611889,42.16356810611889 0 0,0 0.36727738482586597,0.6237172939400427 l -18.328187614621076 10.581784053059446" fill="#ffa80f" stroke="none" /><path d="M 118.36410011445183 89.81374322990088 l 55.092300343355504 -30.558770310297362 a84.0,84.0 0 0,0 0.6886186015386349,1.2669806661015868 l -55.60876429450948 29.60853481072117" fill="#4dd2ff" stroke="none" /><line stroke="#e1ed5e" stroke-width="0.3" x1="184.99686870605535" x2="189.99668451229388" y1="99.2704041080226" y2="99.22748670261217" /><path d="M 185.99683186730306 99.26182062694052 a86.0,86.0 0 0,1 -10.086455211305974,41.156179273409016" fill="none" id="id28" stroke="none" /><text fill="#e1ed5e" style="font-size:6.75px; font-family:Arial;" text-anchor="middle"><textPath startOffset="21.40746469413373" xlink:href="#id28">April</textPath></text><line stroke="#e1ed5e" stroke-width="0.3" x1="174.33088141563837" x2="178.70328620479359" y1="141.23008692659167" y2="143.65538615756765" /><path d="M 175.20536237346943 141.71514677278685 a86.0,86.0 0 0,1 -30.301960400862466,31.631185727798858" fill="none" id="id29" stroke="none" /><text fill="#e1ed5e" style="font-size:6.75px; font-family:Arial;" text-anchor="middle"><textPath startOffset="22.145653131862474" xlink:href="#id29">May</textPath></text><line stroke="#e1ed5e" stroke-width="0.3" x1="143.1302829299769" x2="145.66735839644613" y1="173.24464959558577" y2="177.55315839532614" /><path d="M 143.63769802327073 174.10635135553383 a86.0,86.0 0 0,1 -40.68552437913181,11.842963189579606" fill="none" id="id30" stroke="none" /><text fill="#e1ed5e" style="font-size:6.75px; font-family:Arial;" text-anchor="middle"><textPath startOffset="21.407464694133747" xlink:href="#id30">June</textPath></text><line stroke="#e1ed5e" stroke-width="0.3" x1="101.45913802915013" x2="101.54496967792366" y1="184.9874750549273" y2="189.98673829345242" /><path d="M 101.47630435890484 185.9873277026323 a86.0,86.0 0 0,1 -42.54439059252881,-10.42667462771756" fill="none" id="id31" stroke="none" /><text fill="#e1ed5e" style="font-size:6.75px; font-family:Arial;" text-anchor="middle"><textPath startOffset="22.145653131862474" xlink:href="#id31">July</textPath></text><line stroke="#e1ed5e" stroke-width="0.3" x1="58.13341422392154" x2="55.67067388415222" y1="173.97424548756322" y2="178.32567169271397" /><path d="M 57.64086615596768 174.84453072859336 a86.0,86.0 0 0,1 -31.369924170532247,-30.572349798747897" fill="none" id="id32" stroke="none" /><text fill="#e1ed5e" style="font-size:6.75px; font-family:Arial;" text-anchor="middle"><textPath startOffset="22.145653131862474" xlink:href="#id32">August</textPath></text><line stroke="#e1ed5e" stroke-width="0.3" x1="26.387840678322732" x2="22.057713659400548" y1="142.50000000000003" y2="145.00000000000006" /><path d="M 25.521815274538298 143.00000000000003 a86.0,86.0 0 0,1 -11.493303480769221,-40.785679425670985" fill="none" id="id33" stroke="none" /><text fill="#e1ed5e" style="font-size:6.75px; font-family:Arial;" text-anchor="middle"><textPath startOffset="21.40746469413373" xlink:href="#id33">September</textPath></text><line stroke="#e1ed5e" stroke-width="0.3" x1="15.003131293944662" x2="10.003315487706104" y1="100.72959589197737" y2="100.7725132973878" /><path d="M 14.003168132696942 100.73817937305945 a86.0,86.0 0 0,1 10.791469493833604,-42.45332614584628" fill="none" id="id34" stroke="none" /><text fill="#e1ed5e" style="font-size:6.75px; font-family:Arial;" text-anchor="middle"><textPath startOffset="22.145653131862435" xlink:href="#id34">October</textPath></text><line stroke="#e1ed5e" stroke-width="0.3" x1="26.387840678322718" x2="22.05771365940052" y1="57.49999999999999" y2="54.99999999999999" /><path d="M 25.521815274538284 56.99999999999999 a86.0,86.0 0 0,1 29.574782752854787,-30.34633250058573" fill="none" id="id35" stroke="none" /><text fill="#e1ed5e" style="font-size:6.75px; font-family:Arial;" text-anchor="middle"><textPath startOffset="21.40746469413373" xlink:href="#id35">November</textPath></text><line stroke="#e1ed5e" stroke-width="0.3" x1="56.869717070023135" x2="54.33264160355391" y1="26.7553504044142" y2="22.446841604673864" /><path d="M 56.362301976729285 25.89364864446614 a86.0,86.0 0 0,1 42.16139366436587,-11.88097634709845" fill="none" id="id36" stroke="none" /><text fill="#e1ed5e" style="font-size:6.75px; font-family:Arial;" text-anchor="middle"><textPath startOffset="22.145653131862474" xlink:href="#id36">December</textPath></text></svg>