<?xml version="1.0" encoding="utf-8" ?>
<svg baseProfile="full" height="200mm" version="1.1" viewBox="0,0,200,200" width="200mm" xmlns="http://www.w3.org/2000/svg" xmlns:ev="http://www.w3.org/2001/xml-events" xmlns:xlink="http://www.w3.org/1999/xlink"><defs /><rect fill="#1a1a1a" height="200" width="200" x="0" y="0" /><text alignment-baseline="middle" fill="#e1ed5e" style="dominant-baseline: central; font-size:9.0px; font-family:Arial;" text-anchor="middle" x="100.0" y="100.0">2023</text><line stroke="#e1ed5e" stroke-width="0.3" x1="100.0" x2="100.0" y1="15.0" y2="10.0" /><path d="M 100.0 14.0 a86.0,86.0 0 0,1 42.46469731375804,11.215312516191453" fill="none" id="id13" stroke="none" /><text fill="#e1ed5e" style="font-size:6.75px; font-family:Arial;" text-anchor="middle"><textPath startOffset="22.20632615414155" xlink:href="#id13">January</textPath></text><path d="M 100.0 79.0 l 0.0 -31.974894601647883 a52.97489460164788,52.97489460164788 0 0,0 0.9118757280959692,0.007848802281163749 l -0.5503952488234408 31.970157175975277" fill="#97ff23" stroke="none" /><path d="M 107.08798089147638 80.2323363322302 l 6.586379129172295 -18.368746954505003 a40.51387339079131,40.51387339079131 0 0,0 0.6544296145508824,0.24103194999779817 l -6.901591069495754 18.25265173670088" fill="#ffc512" stroke="none" /><path d="M 107.76421540070413 80.48803036053334 l 8.361721873218887 -21.01354160126918 a43.61608549933736,43.61608549933736 0 0,0 0.6951908267638212,0.2835857934390838 l -8.722196569571095 20.866494921646513" fill="#fff016" stroke="none" /><path d="M 108.09893153111575 80.62456947434976 l 7.741520040222187 -18.5203792779305 a41.073255369559746,41.073255369559746 0 0,0 0.6499671371300405,0.2782820077183713 l -8.059170935142543 18.384377742249338" fill="#ffcd13" stroke="none" /><path d="M 108.43124777332544 80.76684994638697 l 12.985672465908841 -29.62258894514589 a53.34386286770556,53.34386286770556 0 0,0 0.8377980878012016,0.3758955807683119 l -13.493652672176824 29.394673033861046" fill="#93ff23" stroke="none" /><path d="M 108.76106565485865 80.91482961587045 l 13.553604660883265 -29.52527289059141 a53.48756590708834,53.48756590708834 0 0,0 0.8334427137784803,0.39131252936569066 l -14.059825585961342 29.287595378585717" fill="#91ff24" stroke="none" /><path d="M 109.08828744355905 81.06846463323043 l 14.156350520779418 -29.48866353676535 a53.71060282617436,53.71060282617436 0 0,0 0.8300301849182993,0.40729220695789414 l -14.661851972708149 29.240616169672624" fill="#8eff24" stroke="none" /><path d="M 109.41281617654863 81.2277094730956 l 5.632507467155886 -11.233095875370465 a33.56612841382865,33.56612841382865 0 0,0 0.5142642756856404,0.26342613613902005 l -5.825032230430282 11.134477213918943" fill="#ff6108" stroke="none" /><path d="M 109.73455568895987 81.39251694778311 l 6.515663516037484 -12.454610392348568 a35.05600195928483,35.05600195928483 0 0,0 0.532275232077676,0.2843229951172569 l -6.729083794643471 12.340608670729557" fill="#ff770a" stroke="none" /><line stroke="#e1ed5e" stroke-width="0.3" x1="143.23703022742887" x2="145.7803849466894" y1="26.81831364943548" y2="22.513508569990506" /><path d="M 143.74570117128098 25.957352633546492 a86.0,86.0 0 0,1 28.547481713284135,27.462654790039103" fill="none" id="id14" stroke="none" /><text fill="#e1ed5e" style="font-size:6.75px; font-family:Arial;" text-anchor="middle"><textPath startOffset="19.985693538727396" xlink:href="#id14">February</textPath></text><path d="M 111.60114157652 82.49532879139004 l 34.4414646623443 -51.9678611695853 a83.344791944707,83.344791944707 0 0,0 1.1890337339189372,0.8028408848742848 l -35.33090309066978 51.36730837241234" fill="#4cd9ff" stroke="none" /><path d="M 113.6212207817346 84.01681056812373 l 20.232328038681135 -23.740686453282894 a52.19242361756926,52.19242361756926 0 0,0 0.6787654549339643,0.5886187138528725 l -20.637987292261865 23.38890274601035" fill="#a1ff22" stroke="none" /><path d="M 115.4437574822437 85.77008943001954 l 31.541422748262704 -29.06233314488171 a63.88916596074951,63.88916596074951 0 0,0 0.7382434483863511,0.815186854421716 l -32.037009837265096 28.515093503190446" fill="#32ff46" stroke="none" /><path d="M 115.68641384162765 86.03803664274999 l 14.285371759678705 -12.714941672903912 a40.12437157287984,40.12437157287984 0 0,0 0.4547584239605283,0.5198674915292031 l -14.502122047217082 12.467158625171761" fill="#ffc011" stroke="none" /><path d="M 116.60985879189232 87.15038557335679 l 10.322525456368014 -7.985647180112289 a34.050865591316196,34.050865591316196 0 0,0 0.3546544552864629,0.4666836910290225 l -10.45845585187859 7.806778713202233" fill="#ff6809" stroke="none" /><path d="M 116.82858285166822 87.43820079747576 l 10.047146156182116 -7.499754060387912 a33.537601718430444,33.537601718430444 0 0,0 0.3413447320883732,0.46559383095761553 l -10.174753500784115 7.325697785758803" fill="#ff6008" stroke="none" /><path d="M 117.04232023915458 87.72973835380427 l 10.129567362298351 -7.293164319997038 a33.48192215749713,33.48192215749713 0 0,0 0.3327264104275429,0.4706179113736622 l -10.253606392529777 7.1177199082915825" fill="#ff5f08" stroke="none" /><path d="M 117.2510076193507 88.02491185347247 l 25.787990931944545 -17.901184171148827 a52.39224221102155,52.39224221102155 0 0,0 0.5078942239486598,0.7452721027891434 l -26.092309621561938 17.45463404508928" fill="#9eff22" stroke="none" /><line stroke="#e1ed5e" stroke-width="0.3" x1="172.23445277983987" x2="176.4835382374775" y1="55.19839476539836" y2="52.563006222186495" /><path d="M 173.08426987136738 54.67131705675599 a86.0,86.0 0 0,1 12.851231095245387,41.99856678651699" fill="none" id="id15" stroke="none" /><text fill="#e1ed5e" style="font-size:6.75px; font-family:Arial;" text-anchor="middle"><textPath startOffset="22.20632615414155" xlink:href="#id15">March</textPath></text><path d="M 120.08093135843002 93.85539295169968 l 11.928731029925258 -3.6500978692398665 a33.47468790949622,33.47468790949622 0 0,0 0.16385716729154332,0.5524449103458393 l -11.989794094328504 3.444223572147497" fill="#ff5f08" stroke="none" /><path d="M 120.28053869075195 94.5502522615342 l 11.99620428191821 -3.2235971712807343 a33.42177507026278,33.42177507026278 0 0,0 0.14451522722788251,0.5568761219803461 l -12.049915841016395 3.0166246237515377" fill="#ff5e08" stroke="none" /><path d="M 120.37134235888165 94.90015583598534 l 18.20652754630606 -4.557895676104979 a39.76837921315151,39.76837921315151 0 0,0 0.1605263878126043,0.6654855127843108 l -18.282286734379483 4.243824931661262" fill="#ffbb11" stroke="none" /><path d="M 120.45610955862082 95.25157060432595 l 8.793794261385925 -2.0412831213390317 a30.027605125006723,30.027605125006723 0 0,0 0.11254005086782914,0.5044949811540836 l -8.827628699255792 1.889609970634984" fill="#ff2a04" stroke="none" /><path d="M 120.67395015179393 96.31383870115 l 31.531843241326445 -5.622121528985911 a53.0291334363306,53.0291334363306 0 0,0 0.1524919358769383,0.9000160376192389 l -31.623947038723607 5.078519703050834" fill="#97ff23" stroke="none" /><path d="M 120.73433829027371 96.67025291283417 l 6.263249586338977 -1.0058212022173723 a27.343498377993438,27.343498377993438 0 0,0 0.07062969713134318,0.4653614566952627 l -6.279635176909621 0.8978606331300275" fill="#ff0000" stroke="none" /><path d="M 120.83666639777658 97.38593545837742 l 31.839994747558098 -3.9944873947745374 a53.08958078678405,53.08958078678405 0 0,0 0.10595074237912228,0.9077212576763526 l -31.904035842940807 3.4458223987733323" fill="#96ff23" stroke="none" /><line stroke="#e1ed5e" stroke-width="0.3" x1="184.98032266829074" x2="189.97916517819016" y1="98.17113171792111" y2="98.06355123074" /><path d="M 185.9800911702706 98.14961562048488 a86.0,86.0 0 0,1 -9.607161424134198,41.387399972396054" fill="none" id="id16" stroke="none" /><text fill="#e1ed5e" style="font-size:6.75px; font-family:Arial;" text-anchor="middle"><textPath startOffset="21.466115282336823" xlink:href="#id16">April</textPath></text><path d="M 120.9764740272857 100.99374915477107 l 31.599658169054244 1.4970167796410898 a52.63509847684378,52.63509847684378 0 0,0 -0.0506641624576791,0.9046426549411047 l -31.569207655709036 -2.040731150917618" fill="#9bff22" stroke="none" /><path d="M 120.89721153311464 102.0752229133903 l 62.69163459934395 6.2256687401709 a84.0,84.0 0 0,0 -0.15527079399579247,1.4376147124608343 l -62.575181503847105 -7.303879774516526" fill="#4dd2ff" stroke="none" /><path d="M 120.49622156327973 104.57218783832717 l 30.943991368901848 6.902820628152618 a52.70456646073435,52.70456646073435 0 0,0 -0.2051448302559996,0.8837585596038181 l -30.820585972715296 -7.434447845105002" fill="#9aff22" stroke="none" /><path d="M 120.41448212921028 104.9243191809786 l 30.77741798954991 7.424034995728758 a52.66016035526788,52.66016035526788 0 0,0 -0.22014125079049085,0.8793548671172086 l -30.645065424464356 -7.952717702243363" fill="#9bff22" stroke="none" /><path d="M 119.79798401119884 107.00284435728193 l 38.63570118842753 13.666027909910758 a61.981431467872376,61.981431467872376 0 0,0 -0.36443824068806835,1.0027775183772927 l -38.394738686734236 -14.329053225294182" fill="#31ff2f" stroke="none" /><path d="M 118.81262510543309 109.33194174019688 l 5.731485597039535 2.8430848633082966 a27.397894863862987,27.397894863862987 0 0,0 -0.21320954398611602,0.4206826574792859 l -5.68169738326715 -2.9413217324902767" fill="#ff0100" stroke="none" /><path d="M 118.64920377521936 109.65438752849418 l 16.982649478412416 8.791639648607172 a40.123370806884,40.123370806884 0 0,0 -0.32279727901836186,0.6106108025719743 l -16.82879969116916 -9.082665466265281" fill="#ffc011" stroke="none" /><line stroke="#e1ed5e" stroke-width="0.3" x1="174.80103733775053" x2="179.2010983576182" y1="140.37084112569926" y2="142.7455964860345" /><path d="M 175.68104954172406 140.8457921977663 a86.0,86.0 0 0,1 -30.038265399797805,32.042727171017184" fill="none" id="id17" stroke="none" /><text fill="#e1ed5e" style="font-size:6.75px; font-family:Arial;" text-anchor="middle"><textPath startOffset="22.206326154141568" xlink:href="#id17">May</textPath></text><path d="M 118.48025628344425 109.97397251340804 l 27.592753455526662 14.892075105106487 a52.354966818569764,52.354966818569764 0 0,0 -0.43485434740676265,0.7893869525268505 l -27.33232269866839 -15.364832576031144" fill="#9fff22" stroke="none" /><path d="M 118.30583269289576 110.29060199501025 l 27.551781606050834 15.488201138828565 a52.60672466713898,52.60672466713898 0 0,0 -0.45053402001649145,0.7855440395243151 l -27.281095589881964 -15.960165024211195" fill="#9cff22" stroke="none" /><path d="M 118.12598468904814 110.60418214915192 l 34.15123596347632 19.979379492369443 a60.566179026198,60.566179026198 0 0,0 -0.5341911734065139,0.895335133248203 l -33.80226391437157 -20.56427671950375" fill="#41ff2d" stroke="none" /><path d="M 117.94076556474637 110.91462005526583 l 26.250520035104582 15.970023765279626 a51.726722265432464,51.726722265432464 0 0,0 -0.4693223650304467,0.7566970879233544 l -25.971733030406174 -16.419517184568253" fill="#a6ff21" stroke="none" /><path d="M 117.75023020441432 111.22182372390056 l 16.726373474112254 10.574534104911738 a40.78869225419981,40.78869225419981 0 0,0 -0.38029655107535715,0.5902286925477364 l -16.54187205965985 -10.860884397380927" fill="#ffc912" stroke="none" /><path d="M 117.55443506779139 111.5257021239791 l 17.20745479871108 11.29788555176395 a41.5849148307794,41.5849148307794 0 0,0 -0.398020892511729,0.5949872301211754 l -17.01043080078863 -11.59240969609093" fill="#ffd413" stroke="none" /><path d="M 117.35343817320211 111.8261652097733 l 25.98954852323072 17.71157343550392 a52.45085795336293,52.45085795336293 0 0,0 -0.514865346527328,0.7417019321446944 l -25.680822269541256 -18.156316629835633" fill="#9dff22" stroke="none" /><path d="M 117.14729908036423 112.12312394758627 l 10.828230923192907 7.655548841815949 a34.26114674511298,34.26114674511298 0 0,0 -0.34460221566441446,0.4786223377963575 l -10.694848915152889 -7.840804785063438" fill="#ff6b09" stroke="none" /><path d="M 116.93607887273984 112.41649034213515 l 18.019491852968446 13.210782037788782 a43.343384897753495,43.343384897753495 0 0,0 -0.44631041178272823,0.5979057315880788 l -17.789420174490626 -13.519000648886175" fill="#ffec16" stroke="none" /><path d="M 116.0416608686014 113.55231037782055 l 14.41875814013462 12.18125025696717 a39.87547202394052,39.87547202394052 0 0,0 -0.4474739841353544,0.5205133363574244 l -14.206941646428488 -12.427640692486122" fill="#ffbc11" stroke="none" /><path d="M 115.32070863581623 114.36230785411682 l 13.89692563002117 13.02759088163397 a40.04842949288922,40.04842949288922 0 0,0 -0.4758009898113009,0.49887543558985964 l -13.670618088830905 -13.264873433806336" fill="#ffbf11" stroke="none" /><path d="M 114.55890576462653 115.13401014063108 l 13.061998071442035 13.577971755982329 a39.84083625067129,39.84083625067129 0 0,0 -0.49832190528357323,0.47119446513067786 l -12.826340331767653 -13.800800857858928" fill="#ffbc11" stroke="none" /><path d="M 114.0293411484842 115.62618273729858 l 21.579275458732464 24.035462398965823 a53.301216417589494,53.301216417589494 0 0,0 -0.687985824255646,0.6070674991654454 l -21.16234728157023 -24.403353039903557" fill="#93ff23" stroke="none" /><path d="M 112.34349029814194 116.9893568818739 l 11.001841362290365 15.142735542948401 a39.71745049638641,39.71745049638641 0 0,0 -0.5565600137429179,0.39709079222068994 l -10.739554020698563 -15.329870597013311" fill="#ffba11" stroke="none" /><line stroke="#e1ed5e" stroke-width="0.3" x1="143.8653032363475" x2="146.44561519142675" y1="172.8068346515853" y2="177.08958963109032" /><path d="M 144.38136562736335 173.6633856474863 a86.0,86.0 0 0,1 -40.68145358897372,12.25698825130547" fill="none" id="id18" stroke="none" /><text fill="#e1ed5e" style="font-size:6.75px; font-family:Arial;" text-anchor="middle"><textPath startOffset="21.466115282336833" xlink:href="#id18">June</textPath></text><path d="M 110.21172684928248 118.3499491758327 l 8.66234093654214 15.56578219093785 a38.81375102881512,38.81375102881512 0 0,0 -0.5865999601121755,0.31986106932406105 l -8.393118164561315 -15.712583912021682" fill="#ffad10" stroke="none" /><path d="M 109.89434966115114 118.52300852407294 l 19.551018008843904 36.60105874911904 a62.49553960052336,62.49553960052336 0 0,0 -0.95323285169349,0.4986863754391982 l -18.918094254623917 -36.93217454350295" fill="#30ff34" stroke="none" /><path d="M 107.93186726928326 119.44442032107085 l 7.07400671929467 17.341434914918118 a39.72877294360117,39.72877294360117 0 0,0 -0.6354313098320847,0.2528512319898613 l -6.774454333420719 -17.460632991314046" fill="#ffba11" stroke="none" /><path d="M 107.59598834532513 119.57807347666477 l 11.243040197733329 28.978068038741466 a52.08270226582266,52.08270226582266 0 0,0 -0.8386053628262358,0.3170887916124175 l -10.742564614146819 -29.167305080460515" fill="#a2ff22" stroke="none" /><path d="M 105.18746579009965 120.34920634021253 l 12.421678726393719 48.72731960519748 a71.28568164287728,71.28568164287728 0 0,0 -1.19164782788444,0.292878043446386 l -11.581077613766068 -48.93391890695789" fill="#3cffa2" stroke="none" /><path d="M 103.7750983002368 120.6578951692458 l 1.776711161727811 9.722425750529377 a30.883433868183918,30.883433868183918 0 0,0 -0.5237698446013633,0.0910641012033547 l -1.6090923456543977 -9.751568430253739" fill="#ff3805" stroke="none" /><path d="M 103.41894727170886 120.7198165907248 l 5.070048987192912 30.725974041746706 a52.14146556516935,52.14146556516935 0 0,0 -0.8868124532747597,0.13850186698227354 l -4.540400670309635 -30.808694216076088" fill="#a1ff22" stroke="none" /><line stroke="#e1ed5e" stroke-width="0.3" x1="102.19456741930631" x2="102.32365962044197" y1="184.97166512339345" y2="189.96999836594603" /><path d="M 102.22038585953345 185.97133177190398 a86.0,86.0 0 0,1 -42.740103519485714,-10.115201625700543" fill="none" id="id19" stroke="none" /><text fill="#e1ed5e" style="font-size:6.75px; font-family:Arial;" text-anchor="middle"><textPath startOffset="22.20632615414155" xlink:href="#id19">July</textPath></text><path d="M 100.54218724476979 120.99299961872073 l 0.8040701808160113 31.13286998564894 a52.14325163496898,52.14325163496898 0 0,0 -0.8974606209975161,0.015450598477956653 l -0.26804986992582724 -31.14209806140606" fill="#a1ff22" stroke="none" /><path d="M 100.18074693466247 120.99922214144158 l 0.26783053942640095 31.11661619147312 a52.1177688211301,52.1177688211301 0 0,0 -0.8971549481776914,0.0 l 0.2678305394263795 -31.11661619147312" fill="#a2ff22" stroke="none" /><path d="M 98.01472825383883 120.90594882070398 l -3.545632994569417 37.33736807809772 a58.50534053080347,58.50534053080347 0 0,0 -1.0017434942555496,-0.10383480906161066 l 4.18780908543056 -37.27080390058035" fill="#57ff2a" stroke="none" /><path d="M 97.65516085044442 120.86867818915974 l -2.2029628915055177 19.6060031043932 a40.729379190203275,40.729379190203275 0 0,0 -0.6960312984526366,-0.08427969705024158 l 2.540121613009543 -19.565177878617607" fill="#ffc812" stroke="none" /><path d="M 97.2962882734958 120.8252237178851 l -2.5566106206708614 19.692183753565992 a40.85745096556795,40.85745096556795 0 0,0 -0.6966611917978993,-0.09655089319194755 l 2.895200403655592 -19.64525829488144" fill="#ffca12" stroke="none" /><path d="M 95.51606077576429 120.51570834832081 l -4.487156920182699 20.530430517445033 a42.01506969909883,42.01506969909883 0 0,0 -0.70521264241842,-0.16050410143918412 l 4.839889711993981 -20.45014968242816" fill="#ffda14" stroke="none" /><path d="M 95.16358092515715 120.4354850818985 l -7.389643182873441 31.223709254159274 a53.08624075765903,53.08624075765903 0 0,0 -0.887416687776538,-0.21810543111472752 l 7.926013155393189 -31.091882564730515" fill="#96ff23" stroke="none" /><path d="M 93.08242187328487 119.8279376855182 l -20.448525175908436 58.61185454239242 a83.07649857046005,83.07649857046005 0 0,0 -1.3461574969000014,-0.4826841843986791 l 21.454402233438167 -58.251182816953786" fill="#4cdbff" stroke="none" /><path d="M 92.7421414339146 119.70592522655815 l -8.17455865453664 22.194871963907236 a44.65239418517067,44.65239418517067 0 0,0 -0.7189668661122183,-0.27185174921440314 l 8.555395741409141 -22.0508719645862" fill="#fffe18" stroke="none" /><path d="M 90.7491055286396 118.85261126421891 l -13.72482275967444 27.97013293790131 a52.15604429879296,52.15604429879296 0 0,0 -0.8025724717085612,-0.40242649844588135 l 14.204249139065762 -27.72973859854613" fill="#a1ff22" stroke="none" /><path d="M 90.42595943632237 118.69057910512821 l -14.22255220424486 27.765470104520116 a52.196190814384224,52.196190814384224 0 0,0 -0.7961387986338205,-0.41650219160184765 l 14.698381905405176 -27.516538493973552" fill="#a1ff22" stroke="none" /><line stroke="#e1ed5e" stroke-width="0.3" x1="58.666819895761336" x2="56.23545636021788" y1="174.27360380694188" y2="178.64263932499728" /><path d="M 58.180547188652646 175.14741091055294 a86.0,86.0 0 0,1 -31.652253787137756,-30.449443065178592" fill="none" id="id20" stroke="none" /><text fill="#e1ed5e" style="font-size:6.75px; font-family:Arial;" text-anchor="middle"><textPath startOffset="22.20632615414155" xlink:href="#id20">August</textPath></text><path d="M 88.54995079064634 117.60387380957326 l -16.949382174297117 26.058821188542247 a52.08606951396074,52.08606951396074 0 0,0 -0.747373837511691,-0.49531862645300523 l 17.39543071054877 -25.763204540997922" fill="#a2ff22" stroke="none" /><path d="M 88.24862548938628 117.40417183066458 l -12.255659248398116 18.151034099419135 a42.90116943204455,42.90116943204455 0 0,0 -0.6084675217600656,-0.4185095097696523 l 12.566283654781072 -17.937383800284383" fill="#ffe615" stroke="none" /><path d="M 87.65650970185807 116.9893568818739 l -12.983731587833955 17.870573417745145 a43.08924354123374,43.08924354123374 0 0,0 -0.5963038945893967,-0.4411313656045009 l 13.289420452841917 -17.644432103400877" fill="#ffe915" stroke="none" /><line stroke="#e1ed5e" stroke-width="0.3" x1="26.63291911575756" x2="22.317208475507996" y1="142.92168965132927" y2="145.44649492493687" /><path d="M 25.769776987707644 143.4266507060508 a86.0,86.0 0 0,1 -11.730757126820373,-40.83630448921669" fill="none" id="id21" stroke="none" /><text fill="#e1ed5e" style="font-size:6.75px; font-family:Arial;" text-anchor="middle"><textPath startOffset="21.46611528233685" xlink:href="#id21">September</textPath></text><line stroke="#e1ed5e" stroke-width="0.3" x1="15.007084014347285" x2="10.007500721073583" y1="101.09737516637583" y2="101.16192664675087" /><path d="M 14.007167355692545 101.11028546245083 a86.0,86.0 0 0,1 10.666146001902534,-42.60595125391555" fill="none" id="id22" stroke="none" /><text fill="#e1ed5e" style="font-size:6.75px; font-family:Arial;" text-anchor="middle"><textPath startOffset="22.20632615414155" xlink:href="#id22">October</textPath></text><line stroke="#e1ed5e" stroke-width="0.3" x1="26.266209847984243" x2="21.928928074336255" y1="57.711370442889674" y2="55.22380399835377" /><path d="M 25.398753493254645 57.213857153982495 a86.0,86.0 0 0,1 29.58750427330803,-30.492523968695096" fill="none" id="id23" stroke="none" /><text fill="#e1ed5e" style="font-size:6.75px; font-family:Arial;" text-anchor="middle"><textPath startOffset="21.46611528233685" xlink:href="#id23">November</textPath></text><line stroke="#e1ed5e" stroke-width="0.3" x1="56.762969772571076" x2="54.21961505331055" y1="26.818313649435495" y2="22.513508569990535" /><path d="M 56.25429882871897 25.957352633546506 a86.0,86.0 0 0,1 42.265352541879196,-11.944610805530505" fill="none" id="id24" stroke="none" /><text fill="#e1ed5e" style="font-size:6.75px; font-family:Arial;" text-anchor="middle"><textPath startOffset="22.20632615414155" xlink:href="#id24">December</textPath></text></svg>