<?xml version="1.0" encoding="utf-8" ?>
<svg baseProfile="full" height="200mm" version="1.1" viewBox="0,0,200,200" width="200mm" xmlns="http://www.w3.org/2000/svg" xmlns:ev="http://www.w3.org/2001/xml-events" xmlns:xlink="http://www.w3.org/1999/xlink"><defs /><rect fill="#1a1a1a" height="200" width="200" x="0" y="0" /><text alignment-baseline="middle" fill="#e1ed5e" style="dominant-baseline: central; font-size:9.0px; font-family:Arial;" text-anchor="middle" x="100.0" y="100.0">2023</text><line stroke="#e1ed5e" stroke-width="0.3" x1="100.0" x2="100.0" y1="15.0" y2="10.0" /><path d="M 100.0 14.0 a86.0,86.0 0 0,1 42.46469731375804,11.215312516191453" fill="none" id="id13" stroke="none" /><text fill="#e1ed5e" style="font-size:6.75px; font-family:Arial;" text-anchor="middle"><textPath startOffset="22.20632615414155" xlink:href="#id13">January</textPath></text><path d="M 100.0 79.0 l 0.0 -15.17623214384625 a36.17623214384625,36.17623214384625 0 0,0 0.6227143682681804,0.005359899165626604 l -0.26123388899565203 15.173983621289182" fill="#ffae10" stroke="none" /><path d="M 107.08798089147638 80.2323363322302 l 3.1260906375763695 -8.718351426833785 a30.261862354630267,30.261862354630267 0 0,0 0.4888265983680049,0.18003896155630028 l -3.2756995617169506 8.66324919747116" fill="#ff5c08" stroke="none" /><path d="M 107.76421540070413 80.48803036053334 l 3.9687208934132587 -9.973649310756333 a31.734264115614316,31.734264115614316 0 0,0 0.5058080993446913,0.2063318238077247 l -4.1398128623463375 9.903856600765028" fill="#ff710a" stroke="none" /><path d="M 108.09893153111575 80.62456947434976 l 3.674354731746166 -8.790320619210652 a30.527361611864293,30.527361611864293 0 0,0 0.48308276644909176,0.2068308295326967 l -3.825121255985573 8.725770261715166" fill="#ff6008" stroke="none" /><path d="M 108.43124777332544 80.76684994638697 l 6.16338481617476 -14.059758198862012 a36.35135541255954,36.35135541255954 0 0,0 0.5709203349062634,0.25615531234412686 l -6.404487269547804 13.951582556001354" fill="#ffb010" stroke="none" /><path d="M 108.76106565485865 80.91482961587045 l 6.432942259296147 -14.013569116657317 a36.419561131847104,36.419561131847104 0 0,0 0.5674892351069832,0.26644380508260973 l -6.673209705702727 13.900760328934703" fill="#ffb110" stroke="none" /><path d="M 109.08828744355905 81.06846463323043 l 6.719023299045839 -13.996193232882806 a36.52542106048384,36.52542106048384 0 0,0 0.5644546961271101,0.27697546798974215 l -6.958949262183381 13.878462604758232" fill="#ffb210" stroke="none" /><path d="M 109.41281617654863 81.2277094730956 l 2.6733548910306593 -5.331560051175843 a26.964256781250427,26.964256781250427 0 0,0 0.4131174680633859,0.2116148127115793 l -2.7647328466828003 5.284752713151763" fill="#ff2c04" stroke="none" /><path d="M 109.73455568895987 81.39251694778311 l 3.092526912832364 -5.911327024849699 a27.67139489921792,27.67139489921792 0 0,0 0.42015053967080274,0.22442986755750768 l -3.1938224990314774 5.857218430790438" fill="#ff3605" stroke="none" /><line stroke="#e1ed5e" stroke-width="0.3" x1="143.23703022742887" x2="145.7803849466894" y1="26.81831364943548" y2="22.513508569990506" /><path d="M 143.74570117128098 25.957352633546492 a86.0,86.0 0 0,1 28.547481713284135,27.462654790039103" fill="none" id="id14" stroke="none" /><text fill="#e1ed5e" style="font-size:6.75px; font-family:Arial;" text-anchor="middle"><textPath startOffset="19.985693538727396" xlink:href="#id14">February</textPath></text><path d="M 111.60114157652 82.49532879139004 l 16.346939359821267 -24.6654863121317 a50.59068504525757,50.59068504525757 0 0,0 0.7217491307769683,0.4873282349193058 l -16.769093185004778 24.380446164913728" fill="#9eff22" stroke="none" /><path d="M 113.6212207817346 84.01681056812373 l 9.602862212707652 -11.268033041482445 a35.80484823631058,35.80484823631058 0 0,0 0.4656440996118042,0.40380197465020423 l -9.79540011096622 11.101066073412568" fill="#ffa90f" stroke="none" /><path d="M 115.4437574822437 85.77008943001954 l 14.970493561850807 -13.793844200061613 a41.35646863532548,41.35646863532548 0 0,0 0.4778766721916756,0.5276833571052275 l -15.205713874658517 13.534108055686836" fill="#fff116" stroke="none" /><path d="M 115.68641384162765 86.03803664274999 l 6.780260600917082 -6.034887962179859 a30.076993253958705,30.076993253958705 0 0,0 0.340884243502683,0.38968961812338315 l -6.883136707997613 5.9172827878535275" fill="#ff5908" stroke="none" /><path d="M 116.60985879189232 87.15038557335679 l 4.899376357241528 -3.790224703914721 a27.194327404655223,27.194327404655223 0 0,0 0.2832406520390875,0.3727114969873997 l -4.9638929495047295 3.7053284310462877" fill="#ff2f04" stroke="none" /><path d="M 116.82858285166822 87.43820079747576 l 4.7686731840396455 -3.5596054360828013 a26.95071716659169,26.95071716659169 0 0,0 0.27430361324149855,0.3741498201928032 l -4.82923940979477 3.4769931722185046" fill="#ff2c04" stroke="none" /><path d="M 117.04232023915458 87.72973835380427 l 4.807792729957753 -3.461551825655975 a26.924289997623077,26.924289997623077 0 0,0 0.26755997824973715,0.3784446145085762 l -4.866665328011373 3.378280710815606" fill="#ff2b04" stroke="none" /><path d="M 117.2510076193507 88.02491185347247 l 12.239744392665571 -8.496432279626635 a35.899688059824264,35.899688059824264 0 0,0 0.348014199004977,0.5106678943431663 l -12.384183057339282 8.284486362013062" fill="#ffaa0f" stroke="none" /><line stroke="#e1ed5e" stroke-width="0.3" x1="172.23445277983987" x2="176.4835382374775" y1="55.19839476539836" y2="52.563006222186495" /><path d="M 173.08426987136738 54.67131705675599 a86.0,86.0 0 0,1 12.851231095245387,41.99856678651699" fill="none" id="id15" stroke="none" /><text fill="#e1ed5e" style="font-size:6.75px; font-family:Arial;" text-anchor="middle"><textPath startOffset="22.20632615414155" xlink:href="#id15">March</textPath></text><path d="M 120.08093135843002 93.85539295169968 l 5.661729101753412 -1.7324445725768836 a26.92085640922769,26.92085640922769 0 0,0 0.13177644207482095,0.44428465309784054 l -5.6907114409399355 1.634730532732513" fill="#ff2b04" stroke="none" /><path d="M 120.28053869075195 94.5502522615342 l 5.693753905853707 -1.5300147074474253 a26.89574240833415,26.89574240833415 0 0,0 0.11629676513086667,0.4481388764854043 l -5.7192470028548765 1.4317794054131707" fill="#ff2b04" stroke="none" /><path d="M 120.37134235888165 94.90015583598534 l 8.641357290410967 -2.1633123026600165 a29.908028734763878,29.908028734763878 0 0,0 0.12072475455070864,0.5004820471119463 l -8.677314845222496 2.014245023888664" fill="#ff5708" stroke="none" /><path d="M 120.45610955862082 95.25157060432595 l 4.1737952477609666 -0.9688534366321148 a25.284768809621575,25.284768809621575 0 0,0 0.09476443946062031,0.4248104006626983 l -4.189854074223624 0.8968648664194525" fill="#ff1302" stroke="none" /><path d="M 120.67395015179393 96.31383870115 l 14.965946844093034 -2.6684254171211172 a36.20197550145889,36.20197550145889 0 0,0 0.1041033290392187,0.614423740941039 l -15.009662034652475 2.4104158878642403" fill="#ffae10" stroke="none" /><path d="M 120.73433829027371 96.67025291283417 l 2.9727237847480055 -0.4773925371834273 a24.010812238410914,24.010812238410914 0 0,0 0.06202119322234876,0.40864217172357703 l -2.9805008714096544 0.42615125306776813" fill="#ff0000" stroke="none" /><path d="M 120.83666639777658 97.38593545837742 l 15.112204677068233 -1.8959020429622235 a36.23066560456605,36.23066560456605 0 0,0 0.07230544790154171,0.6194689214275155 l -15.142600477973362 1.6354893832098554" fill="#ffae10" stroke="none" /><line stroke="#e1ed5e" stroke-width="0.3" x1="184.98032266829074" x2="189.97916517819016" y1="98.17113171792111" y2="98.06355123074" /><path d="M 185.9800911702706 98.14961562048488 a86.0,86.0 0 0,1 -9.607161424134198,41.387399972396054" fill="none" id="id16" stroke="none" /><text fill="#e1ed5e" style="font-size:6.75px; font-family:Arial;" text-anchor="middle"><textPath startOffset="21.466115282336823" xlink:href="#id16">April</textPath></text><path d="M 120.9764740272857 100.99374915477107 l 14.998133817618262 0.7105285085097806 a36.01495483751415,36.01495483751415 0 0,0 -0.03466636475652335,0.6189912302743441 l -14.98368110197421 -0.968591455119548" fill="#ffab0f" stroke="none" /><path d="M 120.89721153311464 102.0752229133903 l 29.75530684338187 2.9548868019302583 a50.90166619698691,50.90166619698691 0 0,0 -0.09408978721565414,0.871154573970937 l -29.700034754665165 -3.4666376977859867" fill="#9aff23" stroke="none" /><path d="M 120.49622156327973 104.57218783832717 l 14.686934931989635 3.2762831466776996 a36.04792640046135,36.04792640046135 0 0,0 -0.14031129063575212,0.60445736777117 l -14.628363075423328 -3.5286091717974344" fill="#ffac0f" stroke="none" /><path d="M 120.41448212921028 104.9243191809786 l 14.607874271883514 3.52366692503223 a36.026849947401566,36.026849947401566 0 0,0 -0.15060713366530662,0.6016006338457676 l -14.545055823923146 -3.7745953982753937" fill="#ffac0f" stroke="none" /><path d="M 119.79798401119884 107.00284435728193 l 18.337648257506196 6.486301663505685 a40.45100133376214,40.45100133376214 0 0,0 -0.23784368013165902,0.6544436579263627 l -18.223280316369312 -6.800993118438179" fill="#ffe615" stroke="none" /><path d="M 118.81262510543309 109.33194174019688 l 2.7203328434208656 1.3494122944817601 a24.036630421946796,24.036630421946796 0 0,0 -0.18705229130525614,0.3690719164007445 l -2.6967018823293403 -1.396038422585199" fill="#ff0000" stroke="none" /><path d="M 118.64920377521936 109.65438752849418 l 8.060468505459074 4.172772604711855 a30.07651826077221,30.07651826077221 0 0,0 -0.2419691581659841,0.4577144587919282 l -7.9874468390681965 -4.310902078589917" fill="#ff5908" stroke="none" /><line stroke="#e1ed5e" stroke-width="0.3" x1="174.80103733775053" x2="179.2010983576182" y1="140.37084112569926" y2="142.7455964860345" /><path d="M 175.68104954172406 140.8457921977663 a86.0,86.0 0 0,1 -30.038265399797805,32.042727171017184" fill="none" id="id17" stroke="none" /><text fill="#e1ed5e" style="font-size:6.75px; font-family:Arial;" text-anchor="middle"><textPath startOffset="22.206326154141568" xlink:href="#id17">May</textPath></text><path d="M 118.48025628344425 109.97397251340804 l 13.096338147347858 7.06821998052941 a35.881996054388466,35.881996054388466 0 0,0 -0.298031742278724,0.5410141814072869 l -12.972729995617623 -7.2926046803345015" fill="#ffaa0f" stroke="none" /><path d="M 118.30583269289576 110.29060199501025 l 13.076891693911369 7.351159054683244 a36.00148778693432,36.00148778693432 0 0,0 -0.308323605429744,0.5375881947408023 l -12.948416092329245 -7.575167095282361" fill="#ffab0f" stroke="none" /><path d="M 118.12598468904814 110.60418214915192 l 16.20918822213339 9.482805339742173 a39.779280602088846,39.779280602088846 0 0,0 -0.3508515961177806,0.5880474560395037 l -16.04355575031738 -9.76041488966778" fill="#ffdd14" stroke="none" /><path d="M 117.94076556474637 110.91462005526583 l 12.459274406143084 7.579846345830783 a35.58381257949979,35.58381257949979 0 0,0 -0.32285593103917465,0.520546560401565 l -12.326953835435946 -7.7931892375976215" fill="#ffa60f" stroke="none" /><path d="M 117.75023020441432 111.22182372390056 l 7.938832322365727 5.018987126884515 a30.39229952793624,30.39229952793624 0 0,0 -0.2833649732551374,0.43978873120272594 l -7.851262485733539 -5.154897458008694" fill="#ff5e08" stroke="none" /><path d="M 117.55443506779139 111.5257021239791 l 8.16716776969523 5.3623111508032855 a30.770210348624936,30.770210348624936 0 0,0 -0.2945103202825003,0.44025296913734585 l -8.073654344002009 -5.502101034146437" fill="#ff6309" stroke="none" /><path d="M 117.35343817320211 111.8261652097733 l 12.335409596064112 8.406437407807283 a35.927508827465225,35.927508827465225 0 0,0 -0.35266971798181074,0.5080470321032755 l -12.188878970920166 -8.617525702097577" fill="#ffaa0f" stroke="none" /><path d="M 117.14729908036423 112.12312394758627 l 5.139399151892154 3.6335502543287346 a27.29413306923219,27.29413306923219 0 0,0 -0.2745272597052928,0.38129435289798563 l -5.076092099811259 -3.721478212677851" fill="#ff3104" stroke="none" /><path d="M 116.93607887273984 112.41649034213515 l 8.55258460994901 6.270228487223979 a31.604832332117834,31.604832332117834 0 0,0 -0.3254375671338648,0.4359768034229579 l -8.443385776120053 -6.416518170156252" fill="#ff6f0a" stroke="none" /><path d="M 116.0416608686014 113.55231037782055 l 6.843569728276083 5.7815822070760845 a29.958858155086258,29.958858155086258 0 0,0 -0.3361918728072684,0.3910671001562171 l -6.743035345898035 -5.89852640639383" fill="#ff5708" stroke="none" /><path d="M 115.32070863581623 114.36230785411682 l 6.595892561162618 6.183280537992529 a30.040948893225618,30.040948893225618 0 0,0 -0.3569057113913876,0.37421421150363954 l -6.488480298392266 -6.295901866078675" fill="#ff5908" stroke="none" /><path d="M 114.55890576462653 115.13401014063108 l 6.199611209491211 6.4445076044365015 a29.94241899110576,29.94241899110576 0 0,0 -0.3745143095533157,0.3541266556872287 l -6.087761065547088 -6.550268896869651" fill="#ff5708" stroke="none" /><path d="M 114.0293411484842 115.62618273729858 l 10.242163357775393 11.407942437208034 a36.33111414405388,36.33111414405388 0 0,0 -0.46894411029378263,0.4137886541374841 l -10.044276894575022 -11.582554233117808" fill="#ffb010" stroke="none" /><path d="M 112.34349029814194 116.9893568818739 l 5.2217998090065105 7.187190849436386 a29.88385645716783,29.88385645716783 0 0,0 -0.41876201399195917,0.29877557816219363 l -5.097310467165667 -7.276010689442799" fill="#ff5608" stroke="none" /><line stroke="#e1ed5e" stroke-width="0.3" x1="143.8653032363475" x2="146.44561519142675" y1="172.8068346515853" y2="177.08958963109032" /><path d="M 144.38136562736335 173.6633856474863 a86.0,86.0 0 0,1 -40.68145358897372,12.25698825130547" fill="none" id="id18" stroke="none" /><text fill="#e1ed5e" style="font-size:6.75px; font-family:Arial;" text-anchor="middle"><textPath startOffset="21.466115282336833" xlink:href="#id18">June</textPath></text><path d="M 110.21172684928248 118.3499491758327 l 4.111403605856794 7.387981320133764 a29.454933920315266,29.454933920315266 0 0,0 -0.4451582906773533,0.24273579365279943 l -3.9836225033107917 -7.457657765546333" fill="#ff5007" stroke="none" /><path d="M 109.89434966115114 118.52300852407294 l 9.27949229066238 17.371946685277216 a40.69501228251906,40.69501228251906 0 0,0 -0.620713459804136,0.3247279454396955 l -8.979087928331749 -17.529104049661626" fill="#ffe915" stroke="none" /><path d="M 107.93186726928326 119.44442032107085 l 3.3575331364379646 8.230758701629457 a29.889230426011466,29.889230426011466 0 0,0 -0.4780553596869258,0.1902280935576462 l -3.2153567007091723 -8.287333639593172" fill="#ff5608" stroke="none" /><path d="M 107.59598834532513 119.57807347666477 l 5.336279921141709 13.753849484571784 a35.75277123258663,35.75277123258663 0 0,0 -0.5756703163849007,0.21766925550588134 l -5.098739383996533 -13.843666990184296" fill="#ffa80f" stroke="none" /><path d="M 105.18746579009965 120.34920634021253 l 5.8956966806799755 23.12742929378589 a44.867074078940774,44.867074078940774 0 0,0 -0.7500209037426274,0.18433689022201016 l -5.496722492194137 -23.22548744232193" fill="#e1ff1b" stroke="none" /><path d="M 103.7750983002368 120.6578951692458 l 0.843279747403902 4.614551260592371 a25.690970482641756,25.690970482641756 0 0,0 -0.43570788387019366,0.07575340054571664 l -0.7637228920616584 -4.628383239659094" fill="#ff1902" stroke="none" /><path d="M 103.41894727170886 120.7198165907248 l 2.4063954351970476 14.583457450374517 a35.78066203515327,35.78066203515327 0 0,0 -0.6085509169190969,0.09504313774104765 l -2.155008654669434 -14.622718895462672" fill="#ffa80f" stroke="none" /><line stroke="#e1ed5e" stroke-width="0.3" x1="102.19456741930631" x2="102.32365962044197" y1="184.97166512339345" y2="189.96999836594603" /><path d="M 102.22038585953345 185.97133177190398 a86.0,86.0 0 0,1 -42.740103519485714,-10.115201625700543" fill="none" id="id19" stroke="none" /><text fill="#e1ed5e" style="font-size:6.75px; font-family:Arial;" text-anchor="middle"><textPath startOffset="22.20632615414155" xlink:href="#id19">July</textPath></text><path d="M 100.54218724476979 120.99299961872073 l 0.38163552612240126 14.776582318493132 a35.78150975678745,35.78150975678745 0 0,0 -0.6158514277429421,0.010602440830837154 l -0.1272244084867912 -14.780962236603129" fill="#ffa80f" stroke="none" /><path d="M 100.18074693466247 120.99922214144158 l 0.12712030773471716 14.768867786304561 a35.76941485848316,35.76941485848316 0 0,0 -0.6157344847943351,0.0 l 0.127120307734707 -14.768867786304561" fill="#ffa80f" stroke="none" /><path d="M 98.01472825383883 120.90594882070398 l -1.6828624485815524 17.72142090389385 a38.80114560565729,38.80114560565729 0 0,0 -0.6643631987692612,-0.06886396196965863 l 1.987658243956407 -17.68982757346843" fill="#ffd013" stroke="none" /><path d="M 97.65516085044442 120.86867818915974 l -1.0455914448594772 9.305589845788166 a30.36414779078156,30.36414779078156 0 0,0 -0.5188980935488686,-0.06283133275970415 l 1.2056169614597352 -9.286212984303113" fill="#ff5d08" stroke="none" /><path d="M 97.2962882734958 120.8252237178851 l -1.2134431329360575 9.346493734743795 a30.4249344491341,30.4249344491341 0 0,0 -0.5187761495833221,-0.07189764723320444 l 1.3741478737062107 -9.324221522017986" fill="#ff5e08" stroke="none" /><path d="M 95.51606077576429 120.51570834832081 l -2.129737593663537 9.744350479572608 a30.97437459125186,30.97437459125186 0 0,0 -0.519897282313046,-0.11832692881421562 l 2.2971550253694457 -9.706246817180707" fill="#ff6609" stroke="none" /><path d="M 95.16358092515715 120.4354850818985 l -3.5073435518908176 14.819697326184789 a36.22908032780439,36.22908032780439 0 0,0 -0.6056237926595286,-0.14884759348204257 l 3.7619206292935568 -14.757128474388717" fill="#ffae10" stroke="none" /><path d="M 93.08242187328487 119.8279376855182 l -9.705475778265033 27.818922376396333 a50.463345062406844,50.463345062406844 0 0,0 -0.8176994871395007,-0.2931979437339697 l 10.18289482603426 -27.647736891622404" fill="#9fff22" stroke="none" /><path d="M 92.7421414339146 119.70592522655815 l -3.8798876856451576 10.53434369443837 a32.22612691562742,32.22612691562742 0 0,0 -0.5188863418920097,-0.19619841516422343 l 4.06064424829745 -10.465997029167513" fill="#ff770b" stroke="none" /><path d="M 90.7491055286396 118.85261126421891 l -6.514207440834821 13.27545362848371 a35.78758153398483,35.78758153398483 0 0,0 -0.5506960536281809,-0.276130433551712 l 6.741757402145763 -13.161355354022696" fill="#ffa80f" stroke="none" /><path d="M 90.42595943632237 118.69057910512821 l -6.750444579056352 13.178314585202854 a35.80663625951153,35.80663625951153 0 0,0 -0.5461519687545807,-0.2857208973162628 l 6.976287450337428 -13.060164268941874" fill="#ffa90f" stroke="none" /><line stroke="#e1ed5e" stroke-width="0.3" x1="58.666819895761336" x2="56.23545636021788" y1="174.27360380694188" y2="178.64263932499728" /><path d="M 58.180547188652646 175.14741091055294 a86.0,86.0 0 0,1 -31.652253787137756,-30.449443065178592" fill="none" id="id20" stroke="none" /><text fill="#e1ed5e" style="font-size:6.75px; font-family:Arial;" text-anchor="middle"><textPath startOffset="22.20632615414155" xlink:href="#id20">August</textPath></text><path d="M 88.54995079064634 117.60387380957326 l -8.044678857476073 12.368288455027937 a35.754369428298176,35.754369428298176 0 0,0 -0.5130331494926023,-0.34001039664110533 l 8.256386705708637 -12.227980037295513" fill="#ffa80f" stroke="none" /><path d="M 88.24862548938628 117.40417183066458 l -5.816898918565333 8.615018456681872 a31.39494377270872,31.39494377270872 0 0,0 -0.44527466001679794,-0.30626397139067346 l 5.964330463205021 -8.513613695926097" fill="#ff6c09" stroke="none" /><path d="M 87.65650970185807 116.9893568818739 l -6.162463617947393 8.481903509304171 a31.484209316093974,31.484209316093974 0 0,0 -0.435704020083084,-0.3223234178454742 l 6.307552608449041 -8.37457014271893" fill="#ff6d0a" stroke="none" /><path d="M 86.79598089348748 116.32954008644616 l -5.592670791916089 6.916510885829182 a29.89472256006588,29.89472256006588 0 0,0 -0.39735762216111337,-0.3269982710694043 l 5.710898542621892 -6.819217495902597" fill="#ff5608" stroke="none" /><path d="M 86.51685102203217 116.09983520530335 l -9.471473149965467 11.309610026194516 a35.75181624665642,35.75181624665642 0 0,0 -0.46840756783468857,-0.399187091193893 l 9.664746194377212 -11.144898544777671" fill="#ffa80f" stroke="none" /><path d="M 86.24171649860922 115.8653595955263 l -9.705427710880821 11.191810420678168 a35.8139106094081,35.8139106094081 0 0,0 -0.4622683020476169,-0.4078980295431582 l 9.896638365835026 -11.023089249362721" fill="#ffa90f" stroke="none" /><path d="M 85.44109423537348 115.13401014063109 l -6.164900924635761 6.408426197531406 a29.89235231756939,29.89235231756939 0 0,0 -0.36774717356398046,-0.359918009852367 l 6.274298050575536 -6.30135808475647" fill="#ff5608" stroke="none" /><path d="M 84.67929136418377 114.36230785411682 l -10.758629254677238 10.085613473697506 a35.746786178026234,35.746786178026234 0 0,0 -0.41696684175791204,-0.45253515477680617 l 10.93064250443088 -9.898927064119356" fill="#ffa80f" stroke="none" /><path d="M 84.43433777217949 114.09645910891817 l -11.05254004237231 10.009319004656136 a35.91124100553719,35.91124100553719 0 0,0 -0.4109975701822178,-0.4617601270550526 l 11.223196462202868 -9.81758470786022" fill="#ffaa0f" stroke="none" /><path d="M 83.50135304334701 112.99209946851258 l -5.512755680419996 4.341099626763215 a28.016809899198257,28.016809899198257 0 0,0 -0.29510130252380906,-0.3814582135679259 l 5.586663800161873 -4.245563419082036" fill="#ff3b05" stroke="none" /><path d="M 83.28015986056508 112.70617746262583 l -7.728726549412109 5.873415671320948 a30.707225439007075,30.707225439007075 0 0,0 -0.3161948348685405,-0.4235946531278326 l 7.828682650975734 -5.739508138683807" fill="#ff6209" stroke="none" /><path d="M 83.06392112726016 112.41649034213515 l -12.237779231822428 8.971986301131546 a36.17431312167099,36.17431312167099 0 0,0 -0.3638450442013873,-0.5053489436088667 l 12.390404068399421 -8.760003752071542" fill="#ffad10" stroke="none" /><path d="M 82.85270091963577 112.12312394758628 l -12.06035946034703 8.52666253180709 a35.77011321026704,35.77011321026704 0 0,0 -0.35112469942248664,-0.5058213176356461 l 12.205345066931649 -8.317799951984432" fill="#ffa80f" stroke="none" /><path d="M 82.6465618267979 111.8261652097733 l -4.945367218711381 3.3702099357919986 a26.984561131713523,26.984561131713523 0 0,0 -0.2582768090156536,-0.38608878602077673 l 5.002647133137764 -3.284584235565401" fill="#ff2c04" stroke="none" /><path d="M 82.44556493220864 111.52570212397912 l -12.947606575577616 8.501000233404636 a36.4889483504945,36.4889483504945 0 0,0 -0.340207553691095,-0.5280096783474847 l 13.092018992645757 -8.276868955135702" fill="#ffb210" stroke="none" /><path d="M 82.24976979558568 111.22182372390057 l -8.40192267434002 5.311756191750072 a30.940173965589544,30.940173965589544 0 0,0 -0.2807236759652254,-0.4526159500202881 l 8.4921109899732 -5.166343910364519" fill="#ff6509" stroke="none" /><path d="M 82.05923443525364 110.91462005526583 l -5.126131221281409 3.1185834535212806 a27.000232000045727,27.000232000045727 0 0,0 -0.23814092033300224,-0.3991378803182578 l 5.1790530173126434 -3.029883479316912" fill="#ff2d04" stroke="none" /><line stroke="#e1ed5e" stroke-width="0.3" x1="26.63291911575756" x2="22.317208475507996" y1="142.92168965132927" y2="145.44649492493687" /><path d="M 25.769776987707644 143.4266507060508 a86.0,86.0 0 0,1 -11.730757126820373,-40.83630448921669" fill="none" id="id21" stroke="none" /><text fill="#e1ed5e" style="font-size:6.75px; font-family:Arial;" text-anchor="middle"><textPath startOffset="21.46611528233685" xlink:href="#id21">September</textPath></text><path d="M 81.87401531095188 110.60418214915194 l -7.682117787338184 4.494242806979448 a29.900177082880106,29.900177082880106 0 0,0 -0.25607081728792497,-0.44648105421492673 l 7.758340600778486 -4.3613419069062145" fill="#ff5708" stroke="none" /><path d="M 81.69416730710424 110.29060199501025 l -12.8278911021091 7.211183669255763 a35.715840446244,35.715840446244 0 0,0 -0.2966516728614585,-0.5385089545466819 l 12.950119184422075 -6.9893041963112585" fill="#ffa70f" stroke="none" /><path d="M 81.51974371655577 109.97397251340807 l -25.923842068106826 13.99134753671499 a50.458502906042014,50.458502906042014 0 0,0 -0.4059446430810998,-0.7678942804763855 l 26.16083921941281 -13.543038241152479" fill="#9fff22" stroke="none" /><path d="M 81.35079622478065 109.6543875284942 l -7.997946328201195 4.140405896961322 a30.006114948210413,30.006114948210413 0 0,0 -0.23350662949441583,-0.46073073277216925 l 8.068031627481878 -4.002120952486468" fill="#ff5808" stroke="none" /><path d="M 81.18737489456691 109.33194174019688 l -5.485754246032126 2.7211906226858797 a27.123591924095944,27.123591924095944 0 0,0 -0.20387479305380254,-0.42004245940984825 l 5.531782295700648 -2.6263592073107467" fill="#ff2e04" stroke="none" /><path d="M 81.02952815118164 109.00673069616217 l -8.412347410574235 3.9939832943226814 a30.31233007960541,30.31233007960541 0 0,0 -0.21972886004026573,-0.473276416529667 l 8.479850887454328 -3.8485868105141874" fill="#ff5c08" stroke="none" /><path d="M 80.87730276802145 108.67885076344099 l -8.10788972467201 3.6797719523159795 a29.90385295299138,29.90385295299138 0 0,0 -0.20869886910217758,-0.4705608549330386 l 8.170029678505466 -3.539662760890245" fill="#ff5708" stroke="none" /><path d="M 80.73074385275274 108.34839909993369 l -5.629479975245529 2.4389704096153366 a27.135113809104897,27.135113809104897 0 0,0 -0.18199781691654843,-0.43018907790471483 l 5.670628773354384 -2.341706806044463" fill="#ff2f04" stroke="none" /><path d="M 80.58989483394504 108.01547362559985 l -8.219225162660301 3.3941589677414594 a29.89246745132126,29.89246745132126 0 0,0 -0.19230448600331562,-0.47728396348411345 l 8.276432262921004 -3.252175636414541" fill="#ff5608" stroke="none" /><path d="M 80.45479744820244 107.68017299344265 l -41.07202400277822 16.139011539849957 a65.12911566265747,65.12911566265747 0 0,0 -0.40102701048559974,-1.0469549790814583 l 41.343745292857335 -15.429632993935341" fill="#35ff63" stroke="none" /><path d="M 80.32549172779594 107.34259656027581 l -5.60770822698817 2.0928166828283845 a26.985505260790905,26.985505260790905 0 0,0 -0.1586692954392172,-0.4365897552979393 l 5.642901783432611 -1.995979130524328" fill="#ff2c04" stroke="none" /><path d="M 80.20201598880116 107.00284435728193 l -5.73186139894574 2.027445482915041 a27.079865975736375,27.079865975736375 0 0,0 -0.15165907312262358,-0.4407922565328612 l 5.765911303011592 -1.9284805232928828" fill="#ff2e04" stroke="none" /><path d="M 80.0844068197444 106.66101706037122 l -5.683702816901117 1.9009848758605958 a26.993181226118597,26.993181226118597 0 0,0 -0.14358797679429275,-0.44191835231609905 l 5.715583044711659 -1.8028676235666934" fill="#ff2c04" stroke="none" /><path d="M 79.97269907076064 106.31721596034903 l -5.954763300815016 1.8783123046345522 a27.24397814557954,27.24397814557954 0 0,0 -0.13722302372525702,-0.44845278120515836 l 5.986213097046404 -1.775532550877346" fill="#ff3004" stroke="none" /><path d="M 79.86692584326677 105.97154293290107 l -3.6177559799763572 1.0730395659901448 a24.77353577442099,24.77353577442099 0 0,0 -0.11774196574536794,-0.4098752290543825 l 3.635690582607829 -1.0106068614311665" fill="#ff0b01" stroke="none" /><path d="M 79.76711848015287 105.62410040840567 l -8.796344653458624 2.4451052861385754 a30.12985318188266,30.12985318188266 0 0,0 -0.13459711840630031,-0.5008859489469083 l 8.837129848206699 -2.2933284040161284" fill="#ff5a08" stroke="none" /><path d="M 79.67330655649465 105.27499134158121 l -60.98008033051604 15.824974024743632 a84.0,84.0 0 0,0 -0.3511547428197659,-1.4026886424104326 l 61.24344638763086 -14.772957542935808" fill="#4dd2ff" stroke="none" /><path d="M 79.58551787078972 104.9243191809786 l -6.137192056005295 1.4803947691376225 a27.313215900377916,27.313215900377916 0 0,0 -0.10631270525302157,-0.4579923517680165 l 6.1617653271888715 -1.3745337600210317" fill="#ff3104" stroke="none" /><path d="M 79.50377843672027 104.57218783832718 l -5.8967120882065585 1.3154070965019709 a27.041647894467957,27.041647894467957 0 0,0 -0.09743487059095812,-0.45518327766230543 l 5.918480997521957 -1.2137099994235017" fill="#ff2d04" stroke="none" /><path d="M 79.29508885075956 103.50808413554451 l -6.230249223481081 1.055606484077295 a27.319043474760452,27.319043474760452 0 0,0 -0.07456569735718555,-0.46432066862171834 l 6.2474966751995575 -0.9482065857623629" fill="#ff3104" stroke="none" /><path d="M 79.18660465613746 102.79330883721812 l -29.841015444034873 4.004881028503833 a51.108558165139655,51.108558165139655 0 0,0 -0.1095146658095696,-0.87293963894309 l 29.905531619091292 -3.490623635273334" fill="#98ff23" stroke="none" /><path d="M 79.10278846688536 102.07522291339032 l -10.19180456889224 1.0121095025834246 a31.241935657663173,31.241935657663173 0 0,0 -0.048537179234137945,-0.5356037283108064 l 10.207716344403451 -0.8365243857240521" fill="#ff6a09" stroke="none" /><path d="M 79.07016306316243 101.71520430193888 l -6.047587313267896 0.4956009837712283 a27.06786063178068,27.06786063178068 0 0,0 -0.034058382261228745,-0.46469956644374755 l 6.05522225419346 -0.39142828083072007" fill="#ff2e04" stroke="none" /><path d="M 79.04373962182676 101.35467743843564 l -5.932178681458854 0.38347436400967816 a26.944560244173452,26.944560244173452 0 0,0 -0.025935613631689867,-0.46309780395361555 l 5.937900645978075 -0.28130484372062503" fill="#ff2c04" stroke="none" /><path d="M 79.0235259727143 100.99374915477108 l -62.34019172647067 2.953332993708259 a83.41010879869421,83.41010879869421 0 0,0 -0.05559826770623826,-1.434744244148875 l 62.38179212702811 -1.8798115025453872" fill="#4cd8ff" stroke="none" /><line stroke="#e1ed5e" stroke-width="0.3" x1="15.007084014347285" x2="10.007500721073583" y1="101.09737516637583" y2="101.16192664675087" /><path d="M 14.007167355692545 101.11028546245083 a86.0,86.0 0 0,1 10.666146001902534,-42.60595125391555" fill="none" id="id22" stroke="none" /><text fill="#e1ed5e" style="font-size:6.75px; font-family:Arial;" text-anchor="middle"><textPath startOffset="22.20632615414155" xlink:href="#id22">October</textPath></text><line stroke="#e1ed5e" stroke-width="0.3" x1="26.266209847984243" x2="21.928928074336255" y1="57.711370442889674" y2="55.22380399835377" /><path d="M 25.398753493254645 57.213857153982495 a86.0,86.0 0 0,1 29.58750427330803,-30.492523968695096" fill="none" id="id23" stroke="none" /><text fill="#e1ed5e" style="font-size:6.75px; font-family:Arial;" text-anchor="middle"><textPath startOffset="21.46611528233685" xlink:href="#id23">November</textPath></text><line stroke="#e1ed5e" stroke-width="0.3" x1="56.762969772571076" x2="54.21961505331055" y1="26.818313649435495" y2="22.513508569990535" /><path d="M 56.25429882871897 25.957352633546506 a86.0,86.0 0 0,1 42.265352541879196,-11.944610805530505" fill="none" id="id24" stroke="none" /><text fill="#e1ed5e" style="font-size:6.75px; font-family:Arial;" text-anchor="middle"><textPath startOffset="22.20632615414155" xlink:href="#id24">December</textPath></text></svg>